<svg xmlns="http://www.w3.org/2000/svg" xmlns:xlink="http://www.w3.org/1999/xlink" width="500" zoomAndPan="magnify" viewBox="0 0 375 374.999991" height="500" preserveAspectRatio="xMidYMid meet" version="1.0"><defs><clipPath id="f757ff662e"><path d="M 51.058594 13.203125 L 323.921875 13.203125 L 323.921875 361.734375 L 51.058594 361.734375 Z M 51.058594 13.203125 " clip-rule="nonzero"/></clipPath></defs><g clip-path="url(#f757ff662e)"><path fill="#6da3bb" d="M 323.707031 203.042969 C 322.960938 199.347656 320.246094 196.316406 317.125 194.203125 C 314.214844 192.238281 310.191406 190.96875 307.304688 192.964844 C 306 193.867188 305.167969 195.285156 304.394531 196.667969 C 299.464844 205.492188 295.28125 214.734375 291.910156 224.261719 C 290.375 228.601562 288.355469 233.636719 283.898438 234.78125 C 282.394531 228.085938 280.164062 221.554688 277.253906 215.34375 C 275.675781 211.960938 273.511719 208.351562 269.902344 207.40625 C 265.273438 206.191406 260.929688 209.902344 257.570312 213.316406 C 256.300781 214.609375 254.972656 216.003906 254.578125 217.769531 C 253.902344 220.785156 256.101562 223.59375 258.011719 226.019531 C 266.558594 236.859375 272.054688 250.289062 272.414062 264.085938 C 272.78125 277.882812 267.757812 291.953125 257.933594 301.648438 C 247.113281 312.332031 230.917969 317.738281 223.476562 331 C 223.425781 331.089844 223.378906 331.183594 223.332031 331.28125 C 219.625 324.648438 219.03125 315.125 222.695312 308.617188 C 226.585938 301.699219 232.355469 296.015625 236.519531 289.261719 C 246.582031 272.953125 246.246094 252.550781 245.886719 233.394531 C 245.53125 214.320312 245.503906 194.9375 250.679688 176.570312 C 255.859375 158.210938 266.960938 140.703125 283.90625 131.9375 C 288.859375 129.378906 294.226562 127.59375 298.847656 124.476562 C 303.464844 121.363281 307.394531 116.460938 307.386719 110.890625 C 307.382812 107.617188 306.03125 104.511719 304.707031 101.515625 C 304.09375 100.132812 303.351562 98.617188 301.9375 98.078125 C 300.019531 97.351562 298.011719 98.773438 296.457031 100.117188 C 281.523438 112.988281 266.933594 126.257812 252.707031 139.90625 C 251.921875 127.050781 249.9375 114.757812 249.152344 101.902344 C 248.070312 84.21875 247.003906 66.320312 250.261719 48.902344 C 251.261719 43.5625 252.667969 38.285156 253.265625 32.882812 C 253.558594 30.25 253.648438 27.515625 252.785156 25.011719 C 250.523438 18.433594 242.871094 15.722656 236.167969 13.867188 C 234.101562 13.292969 231.769531 12.746094 229.90625 13.8125 C 227.289062 15.308594 227.132812 18.964844 227.363281 21.972656 C 228.511719 37.144531 231.101562 52.203125 235.082031 66.890625 C 229.347656 63.121094 221.332031 59.246094 214.949219 56.726562 C 211.867188 55.511719 208.46875 54.441406 205.296875 55.394531 C 199.023438 57.285156 197.542969 65.34375 197.183594 71.886719 C 197.125 72.949219 197.140625 74.183594 197.96875 74.859375 C 198.488281 75.28125 199.199219 75.359375 199.867188 75.402344 C 208.78125 76.003906 218.730469 74.03125 225.90625 79.355469 C 230.847656 83.023438 233.054688 89.253906 234.703125 95.183594 C 238.097656 107.371094 240.261719 119.898438 241.152344 132.515625 C 241.78125 141.464844 241.769531 150.445312 241.761719 159.414062 C 241.746094 170.441406 241.734375 181.464844 241.722656 192.492188 C 241.722656 194.066406 238.03125 193.488281 236.472656 193.226562 C 231.136719 192.339844 225.527344 191.128906 221.570312 187.441406 C 218.644531 184.710938 216.945312 180.902344 214.226562 177.96875 C 211.507812 175.03125 206.863281 173.066406 203.539062 175.304688 C 201.515625 176.667969 200.621094 179.160156 199.925781 181.503906 C 198.980469 184.667969 198.164062 187.867188 197.472656 191.101562 C 197.207031 192.339844 197.035156 193.824219 197.960938 194.6875 C 198.597656 195.273438 199.539062 195.347656 200.402344 195.40625 C 209.785156 196.042969 219.035156 198.550781 227.453125 202.742188 C 230.722656 204.371094 234.191406 206.308594 237.796875 205.730469 C 239.957031 218.734375 236.347656 233.640625 230.445312 245.425781 C 224.285156 257.722656 214.0625 268.101562 210.601562 281.414062 C 209.425781 285.929688 209.074219 290.664062 207.496094 295.058594 C 205.917969 299.453125 202.722656 303.671875 198.167969 304.710938 C 190.746094 306.40625 184.488281 299.34375 180.144531 293.085938 C 175.394531 286.246094 170.4375 278.667969 171.074219 270.367188 C 171.417969 265.882812 173.390625 261.710938 175.332031 257.652344 C 178.535156 250.953125 181.734375 244.257812 184.9375 237.558594 C 190.832031 225.230469 186.519531 209.527344 186.742188 195.863281 C 186.863281 188.0625 186.992188 180.238281 188.011719 172.5 C 189.375 162.101562 192.296875 151.265625 188.753906 141.398438 C 186.320312 134.632812 181.078125 129.164062 178.675781 122.386719 C 173.21875 107.003906 183.609375 90.894531 185.914062 74.734375 C 186.5625 70.195312 186.496094 65.308594 184.167969 61.355469 C 181.847656 57.40625 176.695312 54.847656 172.496094 56.683594 C 167.503906 58.867188 166.449219 65.355469 166.09375 70.789062 C 165.269531 83.34375 164.453125 95.898438 163.628906 108.453125 C 163.503906 110.402344 162.804688 112.9375 160.847656 112.980469 C 160.191406 112.992188 159.574219 112.679688 159.011719 112.339844 C 152.53125 108.433594 149.765625 100.386719 149.144531 92.84375 C 148.523438 85.300781 149.542969 77.648438 148.34375 70.175781 C 147.144531 62.703125 142.976562 54.972656 135.773438 52.660156 C 128.957031 50.472656 121.683594 53.675781 115.34375 57 C 114.53125 57.425781 113.640625 57.953125 113.417969 58.84375 C 113.101562 60.113281 114.296875 61.203125 115.332031 61.996094 C 123.726562 68.441406 130.210938 77.339844 133.769531 87.304688 C 136.402344 94.691406 137.539062 102.765625 141.878906 109.296875 C 147.316406 117.464844 156.804688 121.808594 164.144531 128.316406 C 170.285156 133.757812 174.960938 140.839844 177.554688 148.625 C 180.382812 157.097656 180.738281 166.167969 181.066406 175.09375 C 181.714844 192.566406 182.363281 210.042969 183.011719 227.515625 C 183.078125 229.417969 183.113281 231.457031 182.070312 233.046875 C 179.957031 236.273438 174.625 235.460938 172.101562 232.542969 C 169.574219 229.628906 169.015625 225.558594 168.3125 221.765625 C 166.292969 210.820312 162.019531 199.941406 154.085938 192.132812 C 149.027344 187.15625 142.601562 183.523438 138.460938 177.761719 C 133.554688 170.925781 132.566406 162.109375 131.976562 153.71875 C 131.535156 147.5 131.226562 141.269531 131.113281 135.035156 C 131.027344 130.386719 131.007812 125.535156 128.882812 121.402344 C 126.753906 117.265625 121.769531 114.179688 117.429688 115.847656 C 111.3125 118.199219 111.40625 126.9375 113.582031 133.117188 C 117.296875 143.660156 123.960938 154.441406 120.871094 165.1875 C 114.664062 163.621094 112.417969 156.21875 110.386719 150.144531 C 107.589844 141.765625 103.25 133.898438 97.652344 127.058594 C 96.6875 125.882812 95.621094 124.683594 94.191406 124.152344 C 92.816406 123.640625 91.296875 123.8125 89.839844 123.988281 C 83.097656 124.8125 75.992188 125.78125 70.636719 129.953125 C 69.25 131.035156 67.949219 132.441406 67.722656 134.183594 C 67.132812 138.726562 73.203125 140.570312 77.613281 141.816406 C 97.78125 147.535156 105.425781 172.726562 123.167969 183.886719 C 128.882812 187.484375 135.492188 189.496094 141.148438 193.1875 C 150.15625 199.070312 156.082031 208.847656 159.183594 219.144531 C 162.289062 229.445312 162.824219 240.324219 162.964844 251.082031 C 163.027344 255.800781 162.996094 260.65625 161.222656 265.03125 C 159.453125 269.40625 155.53125 273.234375 150.816406 273.484375 C 146.023438 273.742188 141.804688 270.382812 138.695312 266.726562 C 127.570312 253.640625 124.738281 234.0625 131.703125 218.359375 C 133.132812 215.136719 134.972656 211.941406 135.097656 208.417969 C 135.269531 203.585938 132.070312 199.132812 128.035156 196.464844 C 124 193.804688 119.203125 192.59375 114.507812 191.433594 C 114.488281 196.691406 114.472656 201.953125 114.457031 207.210938 C 114.449219 209.730469 114.335938 212.515625 112.597656 214.332031 C 110.691406 216.320312 107.351562 216.359375 104.960938 214.988281 C 102.574219 213.621094 101.011719 211.152344 99.960938 208.605469 C 95.933594 198.878906 98.207031 187.632812 95.441406 177.472656 C 94.855469 175.324219 93.992188 173.15625 92.34375 171.65625 C 90.195312 169.699219 87.117188 169.214844 84.226562 168.964844 C 79.101562 168.519531 73.140625 168.902344 70.039062 173.003906 C 65.886719 178.492188 69.757812 186.402344 74.464844 191.417969 C 79.175781 196.4375 85.140625 201.464844 85.382812 208.34375 C 81.660156 209.527344 77.773438 206.820312 75.476562 203.664062 C 73.179688 200.503906 71.679688 196.714844 68.789062 194.089844 C 66.613281 192.113281 63.730469 190.9375 60.792969 190.828125 C 58.246094 190.734375 55.527344 191.53125 53.921875 193.515625 C 52.316406 195.496094 50.257812 193.855469 51.378906 196.144531 C 55.265625 204.066406 59.199219 212.070312 64.765625 218.917969 C 70.332031 225.765625 77.757812 231.460938 86.390625 233.285156 C 92.382812 234.550781 98.730469 233.929688 104.542969 235.84375 C 116.382812 239.746094 122.476562 252.664062 126.046875 264.605469 C 129.621094 276.550781 132.519531 289.6875 141.957031 297.832031 C 151.527344 306.089844 165.824219 307.261719 175.082031 315.863281 C 181.945312 322.246094 184.925781 331.660156 187.542969 340.65625 C 188.519531 344.015625 189.496094 347.414062 191.238281 350.445312 C 194.972656 356.9375 202.164062 361.1875 209.628906 361.742188 C 217.09375 362.304688 224.664062 359.308594 230.042969 354.097656 C 234.671875 349.609375 237.660156 343.722656 241.699219 338.699219 C 251.289062 326.765625 266.90625 319.492188 272.726562 305.332031 C 275.898438 297.617188 275.644531 288.859375 278.542969 281.035156 C 280.210938 276.542969 282.867188 272.496094 285.5 268.496094 C 296.558594 251.691406 307.617188 234.890625 318.675781 218.085938 C 321.664062 213.546875 324.789062 208.367188 323.707031 203.042969 " fill-opacity="1" fill-rule="nonzero"/></g></svg>