<svg xmlns="http://www.w3.org/2000/svg" xmlns:xlink="http://www.w3.org/1999/xlink" width="145" zoomAndPan="magnify" viewBox="0 0 108.75 37.5" height="50" preserveAspectRatio="xMidYMid meet" version="1.0"><defs><g/><clipPath id="ce0afda135"><path d="M 0.59375 0 L 107 0 L 107 35 L 0.59375 35 Z M 0.59375 0 " clip-rule="nonzero"/></clipPath><clipPath id="26cd327552"><path d="M 76 4 L 85.988281 4 L 85.988281 16 L 76 16 Z M 76 4 " clip-rule="nonzero"/></clipPath><clipPath id="342424ff9a"><rect x="0" width="86" y="0" height="21"/></clipPath><clipPath id="4c43fc3eb0"><path d="M 0.59375 0 L 25 0 L 25 34.578125 L 0.59375 34.578125 Z M 0.59375 0 " clip-rule="nonzero"/></clipPath><clipPath id="de46d86d6a"><rect x="0" width="25" y="0" height="35"/></clipPath><clipPath id="b9325c3a24"><path d="M 12.230469 14.808594 L 17.773438 14.808594 L 17.773438 19.871094 L 12.230469 19.871094 Z M 12.230469 14.808594 " clip-rule="nonzero"/></clipPath><clipPath id="8a569cffbd"><path d="M 13.34375 16.050781 C 15.425781 15.84375 15.148438 16.050781 15.148438 16.085938 C 15.183594 16.121094 15.703125 15.667969 15.980469 15.667969 C 16.328125 15.632812 16.886719 15.84375 17.09375 16.121094 C 17.300781 16.328125 17.40625 16.675781 17.40625 16.953125 C 17.40625 17.265625 17.300781 17.648438 17.09375 17.820312 C 16.78125 18.066406 16.050781 18.167969 15.566406 18.101562 C 15.011719 18.066406 14.316406 17.855469 14.003906 17.472656 C 13.65625 17.128906 13.480469 16.292969 13.585938 15.84375 C 13.726562 15.460938 14.175781 15.078125 14.558594 14.9375 C 14.941406 14.765625 15.425781 14.800781 15.84375 14.90625 C 16.296875 15.007812 16.886719 15.320312 17.199219 15.703125 C 17.511719 16.085938 17.753906 16.640625 17.753906 17.195312 C 17.71875 17.855469 17.234375 18.933594 16.886719 19.351562 C 16.640625 19.628906 16.398438 19.730469 16.121094 19.800781 C 15.84375 19.871094 15.496094 19.835938 15.253906 19.699219 C 14.941406 19.523438 14.558594 19.003906 14.488281 18.65625 C 14.417969 18.378906 14.488281 18.03125 14.628906 17.785156 C 14.835938 17.507812 15.324219 17.128906 15.703125 17.09375 C 16.085938 17.058594 16.640625 17.300781 16.886719 17.578125 C 17.128906 17.855469 17.234375 18.480469 17.164062 18.828125 C 17.09375 19.140625 16.886719 19.382812 16.640625 19.558594 C 16.433594 19.730469 16.121094 19.871094 15.808594 19.835938 C 15.460938 19.800781 14.90625 19.523438 14.699219 19.210938 C 14.488281 18.898438 14.488281 18.34375 14.558594 17.925781 C 14.628906 17.472656 15.011719 16.640625 15.148438 16.640625 C 15.324219 16.675781 15.425781 18.03125 15.53125 18.03125 C 15.636719 18.03125 15.773438 17.195312 15.738281 16.78125 C 15.703125 16.292969 15.078125 15.5625 15.253906 15.390625 C 15.390625 15.21875 16.640625 15.667969 16.640625 15.773438 C 16.640625 15.875 15.183594 16.121094 15.148438 16.085938 C 15.148438 16.015625 15.703125 15.667969 15.980469 15.667969 C 16.328125 15.632812 16.886719 15.84375 17.09375 16.121094 C 17.300781 16.328125 17.40625 16.675781 17.40625 16.953125 C 17.40625 17.265625 17.371094 17.578125 17.09375 17.820312 C 16.503906 18.273438 14.105469 18.621094 13.34375 18.515625 C 12.960938 18.445312 12.71875 18.308594 12.542969 18.101562 C 12.371094 17.890625 12.230469 17.542969 12.265625 17.265625 C 12.265625 16.988281 12.371094 16.640625 12.578125 16.433594 C 12.753906 16.257812 13.34375 16.050781 13.34375 16.050781 " clip-rule="nonzero"/></clipPath><clipPath id="2cfe3736b2"><path d="M 0.230469 0.808594 L 5.773438 0.808594 L 5.773438 5.871094 L 0.230469 5.871094 Z M 0.230469 0.808594 " clip-rule="nonzero"/></clipPath><clipPath id="cabb486a44"><path d="M 1.34375 2.050781 C 3.425781 1.84375 3.148438 2.050781 3.148438 2.085938 C 3.183594 2.121094 3.703125 1.667969 3.980469 1.667969 C 4.328125 1.632812 4.886719 1.84375 5.09375 2.121094 C 5.300781 2.328125 5.40625 2.675781 5.40625 2.953125 C 5.40625 3.265625 5.300781 3.648438 5.09375 3.820312 C 4.78125 4.066406 4.050781 4.167969 3.566406 4.101562 C 3.011719 4.066406 2.316406 3.855469 2.003906 3.472656 C 1.65625 3.128906 1.480469 2.292969 1.585938 1.84375 C 1.726562 1.460938 2.175781 1.078125 2.558594 0.9375 C 2.941406 0.765625 3.425781 0.800781 3.84375 0.90625 C 4.296875 1.007812 4.886719 1.320312 5.199219 1.703125 C 5.511719 2.085938 5.753906 2.640625 5.753906 3.195312 C 5.71875 3.855469 5.234375 4.933594 4.886719 5.351562 C 4.640625 5.628906 4.398438 5.730469 4.121094 5.800781 C 3.84375 5.871094 3.496094 5.835938 3.253906 5.699219 C 2.941406 5.523438 2.558594 5.003906 2.488281 4.65625 C 2.417969 4.378906 2.488281 4.03125 2.628906 3.785156 C 2.835938 3.507812 3.324219 3.128906 3.703125 3.09375 C 4.085938 3.058594 4.640625 3.300781 4.886719 3.578125 C 5.128906 3.855469 5.234375 4.480469 5.164062 4.828125 C 5.09375 5.140625 4.886719 5.382812 4.640625 5.558594 C 4.433594 5.730469 4.121094 5.871094 3.808594 5.835938 C 3.460938 5.800781 2.90625 5.523438 2.699219 5.210938 C 2.488281 4.898438 2.488281 4.34375 2.558594 3.925781 C 2.628906 3.472656 3.011719 2.640625 3.148438 2.640625 C 3.324219 2.675781 3.425781 4.03125 3.53125 4.03125 C 3.636719 4.03125 3.773438 3.195312 3.738281 2.78125 C 3.703125 2.292969 3.078125 1.5625 3.253906 1.390625 C 3.390625 1.21875 4.640625 1.667969 4.640625 1.773438 C 4.640625 1.875 3.183594 2.121094 3.148438 2.085938 C 3.148438 2.015625 3.703125 1.667969 3.980469 1.667969 C 4.328125 1.632812 4.886719 1.84375 5.09375 2.121094 C 5.300781 2.328125 5.40625 2.675781 5.40625 2.953125 C 5.40625 3.265625 5.371094 3.578125 5.09375 3.820312 C 4.503906 4.273438 2.105469 4.621094 1.34375 4.515625 C 0.960938 4.445312 0.71875 4.308594 0.542969 4.101562 C 0.371094 3.890625 0.230469 3.542969 0.265625 3.265625 C 0.265625 2.988281 0.371094 2.640625 0.578125 2.433594 C 0.753906 2.257812 1.34375 2.050781 1.34375 2.050781 " clip-rule="nonzero"/></clipPath><clipPath id="5dc60783f1"><rect x="0" width="6" y="0" height="6"/></clipPath><clipPath id="de88c29662"><path d="M 13.585938 14.347656 L 17.492188 14.347656 L 17.492188 19.585938 L 13.585938 19.585938 Z M 13.585938 14.347656 " clip-rule="nonzero"/></clipPath><clipPath id="812a168355"><path d="M 14.105469 17.820312 C 15.183594 15.738281 15.773438 16.535156 15.738281 16.816406 C 15.738281 17.023438 15.425781 17.230469 15.183594 17.265625 C 14.871094 17.335938 14.246094 17.160156 14.003906 16.917969 C 13.757812 16.746094 13.621094 16.46875 13.621094 16.1875 C 13.585938 15.84375 13.792969 15.285156 14.003906 15.042969 C 14.210938 14.835938 14.523438 14.695312 14.765625 14.695312 C 15.042969 14.660156 15.355469 14.695312 15.601562 14.871094 C 15.878906 15.078125 16.191406 15.5625 16.226562 15.945312 C 16.226562 16.292969 15.980469 16.816406 15.667969 17.023438 C 15.390625 17.265625 14.800781 17.335938 14.453125 17.230469 C 14.140625 17.09375 13.726562 16.675781 13.621094 16.328125 C 13.550781 15.980469 13.65625 15.425781 13.898438 15.113281 C 14.210938 14.765625 14.941406 14.59375 15.460938 14.488281 C 15.949219 14.382812 16.503906 14.277344 16.851562 14.488281 C 17.199219 14.695312 17.441406 15.25 17.476562 15.738281 C 17.546875 16.433594 16.953125 17.578125 16.675781 18.238281 C 16.46875 18.691406 16.296875 19.070312 16.015625 19.316406 C 15.773438 19.488281 15.460938 19.59375 15.183594 19.558594 C 14.871094 19.523438 14.382812 19.28125 14.175781 18.96875 C 14.003906 18.691406 14.105469 17.820312 14.105469 17.820312 " clip-rule="nonzero"/></clipPath><clipPath id="3bbfc66d32"><path d="M 0.585938 0.347656 L 4.492188 0.347656 L 4.492188 5.585938 L 0.585938 5.585938 Z M 0.585938 0.347656 " clip-rule="nonzero"/></clipPath><clipPath id="c00dedeff9"><path d="M 1.105469 3.820312 C 2.183594 1.738281 2.773438 2.535156 2.738281 2.816406 C 2.738281 3.023438 2.425781 3.230469 2.183594 3.265625 C 1.871094 3.335938 1.246094 3.160156 1.003906 2.917969 C 0.757812 2.746094 0.621094 2.46875 0.621094 2.1875 C 0.585938 1.84375 0.792969 1.285156 1.003906 1.042969 C 1.210938 0.835938 1.523438 0.695312 1.765625 0.695312 C 2.042969 0.660156 2.355469 0.695312 2.601562 0.871094 C 2.878906 1.078125 3.191406 1.5625 3.226562 1.945312 C 3.226562 2.292969 2.980469 2.816406 2.667969 3.023438 C 2.390625 3.265625 1.800781 3.335938 1.453125 3.230469 C 1.140625 3.09375 0.726562 2.675781 0.621094 2.328125 C 0.550781 1.980469 0.65625 1.425781 0.898438 1.113281 C 1.210938 0.765625 1.941406 0.59375 2.460938 0.488281 C 2.949219 0.382812 3.503906 0.277344 3.851562 0.488281 C 4.199219 0.695312 4.441406 1.25 4.476562 1.738281 C 4.546875 2.433594 3.953125 3.578125 3.675781 4.238281 C 3.46875 4.691406 3.296875 5.070312 3.015625 5.316406 C 2.773438 5.488281 2.460938 5.59375 2.183594 5.558594 C 1.871094 5.523438 1.382812 5.28125 1.175781 4.96875 C 1.003906 4.691406 1.105469 3.820312 1.105469 3.820312 " clip-rule="nonzero"/></clipPath><clipPath id="e95bb45690"><rect x="0" width="5" y="0" height="6"/></clipPath><clipPath id="416564b5e9"><path d="M 10 12 L 18 12 L 18 22 L 10 22 Z M 10 12 " clip-rule="nonzero"/></clipPath><clipPath id="d9eb64c301"><path d="M 13.46875 11.484375 L 19.820312 14.355469 L 16.15625 22.46875 L 9.804688 19.597656 Z M 13.46875 11.484375 " clip-rule="nonzero"/></clipPath><clipPath id="32dfb4d5e6"><path d="M 17.488281 19.515625 C 16.730469 21.191406 14.738281 21.8125 12.984375 21.019531 C 11.230469 20.226562 10.378906 18.324219 11.136719 16.644531 C 12.117188 14.480469 16.644531 12.921875 16.644531 12.921875 C 16.644531 12.921875 18.46875 17.351562 17.488281 19.515625 Z M 17.488281 19.515625 " clip-rule="nonzero"/></clipPath><clipPath id="b6a59b223c"><path d="M 0.300781 0.789062 L 8 0.789062 L 8 10 L 0.300781 10 Z M 0.300781 0.789062 " clip-rule="nonzero"/></clipPath><clipPath id="b57c9d9e72"><path d="M 3.46875 -0.515625 L 9.820312 2.355469 L 6.15625 10.46875 L -0.195312 7.597656 Z M 3.46875 -0.515625 " clip-rule="nonzero"/></clipPath><clipPath id="09538a6b70"><path d="M 7.488281 7.515625 C 6.730469 9.191406 4.738281 9.8125 2.984375 9.019531 C 1.230469 8.226562 0.378906 6.324219 1.136719 4.644531 C 2.117188 2.480469 6.644531 0.921875 6.644531 0.921875 C 6.644531 0.921875 8.46875 5.351562 7.488281 7.515625 Z M 7.488281 7.515625 " clip-rule="nonzero"/></clipPath><clipPath id="339370323a"><rect x="0" width="8" y="0" height="10"/></clipPath><clipPath id="518231c234"><path d="M 3.914062 9.863281 L 27.183594 9.863281 L 27.183594 20.976562 L 3.914062 20.976562 Z M 3.914062 9.863281 " clip-rule="nonzero"/></clipPath><clipPath id="937c2187bd"><path d="M 0.914062 1 L 18 1 L 18 11.605469 L 0.914062 11.605469 Z M 0.914062 1 " clip-rule="nonzero"/></clipPath><clipPath id="0b3b3eb9ca"><path d="M 0.914062 0.949219 L 4 0.949219 L 4 8 L 0.914062 8 Z M 0.914062 0.949219 " clip-rule="nonzero"/></clipPath><clipPath id="42a105eefc"><path d="M 0.914062 4 L 24.183594 4 L 24.183594 11.605469 L 0.914062 11.605469 Z M 0.914062 4 " clip-rule="nonzero"/></clipPath><clipPath id="cfb06c747e"><rect x="0" width="25" y="0" height="12"/></clipPath><clipPath id="4551dbd5f9"><path d="M 19.019531 20.796875 L 25.5 20.796875 L 25.5 25.59375 L 19.019531 25.59375 Z M 19.019531 20.796875 " clip-rule="nonzero"/></clipPath><clipPath id="02ae7cd147"><path d="M 22.25 20.796875 L 25.480469 25.59375 L 19.019531 25.59375 Z M 22.25 20.796875 " clip-rule="nonzero"/></clipPath><clipPath id="126958a2de"><path d="M 0.0195312 0.796875 L 6.5 0.796875 L 6.5 5.59375 L 0.0195312 5.59375 Z M 0.0195312 0.796875 " clip-rule="nonzero"/></clipPath><clipPath id="638a66d3ad"><path d="M 3.25 0.796875 L 6.480469 5.59375 L 0.0195312 5.59375 Z M 3.25 0.796875 " clip-rule="nonzero"/></clipPath><clipPath id="c233275da1"><rect x="0" width="7" y="0" height="6"/></clipPath><clipPath id="f5427ea4ea"><path d="M 2 25 L 106.699219 25 L 106.699219 34 L 2 34 Z M 2 25 " clip-rule="nonzero"/></clipPath><clipPath id="9739e7e6d8"><path d="M 0.25 1 L 7 1 L 7 7 L 0.25 7 Z M 0.25 1 " clip-rule="nonzero"/></clipPath><clipPath id="e2fc551ac7"><rect x="0" width="105" y="0" height="9"/></clipPath><clipPath id="eb0062cbc8"><rect x="0" width="107" y="0" height="35"/></clipPath></defs><g clip-path="url(#ce0afda135)"><g transform="matrix(1, 0, 0, 1, 0.000000000000000111, -0.000000000000001478)"><g clip-path="url(#eb0062cbc8)"><g transform="matrix(1, 0, 0, 1, 20, 9)"><g clip-path="url(#342424ff9a)"><g fill="#0ac2ff" fill-opacity="1"><g transform="translate(0.0260371, 15.522435)"><g><path d="M 5.84375 0.234375 C 5.195312 0.234375 4.617188 0.164062 4.109375 0.03125 C 3.597656 -0.101562 3.148438 -0.296875 2.765625 -0.546875 C 2.390625 -0.804688 2.078125 -1.117188 1.828125 -1.484375 C 1.578125 -1.847656 1.390625 -2.253906 1.265625 -2.703125 C 1.140625 -3.160156 1.078125 -3.660156 1.078125 -4.203125 L 1.078125 -10.6875 L 3.421875 -10.6875 L 3.421875 -4.28125 C 3.421875 -3.71875 3.507812 -3.253906 3.6875 -2.890625 C 3.875 -2.523438 4.144531 -2.257812 4.5 -2.09375 C 4.863281 -1.925781 5.304688 -1.84375 5.828125 -1.84375 C 6.367188 -1.84375 6.816406 -1.925781 7.171875 -2.09375 C 7.535156 -2.269531 7.804688 -2.535156 7.984375 -2.890625 C 8.160156 -3.253906 8.25 -3.71875 8.25 -4.28125 L 8.25 -10.6875 L 10.578125 -10.6875 L 10.578125 -4.203125 C 10.578125 -3.484375 10.476562 -2.847656 10.28125 -2.296875 C 10.082031 -1.753906 9.785156 -1.296875 9.390625 -0.921875 C 8.992188 -0.546875 8.5 -0.257812 7.90625 -0.0625 C 7.3125 0.132812 6.625 0.234375 5.84375 0.234375 Z M 5.84375 0.234375 "/></g></g></g><g fill="#0ac2ff" fill-opacity="1"><g transform="translate(11.690607, 15.522435)"><g><path d="M 1.15625 0 L 1.15625 -10.6875 L 3.484375 -10.6875 L 3.484375 0 Z M 1.625 0 L 1.625 -1.984375 L 7.96875 -1.984375 L 7.96875 0 Z M 1.625 0 "/></g></g></g><g fill="#0ac2ff" fill-opacity="1"><g transform="translate(19.85581, 15.522435)"><g><path d="M 1.15625 0 L 1.15625 -10.6875 L 3.484375 -10.6875 L 3.484375 0 Z M 2.25 -4 L 2.25 -5.921875 L 8.4375 -5.921875 L 8.4375 -4 Z M 2.25 -8.703125 L 2.25 -10.6875 L 9.046875 -10.6875 L 9.046875 -8.703125 Z M 2.25 -8.703125 "/></g></g></g><g fill="#0ac2ff" fill-opacity="1"><g transform="translate(29.349478, 15.522435)"><g/></g></g><g fill="#0ac2ff" fill-opacity="1"><g transform="translate(33.043256, 15.522435)"><g><path d="M 6.046875 0.234375 C 5.210938 0.234375 4.46875 0.113281 3.8125 -0.125 C 3.15625 -0.363281 2.597656 -0.710938 2.140625 -1.171875 C 1.691406 -1.640625 1.347656 -2.210938 1.109375 -2.890625 C 0.878906 -3.578125 0.765625 -4.359375 0.765625 -5.234375 C 0.765625 -6.140625 0.882812 -6.941406 1.125 -7.640625 C 1.363281 -8.335938 1.710938 -8.929688 2.171875 -9.421875 C 2.628906 -9.910156 3.171875 -10.28125 3.796875 -10.53125 C 4.421875 -10.789062 5.117188 -10.921875 5.890625 -10.921875 C 6.503906 -10.921875 7.0625 -10.835938 7.5625 -10.671875 C 8.070312 -10.515625 8.507812 -10.285156 8.875 -9.984375 C 9.25 -9.691406 9.535156 -9.332031 9.734375 -8.90625 C 9.941406 -8.476562 10.046875 -8 10.046875 -7.46875 L 7.890625 -6.921875 C 7.890625 -7.378906 7.789062 -7.765625 7.59375 -8.078125 C 7.40625 -8.390625 7.15625 -8.625 6.84375 -8.78125 C 6.53125 -8.9375 6.1875 -9.015625 5.8125 -9.015625 C 5.488281 -9.015625 5.171875 -8.945312 4.859375 -8.8125 C 4.554688 -8.6875 4.273438 -8.476562 4.015625 -8.1875 C 3.765625 -7.90625 3.566406 -7.535156 3.421875 -7.078125 C 3.273438 -6.617188 3.203125 -6.050781 3.203125 -5.375 C 3.203125 -4.507812 3.328125 -3.804688 3.578125 -3.265625 C 3.828125 -2.722656 4.171875 -2.320312 4.609375 -2.0625 C 5.046875 -1.8125 5.539062 -1.6875 6.09375 -1.6875 C 6.675781 -1.6875 7.128906 -1.804688 7.453125 -2.046875 C 7.785156 -2.296875 8.023438 -2.613281 8.171875 -3 C 8.316406 -3.382812 8.394531 -3.796875 8.40625 -4.234375 L 10.46875 -3.90625 C 10.457031 -3.332031 10.375 -2.796875 10.21875 -2.296875 C 10.0625 -1.796875 9.804688 -1.351562 9.453125 -0.96875 C 9.097656 -0.59375 8.640625 -0.296875 8.078125 -0.078125 C 7.523438 0.128906 6.847656 0.234375 6.046875 0.234375 Z M 6.046875 0.234375 "/></g></g></g><g fill="#0ac2ff" fill-opacity="1"><g transform="translate(44.011194, 15.522435)"><g><path d="M 5.78125 0.234375 C 5.007812 0.234375 4.3125 0.113281 3.6875 -0.125 C 3.070312 -0.375 2.546875 -0.734375 2.109375 -1.203125 C 1.671875 -1.671875 1.335938 -2.25 1.109375 -2.9375 C 0.878906 -3.625 0.765625 -4.410156 0.765625 -5.296875 C 0.765625 -6.554688 0.984375 -7.597656 1.421875 -8.421875 C 1.867188 -9.253906 2.472656 -9.878906 3.234375 -10.296875 C 4.003906 -10.710938 4.875 -10.921875 5.84375 -10.921875 C 6.601562 -10.921875 7.289062 -10.796875 7.90625 -10.546875 C 8.519531 -10.304688 9.046875 -9.953125 9.484375 -9.484375 C 9.921875 -9.015625 10.257812 -8.429688 10.5 -7.734375 C 10.738281 -7.046875 10.859375 -6.25 10.859375 -5.34375 C 10.859375 -4.425781 10.734375 -3.617188 10.484375 -2.921875 C 10.242188 -2.234375 9.898438 -1.65625 9.453125 -1.1875 C 9.015625 -0.71875 8.484375 -0.363281 7.859375 -0.125 C 7.242188 0.113281 6.550781 0.234375 5.78125 0.234375 Z M 5.828125 -1.640625 C 6.128906 -1.640625 6.429688 -1.691406 6.734375 -1.796875 C 7.046875 -1.898438 7.332031 -2.082031 7.59375 -2.34375 C 7.863281 -2.601562 8.070312 -2.96875 8.21875 -3.4375 C 8.375 -3.90625 8.453125 -4.5 8.453125 -5.21875 C 8.453125 -6.082031 8.34375 -6.789062 8.125 -7.34375 C 7.90625 -7.90625 7.59375 -8.320312 7.1875 -8.59375 C 6.78125 -8.863281 6.316406 -9 5.796875 -9 C 5.515625 -9 5.21875 -8.945312 4.90625 -8.84375 C 4.601562 -8.738281 4.316406 -8.550781 4.046875 -8.28125 C 3.773438 -8.019531 3.554688 -7.648438 3.390625 -7.171875 C 3.234375 -6.703125 3.15625 -6.085938 3.15625 -5.328125 C 3.15625 -4.617188 3.226562 -4.03125 3.375 -3.5625 C 3.53125 -3.09375 3.734375 -2.71875 3.984375 -2.4375 C 4.242188 -2.15625 4.53125 -1.953125 4.84375 -1.828125 C 5.164062 -1.703125 5.492188 -1.640625 5.828125 -1.640625 Z M 5.828125 -1.640625 "/></g></g></g><g fill="#0ac2ff" fill-opacity="1"><g transform="translate(55.189673, 15.522435)"><g><path d="M 0.28125 0 L 3.921875 -10.6875 L 7.3125 -10.6875 L 10.96875 0 L 8.421875 0 L 5.734375 -8.84375 L 5.515625 -8.84375 L 2.796875 0 Z M 2.3125 -2.09375 L 2.3125 -3.6875 L 9.25 -3.6875 L 9.25 -2.09375 Z M 2.3125 -2.09375 "/></g></g></g><g fill="#0ac2ff" fill-opacity="1"><g transform="translate(66.238579, 15.522435)"><g><path d="M 5.265625 0.234375 C 4.566406 0.234375 3.9375 0.160156 3.375 0.015625 C 2.820312 -0.117188 2.347656 -0.320312 1.953125 -0.59375 C 1.554688 -0.875 1.25 -1.222656 1.03125 -1.640625 C 0.820312 -2.054688 0.703125 -2.539062 0.671875 -3.09375 L 2.71875 -3.75 C 2.738281 -3.257812 2.859375 -2.851562 3.078125 -2.53125 C 3.304688 -2.207031 3.625 -1.96875 4.03125 -1.8125 C 4.4375 -1.65625 4.890625 -1.578125 5.390625 -1.578125 C 5.867188 -1.578125 6.269531 -1.632812 6.59375 -1.75 C 6.925781 -1.863281 7.175781 -2.019531 7.34375 -2.21875 C 7.519531 -2.425781 7.609375 -2.648438 7.609375 -2.890625 C 7.609375 -3.171875 7.5 -3.394531 7.28125 -3.5625 C 7.0625 -3.738281 6.765625 -3.882812 6.390625 -4 C 6.023438 -4.125 5.609375 -4.238281 5.140625 -4.34375 C 4.609375 -4.46875 4.085938 -4.601562 3.578125 -4.75 C 3.066406 -4.894531 2.609375 -5.085938 2.203125 -5.328125 C 1.796875 -5.566406 1.46875 -5.875 1.21875 -6.25 C 0.976562 -6.632812 0.859375 -7.113281 0.859375 -7.6875 C 0.859375 -8.34375 1.019531 -8.910156 1.34375 -9.390625 C 1.675781 -9.867188 2.160156 -10.242188 2.796875 -10.515625 C 3.429688 -10.785156 4.203125 -10.921875 5.109375 -10.921875 C 5.992188 -10.921875 6.757812 -10.785156 7.40625 -10.515625 C 8.050781 -10.253906 8.550781 -9.878906 8.90625 -9.390625 C 9.269531 -8.898438 9.457031 -8.328125 9.46875 -7.671875 L 7.375 -7.09375 C 7.375 -7.425781 7.316406 -7.71875 7.203125 -7.96875 C 7.097656 -8.226562 6.945312 -8.441406 6.75 -8.609375 C 6.5625 -8.773438 6.320312 -8.898438 6.03125 -8.984375 C 5.75 -9.078125 5.429688 -9.125 5.078125 -9.125 C 4.648438 -9.125 4.285156 -9.066406 3.984375 -8.953125 C 3.679688 -8.835938 3.453125 -8.691406 3.296875 -8.515625 C 3.140625 -8.335938 3.0625 -8.125 3.0625 -7.875 C 3.0625 -7.582031 3.179688 -7.34375 3.421875 -7.15625 C 3.660156 -6.976562 3.976562 -6.828125 4.375 -6.703125 C 4.78125 -6.578125 5.222656 -6.460938 5.703125 -6.359375 C 6.171875 -6.253906 6.644531 -6.128906 7.125 -5.984375 C 7.601562 -5.835938 8.050781 -5.648438 8.46875 -5.421875 C 8.882812 -5.191406 9.21875 -4.878906 9.46875 -4.484375 C 9.71875 -4.085938 9.84375 -3.585938 9.84375 -2.984375 C 9.84375 -2.335938 9.671875 -1.769531 9.328125 -1.28125 C 8.984375 -0.800781 8.46875 -0.425781 7.78125 -0.15625 C 7.101562 0.101562 6.265625 0.234375 5.265625 0.234375 Z M 5.265625 0.234375 "/></g></g></g><g clip-path="url(#26cd327552)"><g fill="#0ac2ff" fill-opacity="1"><g transform="translate(76.607067, 15.522435)"><g><path d="M 3.40625 0 L 3.40625 -10.6875 L 5.75 -10.6875 L 5.75 0 Z M 0.296875 -8.734375 L 0.296875 -10.6875 L 8.875 -10.6875 L 8.875 -8.734375 Z M 0.296875 -8.734375 "/></g></g></g></g></g></g><g clip-path="url(#4c43fc3eb0)"><g transform="matrix(1, 0, 0, 1, 0.000000000000000111, -0.000000000000001478)"><g clip-path="url(#de46d86d6a)"><g fill="#0ac2ff" fill-opacity="1"><g transform="translate(0.592105, 25.094752)"><g><path d="M 10.859375 0.453125 C 9.085938 0.453125 7.5 0.0390625 6.09375 -0.78125 C 4.695312 -1.613281 3.585938 -2.84375 2.765625 -4.46875 C 1.953125 -6.101562 1.546875 -8.144531 1.546875 -10.59375 C 1.546875 -12.382812 1.78125 -13.984375 2.25 -15.390625 C 2.71875 -16.804688 3.40625 -18.007812 4.3125 -19 C 5.21875 -20 6.332031 -20.765625 7.65625 -21.296875 C 8.976562 -21.835938 10.515625 -22.109375 12.265625 -22.109375 C 13.597656 -22.109375 14.800781 -21.945312 15.875 -21.625 C 16.945312 -21.3125 17.867188 -20.863281 18.640625 -20.28125 C 19.421875 -19.707031 20.03125 -19.015625 20.46875 -18.203125 C 20.90625 -17.390625 21.132812 -16.472656 21.15625 -15.453125 L 16.6875 -14.171875 C 16.664062 -14.847656 16.53125 -15.441406 16.28125 -15.953125 C 16.03125 -16.460938 15.695312 -16.890625 15.28125 -17.234375 C 14.863281 -17.578125 14.378906 -17.828125 13.828125 -17.984375 C 13.285156 -18.148438 12.695312 -18.234375 12.0625 -18.234375 C 11.320312 -18.234375 10.617188 -18.109375 9.953125 -17.859375 C 9.285156 -17.609375 8.691406 -17.203125 8.171875 -16.640625 C 7.660156 -16.085938 7.253906 -15.328125 6.953125 -14.359375 C 6.648438 -13.398438 6.5 -12.210938 6.5 -10.796875 C 6.5 -9.367188 6.648438 -8.171875 6.953125 -7.203125 C 7.253906 -6.242188 7.671875 -5.484375 8.203125 -4.921875 C 8.742188 -4.367188 9.359375 -3.96875 10.046875 -3.71875 C 10.734375 -3.46875 11.460938 -3.34375 12.234375 -3.34375 C 13.191406 -3.34375 14.019531 -3.503906 14.71875 -3.828125 C 15.425781 -4.160156 15.984375 -4.65625 16.390625 -5.3125 C 16.804688 -5.96875 17.039062 -6.800781 17.09375 -7.8125 L 13.046875 -7.8125 L 13.046875 -11.21875 L 21.75 -11.21875 L 21.75 0 L 18.4375 0 L 18.53125 -5.578125 L 17.9375 -5.578125 C 17.613281 -4.265625 17.15625 -3.160156 16.5625 -2.265625 C 15.96875 -1.367188 15.207031 -0.691406 14.28125 -0.234375 C 13.351562 0.222656 12.210938 0.453125 10.859375 0.453125 Z M 10.859375 0.453125 "/></g></g></g></g></g></g><g clip-path="url(#b9325c3a24)"><g clip-path="url(#8a569cffbd)"><g transform="matrix(1, 0, 0, 1, 12, 14)"><g clip-path="url(#5dc60783f1)"><g clip-path="url(#2cfe3736b2)"><g clip-path="url(#cabb486a44)"><rect x="-51.585" width="187.92" fill="#ffffff" y="-27.65" height="64.8" fill-opacity="1"/></g></g></g></g></g></g><g clip-path="url(#de88c29662)"><g clip-path="url(#812a168355)"><g transform="matrix(1, 0, 0, 1, 13, 14)"><g clip-path="url(#e95bb45690)"><g clip-path="url(#3bbfc66d32)"><g clip-path="url(#c00dedeff9)"><rect x="-52.585" width="187.92" fill="#ffffff" y="-27.65" height="64.8" fill-opacity="1"/></g></g></g></g></g></g><g clip-path="url(#416564b5e9)"><g clip-path="url(#d9eb64c301)"><g clip-path="url(#32dfb4d5e6)"><g transform="matrix(1, 0, 0, 1, 10, 12)"><g clip-path="url(#339370323a)"><g clip-path="url(#b6a59b223c)"><g clip-path="url(#b57c9d9e72)"><g clip-path="url(#09538a6b70)"><path fill="#ffffff" d="M 3.46875 -0.515625 L 9.820312 2.355469 L 6.167969 10.445312 L -0.183594 7.574219 Z M 3.46875 -0.515625 " fill-opacity="1" fill-rule="nonzero"/></g></g></g></g></g></g></g></g><g clip-path="url(#518231c234)"><g transform="matrix(1, 0, 0, 1, 3, 9)"><g clip-path="url(#cfb06c747e)"><g clip-path="url(#937c2187bd)"><path fill="#0ac2ff" d="M -23.363281 1.488281 C -22.921875 2.226562 -21.820312 2.914062 -21.148438 3.4375 C -20.429688 3.996094 -19.683594 4.507812 -18.90625 4.972656 C -17.285156 5.949219 -15.574219 6.726562 -13.773438 7.304688 C -10.160156 8.464844 -6.257812 8.78125 -2.523438 8.054688 C 0.9375 7.378906 4.171875 5.878906 7.542969 4.839844 C 10.910156 3.804688 14.613281 3.246094 17.917969 4.476562 C 17.328125 4.257812 16.128906 4.429688 15.496094 4.457031 C 14.757812 4.488281 14.015625 4.628906 13.296875 4.800781 C 11.742188 5.164062 10.25 5.761719 8.800781 6.421875 C 5.863281 7.765625 3.050781 9.433594 -0.0703125 10.324219 C -2.867188 11.121094 -5.832031 11.347656 -8.714844 10.953125 C -13.777344 10.261719 -18.632812 7.667969 -21.839844 3.679688 C -22.398438 2.984375 -22.90625 2.253906 -23.363281 1.488281 Z M -23.363281 1.488281 " fill-opacity="1" fill-rule="nonzero"/></g><g clip-path="url(#0b3b3eb9ca)"><path fill="#0ac2ff" d="M -23.363281 0.96875 C -22.96875 1.34375 -22.171875 1.570312 -21.679688 1.808594 C -21.136719 2.066406 -20.585938 2.304688 -20.039062 2.550781 C -18.90625 3.058594 -17.75 3.511719 -16.570312 3.910156 C -14.214844 4.714844 -11.800781 5.296875 -9.335938 5.65625 C -5.035156 6.285156 -0.679688 6.179688 3.609375 5.472656 C 2.578125 5.960938 1.515625 6.375 0.425781 6.710938 C -3.808594 8.015625 -8.394531 8.042969 -12.675781 6.925781 C -16.683594 5.878906 -20.359375 3.808594 -23.363281 0.96875 Z M -23.363281 0.96875 " fill-opacity="1" fill-rule="nonzero"/></g><g clip-path="url(#42a105eefc)"><path fill="#0ac2ff" d="M -2.671875 11.304688 C -1.960938 11.460938 -0.679688 11.003906 0.0078125 10.804688 C 0.890625 10.546875 1.765625 10.203125 2.613281 9.855469 C 4.417969 9.113281 6.152344 8.21875 7.917969 7.398438 C 10.429688 6.226562 13.058594 5.183594 15.824219 4.972656 C 17.585938 4.839844 19.421875 5.074219 21.054688 5.773438 C 21.671875 6.039062 22.246094 6.378906 22.773438 6.792969 C 23.28125 7.195312 23.84375 7.6875 24.183594 8.246094 C 21.253906 6.777344 18.519531 6.292969 15.242188 7.03125 C 12.171875 7.726562 9.328125 9.164062 6.371094 10.242188 C 3.480469 11.296875 0.390625 11.976562 -2.671875 11.304688 Z M -2.671875 11.304688 " fill-opacity="1" fill-rule="nonzero"/></g></g></g></g><g clip-path="url(#4551dbd5f9)"><g clip-path="url(#02ae7cd147)"><g transform="matrix(1, 0, 0, 1, 19, 20)"><g clip-path="url(#c233275da1)"><g clip-path="url(#126958a2de)"><g clip-path="url(#638a66d3ad)"><path fill="#0ac2ff" d="M 0.0195312 0.796875 L 6.480469 0.796875 L 6.480469 5.59375 L 0.0195312 5.59375 Z M 0.0195312 0.796875 " fill-opacity="1" fill-rule="nonzero"/></g></g></g></g></g></g><g clip-path="url(#f5427ea4ea)"><g transform="matrix(1, 0, 0, 1, 2, 25)"><g clip-path="url(#e2fc551ac7)"><g clip-path="url(#9739e7e6d8)"><g fill="#8bd13a" fill-opacity="1"><g transform="translate(0.444838, 6.570008)"><g><path d="M 6.328125 -4.828125 L 4.90625 0 L 4.140625 0 L 3.21875 -3.15625 L 2.3125 0 L 1.546875 0 L 0.125 -4.828125 L 1.078125 -4.828125 L 1.984375 -1.640625 L 2.875 -4.828125 L 3.578125 -4.828125 L 4.484375 -1.640625 L 5.390625 -4.828125 Z M 6.328125 -4.828125 "/></g></g></g></g><g fill="#8bd13a" fill-opacity="1"><g transform="translate(6.979341, 6.570008)"><g><path d="M 0.546875 0 L 0.546875 -4.828125 L 3.859375 -4.828125 L 3.84375 -4 L 1.515625 -4 L 1.515625 -2.828125 L 3.546875 -2.828125 L 3.546875 -2.03125 L 1.515625 -2.03125 L 1.515625 -0.828125 L 3.890625 -0.828125 L 3.890625 0 Z M 0.546875 0 "/></g></g></g><g fill="#8bd13a" fill-opacity="1"><g transform="translate(11.326775, 6.570008)"><g><path d="M 0.546875 0 L 0.546875 -4.828125 L 2.28125 -4.828125 C 2.914062 -4.828125 3.382812 -4.71875 3.6875 -4.5 C 4 -4.28125 4.15625 -3.96875 4.15625 -3.5625 C 4.15625 -3.320312 4.09375 -3.113281 3.96875 -2.9375 C 3.84375 -2.757812 3.625 -2.601562 3.3125 -2.46875 C 3.519531 -2.414062 3.6875 -2.347656 3.8125 -2.265625 C 3.9375 -2.179688 4.03125 -2.082031 4.09375 -1.96875 C 4.15625 -1.863281 4.195312 -1.753906 4.21875 -1.640625 C 4.25 -1.523438 4.265625 -1.414062 4.265625 -1.3125 C 4.265625 -0.863281 4.113281 -0.53125 3.8125 -0.3125 C 3.507812 -0.101562 3.03125 0 2.375 0 Z M 1.515625 -0.75 L 2.390625 -0.75 C 2.679688 -0.75 2.898438 -0.804688 3.046875 -0.921875 C 3.203125 -1.046875 3.28125 -1.207031 3.28125 -1.40625 C 3.28125 -1.550781 3.242188 -1.671875 3.171875 -1.765625 C 3.097656 -1.859375 3 -1.929688 2.875 -1.984375 C 2.75 -2.035156 2.601562 -2.0625 2.4375 -2.0625 L 1.515625 -2.0625 Z M 1.515625 -2.828125 L 2.4375 -2.828125 C 2.539062 -2.828125 2.640625 -2.835938 2.734375 -2.859375 C 2.828125 -2.890625 2.90625 -2.925781 2.96875 -2.96875 C 3.039062 -3.019531 3.097656 -3.082031 3.140625 -3.15625 C 3.191406 -3.238281 3.21875 -3.332031 3.21875 -3.4375 C 3.21875 -3.644531 3.132812 -3.800781 2.96875 -3.90625 C 2.8125 -4.007812 2.613281 -4.0625 2.375 -4.0625 L 1.515625 -4.0625 Z M 1.515625 -2.828125 "/></g></g></g><g fill="#8bd13a" fill-opacity="1"><g transform="translate(15.964696, 6.570008)"><g/></g></g><g fill="#8bd13a" fill-opacity="1"><g transform="translate(17.447229, 6.570008)"><g><path d="M 0.546875 -4.828125 C 0.566406 -4.828125 0.628906 -4.828125 0.734375 -4.828125 C 0.847656 -4.828125 0.984375 -4.828125 1.140625 -4.828125 C 1.296875 -4.828125 1.445312 -4.828125 1.59375 -4.828125 C 1.75 -4.828125 1.878906 -4.820312 1.984375 -4.8125 C 2.566406 -4.800781 3.039062 -4.695312 3.40625 -4.5 C 3.78125 -4.300781 4.050781 -4.023438 4.21875 -3.671875 C 4.394531 -3.328125 4.484375 -2.914062 4.484375 -2.4375 C 4.484375 -1.9375 4.390625 -1.503906 4.203125 -1.140625 C 4.023438 -0.773438 3.75 -0.492188 3.375 -0.296875 C 3 -0.0976562 2.523438 0 1.953125 0 L 0.546875 0 Z M 1.515625 -4.03125 L 1.515625 -0.78125 L 1.96875 -0.78125 C 2.238281 -0.78125 2.488281 -0.832031 2.71875 -0.9375 C 2.945312 -1.050781 3.128906 -1.226562 3.265625 -1.46875 C 3.398438 -1.707031 3.46875 -2.03125 3.46875 -2.4375 C 3.46875 -2.8125 3.40625 -3.113281 3.28125 -3.34375 C 3.164062 -3.582031 2.992188 -3.753906 2.765625 -3.859375 C 2.546875 -3.972656 2.285156 -4.03125 1.984375 -4.03125 Z M 1.515625 -4.03125 "/></g></g></g><g fill="#8bd13a" fill-opacity="1"><g transform="translate(22.322227, 6.570008)"><g><path d="M 0.546875 0 L 0.546875 -4.828125 L 3.859375 -4.828125 L 3.84375 -4 L 1.515625 -4 L 1.515625 -2.828125 L 3.546875 -2.828125 L 3.546875 -2.03125 L 1.515625 -2.03125 L 1.515625 -0.828125 L 3.890625 -0.828125 L 3.890625 0 Z M 0.546875 0 "/></g></g></g><g fill="#8bd13a" fill-opacity="1"><g transform="translate(26.672998, 6.570008)"><g><path d="M 2.359375 0.0625 C 2.117188 0.0625 1.882812 0.0351562 1.65625 -0.015625 C 1.425781 -0.078125 1.210938 -0.164062 1.015625 -0.28125 C 0.828125 -0.40625 0.671875 -0.554688 0.546875 -0.734375 C 0.429688 -0.921875 0.359375 -1.132812 0.328125 -1.375 L 1.328125 -1.375 C 1.359375 -1.226562 1.421875 -1.101562 1.515625 -1 C 1.609375 -0.90625 1.726562 -0.832031 1.875 -0.78125 C 2.019531 -0.726562 2.175781 -0.703125 2.34375 -0.703125 C 2.519531 -0.703125 2.679688 -0.722656 2.828125 -0.765625 C 2.984375 -0.804688 3.101562 -0.867188 3.1875 -0.953125 C 3.28125 -1.046875 3.328125 -1.160156 3.328125 -1.296875 C 3.328125 -1.421875 3.289062 -1.519531 3.21875 -1.59375 C 3.144531 -1.675781 3.046875 -1.742188 2.921875 -1.796875 C 2.796875 -1.847656 2.65625 -1.890625 2.5 -1.921875 L 1.671875 -2.078125 C 1.304688 -2.148438 1.015625 -2.296875 0.796875 -2.515625 C 0.585938 -2.742188 0.476562 -3.039062 0.46875 -3.40625 C 0.46875 -3.707031 0.546875 -3.96875 0.703125 -4.1875 C 0.867188 -4.414062 1.09375 -4.585938 1.375 -4.703125 C 1.664062 -4.828125 1.984375 -4.890625 2.328125 -4.890625 C 2.742188 -4.890625 3.09375 -4.820312 3.375 -4.6875 C 3.65625 -4.5625 3.867188 -4.382812 4.015625 -4.15625 C 4.171875 -3.9375 4.25 -3.691406 4.25 -3.421875 L 3.28125 -3.421875 C 3.257812 -3.585938 3.207031 -3.71875 3.125 -3.8125 C 3.039062 -3.914062 2.929688 -3.988281 2.796875 -4.03125 C 2.660156 -4.082031 2.507812 -4.109375 2.34375 -4.109375 C 2.21875 -4.109375 2.097656 -4.09375 1.984375 -4.0625 C 1.878906 -4.03125 1.789062 -3.988281 1.71875 -3.9375 C 1.644531 -3.882812 1.585938 -3.820312 1.546875 -3.75 C 1.515625 -3.6875 1.5 -3.609375 1.5 -3.515625 C 1.5 -3.378906 1.546875 -3.265625 1.640625 -3.171875 C 1.734375 -3.085938 1.90625 -3.019531 2.15625 -2.96875 L 2.984375 -2.796875 C 3.273438 -2.734375 3.507812 -2.644531 3.6875 -2.53125 C 3.863281 -2.425781 3.992188 -2.300781 4.078125 -2.15625 C 4.171875 -2.007812 4.226562 -1.863281 4.25 -1.71875 C 4.28125 -1.570312 4.296875 -1.4375 4.296875 -1.3125 C 4.296875 -1.050781 4.210938 -0.816406 4.046875 -0.609375 C 3.890625 -0.398438 3.664062 -0.234375 3.375 -0.109375 C 3.082031 0.00390625 2.742188 0.0625 2.359375 0.0625 Z M 2.359375 0.0625 "/></g></g></g><g fill="#8bd13a" fill-opacity="1"><g transform="translate(31.361002, 6.570008)"><g><path d="M 0.546875 -4.828125 L 1.515625 -4.828125 L 1.515625 0 L 0.546875 0 Z M 0.546875 -4.828125 "/></g></g></g><g fill="#8bd13a" fill-opacity="1"><g transform="translate(33.481294, 6.570008)"><g><path d="M 2.484375 0.0625 C 2.046875 0.0625 1.660156 -0.0351562 1.328125 -0.234375 C 1.003906 -0.429688 0.753906 -0.710938 0.578125 -1.078125 C 0.398438 -1.453125 0.3125 -1.894531 0.3125 -2.40625 C 0.3125 -2.914062 0.40625 -3.351562 0.59375 -3.71875 C 0.78125 -4.09375 1.039062 -4.378906 1.375 -4.578125 C 1.707031 -4.785156 2.097656 -4.890625 2.546875 -4.890625 C 2.828125 -4.890625 3.085938 -4.84375 3.328125 -4.75 C 3.566406 -4.65625 3.769531 -4.53125 3.9375 -4.375 C 4.113281 -4.21875 4.25 -4.039062 4.34375 -3.84375 C 4.445312 -3.644531 4.503906 -3.4375 4.515625 -3.21875 L 3.484375 -3.21875 C 3.460938 -3.375 3.40625 -3.515625 3.3125 -3.640625 C 3.226562 -3.773438 3.117188 -3.878906 2.984375 -3.953125 C 2.847656 -4.023438 2.691406 -4.0625 2.515625 -4.0625 C 2.304688 -4.0625 2.113281 -4.003906 1.9375 -3.890625 C 1.769531 -3.785156 1.632812 -3.613281 1.53125 -3.375 C 1.425781 -3.132812 1.375 -2.816406 1.375 -2.421875 C 1.375 -2.109375 1.40625 -1.84375 1.46875 -1.625 C 1.539062 -1.414062 1.628906 -1.25 1.734375 -1.125 C 1.847656 -1 1.976562 -0.910156 2.125 -0.859375 C 2.269531 -0.816406 2.414062 -0.796875 2.5625 -0.796875 C 2.707031 -0.796875 2.832031 -0.816406 2.9375 -0.859375 C 3.050781 -0.910156 3.148438 -0.972656 3.234375 -1.046875 C 3.316406 -1.117188 3.378906 -1.203125 3.421875 -1.296875 C 3.472656 -1.390625 3.503906 -1.476562 3.515625 -1.5625 L 3.546875 -1.859375 L 2.546875 -1.859375 L 2.546875 -2.53125 L 4.5625 -2.515625 L 4.5625 0 L 3.90625 0 L 3.90625 -0.625 C 3.820312 -0.519531 3.71875 -0.410156 3.59375 -0.296875 C 3.476562 -0.191406 3.328125 -0.101562 3.140625 -0.03125 C 2.960938 0.03125 2.742188 0.0625 2.484375 0.0625 Z M 2.484375 0.0625 "/></g></g></g><g fill="#8bd13a" fill-opacity="1"><g transform="translate(38.616736, 6.570008)"><g><path d="M 3.703125 -4.828125 L 4.6875 -4.828125 L 4.6875 0 L 3.796875 0 L 1.515625 -3.3125 L 1.515625 0 L 0.546875 0 L 0.546875 -4.828125 L 1.5 -4.828125 L 3.703125 -1.625 Z M 3.703125 -4.828125 "/></g></g></g><g fill="#8bd13a" fill-opacity="1"><g transform="translate(43.905774, 6.570008)"><g/></g></g><g fill="#8bd13a" fill-opacity="1"><g transform="translate(45.388307, 6.570008)"><g><path d="M 2.375 -4.890625 C 2.644531 -4.890625 2.890625 -4.847656 3.109375 -4.765625 C 3.335938 -4.679688 3.515625 -4.554688 3.640625 -4.390625 C 3.773438 -4.234375 3.84375 -4.050781 3.84375 -3.84375 C 3.84375 -3.738281 3.820312 -3.628906 3.78125 -3.515625 C 3.738281 -3.410156 3.671875 -3.304688 3.578125 -3.203125 C 3.492188 -3.097656 3.382812 -2.988281 3.25 -2.875 C 3.113281 -2.769531 2.957031 -2.664062 2.78125 -2.5625 L 3.53125 -1.671875 C 3.5625 -1.742188 3.597656 -1.832031 3.640625 -1.9375 C 3.691406 -2.050781 3.738281 -2.175781 3.78125 -2.3125 C 3.820312 -2.445312 3.847656 -2.585938 3.859375 -2.734375 L 4.859375 -2.734375 C 4.804688 -2.535156 4.726562 -2.34375 4.625 -2.15625 C 4.53125 -1.96875 4.425781 -1.785156 4.3125 -1.609375 C 4.195312 -1.441406 4.09375 -1.273438 4 -1.109375 L 4.953125 0 L 3.828125 0 L 3.421875 -0.46875 C 3.160156 -0.28125 2.894531 -0.148438 2.625 -0.078125 C 2.351562 -0.00390625 2.101562 0.03125 1.875 0.03125 C 1.519531 0.03125 1.222656 -0.0195312 0.984375 -0.125 C 0.753906 -0.226562 0.582031 -0.375 0.46875 -0.5625 C 0.363281 -0.75 0.3125 -0.96875 0.3125 -1.21875 C 0.3125 -1.4375 0.351562 -1.628906 0.4375 -1.796875 C 0.53125 -1.960938 0.664062 -2.117188 0.84375 -2.265625 C 1.03125 -2.410156 1.257812 -2.554688 1.53125 -2.703125 C 1.414062 -2.828125 1.3125 -2.941406 1.21875 -3.046875 C 1.132812 -3.160156 1.066406 -3.273438 1.015625 -3.390625 C 0.972656 -3.503906 0.953125 -3.628906 0.953125 -3.765625 C 0.953125 -3.984375 1.007812 -4.175781 1.125 -4.34375 C 1.25 -4.507812 1.414062 -4.640625 1.625 -4.734375 C 1.84375 -4.835938 2.09375 -4.890625 2.375 -4.890625 Z M 2.421875 -4.296875 C 2.265625 -4.296875 2.140625 -4.25 2.046875 -4.15625 C 1.953125 -4.070312 1.90625 -3.96875 1.90625 -3.84375 C 1.90625 -3.757812 1.921875 -3.679688 1.953125 -3.609375 C 1.984375 -3.535156 2.023438 -3.460938 2.078125 -3.390625 C 2.128906 -3.328125 2.179688 -3.265625 2.234375 -3.203125 L 2.375 -3.046875 C 2.539062 -3.148438 2.664062 -3.242188 2.75 -3.328125 C 2.84375 -3.410156 2.90625 -3.488281 2.9375 -3.5625 C 2.976562 -3.644531 3 -3.726562 3 -3.8125 C 3 -3.925781 2.96875 -4.019531 2.90625 -4.09375 C 2.851562 -4.164062 2.78125 -4.21875 2.6875 -4.25 C 2.601562 -4.289062 2.515625 -4.304688 2.421875 -4.296875 Z M 2 -2.140625 C 1.820312 -2.035156 1.671875 -1.910156 1.546875 -1.765625 C 1.429688 -1.617188 1.382812 -1.453125 1.40625 -1.265625 C 1.414062 -1.140625 1.457031 -1.035156 1.53125 -0.953125 C 1.601562 -0.878906 1.691406 -0.816406 1.796875 -0.765625 C 1.898438 -0.722656 2.003906 -0.703125 2.109375 -0.703125 C 2.234375 -0.703125 2.375 -0.726562 2.53125 -0.78125 C 2.695312 -0.84375 2.835938 -0.929688 2.953125 -1.046875 Z M 2 -2.140625 "/></g></g></g><g fill="#8bd13a" fill-opacity="1"><g transform="translate(50.687364, 6.570008)"><g/></g></g><g fill="#8bd13a" fill-opacity="1"><g transform="translate(52.169898, 6.570008)"><g><path d="M 0.546875 -4.828125 C 0.566406 -4.828125 0.628906 -4.828125 0.734375 -4.828125 C 0.847656 -4.828125 0.984375 -4.828125 1.140625 -4.828125 C 1.296875 -4.828125 1.445312 -4.828125 1.59375 -4.828125 C 1.75 -4.828125 1.878906 -4.820312 1.984375 -4.8125 C 2.566406 -4.800781 3.039062 -4.695312 3.40625 -4.5 C 3.78125 -4.300781 4.050781 -4.023438 4.21875 -3.671875 C 4.394531 -3.328125 4.484375 -2.914062 4.484375 -2.4375 C 4.484375 -1.9375 4.390625 -1.503906 4.203125 -1.140625 C 4.023438 -0.773438 3.75 -0.492188 3.375 -0.296875 C 3 -0.0976562 2.523438 0 1.953125 0 L 0.546875 0 Z M 1.515625 -4.03125 L 1.515625 -0.78125 L 1.96875 -0.78125 C 2.238281 -0.78125 2.488281 -0.832031 2.71875 -0.9375 C 2.945312 -1.050781 3.128906 -1.226562 3.265625 -1.46875 C 3.398438 -1.707031 3.46875 -2.03125 3.46875 -2.4375 C 3.46875 -2.8125 3.40625 -3.113281 3.28125 -3.34375 C 3.164062 -3.582031 2.992188 -3.753906 2.765625 -3.859375 C 2.546875 -3.972656 2.285156 -4.03125 1.984375 -4.03125 Z M 1.515625 -4.03125 "/></g></g></g><g fill="#8bd13a" fill-opacity="1"><g transform="translate(57.044895, 6.570008)"><g><path d="M 0.546875 0 L 0.546875 -4.828125 L 3.859375 -4.828125 L 3.84375 -4 L 1.515625 -4 L 1.515625 -2.828125 L 3.546875 -2.828125 L 3.546875 -2.03125 L 1.515625 -2.03125 L 1.515625 -0.828125 L 3.890625 -0.828125 L 3.890625 0 Z M 0.546875 0 "/></g></g></g><g fill="#8bd13a" fill-opacity="1"><g transform="translate(61.395666, 6.570008)"><g><path d="M 4.546875 -4.828125 L 2.875 0 L 1.78125 0 L 0.125 -4.828125 L 1.0625 -4.828125 L 2.328125 -1.125 L 3.609375 -4.828125 Z M 4.546875 -4.828125 "/></g></g></g><g fill="#8bd13a" fill-opacity="1"><g transform="translate(66.140437, 6.570008)"><g><path d="M 0.546875 0 L 0.546875 -4.828125 L 3.859375 -4.828125 L 3.84375 -4 L 1.515625 -4 L 1.515625 -2.828125 L 3.546875 -2.828125 L 3.546875 -2.03125 L 1.515625 -2.03125 L 1.515625 -0.828125 L 3.890625 -0.828125 L 3.890625 0 Z M 0.546875 0 "/></g></g></g><g fill="#8bd13a" fill-opacity="1"><g transform="translate(70.48787, 6.570008)"><g><path d="M 0.546875 -4.828125 L 1.515625 -4.828125 L 1.515625 -0.828125 L 3.609375 -0.828125 L 3.609375 0 L 0.546875 0 Z M 0.546875 -4.828125 "/></g></g></g><g fill="#8bd13a" fill-opacity="1"><g transform="translate(74.27768, 6.570008)"><g><path d="M 2.546875 0.0625 C 2.085938 0.0625 1.691406 -0.0351562 1.359375 -0.234375 C 1.023438 -0.429688 0.765625 -0.710938 0.578125 -1.078125 C 0.398438 -1.453125 0.3125 -1.894531 0.3125 -2.40625 C 0.3125 -2.914062 0.40625 -3.351562 0.59375 -3.71875 C 0.78125 -4.09375 1.039062 -4.378906 1.375 -4.578125 C 1.707031 -4.785156 2.097656 -4.890625 2.546875 -4.890625 C 2.992188 -4.890625 3.378906 -4.789062 3.703125 -4.59375 C 4.035156 -4.394531 4.289062 -4.109375 4.46875 -3.734375 C 4.65625 -3.359375 4.75 -2.914062 4.75 -2.40625 C 4.75 -1.894531 4.660156 -1.453125 4.484375 -1.078125 C 4.304688 -0.710938 4.050781 -0.429688 3.71875 -0.234375 C 3.382812 -0.0351562 2.992188 0.0625 2.546875 0.0625 Z M 2.546875 -0.734375 C 2.785156 -0.734375 2.988281 -0.789062 3.15625 -0.90625 C 3.332031 -1.019531 3.46875 -1.195312 3.5625 -1.4375 C 3.65625 -1.675781 3.703125 -1.992188 3.703125 -2.390625 C 3.703125 -2.796875 3.648438 -3.117188 3.546875 -3.359375 C 3.453125 -3.609375 3.316406 -3.789062 3.140625 -3.90625 C 2.972656 -4.03125 2.773438 -4.09375 2.546875 -4.09375 C 2.304688 -4.09375 2.097656 -4.03125 1.921875 -3.90625 C 1.753906 -3.789062 1.625 -3.609375 1.53125 -3.359375 C 1.4375 -3.109375 1.390625 -2.785156 1.390625 -2.390625 C 1.390625 -1.992188 1.4375 -1.675781 1.53125 -1.4375 C 1.625 -1.195312 1.753906 -1.019531 1.921875 -0.90625 C 2.097656 -0.789062 2.304688 -0.734375 2.546875 -0.734375 Z M 2.546875 -0.734375 "/></g></g></g><g fill="#8bd13a" fill-opacity="1"><g transform="translate(79.423142, 6.570008)"><g><path d="M 0.546875 0 L 0.546875 -4.828125 L 2.3125 -4.828125 C 2.664062 -4.828125 2.976562 -4.765625 3.25 -4.640625 C 3.53125 -4.515625 3.75 -4.332031 3.90625 -4.09375 C 4.070312 -3.863281 4.15625 -3.582031 4.15625 -3.25 C 4.15625 -2.925781 4.082031 -2.648438 3.9375 -2.421875 C 3.800781 -2.191406 3.601562 -2.015625 3.34375 -1.890625 C 3.09375 -1.773438 2.789062 -1.71875 2.4375 -1.71875 L 1.515625 -1.71875 L 1.515625 0 Z M 1.515625 -2.46875 L 2.421875 -2.46875 C 2.660156 -2.46875 2.859375 -2.546875 3.015625 -2.703125 C 3.171875 -2.867188 3.25 -3.066406 3.25 -3.296875 C 3.25 -3.535156 3.164062 -3.722656 3 -3.859375 C 2.832031 -4.003906 2.632812 -4.078125 2.40625 -4.078125 L 1.515625 -4.078125 Z M 1.515625 -2.46875 "/></g></g></g><g fill="#8bd13a" fill-opacity="1"><g transform="translate(83.847365, 6.570008)"><g><path d="M 0.546875 0 L 0.546875 -4.828125 L 1.953125 -4.828125 L 3.0625 -1.390625 L 4.171875 -4.828125 L 5.578125 -4.828125 L 5.578125 0 L 4.59375 0 L 4.59375 -3.6875 L 3.4375 0 L 2.671875 0 L 1.515625 -3.671875 L 1.515625 0 Z M 0.546875 0 "/></g></g></g><g fill="#8bd13a" fill-opacity="1"><g transform="translate(90.04128, 6.570008)"><g><path d="M 0.546875 0 L 0.546875 -4.828125 L 3.859375 -4.828125 L 3.84375 -4 L 1.515625 -4 L 1.515625 -2.828125 L 3.546875 -2.828125 L 3.546875 -2.03125 L 1.515625 -2.03125 L 1.515625 -0.828125 L 3.890625 -0.828125 L 3.890625 0 Z M 0.546875 0 "/></g></g></g><g fill="#8bd13a" fill-opacity="1"><g transform="translate(94.388713, 6.570008)"><g><path d="M 3.703125 -4.828125 L 4.6875 -4.828125 L 4.6875 0 L 3.796875 0 L 1.515625 -3.3125 L 1.515625 0 L 0.546875 0 L 0.546875 -4.828125 L 1.5 -4.828125 L 3.703125 -1.625 Z M 3.703125 -4.828125 "/></g></g></g><g fill="#8bd13a" fill-opacity="1"><g transform="translate(99.677751, 6.570008)"><g><path d="M 0.125 -3.953125 L 0.125 -4.828125 L 3.984375 -4.828125 L 3.984375 -3.953125 L 2.5625 -3.953125 L 2.5625 0 L 1.578125 0 L 1.578125 -3.953125 Z M 0.125 -3.953125 "/></g></g></g></g></g></g></g></g></g></svg>