<svg xmlns="http://www.w3.org/2000/svg" xmlns:xlink="http://www.w3.org/1999/xlink" width="200" zoomAndPan="magnify" viewBox="0 0 150 149.999998" height="200" preserveAspectRatio="xMidYMid meet" version="1.0"><defs><g/><clipPath id="d4b75e36ee"><path d="M 22.152344 59.835938 L 124.902344 59.835938 L 124.902344 94 L 22.152344 94 Z M 22.152344 59.835938 " clip-rule="nonzero"/></clipPath><clipPath id="fcff96ba5b"><path d="M 0.152344 2 L 84 2 L 84 33 L 0.152344 33 Z M 0.152344 2 " clip-rule="nonzero"/></clipPath><clipPath id="a4c049e74c"><path d="M 0.152344 0.988281 L 39 0.988281 L 39 23 L 0.152344 23 Z M 0.152344 0.988281 " clip-rule="nonzero"/></clipPath><clipPath id="a4f6bc5c94"><path d="M 18 13 L 102.78125 13 L 102.78125 34.359375 L 18 34.359375 Z M 18 13 " clip-rule="nonzero"/></clipPath><clipPath id="7d1ce7584c"><rect x="0" width="103" y="0" height="35"/></clipPath><clipPath id="84badc279d"><path d="M 0.238281 2 L 9 2 L 9 9 L 0.238281 9 Z M 0.238281 2 " clip-rule="nonzero"/></clipPath><clipPath id="313844284b"><rect x="0" width="126" y="0" height="11"/></clipPath></defs><g clip-path="url(#d4b75e36ee)"><g transform="matrix(1, 0, 0, 1, 22, 59)"><g clip-path="url(#7d1ce7584c)"><g clip-path="url(#fcff96ba5b)"><path fill="#a7d5f2" d="M -46.46875 2.480469 C -45.082031 4.804688 -41.613281 6.96875 -39.496094 8.621094 C -37.242188 10.371094 -34.890625 11.980469 -32.445312 13.445312 C -27.347656 16.515625 -21.964844 18.960938 -16.300781 20.78125 C -4.929688 24.433594 7.347656 25.421875 19.09375 23.136719 C 29.976562 21.019531 40.15625 16.292969 50.753906 13.03125 C 61.347656 9.765625 73 8.019531 83.390625 11.886719 C 81.539062 11.191406 77.769531 11.734375 75.777344 11.820312 C 73.457031 11.921875 71.121094 12.367188 68.863281 12.902344 C 63.964844 14.050781 59.273438 15.921875 54.710938 18.011719 C 45.476562 22.230469 36.628906 27.472656 26.804688 30.277344 C 18.007812 32.785156 8.6875 33.503906 -0.378906 32.265625 C -16.3125 30.085938 -31.589844 21.921875 -41.675781 9.378906 C -43.433594 7.1875 -45.03125 4.890625 -46.46875 2.480469 Z M -46.46875 2.480469 " fill-opacity="1" fill-rule="nonzero"/></g><g clip-path="url(#a4c049e74c)"><path fill="#ffffff" d="M -46.46875 0.847656 C -45.222656 2.027344 -42.71875 2.75 -41.164062 3.488281 C -39.457031 4.304688 -37.726562 5.046875 -36.003906 5.820312 C -32.441406 7.421875 -28.804688 8.847656 -25.101562 10.109375 C -17.683594 12.632812 -10.097656 14.460938 -2.34375 15.59375 C 11.195312 17.574219 24.898438 17.246094 38.382812 15.019531 C 35.136719 16.558594 31.800781 17.859375 28.367188 18.914062 C 15.042969 23.015625 0.617188 23.101562 -12.847656 19.585938 C -25.445312 16.300781 -37.015625 9.789062 -46.46875 0.847656 Z M -46.46875 0.847656 " fill-opacity="1" fill-rule="nonzero"/></g><g clip-path="url(#a4f6bc5c94)"><path fill="#ffffff" d="M 18.628906 33.363281 C 20.867188 33.855469 24.894531 32.421875 27.058594 31.789062 C 29.835938 30.976562 32.582031 29.90625 35.253906 28.804688 C 40.925781 26.46875 46.382812 23.660156 51.941406 21.074219 C 59.839844 17.390625 68.109375 14.109375 76.804688 13.449219 C 82.355469 13.027344 88.121094 13.769531 93.261719 15.96875 C 95.203125 16.800781 97.007812 17.871094 98.667969 19.175781 C 100.269531 20.441406 102.039062 21.988281 103.109375 23.746094 C 93.882812 19.121094 85.289062 17.597656 74.980469 19.925781 C 65.320312 22.109375 56.378906 26.628906 47.070312 30.027344 C 37.980469 33.339844 28.253906 35.472656 18.628906 33.363281 Z M 18.628906 33.363281 " fill-opacity="1" fill-rule="nonzero"/></g></g></g></g><g fill="#ffffff" fill-opacity="1"><g transform="translate(1.183595, 117.186305)"><g><path d="M 61.03125 2.1875 C 52.957031 2.1875 45.78125 0.925781 39.5 -1.59375 C 33.226562 -4.113281 27.90625 -7.785156 23.53125 -12.609375 C 19.164062 -17.429688 15.832031 -23.34375 13.53125 -30.34375 C 11.238281 -37.351562 10.09375 -45.285156 10.09375 -54.140625 C 10.09375 -63.222656 11.269531 -71.378906 13.625 -78.609375 C 15.976562 -85.835938 19.335938 -92.03125 23.703125 -97.1875 C 28.078125 -102.34375 33.316406 -106.289062 39.421875 -109.03125 C 45.535156 -111.78125 52.40625 -113.15625 60.03125 -113.15625 C 65.96875 -113.15625 71.398438 -112.3125 76.328125 -110.625 C 81.265625 -108.945312 85.550781 -106.566406 89.1875 -103.484375 C 92.832031 -100.398438 95.664062 -96.671875 97.6875 -92.296875 C 99.707031 -87.929688 100.71875 -83.003906 100.71875 -77.515625 L 86.25 -73.8125 C 86.363281 -79.644531 85.1875 -84.4375 82.71875 -88.1875 C 80.257812 -91.945312 77.007812 -94.804688 72.96875 -96.765625 C 68.9375 -98.722656 64.507812 -99.703125 59.6875 -99.703125 C 55.3125 -99.703125 51.078125 -98.832031 46.984375 -97.09375 C 42.898438 -95.363281 39.285156 -92.675781 36.140625 -89.03125 C 33.003906 -85.382812 30.539062 -80.726562 28.75 -75.0625 C 26.957031 -69.40625 26.0625 -62.597656 26.0625 -54.640625 C 26.0625 -44.554688 27.519531 -36.347656 30.4375 -30.015625 C 33.351562 -23.679688 37.5 -19.03125 42.875 -16.0625 C 48.257812 -13.09375 54.484375 -11.609375 61.546875 -11.609375 C 68.378906 -11.609375 73.867188 -12.867188 78.015625 -15.390625 C 82.160156 -17.910156 85.269531 -21.46875 87.34375 -26.0625 C 89.414062 -30.65625 90.566406 -36.035156 90.796875 -42.203125 L 104.75 -39.6875 C 104.632812 -33.851562 103.738281 -28.414062 102.0625 -23.375 C 100.382812 -18.332031 97.78125 -13.90625 94.25 -10.09375 C 90.71875 -6.28125 86.203125 -3.28125 80.703125 -1.09375 C 75.210938 1.09375 68.65625 2.1875 61.03125 2.1875 Z M 61.03125 2.1875 "/></g></g></g><g transform="matrix(1, 0, 0, 1, -0.000000000000000028, 139)"><g clip-path="url(#313844284b)"><g clip-path="url(#84badc279d)"><g fill="#ffffff" fill-opacity="1"><g transform="translate(0.435407, 8.322559)"><g><path d="M 7.828125 -6.078125 L 6.046875 0 L 5.328125 0 L 4 -4.71875 L 2.640625 0 L 1.953125 0 L 0.1875 -6.078125 L 0.984375 -6.078125 L 2.328125 -1.234375 L 3.6875 -6.078125 L 4.296875 -6.078125 L 5.671875 -1.234375 L 7.046875 -6.078125 Z M 7.828125 -6.078125 "/></g></g></g></g><g fill="#ffffff" fill-opacity="1"><g transform="translate(8.444874, 8.322559)"><g><path d="M 0.796875 0 L 0.796875 -6.078125 L 4.640625 -6.078125 L 4.625 -5.390625 L 1.578125 -5.390625 L 1.578125 -3.40625 L 4.328125 -3.40625 L 4.328125 -2.734375 L 1.578125 -2.734375 L 1.578125 -0.703125 L 4.71875 -0.6875 L 4.71875 0 Z M 0.796875 0 "/></g></g></g><g fill="#ffffff" fill-opacity="1"><g transform="translate(13.766318, 8.322559)"><g><path d="M 0.796875 0 L 0.796875 -6.078125 L 2.75 -6.078125 C 3.488281 -6.078125 4.046875 -5.941406 4.421875 -5.671875 C 4.804688 -5.398438 5 -5.007812 5 -4.5 C 5 -4.175781 4.914062 -3.898438 4.75 -3.671875 C 4.582031 -3.441406 4.289062 -3.25 3.875 -3.09375 C 4.113281 -3.039062 4.316406 -2.96875 4.484375 -2.875 C 4.648438 -2.78125 4.78125 -2.671875 4.875 -2.546875 C 4.976562 -2.421875 5.050781 -2.28125 5.09375 -2.125 C 5.132812 -1.96875 5.15625 -1.804688 5.15625 -1.640625 C 5.15625 -1.085938 4.957031 -0.675781 4.5625 -0.40625 C 4.175781 -0.132812 3.59375 0 2.8125 0 Z M 1.578125 -0.640625 L 2.8125 -0.640625 C 3.320312 -0.640625 3.707031 -0.722656 3.96875 -0.890625 C 4.226562 -1.054688 4.359375 -1.316406 4.359375 -1.671875 C 4.359375 -1.921875 4.289062 -2.125 4.15625 -2.28125 C 4.03125 -2.445312 3.859375 -2.566406 3.640625 -2.640625 C 3.421875 -2.710938 3.175781 -2.75 2.90625 -2.75 L 1.578125 -2.75 Z M 1.578125 -3.40625 L 2.90625 -3.40625 C 3.0625 -3.40625 3.21875 -3.421875 3.375 -3.453125 C 3.53125 -3.484375 3.675781 -3.535156 3.8125 -3.609375 C 3.945312 -3.679688 4.050781 -3.78125 4.125 -3.90625 C 4.207031 -4.039062 4.25 -4.203125 4.25 -4.390625 C 4.25 -4.742188 4.113281 -5.003906 3.84375 -5.171875 C 3.570312 -5.347656 3.222656 -5.4375 2.796875 -5.4375 L 1.578125 -5.4375 Z M 1.578125 -3.40625 "/></g></g></g><g fill="#ffffff" fill-opacity="1"><g transform="translate(19.398563, 8.322559)"><g/></g></g><g fill="#ffffff" fill-opacity="1"><g transform="translate(21.334781, 8.322559)"><g><path d="M 0.796875 -6.078125 C 0.816406 -6.078125 0.875 -6.078125 0.96875 -6.078125 C 1.070312 -6.078125 1.195312 -6.078125 1.34375 -6.078125 C 1.488281 -6.078125 1.632812 -6.078125 1.78125 -6.078125 C 1.9375 -6.078125 2.082031 -6.070312 2.21875 -6.0625 C 2.957031 -6.050781 3.554688 -5.929688 4.015625 -5.703125 C 4.484375 -5.472656 4.828125 -5.140625 5.046875 -4.703125 C 5.265625 -4.265625 5.375 -3.722656 5.375 -3.078125 C 5.375 -2.398438 5.253906 -1.832031 5.015625 -1.375 C 4.785156 -0.925781 4.429688 -0.582031 3.953125 -0.34375 C 3.472656 -0.113281 2.867188 0 2.140625 0 L 0.796875 0 Z M 1.59375 -5.40625 L 1.59375 -0.671875 L 2.140625 -0.671875 C 2.640625 -0.671875 3.066406 -0.75 3.421875 -0.90625 C 3.785156 -1.0625 4.066406 -1.3125 4.265625 -1.65625 C 4.460938 -2.007812 4.5625 -2.476562 4.5625 -3.0625 C 4.5625 -3.644531 4.460938 -4.109375 4.265625 -4.453125 C 4.078125 -4.796875 3.804688 -5.039062 3.453125 -5.1875 C 3.097656 -5.332031 2.671875 -5.40625 2.171875 -5.40625 Z M 1.59375 -5.40625 "/></g></g></g><g fill="#ffffff" fill-opacity="1"><g transform="translate(27.160227, 8.322559)"><g><path d="M 0.796875 0 L 0.796875 -6.078125 L 4.640625 -6.078125 L 4.625 -5.390625 L 1.578125 -5.390625 L 1.578125 -3.40625 L 4.328125 -3.40625 L 4.328125 -2.734375 L 1.578125 -2.734375 L 1.578125 -0.703125 L 4.71875 -0.6875 L 4.71875 0 Z M 0.796875 0 "/></g></g></g><g fill="#ffffff" fill-opacity="1"><g transform="translate(32.401872, 8.322559)"><g><path d="M 2.859375 0.078125 C 2.578125 0.078125 2.300781 0.046875 2.03125 -0.015625 C 1.757812 -0.0859375 1.515625 -0.195312 1.296875 -0.34375 C 1.078125 -0.488281 0.894531 -0.664062 0.75 -0.875 C 0.613281 -1.082031 0.523438 -1.328125 0.484375 -1.609375 L 1.296875 -1.609375 C 1.347656 -1.378906 1.445312 -1.1875 1.59375 -1.03125 C 1.75 -0.875 1.9375 -0.753906 2.15625 -0.671875 C 2.375 -0.597656 2.609375 -0.5625 2.859375 -0.5625 C 3.148438 -0.5625 3.40625 -0.597656 3.625 -0.671875 C 3.851562 -0.753906 4.03125 -0.867188 4.15625 -1.015625 C 4.289062 -1.171875 4.359375 -1.351562 4.359375 -1.5625 C 4.359375 -1.738281 4.316406 -1.894531 4.234375 -2.03125 C 4.148438 -2.164062 4.03125 -2.273438 3.875 -2.359375 C 3.71875 -2.453125 3.523438 -2.523438 3.296875 -2.578125 L 2.109375 -2.859375 C 1.660156 -2.953125 1.304688 -3.125 1.046875 -3.375 C 0.796875 -3.632812 0.671875 -3.972656 0.671875 -4.390625 C 0.671875 -4.734375 0.765625 -5.035156 0.953125 -5.296875 C 1.140625 -5.566406 1.394531 -5.773438 1.71875 -5.921875 C 2.039062 -6.078125 2.414062 -6.15625 2.84375 -6.15625 C 3.320312 -6.15625 3.726562 -6.070312 4.0625 -5.90625 C 4.394531 -5.738281 4.644531 -5.519531 4.8125 -5.25 C 4.976562 -4.976562 5.0625 -4.691406 5.0625 -4.390625 L 4.265625 -4.390625 C 4.234375 -4.660156 4.148438 -4.875 4.015625 -5.03125 C 3.878906 -5.195312 3.707031 -5.316406 3.5 -5.390625 C 3.300781 -5.460938 3.082031 -5.5 2.84375 -5.5 C 2.664062 -5.5 2.492188 -5.472656 2.328125 -5.421875 C 2.171875 -5.378906 2.03125 -5.316406 1.90625 -5.234375 C 1.78125 -5.148438 1.675781 -5.039062 1.59375 -4.90625 C 1.519531 -4.78125 1.484375 -4.628906 1.484375 -4.453125 C 1.484375 -4.234375 1.554688 -4.054688 1.703125 -3.921875 C 1.859375 -3.785156 2.132812 -3.671875 2.53125 -3.578125 L 3.6875 -3.296875 C 3.988281 -3.234375 4.234375 -3.132812 4.421875 -3 C 4.617188 -2.875 4.769531 -2.734375 4.875 -2.578125 C 4.976562 -2.421875 5.050781 -2.253906 5.09375 -2.078125 C 5.132812 -1.898438 5.15625 -1.726562 5.15625 -1.5625 C 5.15625 -1.257812 5.0625 -0.984375 4.875 -0.734375 C 4.695312 -0.484375 4.4375 -0.285156 4.09375 -0.140625 C 3.75 0.00390625 3.335938 0.078125 2.859375 0.078125 Z M 2.859375 0.078125 "/></g></g></g><g fill="#ffffff" fill-opacity="1"><g transform="translate(38.029919, 8.322559)"><g><path d="M 0.796875 -6.078125 L 1.578125 -6.078125 L 1.578125 0 L 0.796875 0 Z M 0.796875 -6.078125 "/></g></g></g><g fill="#ffffff" fill-opacity="1"><g transform="translate(40.407142, 8.322559)"><g><path d="M 3.03125 0.078125 C 2.5 0.078125 2.039062 -0.0390625 1.65625 -0.28125 C 1.269531 -0.53125 0.972656 -0.882812 0.765625 -1.34375 C 0.554688 -1.800781 0.453125 -2.359375 0.453125 -3.015625 C 0.453125 -3.679688 0.554688 -4.25 0.765625 -4.71875 C 0.984375 -5.1875 1.285156 -5.539062 1.671875 -5.78125 C 2.066406 -6.03125 2.53125 -6.15625 3.0625 -6.15625 C 3.375 -6.15625 3.660156 -6.101562 3.921875 -6 C 4.191406 -5.894531 4.429688 -5.75 4.640625 -5.5625 C 4.847656 -5.382812 5.015625 -5.175781 5.140625 -4.9375 C 5.265625 -4.695312 5.335938 -4.453125 5.359375 -4.203125 L 4.515625 -4.203125 C 4.484375 -4.429688 4.398438 -4.640625 4.265625 -4.828125 C 4.128906 -5.023438 3.957031 -5.179688 3.75 -5.296875 C 3.539062 -5.410156 3.3125 -5.46875 3.0625 -5.46875 C 2.707031 -5.46875 2.394531 -5.378906 2.125 -5.203125 C 1.863281 -5.035156 1.660156 -4.769531 1.515625 -4.40625 C 1.367188 -4.050781 1.296875 -3.59375 1.296875 -3.03125 C 1.296875 -2.601562 1.335938 -2.234375 1.421875 -1.921875 C 1.515625 -1.617188 1.640625 -1.367188 1.796875 -1.171875 C 1.960938 -0.984375 2.15625 -0.84375 2.375 -0.75 C 2.59375 -0.664062 2.828125 -0.625 3.078125 -0.625 C 3.328125 -0.625 3.546875 -0.664062 3.734375 -0.75 C 3.929688 -0.84375 4.09375 -0.957031 4.21875 -1.09375 C 4.34375 -1.238281 4.4375 -1.390625 4.5 -1.546875 C 4.570312 -1.710938 4.613281 -1.875 4.625 -2.03125 L 4.640625 -2.5625 L 3.171875 -2.5625 L 3.171875 -3.140625 L 5.453125 -3.140625 L 5.453125 0 L 4.859375 0 L 4.859375 -0.921875 C 4.753906 -0.753906 4.617188 -0.59375 4.453125 -0.4375 C 4.296875 -0.28125 4.097656 -0.15625 3.859375 -0.0625 C 3.628906 0.03125 3.351562 0.078125 3.03125 0.078125 Z M 3.03125 0.078125 "/></g></g></g><g fill="#ffffff" fill-opacity="1"><g transform="translate(46.564398, 8.322559)"><g><path d="M 4.765625 -6.078125 L 5.53125 -6.078125 L 5.53125 0 L 4.84375 0 L 1.578125 -4.796875 L 1.578125 0 L 0.796875 0 L 0.796875 -6.078125 L 1.546875 -6.078125 L 4.765625 -1.359375 Z M 4.765625 -6.078125 "/></g></g></g><g fill="#ffffff" fill-opacity="1"><g transform="translate(52.898054, 8.322559)"><g/></g></g><g fill="#ffffff" fill-opacity="1"><g transform="translate(54.834272, 8.322559)"><g><path d="M 2.625 -6.171875 C 2.914062 -6.171875 3.1875 -6.113281 3.4375 -6 C 3.695312 -5.894531 3.898438 -5.742188 4.046875 -5.546875 C 4.203125 -5.359375 4.28125 -5.132812 4.28125 -4.875 C 4.28125 -4.769531 4.257812 -4.65625 4.21875 -4.53125 C 4.175781 -4.40625 4.101562 -4.269531 4 -4.125 C 3.894531 -3.976562 3.75 -3.828125 3.5625 -3.671875 C 3.375 -3.523438 3.132812 -3.378906 2.84375 -3.234375 L 4.171875 -1.671875 C 4.222656 -1.742188 4.285156 -1.851562 4.359375 -2 C 4.441406 -2.15625 4.515625 -2.335938 4.578125 -2.546875 C 4.648438 -2.765625 4.695312 -3.007812 4.71875 -3.28125 L 5.484375 -3.28125 C 5.441406 -2.988281 5.375 -2.722656 5.28125 -2.484375 C 5.1875 -2.242188 5.078125 -2.015625 4.953125 -1.796875 C 4.828125 -1.585938 4.695312 -1.390625 4.5625 -1.203125 L 5.59375 0 L 4.6875 0 L 4.09375 -0.671875 C 3.78125 -0.421875 3.460938 -0.238281 3.140625 -0.125 C 2.828125 -0.0078125 2.515625 0.046875 2.203125 0.046875 C 1.804688 0.046875 1.46875 -0.0195312 1.1875 -0.15625 C 0.914062 -0.289062 0.707031 -0.472656 0.5625 -0.703125 C 0.425781 -0.941406 0.359375 -1.21875 0.359375 -1.53125 C 0.359375 -1.789062 0.410156 -2.023438 0.515625 -2.234375 C 0.628906 -2.453125 0.789062 -2.648438 1 -2.828125 C 1.21875 -3.015625 1.488281 -3.195312 1.8125 -3.375 C 1.65625 -3.539062 1.519531 -3.703125 1.40625 -3.859375 C 1.289062 -4.015625 1.203125 -4.171875 1.140625 -4.328125 C 1.078125 -4.484375 1.046875 -4.648438 1.046875 -4.828125 C 1.046875 -5.085938 1.113281 -5.316406 1.25 -5.515625 C 1.382812 -5.710938 1.566406 -5.867188 1.796875 -5.984375 C 2.035156 -6.109375 2.3125 -6.171875 2.625 -6.171875 Z M 2.640625 -5.640625 C 2.378906 -5.628906 2.175781 -5.550781 2.03125 -5.40625 C 1.894531 -5.257812 1.828125 -5.082031 1.828125 -4.875 C 1.828125 -4.738281 1.859375 -4.601562 1.921875 -4.46875 C 1.984375 -4.332031 2.050781 -4.207031 2.125 -4.09375 C 2.207031 -3.988281 2.28125 -3.898438 2.34375 -3.828125 L 2.5 -3.65625 C 2.789062 -3.832031 3.015625 -3.988281 3.171875 -4.125 C 3.328125 -4.257812 3.429688 -4.382812 3.484375 -4.5 C 3.546875 -4.613281 3.578125 -4.734375 3.578125 -4.859375 C 3.578125 -5.046875 3.53125 -5.195312 3.4375 -5.3125 C 3.34375 -5.425781 3.222656 -5.507812 3.078125 -5.5625 C 2.941406 -5.613281 2.796875 -5.640625 2.640625 -5.640625 Z M 2.203125 -2.90625 C 1.910156 -2.738281 1.671875 -2.539062 1.484375 -2.3125 C 1.296875 -2.082031 1.207031 -1.828125 1.21875 -1.546875 C 1.226562 -1.347656 1.285156 -1.175781 1.390625 -1.03125 C 1.503906 -0.882812 1.644531 -0.769531 1.8125 -0.6875 C 1.976562 -0.613281 2.160156 -0.578125 2.359375 -0.578125 C 2.597656 -0.578125 2.835938 -0.628906 3.078125 -0.734375 C 3.316406 -0.835938 3.523438 -0.976562 3.703125 -1.15625 Z M 2.203125 -2.90625 "/></g></g></g><g fill="#ffffff" fill-opacity="1"><g transform="translate(60.785723, 8.322559)"><g/></g></g><g fill="#ffffff" fill-opacity="1"><g transform="translate(62.721942, 8.322559)"><g><path d="M 0.796875 -6.078125 C 0.816406 -6.078125 0.875 -6.078125 0.96875 -6.078125 C 1.070312 -6.078125 1.195312 -6.078125 1.34375 -6.078125 C 1.488281 -6.078125 1.632812 -6.078125 1.78125 -6.078125 C 1.9375 -6.078125 2.082031 -6.070312 2.21875 -6.0625 C 2.957031 -6.050781 3.554688 -5.929688 4.015625 -5.703125 C 4.484375 -5.472656 4.828125 -5.140625 5.046875 -4.703125 C 5.265625 -4.265625 5.375 -3.722656 5.375 -3.078125 C 5.375 -2.398438 5.253906 -1.832031 5.015625 -1.375 C 4.785156 -0.925781 4.429688 -0.582031 3.953125 -0.34375 C 3.472656 -0.113281 2.867188 0 2.140625 0 L 0.796875 0 Z M 1.59375 -5.40625 L 1.59375 -0.671875 L 2.140625 -0.671875 C 2.640625 -0.671875 3.066406 -0.75 3.421875 -0.90625 C 3.785156 -1.0625 4.066406 -1.3125 4.265625 -1.65625 C 4.460938 -2.007812 4.5625 -2.476562 4.5625 -3.0625 C 4.5625 -3.644531 4.460938 -4.109375 4.265625 -4.453125 C 4.078125 -4.796875 3.804688 -5.039062 3.453125 -5.1875 C 3.097656 -5.332031 2.671875 -5.40625 2.171875 -5.40625 Z M 1.59375 -5.40625 "/></g></g></g><g fill="#ffffff" fill-opacity="1"><g transform="translate(68.547387, 8.322559)"><g><path d="M 0.796875 0 L 0.796875 -6.078125 L 4.640625 -6.078125 L 4.625 -5.390625 L 1.578125 -5.390625 L 1.578125 -3.40625 L 4.328125 -3.40625 L 4.328125 -2.734375 L 1.578125 -2.734375 L 1.578125 -0.703125 L 4.71875 -0.6875 L 4.71875 0 Z M 0.796875 0 "/></g></g></g><g fill="#ffffff" fill-opacity="1"><g transform="translate(73.789032, 8.322559)"><g><path d="M 5.40625 -6.078125 L 3.25 0 L 2.3125 0 L 0.1875 -6.078125 L 0.96875 -6.078125 L 2.78125 -0.890625 L 4.640625 -6.078125 Z M 5.40625 -6.078125 "/></g></g></g><g fill="#ffffff" fill-opacity="1"><g transform="translate(79.383476, 8.322559)"><g><path d="M 0.796875 0 L 0.796875 -6.078125 L 4.640625 -6.078125 L 4.625 -5.390625 L 1.578125 -5.390625 L 1.578125 -3.40625 L 4.328125 -3.40625 L 4.328125 -2.734375 L 1.578125 -2.734375 L 1.578125 -0.703125 L 4.71875 -0.6875 L 4.71875 0 Z M 0.796875 0 "/></g></g></g><g fill="#ffffff" fill-opacity="1"><g transform="translate(84.704921, 8.322559)"><g><path d="M 0.8125 -6.078125 L 1.59375 -6.078125 L 1.59375 -0.703125 L 4.46875 -0.703125 L 4.46875 0 L 0.796875 0 Z M 0.8125 -6.078125 "/></g></g></g><g fill="#ffffff" fill-opacity="1"><g transform="translate(89.387962, 8.322559)"><g><path d="M 3.09375 0.078125 C 2.550781 0.078125 2.082031 -0.0390625 1.6875 -0.28125 C 1.289062 -0.519531 0.984375 -0.867188 0.765625 -1.328125 C 0.554688 -1.796875 0.453125 -2.363281 0.453125 -3.03125 C 0.453125 -3.6875 0.554688 -4.25 0.765625 -4.71875 C 0.984375 -5.1875 1.289062 -5.539062 1.6875 -5.78125 C 2.09375 -6.03125 2.5625 -6.15625 3.09375 -6.15625 C 3.632812 -6.15625 4.097656 -6.03125 4.484375 -5.78125 C 4.878906 -5.539062 5.179688 -5.1875 5.390625 -4.71875 C 5.609375 -4.257812 5.71875 -3.695312 5.71875 -3.03125 C 5.71875 -2.363281 5.609375 -1.796875 5.390625 -1.328125 C 5.179688 -0.867188 4.878906 -0.519531 4.484375 -0.28125 C 4.097656 -0.0390625 3.632812 0.078125 3.09375 0.078125 Z M 3.09375 -0.59375 C 3.46875 -0.59375 3.785156 -0.675781 4.046875 -0.84375 C 4.316406 -1.019531 4.519531 -1.285156 4.65625 -1.640625 C 4.789062 -2.003906 4.859375 -2.460938 4.859375 -3.015625 C 4.859375 -3.578125 4.785156 -4.039062 4.640625 -4.40625 C 4.503906 -4.769531 4.304688 -5.039062 4.046875 -5.21875 C 3.785156 -5.394531 3.46875 -5.484375 3.09375 -5.484375 C 2.71875 -5.484375 2.394531 -5.394531 2.125 -5.21875 C 1.863281 -5.039062 1.660156 -4.769531 1.515625 -4.40625 C 1.378906 -4.039062 1.3125 -3.578125 1.3125 -3.015625 C 1.3125 -2.460938 1.378906 -2.003906 1.515625 -1.640625 C 1.660156 -1.285156 1.863281 -1.019531 2.125 -0.84375 C 2.394531 -0.675781 2.71875 -0.59375 3.09375 -0.59375 Z M 3.09375 -0.59375 "/></g></g></g><g fill="#ffffff" fill-opacity="1"><g transform="translate(95.553613, 8.322559)"><g><path d="M 0.796875 0 L 0.796875 -6.078125 L 2.859375 -6.078125 C 3.296875 -6.078125 3.679688 -6.003906 4.015625 -5.859375 C 4.359375 -5.710938 4.625 -5.492188 4.8125 -5.203125 C 5.007812 -4.921875 5.109375 -4.570312 5.109375 -4.15625 C 5.109375 -3.75 5.015625 -3.398438 4.828125 -3.109375 C 4.648438 -2.828125 4.398438 -2.613281 4.078125 -2.46875 C 3.765625 -2.320312 3.394531 -2.25 2.96875 -2.25 L 1.59375 -2.25 L 1.59375 0 Z M 1.59375 -2.90625 L 2.953125 -2.90625 C 3.367188 -2.90625 3.707031 -3.019531 3.96875 -3.25 C 4.226562 -3.488281 4.359375 -3.804688 4.359375 -4.203125 C 4.359375 -4.609375 4.222656 -4.914062 3.953125 -5.125 C 3.679688 -5.332031 3.332031 -5.4375 2.90625 -5.4375 L 1.59375 -5.4375 Z M 1.59375 -2.90625 "/></g></g></g><g fill="#ffffff" fill-opacity="1"><g transform="translate(100.900254, 8.322559)"><g><path d="M 0.796875 0 L 0.796875 -6.078125 L 1.875 -6.078125 L 3.71875 -1.0625 L 5.5625 -6.078125 L 6.640625 -6.078125 L 6.640625 0 L 5.84375 0 L 5.84375 -4.90625 L 4.078125 0 L 3.34375 0 L 1.59375 -4.859375 L 1.59375 0 Z M 0.796875 0 "/></g></g></g><g fill="#ffffff" fill-opacity="1"><g transform="translate(108.338514, 8.322559)"><g><path d="M 0.796875 0 L 0.796875 -6.078125 L 4.640625 -6.078125 L 4.625 -5.390625 L 1.578125 -5.390625 L 1.578125 -3.40625 L 4.328125 -3.40625 L 4.328125 -2.734375 L 1.578125 -2.734375 L 1.578125 -0.703125 L 4.71875 -0.6875 L 4.71875 0 Z M 0.796875 0 "/></g></g></g><g fill="#ffffff" fill-opacity="1"><g transform="translate(113.659958, 8.322559)"><g><path d="M 4.765625 -6.078125 L 5.53125 -6.078125 L 5.53125 0 L 4.84375 0 L 1.578125 -4.796875 L 1.578125 0 L 0.796875 0 L 0.796875 -6.078125 L 1.546875 -6.078125 L 4.765625 -1.359375 Z M 4.765625 -6.078125 "/></g></g></g><g fill="#ffffff" fill-opacity="1"><g transform="translate(119.993614, 8.322559)"><g><path d="M 0.1875 -5.359375 L 0.1875 -6.078125 L 4.796875 -6.078125 L 4.796875 -5.359375 L 2.9375 -5.359375 L 2.9375 0 L 2.15625 0 L 2.15625 -5.359375 Z M 0.1875 -5.359375 "/></g></g></g></g></g><g fill="#ffffff" fill-opacity="1"><g transform="translate(0.435407, 138.583777)"><g><path d="M 6.890625 0.296875 C 5.765625 0.296875 4.753906 0.03125 3.859375 -0.5 C 2.972656 -1.03125 2.269531 -1.8125 1.75 -2.84375 C 1.238281 -3.875 0.984375 -5.164062 0.984375 -6.71875 C 0.984375 -7.851562 1.128906 -8.867188 1.421875 -9.765625 C 1.722656 -10.660156 2.160156 -11.421875 2.734375 -12.046875 C 3.304688 -12.679688 4.007812 -13.164062 4.84375 -13.5 C 5.6875 -13.84375 6.664062 -14.015625 7.78125 -14.015625 C 8.625 -14.015625 9.382812 -13.910156 10.0625 -13.703125 C 10.738281 -13.503906 11.320312 -13.222656 11.8125 -12.859375 C 12.3125 -12.492188 12.695312 -12.050781 12.96875 -11.53125 C 13.25 -11.019531 13.394531 -10.441406 13.40625 -9.796875 L 10.578125 -8.984375 C 10.566406 -9.410156 10.484375 -9.785156 10.328125 -10.109375 C 10.171875 -10.441406 9.957031 -10.710938 9.6875 -10.921875 C 9.425781 -11.140625 9.117188 -11.300781 8.765625 -11.40625 C 8.421875 -11.507812 8.050781 -11.5625 7.65625 -11.5625 C 7.1875 -11.5625 6.738281 -11.476562 6.3125 -11.3125 C 5.882812 -11.15625 5.507812 -10.898438 5.1875 -10.546875 C 4.863281 -10.203125 4.601562 -9.722656 4.40625 -9.109375 C 4.21875 -8.492188 4.125 -7.738281 4.125 -6.84375 C 4.125 -5.9375 4.21875 -5.175781 4.40625 -4.5625 C 4.601562 -3.957031 4.867188 -3.476562 5.203125 -3.125 C 5.546875 -2.769531 5.9375 -2.515625 6.375 -2.359375 C 6.8125 -2.203125 7.269531 -2.125 7.75 -2.125 C 8.363281 -2.125 8.890625 -2.226562 9.328125 -2.4375 C 9.773438 -2.644531 10.128906 -2.957031 10.390625 -3.375 C 10.660156 -3.789062 10.804688 -4.316406 10.828125 -4.953125 L 8.28125 -4.953125 L 8.28125 -7.109375 L 13.78125 -7.109375 L 13.78125 0 L 11.6875 0 L 11.75 -3.53125 L 11.375 -3.53125 C 11.164062 -2.695312 10.875 -1.992188 10.5 -1.421875 C 10.125 -0.859375 9.640625 -0.429688 9.046875 -0.140625 C 8.460938 0.148438 7.742188 0.296875 6.890625 0.296875 Z M 6.890625 0.296875 "/></g></g></g><g fill="#ffffff" fill-opacity="1"><g transform="translate(15.299599, 138.583777)"><g><path d="M 7.5 0.296875 C 6.675781 0.296875 5.929688 0.207031 5.265625 0.03125 C 4.609375 -0.144531 4.035156 -0.394531 3.546875 -0.71875 C 3.066406 -1.039062 2.664062 -1.429688 2.34375 -1.890625 C 2.03125 -2.359375 1.789062 -2.882812 1.625 -3.46875 C 1.46875 -4.050781 1.390625 -4.691406 1.390625 -5.390625 L 1.390625 -13.71875 L 4.390625 -13.71875 L 4.390625 -5.484375 C 4.390625 -4.765625 4.503906 -4.171875 4.734375 -3.703125 C 4.972656 -3.242188 5.320312 -2.90625 5.78125 -2.6875 C 6.238281 -2.476562 6.804688 -2.375 7.484375 -2.375 C 8.179688 -2.375 8.757812 -2.484375 9.21875 -2.703125 C 9.675781 -2.921875 10.015625 -3.257812 10.234375 -3.71875 C 10.460938 -4.175781 10.578125 -4.765625 10.578125 -5.484375 L 10.578125 -13.71875 L 13.578125 -13.71875 L 13.578125 -5.390625 C 13.578125 -4.472656 13.445312 -3.660156 13.1875 -2.953125 C 12.9375 -2.253906 12.554688 -1.660156 12.046875 -1.171875 C 11.546875 -0.691406 10.910156 -0.328125 10.140625 -0.078125 C 9.378906 0.171875 8.5 0.296875 7.5 0.296875 Z M 7.5 0.296875 "/></g></g></g><g fill="#ffffff" fill-opacity="1"><g transform="translate(30.267738, 138.583777)"><g><path d="M 1.484375 0 L 1.484375 -13.71875 L 4.46875 -13.71875 L 4.46875 0 Z M 2.078125 0 L 2.078125 -2.53125 L 10.234375 -2.53125 L 10.234375 0 Z M 2.078125 0 "/></g></g></g><g fill="#ffffff" fill-opacity="1"><g transform="translate(40.745433, 138.583777)"><g><path d="M 1.484375 0 L 1.484375 -13.71875 L 4.46875 -13.71875 L 4.46875 0 Z M 2.890625 -5.140625 L 2.890625 -7.59375 L 10.828125 -7.59375 L 10.828125 -5.140625 Z M 2.890625 -11.171875 L 2.890625 -13.71875 L 11.609375 -13.71875 L 11.609375 -11.171875 Z M 2.890625 -11.171875 "/></g></g></g><g fill="#ffffff" fill-opacity="1"><g transform="translate(52.92784, 138.583777)"><g/></g></g><g fill="#ffffff" fill-opacity="1"><g transform="translate(57.667754, 138.583777)"><g><path d="M 7.75 0.296875 C 6.6875 0.296875 5.734375 0.144531 4.890625 -0.15625 C 4.054688 -0.46875 3.347656 -0.921875 2.765625 -1.515625 C 2.179688 -2.109375 1.738281 -2.84375 1.4375 -3.71875 C 1.132812 -4.59375 0.984375 -5.59375 0.984375 -6.71875 C 0.984375 -7.882812 1.132812 -8.910156 1.4375 -9.796875 C 1.75 -10.691406 2.195312 -11.457031 2.78125 -12.09375 C 3.363281 -12.726562 4.054688 -13.207031 4.859375 -13.53125 C 5.671875 -13.851562 6.570312 -14.015625 7.5625 -14.015625 C 8.34375 -14.015625 9.054688 -13.910156 9.703125 -13.703125 C 10.359375 -13.492188 10.921875 -13.195312 11.390625 -12.8125 C 11.867188 -12.4375 12.238281 -11.972656 12.5 -11.421875 C 12.757812 -10.878906 12.890625 -10.269531 12.890625 -9.59375 L 10.125 -8.875 C 10.125 -9.476562 10 -9.972656 9.75 -10.359375 C 9.5 -10.753906 9.171875 -11.050781 8.765625 -11.25 C 8.367188 -11.457031 7.9375 -11.5625 7.46875 -11.5625 C 7.050781 -11.5625 6.644531 -11.476562 6.25 -11.3125 C 5.851562 -11.144531 5.488281 -10.878906 5.15625 -10.515625 C 4.832031 -10.148438 4.578125 -9.671875 4.390625 -9.078125 C 4.210938 -8.484375 4.125 -7.757812 4.125 -6.90625 C 4.125 -5.789062 4.28125 -4.882812 4.59375 -4.1875 C 4.914062 -3.488281 5.359375 -2.972656 5.921875 -2.640625 C 6.484375 -2.316406 7.113281 -2.15625 7.8125 -2.15625 C 8.5625 -2.15625 9.148438 -2.3125 9.578125 -2.625 C 10.003906 -2.9375 10.304688 -3.34375 10.484375 -3.84375 C 10.671875 -4.34375 10.773438 -4.867188 10.796875 -5.421875 L 13.4375 -5.015625 C 13.414062 -4.273438 13.304688 -3.582031 13.109375 -2.9375 C 12.910156 -2.289062 12.582031 -1.722656 12.125 -1.234375 C 11.675781 -0.753906 11.09375 -0.378906 10.375 -0.109375 C 9.65625 0.160156 8.78125 0.296875 7.75 0.296875 Z M 7.75 0.296875 "/></g></g></g><g fill="#ffffff" fill-opacity="1"><g transform="translate(71.741972, 138.583777)"><g><path d="M 7.421875 0.296875 C 6.421875 0.296875 5.523438 0.140625 4.734375 -0.171875 C 3.953125 -0.484375 3.28125 -0.941406 2.71875 -1.546875 C 2.15625 -2.148438 1.722656 -2.890625 1.421875 -3.765625 C 1.128906 -4.648438 0.984375 -5.660156 0.984375 -6.796875 C 0.984375 -8.421875 1.265625 -9.765625 1.828125 -10.828125 C 2.398438 -11.890625 3.175781 -12.6875 4.15625 -13.21875 C 5.144531 -13.75 6.257812 -14.015625 7.5 -14.015625 C 8.476562 -14.015625 9.359375 -13.859375 10.140625 -13.546875 C 10.929688 -13.234375 11.609375 -12.773438 12.171875 -12.171875 C 12.734375 -11.566406 13.164062 -10.820312 13.46875 -9.9375 C 13.78125 -9.050781 13.9375 -8.023438 13.9375 -6.859375 C 13.9375 -5.679688 13.78125 -4.648438 13.46875 -3.765625 C 13.15625 -2.878906 12.710938 -2.132812 12.140625 -1.53125 C 11.578125 -0.925781 10.894531 -0.46875 10.09375 -0.15625 C 9.300781 0.144531 8.410156 0.296875 7.421875 0.296875 Z M 7.484375 -2.09375 C 7.867188 -2.09375 8.257812 -2.160156 8.65625 -2.296875 C 9.050781 -2.441406 9.421875 -2.679688 9.765625 -3.015625 C 10.109375 -3.347656 10.375 -3.816406 10.5625 -4.421875 C 10.757812 -5.023438 10.859375 -5.785156 10.859375 -6.703125 C 10.859375 -7.804688 10.710938 -8.710938 10.421875 -9.421875 C 10.140625 -10.140625 9.738281 -10.671875 9.21875 -11.015625 C 8.695312 -11.367188 8.101562 -11.546875 7.4375 -11.546875 C 7.082031 -11.546875 6.707031 -11.476562 6.3125 -11.34375 C 5.914062 -11.207031 5.539062 -10.96875 5.1875 -10.625 C 4.84375 -10.289062 4.566406 -9.816406 4.359375 -9.203125 C 4.160156 -8.597656 4.0625 -7.8125 4.0625 -6.84375 C 4.0625 -5.925781 4.15625 -5.164062 4.34375 -4.5625 C 4.539062 -3.957031 4.800781 -3.472656 5.125 -3.109375 C 5.445312 -2.753906 5.8125 -2.492188 6.21875 -2.328125 C 6.632812 -2.171875 7.054688 -2.09375 7.484375 -2.09375 Z M 7.484375 -2.09375 "/></g></g></g><g fill="#ffffff" fill-opacity="1"><g transform="translate(86.086224, 138.583777)"><g><path d="M 0.359375 0 L 5.03125 -13.71875 L 9.375 -13.71875 L 14.078125 0 L 10.8125 0 L 7.359375 -11.359375 L 7.078125 -11.359375 L 3.59375 0 Z M 2.96875 -2.6875 L 2.96875 -4.734375 L 11.875 -4.734375 L 11.875 -2.6875 Z M 2.96875 -2.6875 "/></g></g></g><g fill="#ffffff" fill-opacity="1"><g transform="translate(100.264274, 138.583777)"><g><path d="M 6.765625 0.296875 C 5.859375 0.296875 5.046875 0.203125 4.328125 0.015625 C 3.617188 -0.160156 3.007812 -0.425781 2.5 -0.78125 C 2 -1.132812 1.609375 -1.578125 1.328125 -2.109375 C 1.054688 -2.640625 0.898438 -3.257812 0.859375 -3.96875 L 3.5 -4.796875 C 3.519531 -4.179688 3.671875 -3.664062 3.953125 -3.25 C 4.242188 -2.832031 4.648438 -2.519531 5.171875 -2.3125 C 5.691406 -2.113281 6.273438 -2.015625 6.921875 -2.015625 C 7.535156 -2.015625 8.050781 -2.085938 8.46875 -2.234375 C 8.894531 -2.390625 9.21875 -2.597656 9.4375 -2.859375 C 9.664062 -3.117188 9.78125 -3.398438 9.78125 -3.703125 C 9.78125 -4.066406 9.632812 -4.359375 9.34375 -4.578125 C 9.0625 -4.796875 8.679688 -4.976562 8.203125 -5.125 C 7.734375 -5.28125 7.195312 -5.429688 6.59375 -5.578125 C 5.914062 -5.742188 5.25 -5.921875 4.59375 -6.109375 C 3.945312 -6.296875 3.359375 -6.539062 2.828125 -6.84375 C 2.296875 -7.144531 1.875 -7.535156 1.5625 -8.015625 C 1.257812 -8.503906 1.109375 -9.117188 1.109375 -9.859375 C 1.109375 -10.703125 1.316406 -11.429688 1.734375 -12.046875 C 2.160156 -12.671875 2.773438 -13.15625 3.578125 -13.5 C 4.390625 -13.84375 5.378906 -14.015625 6.546875 -14.015625 C 7.679688 -14.015625 8.664062 -13.84375 9.5 -13.5 C 10.332031 -13.164062 10.976562 -12.679688 11.4375 -12.046875 C 11.894531 -11.421875 12.128906 -10.6875 12.140625 -9.84375 L 9.46875 -9.109375 C 9.46875 -9.535156 9.394531 -9.910156 9.25 -10.234375 C 9.113281 -10.566406 8.921875 -10.835938 8.671875 -11.046875 C 8.421875 -11.265625 8.113281 -11.425781 7.75 -11.53125 C 7.382812 -11.644531 6.972656 -11.703125 6.515625 -11.703125 C 5.972656 -11.703125 5.503906 -11.628906 5.109375 -11.484375 C 4.722656 -11.335938 4.429688 -11.148438 4.234375 -10.921875 C 4.035156 -10.691406 3.9375 -10.421875 3.9375 -10.109375 C 3.9375 -9.734375 4.085938 -9.425781 4.390625 -9.1875 C 4.691406 -8.957031 5.101562 -8.757812 5.625 -8.59375 C 6.144531 -8.4375 6.710938 -8.289062 7.328125 -8.15625 C 7.921875 -8.03125 8.523438 -7.875 9.140625 -7.6875 C 9.753906 -7.5 10.328125 -7.253906 10.859375 -6.953125 C 11.398438 -6.660156 11.832031 -6.257812 12.15625 -5.75 C 12.476562 -5.238281 12.640625 -4.597656 12.640625 -3.828125 C 12.640625 -2.992188 12.414062 -2.269531 11.96875 -1.65625 C 11.53125 -1.039062 10.875 -0.5625 10 -0.21875 C 9.125 0.125 8.046875 0.296875 6.765625 0.296875 Z M 6.765625 0.296875 "/></g></g></g><g fill="#ffffff" fill-opacity="1"><g transform="translate(113.569231, 138.583777)"><g><path d="M 4.375 0 L 4.375 -13.71875 L 7.390625 -13.71875 L 7.390625 0 Z M 0.375 -11.203125 L 0.375 -13.71875 L 11.390625 -13.71875 L 11.390625 -11.203125 Z M 0.375 -11.203125 "/></g></g></g></svg>