<svg xmlns="http://www.w3.org/2000/svg" xmlns:xlink="http://www.w3.org/1999/xlink" width="200" zoomAndPan="magnify" viewBox="0 0 150 30.000001" height="40" preserveAspectRatio="xMidYMid meet" version="1.0"><defs><g/><clipPath id="7c73f8430b"><path d="M 2.417969 0 L 130 0 L 130 29 L 2.417969 29 Z M 2.417969 0 " clip-rule="nonzero"/></clipPath><clipPath id="4ffa752921"><path d="M 2.757812 7.234375 L 18.972656 7.234375 L 18.972656 12.355469 L 2.757812 12.355469 Z M 2.757812 7.234375 " clip-rule="nonzero"/></clipPath><clipPath id="02332281c4"><path d="M 0.757812 0.621094 L 14 0.621094 L 14 5.355469 L 0.757812 5.355469 Z M 0.757812 0.621094 " clip-rule="nonzero"/></clipPath><clipPath id="27b615eaf6"><path d="M 0.757812 0.621094 L 7 0.621094 L 7 4 L 0.757812 4 Z M 0.757812 0.621094 " clip-rule="nonzero"/></clipPath><clipPath id="c87518d4f8"><path d="M 3 2 L 16.972656 2 L 16.972656 5.355469 L 3 5.355469 Z M 3 2 " clip-rule="nonzero"/></clipPath><clipPath id="d474d3c9be"><rect x="0" width="17" y="0" height="6"/></clipPath><clipPath id="14cab795da"><path d="M 0.417969 0 L 17 0 L 17 24 L 0.417969 24 Z M 0.417969 0 " clip-rule="nonzero"/></clipPath><clipPath id="068e9f542d"><rect x="0" width="17" y="0" height="24"/></clipPath><clipPath id="b4977769d6"><path d="M 17 0 L 127.929688 0 L 127.929688 24 L 17 24 Z M 17 0 " clip-rule="nonzero"/></clipPath><clipPath id="241b010299"><rect x="0" width="111" y="0" height="24"/></clipPath><clipPath id="856d88fa26"><path d="M 2 17 L 127.929688 17 L 127.929688 28.800781 L 2 28.800781 Z M 2 17 " clip-rule="nonzero"/></clipPath><clipPath id="3518801299"><path d="M 0.277344 2 L 10 2 L 10 10 L 0.277344 10 Z M 0.277344 2 " clip-rule="nonzero"/></clipPath><clipPath id="377d42111b"><path d="M 41 4 L 47 4 L 47 11.800781 L 41 11.800781 Z M 41 4 " clip-rule="nonzero"/></clipPath><clipPath id="abe0d12ebb"><rect x="0" width="126" y="0" height="12"/></clipPath><clipPath id="87079ccf6d"><rect x="0" width="128" y="0" height="29"/></clipPath></defs><g clip-path="url(#7c73f8430b)"><g transform="matrix(1, 0, 0, 1, 2, 0.000000000000005692)"><g clip-path="url(#87079ccf6d)"><g clip-path="url(#4ffa752921)"><g transform="matrix(1, 0, 0, 1, 2, 7)"><g clip-path="url(#d474d3c9be)"><g clip-path="url(#02332281c4)"><path fill="#ddff00" d="M -6.65625 0.496094 C -6.4375 0.863281 -5.886719 1.210938 -5.550781 1.472656 C -5.191406 1.75 -4.816406 2.003906 -4.429688 2.238281 C -3.617188 2.726562 -2.761719 3.117188 -1.863281 3.40625 C -0.0546875 3.984375 1.898438 4.140625 3.765625 3.777344 C 5.496094 3.441406 7.113281 2.691406 8.796875 2.171875 C 10.480469 1.652344 12.332031 1.375 13.984375 1.992188 C 13.691406 1.878906 13.089844 1.96875 12.773438 1.980469 C 12.40625 1.996094 12.035156 2.066406 11.675781 2.152344 C 10.898438 2.335938 10.152344 2.632812 9.425781 2.964844 C 7.957031 3.636719 6.550781 4.46875 4.992188 4.914062 C 3.589844 5.3125 2.109375 5.425781 0.667969 5.230469 C -1.863281 4.882812 -4.292969 3.585938 -5.894531 1.59375 C -6.175781 1.246094 -6.429688 0.878906 -6.65625 0.496094 Z M -6.65625 0.496094 " fill-opacity="1" fill-rule="nonzero"/></g><g clip-path="url(#27b615eaf6)"><path fill="#ffffff" d="M -6.65625 0.234375 C -6.460938 0.421875 -6.0625 0.539062 -5.816406 0.65625 C -5.542969 0.785156 -5.269531 0.902344 -4.992188 1.027344 C -4.425781 1.28125 -3.851562 1.507812 -3.261719 1.707031 C -2.082031 2.109375 -0.875 2.402344 0.355469 2.582031 C 2.507812 2.894531 4.6875 2.84375 6.832031 2.488281 C 6.316406 2.734375 5.785156 2.941406 5.238281 3.109375 C 3.121094 3.761719 0.828125 3.773438 -1.3125 3.214844 C -3.316406 2.691406 -5.15625 1.65625 -6.65625 0.234375 Z M -6.65625 0.234375 " fill-opacity="1" fill-rule="nonzero"/></g><g clip-path="url(#c87518d4f8)"><path fill="#ffffff" d="M 3.691406 5.40625 C 4.046875 5.484375 4.6875 5.253906 5.03125 5.15625 C 5.472656 5.027344 5.90625 4.855469 6.332031 4.679688 C 7.234375 4.308594 8.101562 3.863281 8.984375 3.453125 C 10.242188 2.867188 11.554688 2.34375 12.9375 2.238281 C 13.820312 2.171875 14.738281 2.289062 15.554688 2.640625 C 15.863281 2.773438 16.148438 2.941406 16.414062 3.148438 C 16.667969 3.351562 16.949219 3.597656 17.117188 3.875 C 15.652344 3.140625 14.285156 2.898438 12.648438 3.269531 C 11.113281 3.617188 9.691406 4.335938 8.210938 4.875 C 6.765625 5.402344 5.21875 5.742188 3.691406 5.40625 Z M 3.691406 5.40625 " fill-opacity="1" fill-rule="nonzero"/></g></g></g></g><g clip-path="url(#14cab795da)"><g transform="matrix(1, 0, 0, 1, 0, 0.000000000000005692)"><g clip-path="url(#068e9f542d)"><g fill="#ffffff" fill-opacity="1"><g transform="translate(0.987138, 16.88869)"><g><path d="M 8.5625 0.3125 C 7.425781 0.3125 6.414062 0.132812 5.53125 -0.21875 C 4.65625 -0.570312 3.910156 -1.085938 3.296875 -1.765625 C 2.679688 -2.441406 2.210938 -3.269531 1.890625 -4.25 C 1.578125 -5.238281 1.421875 -6.351562 1.421875 -7.59375 C 1.421875 -8.863281 1.582031 -10.003906 1.90625 -11.015625 C 2.238281 -12.035156 2.710938 -12.90625 3.328125 -13.625 C 3.941406 -14.351562 4.675781 -14.910156 5.53125 -15.296875 C 6.382812 -15.679688 7.347656 -15.875 8.421875 -15.875 C 9.253906 -15.875 10.015625 -15.753906 10.703125 -15.515625 C 11.390625 -15.273438 11.988281 -14.9375 12.5 -14.5 C 13.019531 -14.070312 13.421875 -13.550781 13.703125 -12.9375 C 13.984375 -12.332031 14.125 -11.644531 14.125 -10.875 L 12.09375 -10.34375 C 12.113281 -11.164062 11.945312 -11.835938 11.59375 -12.359375 C 11.25 -12.890625 10.796875 -13.289062 10.234375 -13.5625 C 9.671875 -13.84375 9.050781 -13.984375 8.375 -13.984375 C 7.757812 -13.984375 7.164062 -13.859375 6.59375 -13.609375 C 6.019531 -13.367188 5.507812 -12.992188 5.0625 -12.484375 C 4.625 -11.972656 4.28125 -11.320312 4.03125 -10.53125 C 3.78125 -9.738281 3.65625 -8.78125 3.65625 -7.65625 C 3.65625 -6.25 3.859375 -5.097656 4.265625 -4.203125 C 4.671875 -3.316406 5.25 -2.664062 6 -2.25 C 6.757812 -1.832031 7.632812 -1.625 8.625 -1.625 C 9.582031 -1.625 10.351562 -1.800781 10.9375 -2.15625 C 11.519531 -2.507812 11.957031 -3.007812 12.25 -3.65625 C 12.539062 -4.300781 12.703125 -5.054688 12.734375 -5.921875 L 14.6875 -5.5625 C 14.675781 -4.75 14.550781 -3.988281 14.3125 -3.28125 C 14.070312 -2.570312 13.703125 -1.945312 13.203125 -1.40625 C 12.710938 -0.875 12.082031 -0.453125 11.3125 -0.140625 C 10.539062 0.160156 9.625 0.3125 8.5625 0.3125 Z M 8.5625 0.3125 "/></g></g></g></g></g></g><path stroke-linecap="butt" transform="matrix(0.0223408, -0.853161, 0.853161, 0.0223408, 14.926724, 11.580629)" fill="none" stroke-linejoin="miter" d="M -0.00233808 0.498019 L 1.87948 0.499106 " stroke="#ffffff" stroke-width="1" stroke-opacity="1" stroke-miterlimit="4"/><path stroke-linecap="butt" transform="matrix(0.0177764, -0.853268, 0.853268, 0.0177764, 13.603417, 11.576054)" fill="none" stroke-linejoin="miter" d="M -0.00113688 0.501428 L 1.880362 0.498854 " stroke="#ffffff" stroke-width="1" stroke-opacity="1" stroke-miterlimit="4"/><path stroke-linecap="butt" transform="matrix(0.853453, 0, 0, 0.853453, 13.730859, 9.890551)" fill="none" stroke-linejoin="miter" d="M -0.0004571 0.498979 L 1.880688 0.498979 " stroke="#ffffff" stroke-width="1" stroke-opacity="1" stroke-miterlimit="4"/><path stroke-linecap="butt" transform="matrix(0.853453, 0, 0, 0.853453, 13.730859, 10.285362)" fill="none" stroke-linejoin="miter" d="M -0.0004571 0.498651 L 1.880688 0.498651 " stroke="#ffffff" stroke-width="1" stroke-opacity="1" stroke-miterlimit="4"/><path stroke-linecap="butt" transform="matrix(0.853453, 0, 0, 0.853453, 14.031888, 10.832958)" fill="none" stroke-linejoin="miter" d="M -0.000747365 0.497806 L 1.880397 0.497806 " stroke="#ffffff" stroke-width="1" stroke-opacity="1" stroke-miterlimit="4"/><g clip-path="url(#b4977769d6)"><g transform="matrix(1, 0, 0, 1, 17, 0.000000000000005692)"><g clip-path="url(#241b010299)"><g fill="#ffffff" fill-opacity="1"><g transform="translate(0.845014, 16.575423)"><g><path d="M 8.328125 0.3125 C 7.492188 0.3125 6.734375 0.21875 6.046875 0.03125 C 5.359375 -0.144531 4.75 -0.410156 4.21875 -0.765625 C 3.695312 -1.117188 3.257812 -1.546875 2.90625 -2.046875 C 2.550781 -2.554688 2.285156 -3.128906 2.109375 -3.765625 C 1.941406 -4.410156 1.859375 -5.128906 1.859375 -5.921875 L 1.859375 -15.5625 L 4.03125 -15.5625 L 4.03125 -6.015625 C 4.03125 -5.179688 4.164062 -4.4375 4.4375 -3.78125 C 4.71875 -3.132812 5.171875 -2.617188 5.796875 -2.234375 C 6.429688 -1.859375 7.273438 -1.671875 8.328125 -1.671875 C 9.410156 -1.671875 10.257812 -1.859375 10.875 -2.234375 C 11.5 -2.617188 11.941406 -3.140625 12.203125 -3.796875 C 12.472656 -4.453125 12.609375 -5.191406 12.609375 -6.015625 L 12.609375 -15.5625 L 14.78125 -15.5625 L 14.78125 -5.921875 C 14.78125 -4.898438 14.632812 -4.003906 14.34375 -3.234375 C 14.050781 -2.460938 13.628906 -1.8125 13.078125 -1.28125 C 12.535156 -0.757812 11.863281 -0.363281 11.0625 -0.09375 C 10.257812 0.175781 9.347656 0.3125 8.328125 0.3125 Z M 8.328125 0.3125 "/></g></g></g><g fill="#ffffff" fill-opacity="1"><g transform="translate(15.958019, 16.575423)"><g><path d="M 1.953125 0 L 1.953125 -15.5625 L 4.125 -15.5625 L 4.125 0 Z M 2.671875 0 L 2.671875 -1.890625 L 11.359375 -1.890625 L 11.359375 0 Z M 2.671875 0 "/></g></g></g><g fill="#ffffff" fill-opacity="1"><g transform="translate(26.261074, 16.575423)"><g><path d="M 1.953125 0 L 1.953125 -15.5625 L 4.125 -15.5625 L 4.125 0 Z M 2.828125 -6.65625 L 2.828125 -8.515625 L 11.6875 -8.515625 L 11.6875 -6.65625 Z M 2.828125 -13.65625 L 2.828125 -15.5625 L 12.734375 -15.5625 L 12.734375 -13.65625 Z M 2.828125 -13.65625 "/></g></g></g><g fill="#ffffff" fill-opacity="1"><g transform="translate(38.049558, 16.575423)"><g/></g></g><g fill="#ffffff" fill-opacity="1"><g transform="translate(42.410916, 16.575423)"><g><path d="M 8.5625 0.3125 C 7.425781 0.3125 6.414062 0.132812 5.53125 -0.21875 C 4.65625 -0.570312 3.910156 -1.085938 3.296875 -1.765625 C 2.679688 -2.441406 2.210938 -3.269531 1.890625 -4.25 C 1.578125 -5.238281 1.421875 -6.351562 1.421875 -7.59375 C 1.421875 -8.863281 1.582031 -10.003906 1.90625 -11.015625 C 2.238281 -12.035156 2.710938 -12.90625 3.328125 -13.625 C 3.941406 -14.351562 4.675781 -14.910156 5.53125 -15.296875 C 6.382812 -15.679688 7.347656 -15.875 8.421875 -15.875 C 9.253906 -15.875 10.015625 -15.753906 10.703125 -15.515625 C 11.390625 -15.273438 11.988281 -14.9375 12.5 -14.5 C 13.019531 -14.070312 13.421875 -13.550781 13.703125 -12.9375 C 13.984375 -12.332031 14.125 -11.644531 14.125 -10.875 L 12.09375 -10.34375 C 12.113281 -11.164062 11.945312 -11.835938 11.59375 -12.359375 C 11.25 -12.890625 10.796875 -13.289062 10.234375 -13.5625 C 9.671875 -13.84375 9.050781 -13.984375 8.375 -13.984375 C 7.757812 -13.984375 7.164062 -13.859375 6.59375 -13.609375 C 6.019531 -13.367188 5.507812 -12.992188 5.0625 -12.484375 C 4.625 -11.972656 4.28125 -11.320312 4.03125 -10.53125 C 3.78125 -9.738281 3.65625 -8.78125 3.65625 -7.65625 C 3.65625 -6.25 3.859375 -5.097656 4.265625 -4.203125 C 4.671875 -3.316406 5.25 -2.664062 6 -2.25 C 6.757812 -1.832031 7.632812 -1.625 8.625 -1.625 C 9.582031 -1.625 10.351562 -1.800781 10.9375 -2.15625 C 11.519531 -2.507812 11.957031 -3.007812 12.25 -3.65625 C 12.539062 -4.300781 12.703125 -5.054688 12.734375 -5.921875 L 14.6875 -5.5625 C 14.675781 -4.75 14.550781 -3.988281 14.3125 -3.28125 C 14.070312 -2.570312 13.703125 -1.945312 13.203125 -1.40625 C 12.710938 -0.875 12.082031 -0.453125 11.3125 -0.140625 C 10.539062 0.160156 9.625 0.3125 8.5625 0.3125 Z M 8.5625 0.3125 "/></g></g></g><g fill="#ffffff" fill-opacity="1"><g transform="translate(56.510069, 16.575423)"><g><path d="M 8.34375 0.3125 C 7.21875 0.3125 6.222656 0.125 5.359375 -0.25 C 4.503906 -0.632812 3.78125 -1.179688 3.1875 -1.890625 C 2.601562 -2.597656 2.160156 -3.441406 1.859375 -4.421875 C 1.566406 -5.398438 1.421875 -6.492188 1.421875 -7.703125 C 1.421875 -9.515625 1.71875 -11.019531 2.3125 -12.21875 C 2.90625 -13.425781 3.722656 -14.335938 4.765625 -14.953125 C 5.816406 -15.566406 7.019531 -15.875 8.375 -15.875 C 9.425781 -15.875 10.375 -15.691406 11.21875 -15.328125 C 12.070312 -14.960938 12.796875 -14.429688 13.390625 -13.734375 C 13.984375 -13.035156 14.445312 -12.175781 14.78125 -11.15625 C 15.113281 -10.144531 15.28125 -8.992188 15.28125 -7.703125 C 15.28125 -6.484375 15.128906 -5.378906 14.828125 -4.390625 C 14.523438 -3.410156 14.078125 -2.570312 13.484375 -1.875 C 12.898438 -1.175781 12.175781 -0.632812 11.3125 -0.25 C 10.445312 0.125 9.457031 0.3125 8.34375 0.3125 Z M 8.34375 -1.5625 C 8.832031 -1.5625 9.351562 -1.644531 9.90625 -1.8125 C 10.457031 -1.988281 10.972656 -2.289062 11.453125 -2.71875 C 11.929688 -3.15625 12.316406 -3.773438 12.609375 -4.578125 C 12.910156 -5.378906 13.0625 -6.40625 13.0625 -7.65625 C 13.0625 -9.15625 12.84375 -10.363281 12.40625 -11.28125 C 11.976562 -12.195312 11.410156 -12.867188 10.703125 -13.296875 C 9.992188 -13.734375 9.21875 -13.953125 8.375 -13.953125 C 7.914062 -13.953125 7.410156 -13.867188 6.859375 -13.703125 C 6.304688 -13.546875 5.785156 -13.242188 5.296875 -12.796875 C 4.816406 -12.359375 4.414062 -11.726562 4.09375 -10.90625 C 3.78125 -10.09375 3.625 -9.023438 3.625 -7.703125 C 3.625 -6.492188 3.757812 -5.492188 4.03125 -4.703125 C 4.3125 -3.910156 4.679688 -3.28125 5.140625 -2.8125 C 5.609375 -2.351562 6.117188 -2.03125 6.671875 -1.84375 C 7.222656 -1.65625 7.78125 -1.5625 8.34375 -1.5625 Z M 8.34375 -1.5625 "/></g></g></g><g fill="#ffffff" fill-opacity="1"><g transform="translate(71.033489, 16.575423)"><g><path d="M 0.65625 0 L 6.125 -15.5625 L 9.265625 -15.5625 L 14.734375 0 L 12.421875 0 L 7.84375 -13.75 L 7.5625 -13.75 L 3 0 Z M 3.25 -3.484375 L 3.25 -5.140625 L 12.421875 -5.140625 L 12.421875 -3.484375 Z M 3.25 -3.484375 "/></g></g></g><g fill="#ffffff" fill-opacity="1"><g transform="translate(84.661022, 16.575423)"><g><path d="M 7.40625 0.3125 C 6.394531 0.3125 5.492188 0.203125 4.703125 -0.015625 C 3.921875 -0.242188 3.265625 -0.570312 2.734375 -1 C 2.210938 -1.4375 1.828125 -1.972656 1.578125 -2.609375 C 1.328125 -3.242188 1.21875 -3.96875 1.25 -4.78125 L 3.203125 -5.234375 C 3.140625 -4.390625 3.273438 -3.691406 3.609375 -3.140625 C 3.953125 -2.585938 4.460938 -2.179688 5.140625 -1.921875 C 5.816406 -1.660156 6.601562 -1.53125 7.5 -1.53125 C 8.363281 -1.53125 9.097656 -1.632812 9.703125 -1.84375 C 10.304688 -2.0625 10.765625 -2.363281 11.078125 -2.75 C 11.390625 -3.132812 11.546875 -3.585938 11.546875 -4.109375 C 11.546875 -4.671875 11.359375 -5.113281 10.984375 -5.4375 C 10.617188 -5.769531 10.132812 -6.03125 9.53125 -6.21875 C 8.925781 -6.40625 8.253906 -6.582031 7.515625 -6.75 C 6.796875 -6.90625 6.082031 -7.078125 5.375 -7.265625 C 4.664062 -7.460938 4.019531 -7.726562 3.4375 -8.0625 C 2.851562 -8.394531 2.390625 -8.820312 2.046875 -9.34375 C 1.703125 -9.875 1.53125 -10.546875 1.53125 -11.359375 C 1.53125 -12.273438 1.757812 -13.070312 2.21875 -13.75 C 2.6875 -14.425781 3.34375 -14.945312 4.1875 -15.3125 C 5.03125 -15.6875 6.023438 -15.875 7.171875 -15.875 C 8.296875 -15.875 9.300781 -15.691406 10.1875 -15.328125 C 11.082031 -14.960938 11.785156 -14.429688 12.296875 -13.734375 C 12.816406 -13.035156 13.085938 -12.164062 13.109375 -11.125 L 11.078125 -10.65625 C 11.078125 -11.21875 10.984375 -11.710938 10.796875 -12.140625 C 10.609375 -12.566406 10.34375 -12.921875 10 -13.203125 C 9.65625 -13.484375 9.242188 -13.691406 8.765625 -13.828125 C 8.285156 -13.972656 7.742188 -14.046875 7.140625 -14.046875 C 6.429688 -14.046875 5.8125 -13.941406 5.28125 -13.734375 C 4.757812 -13.523438 4.347656 -13.226562 4.046875 -12.84375 C 3.753906 -12.46875 3.609375 -12.019531 3.609375 -11.5 C 3.609375 -10.894531 3.816406 -10.414062 4.234375 -10.0625 C 4.660156 -9.707031 5.21875 -9.429688 5.90625 -9.234375 C 6.59375 -9.035156 7.328125 -8.84375 8.109375 -8.65625 C 8.785156 -8.507812 9.445312 -8.335938 10.09375 -8.140625 C 10.75 -7.941406 11.34375 -7.679688 11.875 -7.359375 C 12.414062 -7.046875 12.847656 -6.628906 13.171875 -6.109375 C 13.492188 -5.585938 13.65625 -4.925781 13.65625 -4.125 C 13.65625 -3.226562 13.414062 -2.445312 12.9375 -1.78125 C 12.46875 -1.125 11.773438 -0.609375 10.859375 -0.234375 C 9.941406 0.128906 8.789062 0.3125 7.40625 0.3125 Z M 7.40625 0.3125 "/></g></g></g><g fill="#ffffff" fill-opacity="1"><g transform="translate(97.651919, 16.575423)"><g><path d="M 5.28125 0 L 5.28125 -15.5625 L 7.453125 -15.5625 L 7.453125 0 Z M 0.5625 -13.671875 L 0.5625 -15.5625 L 12.171875 -15.5625 L 12.171875 -13.671875 Z M 0.5625 -13.671875 "/></g></g></g></g></g></g><g clip-path="url(#856d88fa26)"><g transform="matrix(1, 0, 0, 1, 2, 17)"><g clip-path="url(#abe0d12ebb)"><g clip-path="url(#3518801299)"><g fill="#ffffff" fill-opacity="1"><g transform="translate(0.375319, 9.467874)"><g><path d="M 8.734375 -6.796875 L 6.75 0 L 5.953125 0 L 4.46875 -5.265625 L 2.953125 0 L 2.171875 0 L 0.21875 -6.796875 L 1.09375 -6.796875 L 2.59375 -1.390625 L 4.125 -6.796875 L 4.8125 -6.796875 L 6.328125 -1.390625 L 7.859375 -6.796875 Z M 8.734375 -6.796875 "/></g></g></g></g><g fill="#ffffff" fill-opacity="1"><g transform="translate(8.909714, 9.467874)"><g><path d="M 1.34375 -2.21875 C 1.34375 -1.914062 1.390625 -1.640625 1.484375 -1.390625 C 1.585938 -1.140625 1.742188 -0.941406 1.953125 -0.796875 C 2.160156 -0.648438 2.421875 -0.578125 2.734375 -0.578125 C 3.046875 -0.578125 3.3125 -0.648438 3.53125 -0.796875 C 3.757812 -0.941406 3.90625 -1.148438 3.96875 -1.421875 L 4.796875 -1.421875 C 4.734375 -1.085938 4.597656 -0.804688 4.390625 -0.578125 C 4.191406 -0.359375 3.945312 -0.191406 3.65625 -0.078125 C 3.363281 0.0351562 3.0625 0.09375 2.75 0.09375 C 2.300781 0.09375 1.90625 -0.00390625 1.5625 -0.203125 C 1.21875 -0.398438 0.945312 -0.679688 0.75 -1.046875 C 0.550781 -1.421875 0.453125 -1.863281 0.453125 -2.375 C 0.453125 -2.882812 0.539062 -3.332031 0.71875 -3.71875 C 0.894531 -4.101562 1.148438 -4.40625 1.484375 -4.625 C 1.816406 -4.84375 2.21875 -4.953125 2.6875 -4.953125 C 3.144531 -4.953125 3.53125 -4.851562 3.84375 -4.65625 C 4.164062 -4.457031 4.40625 -4.175781 4.5625 -3.8125 C 4.726562 -3.457031 4.8125 -3.035156 4.8125 -2.546875 L 4.8125 -2.21875 Z M 1.34375 -2.8125 L 3.984375 -2.8125 C 3.984375 -3.09375 3.9375 -3.34375 3.84375 -3.5625 C 3.75 -3.789062 3.601562 -3.96875 3.40625 -4.09375 C 3.21875 -4.226562 2.976562 -4.296875 2.6875 -4.296875 C 2.382812 -4.296875 2.132812 -4.222656 1.9375 -4.078125 C 1.738281 -3.929688 1.585938 -3.742188 1.484375 -3.515625 C 1.390625 -3.285156 1.34375 -3.050781 1.34375 -2.8125 Z M 1.34375 -2.8125 "/></g></g></g><g fill="#ffffff" fill-opacity="1"><g transform="translate(14.189941, 9.467874)"><g><path d="M 3.125 0.09375 C 2.832031 0.09375 2.585938 0.0546875 2.390625 -0.015625 C 2.203125 -0.0859375 2.046875 -0.179688 1.921875 -0.296875 C 1.796875 -0.421875 1.695312 -0.546875 1.625 -0.671875 C 1.550781 -0.796875 1.5 -0.90625 1.46875 -1 L 1.375 0 L 0.71875 0 L 0.71875 -6.984375 L 1.59375 -6.984375 L 1.59375 -4.078125 C 1.632812 -4.160156 1.695312 -4.25 1.78125 -4.34375 C 1.863281 -4.445312 1.96875 -4.539062 2.09375 -4.625 C 2.226562 -4.71875 2.382812 -4.796875 2.5625 -4.859375 C 2.75 -4.921875 2.957031 -4.953125 3.1875 -4.953125 C 3.789062 -4.953125 4.269531 -4.738281 4.625 -4.3125 C 4.988281 -3.894531 5.171875 -3.273438 5.171875 -2.453125 C 5.171875 -1.941406 5.09375 -1.492188 4.9375 -1.109375 C 4.78125 -0.734375 4.550781 -0.4375 4.25 -0.21875 C 3.945312 -0.0078125 3.570312 0.09375 3.125 0.09375 Z M 2.96875 -0.578125 C 3.351562 -0.578125 3.671875 -0.726562 3.921875 -1.03125 C 4.171875 -1.332031 4.296875 -1.816406 4.296875 -2.484375 C 4.296875 -3.054688 4.179688 -3.492188 3.953125 -3.796875 C 3.722656 -4.109375 3.382812 -4.265625 2.9375 -4.265625 C 2.613281 -4.265625 2.351562 -4.195312 2.15625 -4.0625 C 1.96875 -3.925781 1.828125 -3.722656 1.734375 -3.453125 C 1.640625 -3.191406 1.59375 -2.867188 1.59375 -2.484375 C 1.59375 -1.804688 1.695312 -1.316406 1.90625 -1.015625 C 2.113281 -0.722656 2.46875 -0.578125 2.96875 -0.578125 Z M 2.96875 -0.578125 "/></g></g></g><g fill="#ffffff" fill-opacity="1"><g transform="translate(19.709287, 9.467874)"><g/></g></g><g fill="#ffffff" fill-opacity="1"><g transform="translate(21.871079, 9.467874)"><g><path d="M 0.890625 -6.796875 C 0.921875 -6.796875 0.988281 -6.789062 1.09375 -6.78125 C 1.207031 -6.78125 1.34375 -6.78125 1.5 -6.78125 C 1.65625 -6.789062 1.820312 -6.789062 2 -6.78125 C 2.175781 -6.78125 2.332031 -6.78125 2.46875 -6.78125 C 3.300781 -6.769531 3.976562 -6.632812 4.5 -6.375 C 5.019531 -6.113281 5.398438 -5.738281 5.640625 -5.25 C 5.878906 -4.757812 6 -4.15625 6 -3.4375 C 6 -2.6875 5.867188 -2.054688 5.609375 -1.546875 C 5.347656 -1.035156 4.953125 -0.648438 4.421875 -0.390625 C 3.890625 -0.128906 3.210938 0 2.390625 0 L 0.890625 0 Z M 1.78125 -6.046875 L 1.78125 -0.75 L 2.390625 -0.75 C 2.941406 -0.75 3.421875 -0.832031 3.828125 -1 C 4.234375 -1.175781 4.546875 -1.457031 4.765625 -1.84375 C 4.984375 -2.238281 5.09375 -2.765625 5.09375 -3.421875 C 5.09375 -4.078125 4.984375 -4.59375 4.765625 -4.96875 C 4.554688 -5.351562 4.253906 -5.628906 3.859375 -5.796875 C 3.460938 -5.960938 2.984375 -6.046875 2.421875 -6.046875 Z M 1.78125 -6.046875 "/></g></g></g><g fill="#ffffff" fill-opacity="1"><g transform="translate(28.37523, 9.467874)"><g><path d="M 1.34375 -2.21875 C 1.34375 -1.914062 1.390625 -1.640625 1.484375 -1.390625 C 1.585938 -1.140625 1.742188 -0.941406 1.953125 -0.796875 C 2.160156 -0.648438 2.421875 -0.578125 2.734375 -0.578125 C 3.046875 -0.578125 3.3125 -0.648438 3.53125 -0.796875 C 3.757812 -0.941406 3.90625 -1.148438 3.96875 -1.421875 L 4.796875 -1.421875 C 4.734375 -1.085938 4.597656 -0.804688 4.390625 -0.578125 C 4.191406 -0.359375 3.945312 -0.191406 3.65625 -0.078125 C 3.363281 0.0351562 3.0625 0.09375 2.75 0.09375 C 2.300781 0.09375 1.90625 -0.00390625 1.5625 -0.203125 C 1.21875 -0.398438 0.945312 -0.679688 0.75 -1.046875 C 0.550781 -1.421875 0.453125 -1.863281 0.453125 -2.375 C 0.453125 -2.882812 0.539062 -3.332031 0.71875 -3.71875 C 0.894531 -4.101562 1.148438 -4.40625 1.484375 -4.625 C 1.816406 -4.84375 2.21875 -4.953125 2.6875 -4.953125 C 3.144531 -4.953125 3.53125 -4.851562 3.84375 -4.65625 C 4.164062 -4.457031 4.40625 -4.175781 4.5625 -3.8125 C 4.726562 -3.457031 4.8125 -3.035156 4.8125 -2.546875 L 4.8125 -2.21875 Z M 1.34375 -2.8125 L 3.984375 -2.8125 C 3.984375 -3.09375 3.9375 -3.34375 3.84375 -3.5625 C 3.75 -3.789062 3.601562 -3.96875 3.40625 -4.09375 C 3.21875 -4.226562 2.976562 -4.296875 2.6875 -4.296875 C 2.382812 -4.296875 2.132812 -4.222656 1.9375 -4.078125 C 1.738281 -3.929688 1.585938 -3.742188 1.484375 -3.515625 C 1.390625 -3.285156 1.34375 -3.050781 1.34375 -2.8125 Z M 1.34375 -2.8125 "/></g></g></g><g fill="#ffffff" fill-opacity="1"><g transform="translate(33.622608, 9.467874)"><g><path d="M 2.4375 0.09375 C 2.101562 0.09375 1.789062 0.0390625 1.5 -0.0625 C 1.207031 -0.164062 0.96875 -0.328125 0.78125 -0.546875 C 0.59375 -0.773438 0.472656 -1.0625 0.421875 -1.40625 L 1.203125 -1.40625 C 1.242188 -1.21875 1.320312 -1.0625 1.4375 -0.9375 C 1.550781 -0.8125 1.691406 -0.710938 1.859375 -0.640625 C 2.035156 -0.578125 2.226562 -0.546875 2.4375 -0.546875 C 2.757812 -0.546875 3.019531 -0.609375 3.21875 -0.734375 C 3.425781 -0.859375 3.53125 -1.046875 3.53125 -1.296875 C 3.53125 -1.472656 3.476562 -1.613281 3.375 -1.71875 C 3.269531 -1.832031 3.109375 -1.914062 2.890625 -1.96875 L 1.875 -2.21875 C 1.488281 -2.3125 1.175781 -2.457031 0.9375 -2.65625 C 0.707031 -2.851562 0.59375 -3.132812 0.59375 -3.5 C 0.582031 -3.78125 0.644531 -4.03125 0.78125 -4.25 C 0.925781 -4.46875 1.132812 -4.640625 1.40625 -4.765625 C 1.6875 -4.890625 2.03125 -4.953125 2.4375 -4.953125 C 2.957031 -4.953125 3.378906 -4.832031 3.703125 -4.59375 C 4.035156 -4.351562 4.207031 -4.003906 4.21875 -3.546875 L 3.453125 -3.546875 C 3.421875 -3.785156 3.316406 -3.972656 3.140625 -4.109375 C 2.960938 -4.242188 2.722656 -4.3125 2.421875 -4.3125 C 2.117188 -4.3125 1.867188 -4.25 1.671875 -4.125 C 1.472656 -4 1.375 -3.804688 1.375 -3.546875 C 1.375 -3.378906 1.441406 -3.242188 1.578125 -3.140625 C 1.722656 -3.046875 1.929688 -2.960938 2.203125 -2.890625 L 3.171875 -2.65625 C 3.390625 -2.59375 3.570312 -2.507812 3.71875 -2.40625 C 3.863281 -2.3125 3.976562 -2.207031 4.0625 -2.09375 C 4.15625 -1.976562 4.21875 -1.851562 4.25 -1.71875 C 4.289062 -1.59375 4.3125 -1.46875 4.3125 -1.34375 C 4.3125 -1.050781 4.234375 -0.796875 4.078125 -0.578125 C 3.929688 -0.367188 3.71875 -0.203125 3.4375 -0.078125 C 3.164062 0.0351562 2.832031 0.09375 2.4375 0.09375 Z M 2.4375 0.09375 "/></g></g></g><g fill="#ffffff" fill-opacity="1"><g transform="translate(38.419835, 9.467874)"><g><path d="M 1.65625 -4.859375 L 1.65625 0 L 0.8125 0 L 0.8125 -4.859375 Z M 1.671875 -6.78125 L 1.671875 -5.890625 L 0.78125 -5.890625 L 0.78125 -6.78125 Z M 1.671875 -6.78125 "/></g></g></g><g clip-path="url(#377d42111b)"><g fill="#ffffff" fill-opacity="1"><g transform="translate(40.867671, 9.467874)"><g><path d="M 2.765625 1.609375 C 2.003906 1.609375 1.410156 1.492188 0.984375 1.265625 C 0.554688 1.046875 0.34375 0.734375 0.34375 0.328125 C 0.34375 0.148438 0.382812 0 0.46875 -0.125 C 0.550781 -0.25 0.648438 -0.347656 0.765625 -0.421875 C 0.878906 -0.503906 0.984375 -0.566406 1.078125 -0.609375 C 1.171875 -0.660156 1.234375 -0.703125 1.265625 -0.734375 C 1.210938 -0.765625 1.144531 -0.800781 1.0625 -0.84375 C 0.976562 -0.894531 0.90625 -0.957031 0.84375 -1.03125 C 0.789062 -1.113281 0.765625 -1.21875 0.765625 -1.34375 C 0.765625 -1.488281 0.835938 -1.625 0.984375 -1.75 C 1.128906 -1.882812 1.34375 -1.984375 1.625 -2.046875 C 1.332031 -2.191406 1.109375 -2.382812 0.953125 -2.625 C 0.796875 -2.863281 0.71875 -3.117188 0.71875 -3.390625 C 0.71875 -3.703125 0.800781 -3.972656 0.96875 -4.203125 C 1.132812 -4.441406 1.375 -4.625 1.6875 -4.75 C 2.007812 -4.875 2.390625 -4.9375 2.828125 -4.9375 C 3.140625 -4.9375 3.40625 -4.894531 3.625 -4.8125 C 3.84375 -4.738281 4.039062 -4.632812 4.21875 -4.5 C 4.269531 -4.53125 4.347656 -4.566406 4.453125 -4.609375 C 4.566406 -4.648438 4.6875 -4.695312 4.8125 -4.75 C 4.945312 -4.8125 5.070312 -4.863281 5.1875 -4.90625 C 5.300781 -4.957031 5.394531 -4.992188 5.46875 -5.015625 L 5.453125 -4.21875 L 4.609375 -4.0625 C 4.660156 -3.957031 4.695312 -3.84375 4.71875 -3.71875 C 4.75 -3.601562 4.765625 -3.492188 4.765625 -3.390625 C 4.765625 -3.109375 4.691406 -2.847656 4.546875 -2.609375 C 4.398438 -2.378906 4.175781 -2.195312 3.875 -2.0625 C 3.570312 -1.925781 3.195312 -1.859375 2.75 -1.859375 C 2.707031 -1.859375 2.65625 -1.859375 2.59375 -1.859375 C 2.539062 -1.859375 2.492188 -1.863281 2.453125 -1.875 C 2.117188 -1.863281 1.890625 -1.820312 1.765625 -1.75 C 1.640625 -1.6875 1.578125 -1.617188 1.578125 -1.546875 C 1.578125 -1.453125 1.644531 -1.390625 1.78125 -1.359375 C 1.925781 -1.328125 2.171875 -1.296875 2.515625 -1.265625 C 2.628906 -1.265625 2.773438 -1.257812 2.953125 -1.25 C 3.140625 -1.238281 3.34375 -1.222656 3.5625 -1.203125 C 4.070312 -1.171875 4.460938 -1.039062 4.734375 -0.8125 C 5.015625 -0.582031 5.15625 -0.273438 5.15625 0.109375 C 5.15625 0.546875 4.957031 0.90625 4.5625 1.1875 C 4.164062 1.46875 3.566406 1.609375 2.765625 1.609375 Z M 2.921875 1.046875 C 3.367188 1.046875 3.710938 0.976562 3.953125 0.84375 C 4.191406 0.707031 4.3125 0.503906 4.3125 0.234375 C 4.3125 0.0351562 4.238281 -0.117188 4.09375 -0.234375 C 3.945312 -0.359375 3.722656 -0.429688 3.421875 -0.453125 L 2.0625 -0.546875 C 1.9375 -0.546875 1.804688 -0.515625 1.671875 -0.453125 C 1.546875 -0.390625 1.4375 -0.296875 1.34375 -0.171875 C 1.25 -0.0546875 1.203125 0.078125 1.203125 0.234375 C 1.203125 0.484375 1.34375 0.679688 1.625 0.828125 C 1.90625 0.972656 2.335938 1.046875 2.921875 1.046875 Z M 2.765625 -2.421875 C 3.117188 -2.421875 3.398438 -2.5 3.609375 -2.65625 C 3.828125 -2.820312 3.9375 -3.066406 3.9375 -3.390625 C 3.9375 -3.710938 3.828125 -3.957031 3.609375 -4.125 C 3.398438 -4.300781 3.117188 -4.390625 2.765625 -4.390625 C 2.410156 -4.390625 2.125 -4.300781 1.90625 -4.125 C 1.695312 -3.957031 1.59375 -3.710938 1.59375 -3.390625 C 1.59375 -3.078125 1.691406 -2.835938 1.890625 -2.671875 C 2.097656 -2.503906 2.390625 -2.421875 2.765625 -2.421875 Z M 2.765625 -2.421875 "/></g></g></g></g><g fill="#ffffff" fill-opacity="1"><g transform="translate(46.691865, 9.467874)"><g><path d="M 0.71875 0 L 0.71875 -4.859375 L 1.5625 -4.859375 L 1.5625 -4.15625 C 1.632812 -4.289062 1.738281 -4.414062 1.875 -4.53125 C 2.019531 -4.644531 2.191406 -4.738281 2.390625 -4.8125 C 2.585938 -4.882812 2.816406 -4.921875 3.078125 -4.921875 C 3.390625 -4.921875 3.671875 -4.859375 3.921875 -4.734375 C 4.179688 -4.617188 4.390625 -4.429688 4.546875 -4.171875 C 4.703125 -3.910156 4.78125 -3.578125 4.78125 -3.171875 L 4.78125 0 L 3.90625 0 L 3.90625 -3.09375 C 3.90625 -3.46875 3.804688 -3.742188 3.609375 -3.921875 C 3.410156 -4.109375 3.15625 -4.203125 2.84375 -4.203125 C 2.625 -4.203125 2.414062 -4.164062 2.21875 -4.09375 C 2.03125 -4.03125 1.875 -3.925781 1.75 -3.78125 C 1.632812 -3.632812 1.578125 -3.457031 1.578125 -3.25 L 1.578125 0 Z M 0.71875 0 "/></g></g></g><g fill="#ffffff" fill-opacity="1"><g transform="translate(52.023623, 9.467874)"><g><path d="M 2.4375 0.09375 C 2.101562 0.09375 1.789062 0.0390625 1.5 -0.0625 C 1.207031 -0.164062 0.96875 -0.328125 0.78125 -0.546875 C 0.59375 -0.773438 0.472656 -1.0625 0.421875 -1.40625 L 1.203125 -1.40625 C 1.242188 -1.21875 1.320312 -1.0625 1.4375 -0.9375 C 1.550781 -0.8125 1.691406 -0.710938 1.859375 -0.640625 C 2.035156 -0.578125 2.226562 -0.546875 2.4375 -0.546875 C 2.757812 -0.546875 3.019531 -0.609375 3.21875 -0.734375 C 3.425781 -0.859375 3.53125 -1.046875 3.53125 -1.296875 C 3.53125 -1.472656 3.476562 -1.613281 3.375 -1.71875 C 3.269531 -1.832031 3.109375 -1.914062 2.890625 -1.96875 L 1.875 -2.21875 C 1.488281 -2.3125 1.175781 -2.457031 0.9375 -2.65625 C 0.707031 -2.851562 0.59375 -3.132812 0.59375 -3.5 C 0.582031 -3.78125 0.644531 -4.03125 0.78125 -4.25 C 0.925781 -4.46875 1.132812 -4.640625 1.40625 -4.765625 C 1.6875 -4.890625 2.03125 -4.953125 2.4375 -4.953125 C 2.957031 -4.953125 3.378906 -4.832031 3.703125 -4.59375 C 4.035156 -4.351562 4.207031 -4.003906 4.21875 -3.546875 L 3.453125 -3.546875 C 3.421875 -3.785156 3.316406 -3.972656 3.140625 -4.109375 C 2.960938 -4.242188 2.722656 -4.3125 2.421875 -4.3125 C 2.117188 -4.3125 1.867188 -4.25 1.671875 -4.125 C 1.472656 -4 1.375 -3.804688 1.375 -3.546875 C 1.375 -3.378906 1.441406 -3.242188 1.578125 -3.140625 C 1.722656 -3.046875 1.929688 -2.960938 2.203125 -2.890625 L 3.171875 -2.65625 C 3.390625 -2.59375 3.570312 -2.507812 3.71875 -2.40625 C 3.863281 -2.3125 3.976562 -2.207031 4.0625 -2.09375 C 4.15625 -1.976562 4.21875 -1.851562 4.25 -1.71875 C 4.289062 -1.59375 4.3125 -1.46875 4.3125 -1.34375 C 4.3125 -1.050781 4.234375 -0.796875 4.078125 -0.578125 C 3.929688 -0.367188 3.71875 -0.203125 3.4375 -0.078125 C 3.164062 0.0351562 2.832031 0.09375 2.4375 0.09375 Z M 2.4375 0.09375 "/></g></g></g><g fill="#ffffff" fill-opacity="1"><g transform="translate(56.788002, 9.467874)"><g/></g></g><g fill="#ffffff" fill-opacity="1"><g transform="translate(58.949795, 9.467874)"><g><path d="M 2.921875 -6.890625 C 3.253906 -6.890625 3.5625 -6.828125 3.84375 -6.703125 C 4.125 -6.585938 4.347656 -6.421875 4.515625 -6.203125 C 4.691406 -5.992188 4.78125 -5.742188 4.78125 -5.453125 C 4.78125 -5.328125 4.753906 -5.191406 4.703125 -5.046875 C 4.660156 -4.910156 4.582031 -4.765625 4.46875 -4.609375 C 4.351562 -4.453125 4.1875 -4.285156 3.96875 -4.109375 C 3.757812 -3.941406 3.492188 -3.773438 3.171875 -3.609375 L 4.671875 -1.859375 C 4.722656 -1.941406 4.789062 -2.066406 4.875 -2.234375 C 4.96875 -2.410156 5.050781 -2.617188 5.125 -2.859375 C 5.195312 -3.097656 5.242188 -3.363281 5.265625 -3.65625 L 6.125 -3.65625 C 6.070312 -3.332031 5.992188 -3.035156 5.890625 -2.765625 C 5.796875 -2.492188 5.675781 -2.238281 5.53125 -2 C 5.394531 -1.769531 5.25 -1.550781 5.09375 -1.34375 L 6.25 0 L 5.234375 0 L 4.578125 -0.75 C 4.234375 -0.46875 3.878906 -0.265625 3.515625 -0.140625 C 3.160156 -0.015625 2.804688 0.046875 2.453125 0.046875 C 2.015625 0.046875 1.640625 -0.0234375 1.328125 -0.171875 C 1.023438 -0.328125 0.796875 -0.535156 0.640625 -0.796875 C 0.484375 -1.054688 0.40625 -1.359375 0.40625 -1.703125 C 0.40625 -2.003906 0.460938 -2.273438 0.578125 -2.515625 C 0.703125 -2.753906 0.882812 -2.972656 1.125 -3.171875 C 1.363281 -3.378906 1.660156 -3.578125 2.015625 -3.765625 C 1.835938 -3.953125 1.6875 -4.128906 1.5625 -4.296875 C 1.4375 -4.472656 1.335938 -4.648438 1.265625 -4.828125 C 1.203125 -5.003906 1.171875 -5.195312 1.171875 -5.40625 C 1.171875 -5.6875 1.242188 -5.9375 1.390625 -6.15625 C 1.546875 -6.382812 1.753906 -6.5625 2.015625 -6.6875 C 2.273438 -6.820312 2.578125 -6.890625 2.921875 -6.890625 Z M 2.953125 -6.296875 C 2.660156 -6.296875 2.4375 -6.210938 2.28125 -6.046875 C 2.125 -5.878906 2.046875 -5.679688 2.046875 -5.453125 C 2.046875 -5.296875 2.078125 -5.140625 2.140625 -4.984375 C 2.210938 -4.835938 2.289062 -4.703125 2.375 -4.578125 C 2.46875 -4.453125 2.550781 -4.347656 2.625 -4.265625 L 2.796875 -4.09375 C 3.117188 -4.28125 3.363281 -4.445312 3.53125 -4.59375 C 3.707031 -4.75 3.828125 -4.890625 3.890625 -5.015625 C 3.953125 -5.148438 3.984375 -5.285156 3.984375 -5.421875 C 3.984375 -5.640625 3.929688 -5.8125 3.828125 -5.9375 C 3.734375 -6.0625 3.609375 -6.148438 3.453125 -6.203125 C 3.296875 -6.265625 3.128906 -6.296875 2.953125 -6.296875 Z M 2.453125 -3.234375 C 2.128906 -3.054688 1.863281 -2.835938 1.65625 -2.578125 C 1.445312 -2.328125 1.347656 -2.046875 1.359375 -1.734375 C 1.378906 -1.503906 1.445312 -1.304688 1.5625 -1.140625 C 1.675781 -0.984375 1.828125 -0.859375 2.015625 -0.765625 C 2.210938 -0.679688 2.421875 -0.640625 2.640625 -0.640625 C 2.898438 -0.640625 3.164062 -0.695312 3.4375 -0.8125 C 3.707031 -0.9375 3.941406 -1.097656 4.140625 -1.296875 Z M 2.453125 -3.234375 "/></g></g></g><g fill="#ffffff" fill-opacity="1"><g transform="translate(65.59463, 9.467874)"><g/></g></g><g fill="#ffffff" fill-opacity="1"><g transform="translate(67.756423, 9.467874)"><g><path d="M 0.890625 -6.796875 C 0.921875 -6.796875 0.988281 -6.789062 1.09375 -6.78125 C 1.207031 -6.78125 1.34375 -6.78125 1.5 -6.78125 C 1.65625 -6.789062 1.820312 -6.789062 2 -6.78125 C 2.175781 -6.78125 2.332031 -6.78125 2.46875 -6.78125 C 3.300781 -6.769531 3.976562 -6.632812 4.5 -6.375 C 5.019531 -6.113281 5.398438 -5.738281 5.640625 -5.25 C 5.878906 -4.757812 6 -4.15625 6 -3.4375 C 6 -2.6875 5.867188 -2.054688 5.609375 -1.546875 C 5.347656 -1.035156 4.953125 -0.648438 4.421875 -0.390625 C 3.890625 -0.128906 3.210938 0 2.390625 0 L 0.890625 0 Z M 1.78125 -6.046875 L 1.78125 -0.75 L 2.390625 -0.75 C 2.941406 -0.75 3.421875 -0.832031 3.828125 -1 C 4.234375 -1.175781 4.546875 -1.457031 4.765625 -1.84375 C 4.984375 -2.238281 5.09375 -2.765625 5.09375 -3.421875 C 5.09375 -4.078125 4.984375 -4.59375 4.765625 -4.96875 C 4.554688 -5.351562 4.253906 -5.628906 3.859375 -5.796875 C 3.460938 -5.960938 2.984375 -6.046875 2.421875 -6.046875 Z M 1.78125 -6.046875 "/></g></g></g><g fill="#ffffff" fill-opacity="1"><g transform="translate(74.260573, 9.467874)"><g><path d="M 1.34375 -2.21875 C 1.34375 -1.914062 1.390625 -1.640625 1.484375 -1.390625 C 1.585938 -1.140625 1.742188 -0.941406 1.953125 -0.796875 C 2.160156 -0.648438 2.421875 -0.578125 2.734375 -0.578125 C 3.046875 -0.578125 3.3125 -0.648438 3.53125 -0.796875 C 3.757812 -0.941406 3.90625 -1.148438 3.96875 -1.421875 L 4.796875 -1.421875 C 4.734375 -1.085938 4.597656 -0.804688 4.390625 -0.578125 C 4.191406 -0.359375 3.945312 -0.191406 3.65625 -0.078125 C 3.363281 0.0351562 3.0625 0.09375 2.75 0.09375 C 2.300781 0.09375 1.90625 -0.00390625 1.5625 -0.203125 C 1.21875 -0.398438 0.945312 -0.679688 0.75 -1.046875 C 0.550781 -1.421875 0.453125 -1.863281 0.453125 -2.375 C 0.453125 -2.882812 0.539062 -3.332031 0.71875 -3.71875 C 0.894531 -4.101562 1.148438 -4.40625 1.484375 -4.625 C 1.816406 -4.84375 2.21875 -4.953125 2.6875 -4.953125 C 3.144531 -4.953125 3.53125 -4.851562 3.84375 -4.65625 C 4.164062 -4.457031 4.40625 -4.175781 4.5625 -3.8125 C 4.726562 -3.457031 4.8125 -3.035156 4.8125 -2.546875 L 4.8125 -2.21875 Z M 1.34375 -2.8125 L 3.984375 -2.8125 C 3.984375 -3.09375 3.9375 -3.34375 3.84375 -3.5625 C 3.75 -3.789062 3.601562 -3.96875 3.40625 -4.09375 C 3.21875 -4.226562 2.976562 -4.296875 2.6875 -4.296875 C 2.382812 -4.296875 2.132812 -4.222656 1.9375 -4.078125 C 1.738281 -3.929688 1.585938 -3.742188 1.484375 -3.515625 C 1.390625 -3.285156 1.34375 -3.050781 1.34375 -2.8125 Z M 1.34375 -2.8125 "/></g></g></g><g fill="#ffffff" fill-opacity="1"><g transform="translate(79.400026, 9.467874)"><g><path d="M 4.515625 -4.859375 L 2.765625 0 L 1.96875 0 L 0.21875 -4.859375 L 1.03125 -4.859375 L 2.328125 -1.09375 L 2.40625 -1.09375 L 3.703125 -4.859375 Z M 4.515625 -4.859375 "/></g></g></g><g fill="#ffffff" fill-opacity="1"><g transform="translate(83.943903, 9.467874)"><g><path d="M 1.34375 -2.21875 C 1.34375 -1.914062 1.390625 -1.640625 1.484375 -1.390625 C 1.585938 -1.140625 1.742188 -0.941406 1.953125 -0.796875 C 2.160156 -0.648438 2.421875 -0.578125 2.734375 -0.578125 C 3.046875 -0.578125 3.3125 -0.648438 3.53125 -0.796875 C 3.757812 -0.941406 3.90625 -1.148438 3.96875 -1.421875 L 4.796875 -1.421875 C 4.734375 -1.085938 4.597656 -0.804688 4.390625 -0.578125 C 4.191406 -0.359375 3.945312 -0.191406 3.65625 -0.078125 C 3.363281 0.0351562 3.0625 0.09375 2.75 0.09375 C 2.300781 0.09375 1.90625 -0.00390625 1.5625 -0.203125 C 1.21875 -0.398438 0.945312 -0.679688 0.75 -1.046875 C 0.550781 -1.421875 0.453125 -1.863281 0.453125 -2.375 C 0.453125 -2.882812 0.539062 -3.332031 0.71875 -3.71875 C 0.894531 -4.101562 1.148438 -4.40625 1.484375 -4.625 C 1.816406 -4.84375 2.21875 -4.953125 2.6875 -4.953125 C 3.144531 -4.953125 3.53125 -4.851562 3.84375 -4.65625 C 4.164062 -4.457031 4.40625 -4.175781 4.5625 -3.8125 C 4.726562 -3.457031 4.8125 -3.035156 4.8125 -2.546875 L 4.8125 -2.21875 Z M 1.34375 -2.8125 L 3.984375 -2.8125 C 3.984375 -3.09375 3.9375 -3.34375 3.84375 -3.5625 C 3.75 -3.789062 3.601562 -3.96875 3.40625 -4.09375 C 3.21875 -4.226562 2.976562 -4.296875 2.6875 -4.296875 C 2.382812 -4.296875 2.132812 -4.222656 1.9375 -4.078125 C 1.738281 -3.929688 1.585938 -3.742188 1.484375 -3.515625 C 1.390625 -3.285156 1.34375 -3.050781 1.34375 -2.8125 Z M 1.34375 -2.8125 "/></g></g></g><g fill="#ffffff" fill-opacity="1"><g transform="translate(89.22413, 9.467874)"><g><path d="M 1.9375 0.0625 C 1.675781 0.0625 1.460938 0.0234375 1.296875 -0.046875 C 1.140625 -0.117188 1.019531 -0.210938 0.9375 -0.328125 C 0.851562 -0.453125 0.796875 -0.59375 0.765625 -0.75 C 0.734375 -0.914062 0.71875 -1.082031 0.71875 -1.25 L 0.71875 -6.984375 L 1.578125 -6.984375 L 1.578125 -1.328125 C 1.578125 -1.085938 1.625 -0.90625 1.71875 -0.78125 C 1.8125 -0.65625 1.945312 -0.585938 2.125 -0.578125 L 2.375 -0.578125 L 2.375 -0.015625 C 2.300781 0.00390625 2.222656 0.0195312 2.140625 0.03125 C 2.066406 0.0507812 2 0.0625 1.9375 0.0625 Z M 1.9375 0.0625 "/></g></g></g><g fill="#ffffff" fill-opacity="1"><g transform="translate(91.93453, 9.467874)"><g><path d="M 2.640625 0.09375 C 2.203125 0.09375 1.8125 0 1.46875 -0.1875 C 1.132812 -0.382812 0.875 -0.664062 0.6875 -1.03125 C 0.507812 -1.40625 0.421875 -1.863281 0.421875 -2.40625 C 0.421875 -2.914062 0.503906 -3.359375 0.671875 -3.734375 C 0.847656 -4.117188 1.101562 -4.414062 1.4375 -4.625 C 1.769531 -4.84375 2.171875 -4.953125 2.640625 -4.953125 C 3.085938 -4.953125 3.476562 -4.851562 3.8125 -4.65625 C 4.144531 -4.457031 4.398438 -4.164062 4.578125 -3.78125 C 4.765625 -3.40625 4.859375 -2.945312 4.859375 -2.40625 C 4.859375 -1.914062 4.773438 -1.484375 4.609375 -1.109375 C 4.441406 -0.734375 4.191406 -0.4375 3.859375 -0.21875 C 3.535156 -0.0078125 3.128906 0.09375 2.640625 0.09375 Z M 2.640625 -0.59375 C 2.929688 -0.59375 3.175781 -0.664062 3.375 -0.8125 C 3.582031 -0.957031 3.738281 -1.164062 3.84375 -1.4375 C 3.945312 -1.71875 4 -2.046875 4 -2.421875 C 4 -2.773438 3.953125 -3.085938 3.859375 -3.359375 C 3.765625 -3.640625 3.617188 -3.859375 3.421875 -4.015625 C 3.222656 -4.179688 2.960938 -4.265625 2.640625 -4.265625 C 2.347656 -4.265625 2.097656 -4.191406 1.890625 -4.046875 C 1.691406 -3.898438 1.539062 -3.6875 1.4375 -3.40625 C 1.332031 -3.132812 1.28125 -2.804688 1.28125 -2.421875 C 1.28125 -2.085938 1.328125 -1.78125 1.421875 -1.5 C 1.515625 -1.21875 1.660156 -0.992188 1.859375 -0.828125 C 2.066406 -0.671875 2.328125 -0.59375 2.640625 -0.59375 Z M 2.640625 -0.59375 "/></g></g></g><g fill="#ffffff" fill-opacity="1"><g transform="translate(97.205377, 9.467874)"><g><path d="M 0.71875 1.515625 L 0.71875 -4.859375 L 1.578125 -4.859375 L 1.59375 -4.015625 C 1.644531 -4.109375 1.710938 -4.207031 1.796875 -4.3125 C 1.890625 -4.425781 2 -4.53125 2.125 -4.625 C 2.257812 -4.71875 2.414062 -4.796875 2.59375 -4.859375 C 2.769531 -4.921875 2.96875 -4.953125 3.1875 -4.953125 C 3.570312 -4.953125 3.910156 -4.863281 4.203125 -4.6875 C 4.503906 -4.507812 4.738281 -4.238281 4.90625 -3.875 C 5.070312 -3.507812 5.15625 -3.050781 5.15625 -2.5 C 5.15625 -1.9375 5.070312 -1.460938 4.90625 -1.078125 C 4.75 -0.691406 4.519531 -0.398438 4.21875 -0.203125 C 3.914062 -0.00390625 3.550781 0.09375 3.125 0.09375 C 2.90625 0.09375 2.710938 0.0625 2.546875 0 C 2.378906 -0.0625 2.234375 -0.140625 2.109375 -0.234375 C 1.984375 -0.335938 1.878906 -0.441406 1.796875 -0.546875 C 1.710938 -0.660156 1.644531 -0.769531 1.59375 -0.875 L 1.59375 1.515625 Z M 2.953125 -0.578125 C 3.347656 -0.578125 3.671875 -0.726562 3.921875 -1.03125 C 4.179688 -1.34375 4.3125 -1.820312 4.3125 -2.46875 C 4.3125 -3.019531 4.195312 -3.457031 3.96875 -3.78125 C 3.738281 -4.101562 3.398438 -4.265625 2.953125 -4.265625 C 2.503906 -4.265625 2.160156 -4.097656 1.921875 -3.765625 C 1.691406 -3.429688 1.578125 -3 1.578125 -2.46875 C 1.578125 -2.113281 1.628906 -1.796875 1.734375 -1.515625 C 1.835938 -1.234375 1.988281 -1.003906 2.1875 -0.828125 C 2.394531 -0.660156 2.648438 -0.578125 2.953125 -0.578125 Z M 2.953125 -0.578125 "/></g></g></g><g fill="#ffffff" fill-opacity="1"><g transform="translate(102.776342, 9.467874)"><g><path d="M 0.71875 0 L 0.71875 -4.859375 L 1.546875 -4.859375 L 1.546875 -4.15625 C 1.679688 -4.363281 1.863281 -4.546875 2.09375 -4.703125 C 2.332031 -4.867188 2.644531 -4.953125 3.03125 -4.953125 C 3.195312 -4.953125 3.375 -4.921875 3.5625 -4.859375 C 3.75 -4.796875 3.914062 -4.703125 4.0625 -4.578125 C 4.21875 -4.460938 4.335938 -4.320312 4.421875 -4.15625 C 4.578125 -4.394531 4.78125 -4.585938 5.03125 -4.734375 C 5.289062 -4.878906 5.582031 -4.953125 5.90625 -4.953125 C 6.070312 -4.953125 6.242188 -4.925781 6.421875 -4.875 C 6.609375 -4.820312 6.78125 -4.726562 6.9375 -4.59375 C 7.101562 -4.46875 7.234375 -4.289062 7.328125 -4.0625 C 7.429688 -3.832031 7.484375 -3.535156 7.484375 -3.171875 L 7.484375 0 L 6.609375 0 L 6.609375 -3.09375 C 6.609375 -3.382812 6.5625 -3.609375 6.46875 -3.765625 C 6.375 -3.929688 6.25 -4.046875 6.09375 -4.109375 C 5.945312 -4.179688 5.785156 -4.21875 5.609375 -4.21875 C 5.460938 -4.21875 5.304688 -4.1875 5.140625 -4.125 C 4.972656 -4.0625 4.828125 -3.957031 4.703125 -3.8125 C 4.585938 -3.675781 4.53125 -3.488281 4.53125 -3.25 L 4.53125 0 L 3.65625 0 L 3.65625 -3.34375 C 3.65625 -3.53125 3.601562 -3.6875 3.5 -3.8125 C 3.40625 -3.945312 3.28125 -4.046875 3.125 -4.109375 C 2.976562 -4.179688 2.828125 -4.21875 2.671875 -4.21875 C 2.503906 -4.21875 2.335938 -4.179688 2.171875 -4.109375 C 2.003906 -4.046875 1.863281 -3.941406 1.75 -3.796875 C 1.632812 -3.660156 1.578125 -3.476562 1.578125 -3.25 L 1.578125 0 Z M 0.71875 0 "/></g></g></g><g fill="#ffffff" fill-opacity="1"><g transform="translate(110.888949, 9.467874)"><g><path d="M 1.34375 -2.21875 C 1.34375 -1.914062 1.390625 -1.640625 1.484375 -1.390625 C 1.585938 -1.140625 1.742188 -0.941406 1.953125 -0.796875 C 2.160156 -0.648438 2.421875 -0.578125 2.734375 -0.578125 C 3.046875 -0.578125 3.3125 -0.648438 3.53125 -0.796875 C 3.757812 -0.941406 3.90625 -1.148438 3.96875 -1.421875 L 4.796875 -1.421875 C 4.734375 -1.085938 4.597656 -0.804688 4.390625 -0.578125 C 4.191406 -0.359375 3.945312 -0.191406 3.65625 -0.078125 C 3.363281 0.0351562 3.0625 0.09375 2.75 0.09375 C 2.300781 0.09375 1.90625 -0.00390625 1.5625 -0.203125 C 1.21875 -0.398438 0.945312 -0.679688 0.75 -1.046875 C 0.550781 -1.421875 0.453125 -1.863281 0.453125 -2.375 C 0.453125 -2.882812 0.539062 -3.332031 0.71875 -3.71875 C 0.894531 -4.101562 1.148438 -4.40625 1.484375 -4.625 C 1.816406 -4.84375 2.21875 -4.953125 2.6875 -4.953125 C 3.144531 -4.953125 3.53125 -4.851562 3.84375 -4.65625 C 4.164062 -4.457031 4.40625 -4.175781 4.5625 -3.8125 C 4.726562 -3.457031 4.8125 -3.035156 4.8125 -2.546875 L 4.8125 -2.21875 Z M 1.34375 -2.8125 L 3.984375 -2.8125 C 3.984375 -3.09375 3.9375 -3.34375 3.84375 -3.5625 C 3.75 -3.789062 3.601562 -3.96875 3.40625 -4.09375 C 3.21875 -4.226562 2.976562 -4.296875 2.6875 -4.296875 C 2.382812 -4.296875 2.132812 -4.222656 1.9375 -4.078125 C 1.738281 -3.929688 1.585938 -3.742188 1.484375 -3.515625 C 1.390625 -3.285156 1.34375 -3.050781 1.34375 -2.8125 Z M 1.34375 -2.8125 "/></g></g></g><g fill="#ffffff" fill-opacity="1"><g transform="translate(116.169175, 9.467874)"><g><path d="M 0.71875 0 L 0.71875 -4.859375 L 1.5625 -4.859375 L 1.5625 -4.15625 C 1.632812 -4.289062 1.738281 -4.414062 1.875 -4.53125 C 2.019531 -4.644531 2.191406 -4.738281 2.390625 -4.8125 C 2.585938 -4.882812 2.816406 -4.921875 3.078125 -4.921875 C 3.390625 -4.921875 3.671875 -4.859375 3.921875 -4.734375 C 4.179688 -4.617188 4.390625 -4.429688 4.546875 -4.171875 C 4.703125 -3.910156 4.78125 -3.578125 4.78125 -3.171875 L 4.78125 0 L 3.90625 0 L 3.90625 -3.09375 C 3.90625 -3.46875 3.804688 -3.742188 3.609375 -3.921875 C 3.410156 -4.109375 3.15625 -4.203125 2.84375 -4.203125 C 2.625 -4.203125 2.414062 -4.164062 2.21875 -4.09375 C 2.03125 -4.03125 1.875 -3.925781 1.75 -3.78125 C 1.632812 -3.632812 1.578125 -3.457031 1.578125 -3.25 L 1.578125 0 Z M 0.71875 0 "/></g></g></g><g fill="#ffffff" fill-opacity="1"><g transform="translate(121.285095, 9.467874)"><g><path d="M 3.25 -4.21875 L 2.15625 -4.21875 L 2.15625 -1.203125 C 2.15625 -1.023438 2.171875 -0.894531 2.203125 -0.8125 C 2.242188 -0.738281 2.304688 -0.691406 2.390625 -0.671875 C 2.472656 -0.648438 2.59375 -0.640625 2.75 -0.640625 L 3.28125 -0.640625 L 3.28125 -0.0625 C 3.21875 -0.0390625 3.125 -0.0195312 3 0 C 2.882812 0.0195312 2.738281 0.03125 2.5625 0.03125 C 2.226562 0.03125 1.96875 -0.015625 1.78125 -0.109375 C 1.59375 -0.203125 1.460938 -0.335938 1.390625 -0.515625 C 1.316406 -0.691406 1.28125 -0.910156 1.28125 -1.171875 L 1.28125 -4.21875 L 0.5 -4.21875 L 0.5 -4.859375 L 1.3125 -4.859375 L 1.515625 -6.265625 L 2.15625 -6.265625 L 2.15625 -4.859375 L 3.25 -4.859375 Z M 3.25 -4.21875 "/></g></g></g></g></g></g></g></g></g></svg>