<svg xmlns="http://www.w3.org/2000/svg" xmlns:xlink="http://www.w3.org/1999/xlink" width="200" zoomAndPan="magnify" viewBox="0 0 150 30.000001" height="40" preserveAspectRatio="xMidYMid meet" version="1.0"><defs><g/><clipPath id="94597d3dc9"><path d="M 4.757812 7.234375 L 21.449219 7.234375 L 21.449219 13 L 4.757812 13 Z M 4.757812 7.234375 " clip-rule="nonzero"/></clipPath><clipPath id="d334c7f394"><path d="M 0.757812 0.234375 L 14 0.234375 L 14 5.542969 L 0.757812 5.542969 Z M 0.757812 0.234375 " clip-rule="nonzero"/></clipPath><clipPath id="8d8bfd5b39"><path d="M 0.757812 0.234375 L 7 0.234375 L 7 4 L 0.757812 4 Z M 0.757812 0.234375 " clip-rule="nonzero"/></clipPath><clipPath id="285d899f8e"><path d="M 3 2 L 17.230469 2 L 17.230469 5.542969 L 3 5.542969 Z M 3 2 " clip-rule="nonzero"/></clipPath><clipPath id="8ebcc052f5"><rect x="0" width="18" y="0" height="6"/></clipPath><clipPath id="aa164cccac"><path d="M 2.417969 0 L 19 0 L 19 24 L 2.417969 24 Z M 2.417969 0 " clip-rule="nonzero"/></clipPath><clipPath id="db39a5f123"><rect x="0" width="17" y="0" height="24"/></clipPath><clipPath id="24ef1d5b75"><rect x="0" width="111" y="0" height="24"/></clipPath><clipPath id="08be40d72e"><path d="M 3 17 L 130 17 L 130 29.03125 L 3 29.03125 Z M 3 17 " clip-rule="nonzero"/></clipPath><clipPath id="f31c9635e3"><rect x="0" width="127" y="0" height="13"/></clipPath></defs><g clip-path="url(#94597d3dc9)"><g transform="matrix(1, 0, 0, 1, 4, 7)"><g clip-path="url(#8ebcc052f5)"><g clip-path="url(#d334c7f394)"><path fill="#0038a8" d="M -6.648438 0.492188 C -6.425781 0.863281 -5.875 1.207031 -5.539062 1.46875 C -5.179688 1.746094 -4.808594 2.003906 -4.417969 2.234375 C -3.609375 2.722656 -2.753906 3.113281 -1.855469 3.402344 C -0.046875 3.980469 1.902344 4.136719 3.769531 3.773438 C 5.496094 3.4375 7.113281 2.6875 8.796875 2.167969 C 10.480469 1.652344 12.332031 1.375 13.980469 1.988281 C 13.6875 1.878906 13.089844 1.964844 12.773438 1.976562 C 12.402344 1.992188 12.03125 2.0625 11.671875 2.148438 C 10.894531 2.332031 10.148438 2.628906 9.425781 2.960938 C 7.957031 3.632812 6.554688 4.464844 4.992188 4.910156 C 3.59375 5.308594 2.113281 5.421875 0.675781 5.226562 C -1.855469 4.878906 -4.28125 3.582031 -5.886719 1.589844 C -6.164062 1.242188 -6.417969 0.875 -6.648438 0.492188 Z M -6.648438 0.492188 " fill-opacity="1" fill-rule="nonzero"/></g><g clip-path="url(#8d8bfd5b39)"><path fill="#000000" d="M -6.648438 0.234375 C -6.449219 0.421875 -6.050781 0.535156 -5.804688 0.652344 C -5.53125 0.785156 -5.257812 0.902344 -4.984375 1.023438 C -4.417969 1.277344 -3.839844 1.503906 -3.253906 1.707031 C -2.074219 2.105469 -0.871094 2.398438 0.363281 2.578125 C 2.511719 2.890625 4.691406 2.839844 6.832031 2.484375 C 6.316406 2.730469 5.785156 2.9375 5.242188 3.105469 C 3.125 3.753906 0.832031 3.769531 -1.304688 3.210938 C -3.308594 2.6875 -5.144531 1.65625 -6.648438 0.234375 Z M -6.648438 0.234375 " fill-opacity="1" fill-rule="nonzero"/></g><g clip-path="url(#285d899f8e)"><path fill="#000000" d="M 3.695312 5.398438 C 4.050781 5.476562 4.6875 5.25 5.03125 5.148438 C 5.472656 5.019531 5.910156 4.851562 6.335938 4.675781 C 7.234375 4.304688 8.101562 3.859375 8.984375 3.449219 C 10.238281 2.863281 11.554688 2.339844 12.933594 2.234375 C 13.816406 2.167969 14.734375 2.285156 15.550781 2.636719 C 15.859375 2.769531 16.144531 2.9375 16.40625 3.144531 C 16.660156 3.347656 16.941406 3.59375 17.113281 3.871094 C 15.648438 3.136719 14.28125 2.894531 12.644531 3.265625 C 11.109375 3.613281 9.691406 4.332031 8.210938 4.871094 C 6.765625 5.394531 5.222656 5.734375 3.695312 5.398438 Z M 3.695312 5.398438 " fill-opacity="1" fill-rule="nonzero"/></g></g></g></g><g clip-path="url(#aa164cccac)"><g transform="matrix(1, 0, 0, 1, 2, 0.000000000000005692)"><g clip-path="url(#db39a5f123)"><g fill="#000000" fill-opacity="1"><g transform="translate(0.987138, 16.88869)"><g><path d="M 8.5625 0.3125 C 7.425781 0.3125 6.414062 0.132812 5.53125 -0.21875 C 4.65625 -0.570312 3.910156 -1.085938 3.296875 -1.765625 C 2.679688 -2.441406 2.210938 -3.269531 1.890625 -4.25 C 1.578125 -5.238281 1.421875 -6.351562 1.421875 -7.59375 C 1.421875 -8.863281 1.582031 -10.003906 1.90625 -11.015625 C 2.238281 -12.035156 2.710938 -12.90625 3.328125 -13.625 C 3.941406 -14.351562 4.675781 -14.910156 5.53125 -15.296875 C 6.382812 -15.679688 7.347656 -15.875 8.421875 -15.875 C 9.253906 -15.875 10.015625 -15.753906 10.703125 -15.515625 C 11.390625 -15.273438 11.988281 -14.9375 12.5 -14.5 C 13.019531 -14.070312 13.421875 -13.550781 13.703125 -12.9375 C 13.984375 -12.332031 14.125 -11.644531 14.125 -10.875 L 12.09375 -10.34375 C 12.113281 -11.164062 11.945312 -11.835938 11.59375 -12.359375 C 11.25 -12.890625 10.796875 -13.289062 10.234375 -13.5625 C 9.671875 -13.84375 9.050781 -13.984375 8.375 -13.984375 C 7.757812 -13.984375 7.164062 -13.859375 6.59375 -13.609375 C 6.019531 -13.367188 5.507812 -12.992188 5.0625 -12.484375 C 4.625 -11.972656 4.28125 -11.320312 4.03125 -10.53125 C 3.78125 -9.738281 3.65625 -8.78125 3.65625 -7.65625 C 3.65625 -6.25 3.859375 -5.097656 4.265625 -4.203125 C 4.671875 -3.316406 5.25 -2.664062 6 -2.25 C 6.757812 -1.832031 7.632812 -1.625 8.625 -1.625 C 9.582031 -1.625 10.351562 -1.800781 10.9375 -2.15625 C 11.519531 -2.507812 11.957031 -3.007812 12.25 -3.65625 C 12.539062 -4.300781 12.703125 -5.054688 12.734375 -5.921875 L 14.6875 -5.5625 C 14.675781 -4.75 14.550781 -3.988281 14.3125 -3.28125 C 14.070312 -2.570312 13.703125 -1.945312 13.203125 -1.40625 C 12.710938 -0.875 12.082031 -0.453125 11.3125 -0.140625 C 10.539062 0.160156 9.625 0.3125 8.5625 0.3125 Z M 8.5625 0.3125 "/></g></g></g></g></g></g><path stroke-linecap="butt" transform="matrix(0.0189994, -0.725558, 0.725558, 0.0189994, 16.98995, 11.581707)" fill="none" stroke-linejoin="miter" d="M 0.00183579 0.498345 L 2.209226 0.499764 " stroke="#000000" stroke-width="1" stroke-opacity="1" stroke-miterlimit="4"/><path stroke-linecap="butt" transform="matrix(0.0151177, -0.725649, 0.725649, 0.0151177, 15.666647, 11.57679)" fill="none" stroke-linejoin="miter" d="M -0.00213717 0.502495 L 2.210259 0.499469 " stroke="#000000" stroke-width="1" stroke-opacity="1" stroke-miterlimit="4"/><path stroke-linecap="butt" transform="matrix(0.725806, 0, 0, 0.725806, 15.730859, 9.954373)" fill="none" stroke-linejoin="miter" d="M -0.000537489 0.498802 L 2.211442 0.498802 " stroke="#000000" stroke-width="1" stroke-opacity="1" stroke-miterlimit="4"/><path stroke-linecap="butt" transform="matrix(0.725806, 0, 0, 0.725806, 15.730859, 10.349185)" fill="none" stroke-linejoin="miter" d="M -0.000537489 0.498415 L 2.211442 0.498415 " stroke="#000000" stroke-width="1" stroke-opacity="1" stroke-miterlimit="4"/><path stroke-linecap="butt" transform="matrix(0.725806, 0, 0, 0.725806, 16.031888, 10.89678)" fill="none" stroke-linejoin="miter" d="M -0.000878804 0.497423 L 2.2111 0.497423 " stroke="#000000" stroke-width="1" stroke-opacity="1" stroke-miterlimit="4"/><g transform="matrix(1, 0, 0, 1, 19, 0.000000000000005692)"><g clip-path="url(#24ef1d5b75)"><g fill="#000000" fill-opacity="1"><g transform="translate(0.845014, 16.575422)"><g><path d="M 8.328125 0.3125 C 7.492188 0.3125 6.734375 0.21875 6.046875 0.03125 C 5.359375 -0.144531 4.75 -0.410156 4.21875 -0.765625 C 3.695312 -1.117188 3.257812 -1.546875 2.90625 -2.046875 C 2.550781 -2.554688 2.285156 -3.128906 2.109375 -3.765625 C 1.941406 -4.410156 1.859375 -5.128906 1.859375 -5.921875 L 1.859375 -15.5625 L 4.03125 -15.5625 L 4.03125 -6.015625 C 4.03125 -5.179688 4.164062 -4.4375 4.4375 -3.78125 C 4.71875 -3.132812 5.171875 -2.617188 5.796875 -2.234375 C 6.429688 -1.859375 7.273438 -1.671875 8.328125 -1.671875 C 9.410156 -1.671875 10.257812 -1.859375 10.875 -2.234375 C 11.5 -2.617188 11.941406 -3.140625 12.203125 -3.796875 C 12.472656 -4.453125 12.609375 -5.191406 12.609375 -6.015625 L 12.609375 -15.5625 L 14.78125 -15.5625 L 14.78125 -5.921875 C 14.78125 -4.898438 14.632812 -4.003906 14.34375 -3.234375 C 14.050781 -2.460938 13.628906 -1.8125 13.078125 -1.28125 C 12.535156 -0.757812 11.863281 -0.363281 11.0625 -0.09375 C 10.257812 0.175781 9.347656 0.3125 8.328125 0.3125 Z M 8.328125 0.3125 "/></g></g></g><g fill="#000000" fill-opacity="1"><g transform="translate(15.958018, 16.575422)"><g><path d="M 1.953125 0 L 1.953125 -15.5625 L 4.125 -15.5625 L 4.125 0 Z M 2.671875 0 L 2.671875 -1.890625 L 11.359375 -1.890625 L 11.359375 0 Z M 2.671875 0 "/></g></g></g><g fill="#000000" fill-opacity="1"><g transform="translate(26.261072, 16.575422)"><g><path d="M 1.953125 0 L 1.953125 -15.5625 L 4.125 -15.5625 L 4.125 0 Z M 2.828125 -6.65625 L 2.828125 -8.515625 L 11.6875 -8.515625 L 11.6875 -6.65625 Z M 2.828125 -13.65625 L 2.828125 -15.5625 L 12.734375 -15.5625 L 12.734375 -13.65625 Z M 2.828125 -13.65625 "/></g></g></g><g fill="#000000" fill-opacity="1"><g transform="translate(38.049555, 16.575422)"><g/></g></g><g fill="#000000" fill-opacity="1"><g transform="translate(42.410913, 16.575422)"><g><path d="M 8.5625 0.3125 C 7.425781 0.3125 6.414062 0.132812 5.53125 -0.21875 C 4.65625 -0.570312 3.910156 -1.085938 3.296875 -1.765625 C 2.679688 -2.441406 2.210938 -3.269531 1.890625 -4.25 C 1.578125 -5.238281 1.421875 -6.351562 1.421875 -7.59375 C 1.421875 -8.863281 1.582031 -10.003906 1.90625 -11.015625 C 2.238281 -12.035156 2.710938 -12.90625 3.328125 -13.625 C 3.941406 -14.351562 4.675781 -14.910156 5.53125 -15.296875 C 6.382812 -15.679688 7.347656 -15.875 8.421875 -15.875 C 9.253906 -15.875 10.015625 -15.753906 10.703125 -15.515625 C 11.390625 -15.273438 11.988281 -14.9375 12.5 -14.5 C 13.019531 -14.070312 13.421875 -13.550781 13.703125 -12.9375 C 13.984375 -12.332031 14.125 -11.644531 14.125 -10.875 L 12.09375 -10.34375 C 12.113281 -11.164062 11.945312 -11.835938 11.59375 -12.359375 C 11.25 -12.890625 10.796875 -13.289062 10.234375 -13.5625 C 9.671875 -13.84375 9.050781 -13.984375 8.375 -13.984375 C 7.757812 -13.984375 7.164062 -13.859375 6.59375 -13.609375 C 6.019531 -13.367188 5.507812 -12.992188 5.0625 -12.484375 C 4.625 -11.972656 4.28125 -11.320312 4.03125 -10.53125 C 3.78125 -9.738281 3.65625 -8.78125 3.65625 -7.65625 C 3.65625 -6.25 3.859375 -5.097656 4.265625 -4.203125 C 4.671875 -3.316406 5.25 -2.664062 6 -2.25 C 6.757812 -1.832031 7.632812 -1.625 8.625 -1.625 C 9.582031 -1.625 10.351562 -1.800781 10.9375 -2.15625 C 11.519531 -2.507812 11.957031 -3.007812 12.25 -3.65625 C 12.539062 -4.300781 12.703125 -5.054688 12.734375 -5.921875 L 14.6875 -5.5625 C 14.675781 -4.75 14.550781 -3.988281 14.3125 -3.28125 C 14.070312 -2.570312 13.703125 -1.945312 13.203125 -1.40625 C 12.710938 -0.875 12.082031 -0.453125 11.3125 -0.140625 C 10.539062 0.160156 9.625 0.3125 8.5625 0.3125 Z M 8.5625 0.3125 "/></g></g></g><g fill="#000000" fill-opacity="1"><g transform="translate(56.510065, 16.575422)"><g><path d="M 8.34375 0.3125 C 7.21875 0.3125 6.222656 0.125 5.359375 -0.25 C 4.503906 -0.632812 3.78125 -1.179688 3.1875 -1.890625 C 2.601562 -2.597656 2.160156 -3.441406 1.859375 -4.421875 C 1.566406 -5.398438 1.421875 -6.492188 1.421875 -7.703125 C 1.421875 -9.515625 1.71875 -11.019531 2.3125 -12.21875 C 2.90625 -13.425781 3.722656 -14.335938 4.765625 -14.953125 C 5.816406 -15.566406 7.019531 -15.875 8.375 -15.875 C 9.425781 -15.875 10.375 -15.691406 11.21875 -15.328125 C 12.070312 -14.960938 12.796875 -14.429688 13.390625 -13.734375 C 13.984375 -13.035156 14.445312 -12.175781 14.78125 -11.15625 C 15.113281 -10.144531 15.28125 -8.992188 15.28125 -7.703125 C 15.28125 -6.484375 15.128906 -5.378906 14.828125 -4.390625 C 14.523438 -3.410156 14.078125 -2.570312 13.484375 -1.875 C 12.898438 -1.175781 12.175781 -0.632812 11.3125 -0.25 C 10.445312 0.125 9.457031 0.3125 8.34375 0.3125 Z M 8.34375 -1.5625 C 8.832031 -1.5625 9.351562 -1.644531 9.90625 -1.8125 C 10.457031 -1.988281 10.972656 -2.289062 11.453125 -2.71875 C 11.929688 -3.15625 12.316406 -3.773438 12.609375 -4.578125 C 12.910156 -5.378906 13.0625 -6.40625 13.0625 -7.65625 C 13.0625 -9.15625 12.84375 -10.363281 12.40625 -11.28125 C 11.976562 -12.195312 11.410156 -12.867188 10.703125 -13.296875 C 9.992188 -13.734375 9.21875 -13.953125 8.375 -13.953125 C 7.914062 -13.953125 7.410156 -13.867188 6.859375 -13.703125 C 6.304688 -13.546875 5.785156 -13.242188 5.296875 -12.796875 C 4.816406 -12.359375 4.414062 -11.726562 4.09375 -10.90625 C 3.78125 -10.09375 3.625 -9.023438 3.625 -7.703125 C 3.625 -6.492188 3.757812 -5.492188 4.03125 -4.703125 C 4.3125 -3.910156 4.679688 -3.28125 5.140625 -2.8125 C 5.609375 -2.351562 6.117188 -2.03125 6.671875 -1.84375 C 7.222656 -1.65625 7.78125 -1.5625 8.34375 -1.5625 Z M 8.34375 -1.5625 "/></g></g></g><g fill="#000000" fill-opacity="1"><g transform="translate(71.033484, 16.575422)"><g><path d="M 0.65625 0 L 6.125 -15.5625 L 9.265625 -15.5625 L 14.734375 0 L 12.421875 0 L 7.84375 -13.75 L 7.5625 -13.75 L 3 0 Z M 3.25 -3.484375 L 3.25 -5.140625 L 12.421875 -5.140625 L 12.421875 -3.484375 Z M 3.25 -3.484375 "/></g></g></g><g fill="#000000" fill-opacity="1"><g transform="translate(84.661017, 16.575422)"><g><path d="M 7.40625 0.3125 C 6.394531 0.3125 5.492188 0.203125 4.703125 -0.015625 C 3.921875 -0.242188 3.265625 -0.570312 2.734375 -1 C 2.210938 -1.4375 1.828125 -1.972656 1.578125 -2.609375 C 1.328125 -3.242188 1.21875 -3.96875 1.25 -4.78125 L 3.203125 -5.234375 C 3.140625 -4.390625 3.273438 -3.691406 3.609375 -3.140625 C 3.953125 -2.585938 4.460938 -2.179688 5.140625 -1.921875 C 5.816406 -1.660156 6.601562 -1.53125 7.5 -1.53125 C 8.363281 -1.53125 9.097656 -1.632812 9.703125 -1.84375 C 10.304688 -2.0625 10.765625 -2.363281 11.078125 -2.75 C 11.390625 -3.132812 11.546875 -3.585938 11.546875 -4.109375 C 11.546875 -4.671875 11.359375 -5.113281 10.984375 -5.4375 C 10.617188 -5.769531 10.132812 -6.03125 9.53125 -6.21875 C 8.925781 -6.40625 8.253906 -6.582031 7.515625 -6.75 C 6.796875 -6.90625 6.082031 -7.078125 5.375 -7.265625 C 4.664062 -7.460938 4.019531 -7.726562 3.4375 -8.0625 C 2.851562 -8.394531 2.390625 -8.820312 2.046875 -9.34375 C 1.703125 -9.875 1.53125 -10.546875 1.53125 -11.359375 C 1.53125 -12.273438 1.757812 -13.070312 2.21875 -13.75 C 2.6875 -14.425781 3.34375 -14.945312 4.1875 -15.3125 C 5.03125 -15.6875 6.023438 -15.875 7.171875 -15.875 C 8.296875 -15.875 9.300781 -15.691406 10.1875 -15.328125 C 11.082031 -14.960938 11.785156 -14.429688 12.296875 -13.734375 C 12.816406 -13.035156 13.085938 -12.164062 13.109375 -11.125 L 11.078125 -10.65625 C 11.078125 -11.21875 10.984375 -11.710938 10.796875 -12.140625 C 10.609375 -12.566406 10.34375 -12.921875 10 -13.203125 C 9.65625 -13.484375 9.242188 -13.691406 8.765625 -13.828125 C 8.285156 -13.972656 7.742188 -14.046875 7.140625 -14.046875 C 6.429688 -14.046875 5.8125 -13.941406 5.28125 -13.734375 C 4.757812 -13.523438 4.347656 -13.226562 4.046875 -12.84375 C 3.753906 -12.46875 3.609375 -12.019531 3.609375 -11.5 C 3.609375 -10.894531 3.816406 -10.414062 4.234375 -10.0625 C 4.660156 -9.707031 5.21875 -9.429688 5.90625 -9.234375 C 6.59375 -9.035156 7.328125 -8.84375 8.109375 -8.65625 C 8.785156 -8.507812 9.445312 -8.335938 10.09375 -8.140625 C 10.75 -7.941406 11.34375 -7.679688 11.875 -7.359375 C 12.414062 -7.046875 12.847656 -6.628906 13.171875 -6.109375 C 13.492188 -5.585938 13.65625 -4.925781 13.65625 -4.125 C 13.65625 -3.226562 13.414062 -2.445312 12.9375 -1.78125 C 12.46875 -1.125 11.773438 -0.609375 10.859375 -0.234375 C 9.941406 0.128906 8.789062 0.3125 7.40625 0.3125 Z M 7.40625 0.3125 "/></g></g></g><g fill="#000000" fill-opacity="1"><g transform="translate(97.651913, 16.575422)"><g><path d="M 5.28125 0 L 5.28125 -15.5625 L 7.453125 -15.5625 L 7.453125 0 Z M 0.5625 -13.671875 L 0.5625 -15.5625 L 12.171875 -15.5625 L 12.171875 -13.671875 Z M 0.5625 -13.671875 "/></g></g></g></g></g><g clip-path="url(#08be40d72e)"><g transform="matrix(1, 0, 0, 1, 3, 17)"><g clip-path="url(#f31c9635e3)"><g fill="#000000" fill-opacity="1"><g transform="translate(1.315449, 9.75048)"><g><path d="M 9.078125 -7.046875 L 7.015625 0 L 6.1875 0 L 4.640625 -5.46875 L 3.0625 0 L 2.25 0 L 0.21875 -7.046875 L 1.140625 -7.046875 L 2.703125 -1.4375 L 4.28125 -7.046875 L 4.984375 -7.046875 L 6.578125 -1.4375 L 8.171875 -7.046875 Z M 9.078125 -7.046875 "/></g></g></g><g fill="#000000" fill-opacity="1"><g transform="translate(10.192439, 9.75048)"><g><path d="M 1.390625 -2.3125 C 1.390625 -1.988281 1.441406 -1.695312 1.546875 -1.4375 C 1.648438 -1.1875 1.8125 -0.984375 2.03125 -0.828125 C 2.25 -0.671875 2.519531 -0.59375 2.84375 -0.59375 C 3.164062 -0.59375 3.441406 -0.664062 3.671875 -0.8125 C 3.898438 -0.96875 4.050781 -1.1875 4.125 -1.46875 L 4.96875 -1.46875 C 4.90625 -1.125 4.769531 -0.835938 4.5625 -0.609375 C 4.351562 -0.378906 4.097656 -0.203125 3.796875 -0.078125 C 3.492188 0.0351562 3.179688 0.09375 2.859375 0.09375 C 2.390625 0.09375 1.972656 -0.00390625 1.609375 -0.203125 C 1.253906 -0.410156 0.976562 -0.707031 0.78125 -1.09375 C 0.582031 -1.476562 0.484375 -1.9375 0.484375 -2.46875 C 0.484375 -3 0.570312 -3.460938 0.75 -3.859375 C 0.9375 -4.265625 1.203125 -4.578125 1.546875 -4.796875 C 1.890625 -5.023438 2.304688 -5.140625 2.796875 -5.140625 C 3.265625 -5.140625 3.660156 -5.035156 3.984375 -4.828125 C 4.316406 -4.628906 4.566406 -4.34375 4.734375 -3.96875 C 4.910156 -3.59375 5 -3.148438 5 -2.640625 L 5 -2.3125 Z M 1.390625 -2.921875 L 4.140625 -2.921875 C 4.140625 -3.210938 4.085938 -3.472656 3.984375 -3.703125 C 3.890625 -3.929688 3.738281 -4.113281 3.53125 -4.25 C 3.332031 -4.382812 3.082031 -4.453125 2.78125 -4.453125 C 2.46875 -4.453125 2.207031 -4.375 2 -4.21875 C 1.800781 -4.070312 1.648438 -3.878906 1.546875 -3.640625 C 1.441406 -3.410156 1.390625 -3.171875 1.390625 -2.921875 Z M 1.390625 -2.921875 "/></g></g></g><g fill="#000000" fill-opacity="1"><g transform="translate(15.684465, 9.75048)"><g><path d="M 3.234375 0.09375 C 2.941406 0.09375 2.691406 0.0546875 2.484375 -0.015625 C 2.285156 -0.0976562 2.117188 -0.195312 1.984375 -0.3125 C 1.859375 -0.4375 1.757812 -0.5625 1.6875 -0.6875 C 1.613281 -0.820312 1.5625 -0.9375 1.53125 -1.03125 L 1.4375 0 L 0.75 0 L 0.75 -7.25 L 1.65625 -7.25 L 1.65625 -4.234375 C 1.695312 -4.328125 1.757812 -4.421875 1.84375 -4.515625 C 1.925781 -4.617188 2.035156 -4.71875 2.171875 -4.8125 C 2.316406 -4.90625 2.476562 -4.984375 2.65625 -5.046875 C 2.84375 -5.109375 3.0625 -5.140625 3.3125 -5.140625 C 3.9375 -5.140625 4.4375 -4.921875 4.8125 -4.484375 C 5.1875 -4.046875 5.375 -3.398438 5.375 -2.546875 C 5.375 -2.015625 5.289062 -1.550781 5.125 -1.15625 C 4.96875 -0.757812 4.726562 -0.453125 4.40625 -0.234375 C 4.09375 -0.015625 3.703125 0.09375 3.234375 0.09375 Z M 3.078125 -0.59375 C 3.484375 -0.59375 3.8125 -0.75 4.0625 -1.0625 C 4.320312 -1.382812 4.453125 -1.890625 4.453125 -2.578125 C 4.453125 -3.171875 4.332031 -3.628906 4.09375 -3.953125 C 3.863281 -4.273438 3.519531 -4.4375 3.0625 -4.4375 C 2.71875 -4.4375 2.441406 -4.363281 2.234375 -4.21875 C 2.035156 -4.070312 1.890625 -3.859375 1.796875 -3.578125 C 1.703125 -3.304688 1.65625 -2.972656 1.65625 -2.578125 C 1.65625 -1.878906 1.765625 -1.375 1.984375 -1.0625 C 2.203125 -0.75 2.566406 -0.59375 3.078125 -0.59375 Z M 3.078125 -0.59375 "/></g></g></g><g fill="#000000" fill-opacity="1"><g transform="translate(21.425239, 9.75048)"><g/></g></g><g fill="#000000" fill-opacity="1"><g transform="translate(23.673753, 9.75048)"><g><path d="M 0.9375 -7.046875 C 0.957031 -7.046875 1.023438 -7.046875 1.140625 -7.046875 C 1.253906 -7.046875 1.394531 -7.046875 1.5625 -7.046875 C 1.726562 -7.046875 1.898438 -7.046875 2.078125 -7.046875 C 2.253906 -7.046875 2.414062 -7.046875 2.5625 -7.046875 C 3.425781 -7.023438 4.128906 -6.878906 4.671875 -6.609375 C 5.210938 -6.347656 5.609375 -5.960938 5.859375 -5.453125 C 6.109375 -4.941406 6.234375 -4.3125 6.234375 -3.5625 C 6.234375 -2.789062 6.097656 -2.140625 5.828125 -1.609375 C 5.554688 -1.078125 5.144531 -0.675781 4.59375 -0.40625 C 4.039062 -0.132812 3.332031 0 2.46875 0 L 0.9375 0 Z M 1.859375 -6.28125 L 1.859375 -0.78125 L 2.46875 -0.78125 C 3.050781 -0.78125 3.550781 -0.867188 3.96875 -1.046875 C 4.394531 -1.222656 4.71875 -1.515625 4.9375 -1.921875 C 5.164062 -2.328125 5.28125 -2.867188 5.28125 -3.546875 C 5.28125 -4.234375 5.171875 -4.773438 4.953125 -5.171875 C 4.734375 -5.566406 4.414062 -5.847656 4 -6.015625 C 3.59375 -6.191406 3.097656 -6.28125 2.515625 -6.28125 Z M 1.859375 -6.28125 "/></g></g></g><g fill="#000000" fill-opacity="1"><g transform="translate(30.438796, 9.75048)"><g><path d="M 1.390625 -2.3125 C 1.390625 -1.988281 1.441406 -1.695312 1.546875 -1.4375 C 1.648438 -1.1875 1.8125 -0.984375 2.03125 -0.828125 C 2.25 -0.671875 2.519531 -0.59375 2.84375 -0.59375 C 3.164062 -0.59375 3.441406 -0.664062 3.671875 -0.8125 C 3.898438 -0.96875 4.050781 -1.1875 4.125 -1.46875 L 4.96875 -1.46875 C 4.90625 -1.125 4.769531 -0.835938 4.5625 -0.609375 C 4.351562 -0.378906 4.097656 -0.203125 3.796875 -0.078125 C 3.492188 0.0351562 3.179688 0.09375 2.859375 0.09375 C 2.390625 0.09375 1.972656 -0.00390625 1.609375 -0.203125 C 1.253906 -0.410156 0.976562 -0.707031 0.78125 -1.09375 C 0.582031 -1.476562 0.484375 -1.9375 0.484375 -2.46875 C 0.484375 -3 0.570312 -3.460938 0.75 -3.859375 C 0.9375 -4.265625 1.203125 -4.578125 1.546875 -4.796875 C 1.890625 -5.023438 2.304688 -5.140625 2.796875 -5.140625 C 3.265625 -5.140625 3.660156 -5.035156 3.984375 -4.828125 C 4.316406 -4.628906 4.566406 -4.34375 4.734375 -3.96875 C 4.910156 -3.59375 5 -3.148438 5 -2.640625 L 5 -2.3125 Z M 1.390625 -2.921875 L 4.140625 -2.921875 C 4.140625 -3.210938 4.085938 -3.472656 3.984375 -3.703125 C 3.890625 -3.929688 3.738281 -4.113281 3.53125 -4.25 C 3.332031 -4.382812 3.082031 -4.453125 2.78125 -4.453125 C 2.46875 -4.453125 2.207031 -4.375 2 -4.21875 C 1.800781 -4.070312 1.648438 -3.878906 1.546875 -3.640625 C 1.441406 -3.410156 1.390625 -3.171875 1.390625 -2.921875 Z M 1.390625 -2.921875 "/></g></g></g><g fill="#000000" fill-opacity="1"><g transform="translate(35.896673, 9.75048)"><g><path d="M 2.53125 0.09375 C 2.1875 0.09375 1.863281 0.0390625 1.5625 -0.0625 C 1.257812 -0.175781 1.007812 -0.347656 0.8125 -0.578125 C 0.613281 -0.804688 0.488281 -1.101562 0.4375 -1.46875 L 1.25 -1.46875 C 1.300781 -1.269531 1.382812 -1.101562 1.5 -0.96875 C 1.613281 -0.84375 1.757812 -0.742188 1.9375 -0.671875 C 2.125 -0.609375 2.320312 -0.578125 2.53125 -0.578125 C 2.863281 -0.578125 3.132812 -0.640625 3.34375 -0.765625 C 3.550781 -0.890625 3.65625 -1.082031 3.65625 -1.34375 C 3.65625 -1.53125 3.597656 -1.679688 3.484375 -1.796875 C 3.378906 -1.910156 3.21875 -1.992188 3 -2.046875 L 1.953125 -2.296875 C 1.546875 -2.398438 1.21875 -2.554688 0.96875 -2.765625 C 0.726562 -2.972656 0.609375 -3.257812 0.609375 -3.625 C 0.609375 -3.925781 0.675781 -4.1875 0.8125 -4.40625 C 0.957031 -4.632812 1.171875 -4.8125 1.453125 -4.9375 C 1.742188 -5.070312 2.101562 -5.140625 2.53125 -5.140625 C 3.070312 -5.140625 3.507812 -5.015625 3.84375 -4.765625 C 4.1875 -4.523438 4.363281 -4.164062 4.375 -3.6875 L 3.578125 -3.6875 C 3.546875 -3.925781 3.4375 -4.113281 3.25 -4.25 C 3.070312 -4.394531 2.828125 -4.46875 2.515625 -4.46875 C 2.191406 -4.46875 1.929688 -4.40625 1.734375 -4.28125 C 1.535156 -4.15625 1.4375 -3.957031 1.4375 -3.6875 C 1.4375 -3.507812 1.503906 -3.367188 1.640625 -3.265625 C 1.785156 -3.160156 2 -3.078125 2.28125 -3.015625 L 3.296875 -2.75 C 3.523438 -2.6875 3.710938 -2.601562 3.859375 -2.5 C 4.015625 -2.40625 4.132812 -2.296875 4.21875 -2.171875 C 4.3125 -2.046875 4.375 -1.914062 4.40625 -1.78125 C 4.445312 -1.644531 4.46875 -1.519531 4.46875 -1.40625 C 4.46875 -1.09375 4.390625 -0.820312 4.234375 -0.59375 C 4.085938 -0.375 3.867188 -0.203125 3.578125 -0.078125 C 3.296875 0.0351562 2.945312 0.09375 2.53125 0.09375 Z M 2.53125 0.09375 "/></g></g></g><g fill="#000000" fill-opacity="1"><g transform="translate(40.886326, 9.75048)"><g><path d="M 1.71875 -5.046875 L 1.71875 0 L 0.84375 0 L 0.84375 -5.046875 Z M 1.734375 -7.046875 L 1.734375 -6.109375 L 0.8125 -6.109375 L 0.8125 -7.046875 Z M 1.734375 -7.046875 "/></g></g></g><g fill="#000000" fill-opacity="1"><g transform="translate(43.432362, 9.75048)"><g><path d="M 2.875 1.671875 C 2.082031 1.671875 1.460938 1.554688 1.015625 1.328125 C 0.578125 1.097656 0.359375 0.769531 0.359375 0.34375 C 0.359375 0.15625 0.398438 0 0.484375 -0.125 C 0.566406 -0.25 0.664062 -0.351562 0.78125 -0.4375 C 0.90625 -0.53125 1.015625 -0.597656 1.109375 -0.640625 C 1.210938 -0.691406 1.28125 -0.726562 1.3125 -0.75 C 1.257812 -0.78125 1.191406 -0.820312 1.109375 -0.875 C 1.023438 -0.925781 0.953125 -0.988281 0.890625 -1.0625 C 0.828125 -1.144531 0.796875 -1.253906 0.796875 -1.390625 C 0.796875 -1.546875 0.867188 -1.691406 1.015625 -1.828125 C 1.171875 -1.960938 1.394531 -2.0625 1.6875 -2.125 C 1.382812 -2.269531 1.148438 -2.46875 0.984375 -2.71875 C 0.816406 -2.96875 0.734375 -3.238281 0.734375 -3.53125 C 0.734375 -3.851562 0.820312 -4.132812 1 -4.375 C 1.175781 -4.613281 1.425781 -4.796875 1.75 -4.921875 C 2.082031 -5.054688 2.476562 -5.125 2.9375 -5.125 C 3.257812 -5.125 3.53125 -5.082031 3.75 -5 C 3.976562 -4.925781 4.191406 -4.820312 4.390625 -4.6875 C 4.441406 -4.707031 4.519531 -4.738281 4.625 -4.78125 C 4.738281 -4.832031 4.863281 -4.882812 5 -4.9375 C 5.144531 -4.988281 5.273438 -5.039062 5.390625 -5.09375 C 5.503906 -5.144531 5.597656 -5.1875 5.671875 -5.21875 L 5.671875 -4.375 L 4.78125 -4.21875 C 4.832031 -4.113281 4.875 -4 4.90625 -3.875 C 4.9375 -3.75 4.953125 -3.632812 4.953125 -3.53125 C 4.953125 -3.226562 4.875 -2.957031 4.71875 -2.71875 C 4.5625 -2.476562 4.328125 -2.285156 4.015625 -2.140625 C 3.703125 -2.003906 3.316406 -1.9375 2.859375 -1.9375 C 2.816406 -1.9375 2.765625 -1.9375 2.703125 -1.9375 C 2.640625 -1.9375 2.585938 -1.9375 2.546875 -1.9375 C 2.203125 -1.925781 1.960938 -1.882812 1.828125 -1.8125 C 1.703125 -1.75 1.640625 -1.679688 1.640625 -1.609375 C 1.640625 -1.515625 1.710938 -1.445312 1.859375 -1.40625 C 2.003906 -1.375 2.253906 -1.34375 2.609375 -1.3125 C 2.734375 -1.3125 2.890625 -1.304688 3.078125 -1.296875 C 3.265625 -1.285156 3.472656 -1.269531 3.703125 -1.25 C 4.234375 -1.21875 4.640625 -1.082031 4.921875 -0.84375 C 5.210938 -0.613281 5.359375 -0.296875 5.359375 0.109375 C 5.359375 0.566406 5.148438 0.941406 4.734375 1.234375 C 4.328125 1.523438 3.707031 1.671875 2.875 1.671875 Z M 3.03125 1.09375 C 3.5 1.09375 3.851562 1.019531 4.09375 0.875 C 4.34375 0.738281 4.46875 0.53125 4.46875 0.25 C 4.46875 0.0390625 4.390625 -0.125 4.234375 -0.25 C 4.085938 -0.375 3.859375 -0.445312 3.546875 -0.46875 L 2.140625 -0.5625 C 2.015625 -0.570312 1.882812 -0.539062 1.75 -0.46875 C 1.613281 -0.394531 1.492188 -0.296875 1.390625 -0.171875 C 1.296875 -0.0546875 1.25 0.078125 1.25 0.234375 C 1.25 0.503906 1.394531 0.710938 1.6875 0.859375 C 1.976562 1.015625 2.425781 1.09375 3.03125 1.09375 Z M 2.875 -2.515625 C 3.238281 -2.515625 3.53125 -2.597656 3.75 -2.765625 C 3.976562 -2.929688 4.09375 -3.179688 4.09375 -3.515625 C 4.09375 -3.859375 3.976562 -4.117188 3.75 -4.296875 C 3.53125 -4.472656 3.238281 -4.5625 2.875 -4.5625 C 2.507812 -4.5625 2.210938 -4.46875 1.984375 -4.28125 C 1.753906 -4.101562 1.640625 -3.847656 1.640625 -3.515625 C 1.640625 -3.191406 1.75 -2.941406 1.96875 -2.765625 C 2.1875 -2.597656 2.488281 -2.515625 2.875 -2.515625 Z M 2.875 -2.515625 "/></g></g></g><g fill="#000000" fill-opacity="1"><g transform="translate(49.490181, 9.75048)"><g><path d="M 0.75 0 L 0.75 -5.046875 L 1.625 -5.046875 L 1.625 -4.3125 C 1.695312 -4.445312 1.804688 -4.578125 1.953125 -4.703125 C 2.097656 -4.828125 2.273438 -4.925781 2.484375 -5 C 2.691406 -5.070312 2.929688 -5.109375 3.203125 -5.109375 C 3.515625 -5.109375 3.804688 -5.046875 4.078125 -4.921875 C 4.347656 -4.796875 4.5625 -4.597656 4.71875 -4.328125 C 4.882812 -4.054688 4.96875 -3.710938 4.96875 -3.296875 L 4.96875 0 L 4.0625 0 L 4.0625 -3.203125 C 4.0625 -3.597656 3.957031 -3.890625 3.75 -4.078125 C 3.539062 -4.273438 3.273438 -4.375 2.953125 -4.375 C 2.722656 -4.375 2.507812 -4.335938 2.3125 -4.265625 C 2.113281 -4.191406 1.953125 -4.078125 1.828125 -3.921875 C 1.703125 -3.773438 1.640625 -3.59375 1.640625 -3.375 L 1.640625 0 Z M 0.75 0 "/></g></g></g><g fill="#000000" fill-opacity="1"><g transform="translate(55.118774, 9.75048)"><g/></g></g><g fill="#000000" fill-opacity="1"><g transform="translate(57.367289, 9.75048)"><g><path d="M 3.03125 -7.15625 C 3.375 -7.15625 3.691406 -7.09375 3.984375 -6.96875 C 4.285156 -6.84375 4.523438 -6.664062 4.703125 -6.4375 C 4.878906 -6.21875 4.96875 -5.957031 4.96875 -5.65625 C 4.96875 -5.53125 4.941406 -5.394531 4.890625 -5.25 C 4.835938 -5.101562 4.75 -4.945312 4.625 -4.78125 C 4.507812 -4.613281 4.34375 -4.441406 4.125 -4.265625 C 3.90625 -4.097656 3.628906 -3.925781 3.296875 -3.75 L 4.84375 -1.9375 C 4.90625 -2.019531 4.976562 -2.148438 5.0625 -2.328125 C 5.15625 -2.503906 5.238281 -2.71875 5.3125 -2.96875 C 5.394531 -3.21875 5.445312 -3.492188 5.46875 -3.796875 L 6.359375 -3.796875 C 6.304688 -3.460938 6.226562 -3.15625 6.125 -2.875 C 6.019531 -2.59375 5.894531 -2.328125 5.75 -2.078125 C 5.601562 -1.835938 5.453125 -1.609375 5.296875 -1.390625 L 6.484375 0 L 5.4375 0 L 4.75 -0.78125 C 4.394531 -0.488281 4.03125 -0.273438 3.65625 -0.140625 C 3.28125 -0.015625 2.910156 0.046875 2.546875 0.046875 C 2.085938 0.046875 1.695312 -0.03125 1.375 -0.1875 C 1.0625 -0.34375 0.820312 -0.554688 0.65625 -0.828125 C 0.5 -1.097656 0.421875 -1.410156 0.421875 -1.765625 C 0.421875 -2.078125 0.484375 -2.359375 0.609375 -2.609375 C 0.734375 -2.859375 0.914062 -3.085938 1.15625 -3.296875 C 1.40625 -3.503906 1.71875 -3.707031 2.09375 -3.90625 C 1.914062 -4.101562 1.757812 -4.289062 1.625 -4.46875 C 1.488281 -4.65625 1.382812 -4.835938 1.3125 -5.015625 C 1.25 -5.203125 1.21875 -5.398438 1.21875 -5.609375 C 1.21875 -5.898438 1.296875 -6.160156 1.453125 -6.390625 C 1.609375 -6.628906 1.820312 -6.816406 2.09375 -6.953125 C 2.363281 -7.085938 2.675781 -7.15625 3.03125 -7.15625 Z M 3.078125 -6.53125 C 2.765625 -6.53125 2.523438 -6.441406 2.359375 -6.265625 C 2.203125 -6.097656 2.125 -5.894531 2.125 -5.65625 C 2.125 -5.5 2.15625 -5.34375 2.21875 -5.1875 C 2.289062 -5.03125 2.375 -4.882812 2.46875 -4.75 C 2.5625 -4.625 2.644531 -4.519531 2.71875 -4.4375 L 2.890625 -4.25 C 3.234375 -4.445312 3.492188 -4.625 3.671875 -4.78125 C 3.847656 -4.9375 3.96875 -5.082031 4.03125 -5.21875 C 4.101562 -5.351562 4.140625 -5.492188 4.140625 -5.640625 C 4.140625 -5.859375 4.085938 -6.03125 3.984375 -6.15625 C 3.878906 -6.289062 3.742188 -6.390625 3.578125 -6.453125 C 3.410156 -6.515625 3.242188 -6.539062 3.078125 -6.53125 Z M 2.546875 -3.359375 C 2.210938 -3.171875 1.9375 -2.945312 1.71875 -2.6875 C 1.5 -2.425781 1.398438 -2.128906 1.421875 -1.796875 C 1.429688 -1.566406 1.5 -1.367188 1.625 -1.203125 C 1.75 -1.035156 1.910156 -0.90625 2.109375 -0.8125 C 2.304688 -0.71875 2.519531 -0.671875 2.75 -0.671875 C 3.019531 -0.671875 3.289062 -0.726562 3.5625 -0.84375 C 3.84375 -0.96875 4.085938 -1.132812 4.296875 -1.34375 Z M 2.546875 -3.359375 "/></g></g></g><g fill="#000000" fill-opacity="1"><g transform="translate(64.278661, 9.75048)"><g/></g></g><g fill="#000000" fill-opacity="1"><g transform="translate(66.527176, 9.75048)"><g><path d="M 0.9375 -7.046875 C 0.957031 -7.046875 1.023438 -7.046875 1.140625 -7.046875 C 1.253906 -7.046875 1.394531 -7.046875 1.5625 -7.046875 C 1.726562 -7.046875 1.898438 -7.046875 2.078125 -7.046875 C 2.253906 -7.046875 2.414062 -7.046875 2.5625 -7.046875 C 3.425781 -7.023438 4.128906 -6.878906 4.671875 -6.609375 C 5.210938 -6.347656 5.609375 -5.960938 5.859375 -5.453125 C 6.109375 -4.941406 6.234375 -4.3125 6.234375 -3.5625 C 6.234375 -2.789062 6.097656 -2.140625 5.828125 -1.609375 C 5.554688 -1.078125 5.144531 -0.675781 4.59375 -0.40625 C 4.039062 -0.132812 3.332031 0 2.46875 0 L 0.9375 0 Z M 1.859375 -6.28125 L 1.859375 -0.78125 L 2.46875 -0.78125 C 3.050781 -0.78125 3.550781 -0.867188 3.96875 -1.046875 C 4.394531 -1.222656 4.71875 -1.515625 4.9375 -1.921875 C 5.164062 -2.328125 5.28125 -2.867188 5.28125 -3.546875 C 5.28125 -4.234375 5.171875 -4.773438 4.953125 -5.171875 C 4.734375 -5.566406 4.414062 -5.847656 4 -6.015625 C 3.59375 -6.191406 3.097656 -6.28125 2.515625 -6.28125 Z M 1.859375 -6.28125 "/></g></g></g><g fill="#000000" fill-opacity="1"><g transform="translate(73.292219, 9.75048)"><g><path d="M 1.390625 -2.3125 C 1.390625 -1.988281 1.441406 -1.695312 1.546875 -1.4375 C 1.648438 -1.1875 1.8125 -0.984375 2.03125 -0.828125 C 2.25 -0.671875 2.519531 -0.59375 2.84375 -0.59375 C 3.164062 -0.59375 3.441406 -0.664062 3.671875 -0.8125 C 3.898438 -0.96875 4.050781 -1.1875 4.125 -1.46875 L 4.96875 -1.46875 C 4.90625 -1.125 4.769531 -0.835938 4.5625 -0.609375 C 4.351562 -0.378906 4.097656 -0.203125 3.796875 -0.078125 C 3.492188 0.0351562 3.179688 0.09375 2.859375 0.09375 C 2.390625 0.09375 1.972656 -0.00390625 1.609375 -0.203125 C 1.253906 -0.410156 0.976562 -0.707031 0.78125 -1.09375 C 0.582031 -1.476562 0.484375 -1.9375 0.484375 -2.46875 C 0.484375 -3 0.570312 -3.460938 0.75 -3.859375 C 0.9375 -4.265625 1.203125 -4.578125 1.546875 -4.796875 C 1.890625 -5.023438 2.304688 -5.140625 2.796875 -5.140625 C 3.265625 -5.140625 3.660156 -5.035156 3.984375 -4.828125 C 4.316406 -4.628906 4.566406 -4.34375 4.734375 -3.96875 C 4.910156 -3.59375 5 -3.148438 5 -2.640625 L 5 -2.3125 Z M 1.390625 -2.921875 L 4.140625 -2.921875 C 4.140625 -3.210938 4.085938 -3.472656 3.984375 -3.703125 C 3.890625 -3.929688 3.738281 -4.113281 3.53125 -4.25 C 3.332031 -4.382812 3.082031 -4.453125 2.78125 -4.453125 C 2.46875 -4.453125 2.207031 -4.375 2 -4.21875 C 1.800781 -4.070312 1.648438 -3.878906 1.546875 -3.640625 C 1.441406 -3.410156 1.390625 -3.171875 1.390625 -2.921875 Z M 1.390625 -2.921875 "/></g></g></g><g fill="#000000" fill-opacity="1"><g transform="translate(78.637927, 9.75048)"><g><path d="M 4.6875 -5.046875 L 2.859375 0 L 2.046875 0 L 0.21875 -5.046875 L 1.078125 -5.046875 L 2.40625 -1.125 L 2.5 -1.125 L 3.84375 -5.046875 Z M 4.6875 -5.046875 "/></g></g></g><g fill="#000000" fill-opacity="1"><g transform="translate(83.364194, 9.75048)"><g><path d="M 1.390625 -2.3125 C 1.390625 -1.988281 1.441406 -1.695312 1.546875 -1.4375 C 1.648438 -1.1875 1.8125 -0.984375 2.03125 -0.828125 C 2.25 -0.671875 2.519531 -0.59375 2.84375 -0.59375 C 3.164062 -0.59375 3.441406 -0.664062 3.671875 -0.8125 C 3.898438 -0.96875 4.050781 -1.1875 4.125 -1.46875 L 4.96875 -1.46875 C 4.90625 -1.125 4.769531 -0.835938 4.5625 -0.609375 C 4.351562 -0.378906 4.097656 -0.203125 3.796875 -0.078125 C 3.492188 0.0351562 3.179688 0.09375 2.859375 0.09375 C 2.390625 0.09375 1.972656 -0.00390625 1.609375 -0.203125 C 1.253906 -0.410156 0.976562 -0.707031 0.78125 -1.09375 C 0.582031 -1.476562 0.484375 -1.9375 0.484375 -2.46875 C 0.484375 -3 0.570312 -3.460938 0.75 -3.859375 C 0.9375 -4.265625 1.203125 -4.578125 1.546875 -4.796875 C 1.890625 -5.023438 2.304688 -5.140625 2.796875 -5.140625 C 3.265625 -5.140625 3.660156 -5.035156 3.984375 -4.828125 C 4.316406 -4.628906 4.566406 -4.34375 4.734375 -3.96875 C 4.910156 -3.59375 5 -3.148438 5 -2.640625 L 5 -2.3125 Z M 1.390625 -2.921875 L 4.140625 -2.921875 C 4.140625 -3.210938 4.085938 -3.472656 3.984375 -3.703125 C 3.890625 -3.929688 3.738281 -4.113281 3.53125 -4.25 C 3.332031 -4.382812 3.082031 -4.453125 2.78125 -4.453125 C 2.46875 -4.453125 2.207031 -4.375 2 -4.21875 C 1.800781 -4.070312 1.648438 -3.878906 1.546875 -3.640625 C 1.441406 -3.410156 1.390625 -3.171875 1.390625 -2.921875 Z M 1.390625 -2.921875 "/></g></g></g><g fill="#000000" fill-opacity="1"><g transform="translate(88.856219, 9.75048)"><g><path d="M 2.015625 0.0625 C 1.742188 0.0625 1.523438 0.0234375 1.359375 -0.046875 C 1.191406 -0.117188 1.0625 -0.21875 0.96875 -0.34375 C 0.882812 -0.476562 0.828125 -0.625 0.796875 -0.78125 C 0.765625 -0.945312 0.75 -1.117188 0.75 -1.296875 L 0.75 -7.25 L 1.640625 -7.25 L 1.640625 -1.390625 C 1.640625 -1.128906 1.6875 -0.9375 1.78125 -0.8125 C 1.882812 -0.6875 2.023438 -0.617188 2.203125 -0.609375 L 2.46875 -0.59375 L 2.46875 -0.015625 C 2.394531 0.00390625 2.316406 0.0195312 2.234375 0.03125 C 2.148438 0.0507812 2.078125 0.0625 2.015625 0.0625 Z M 2.015625 0.0625 "/></g></g></g><g fill="#000000" fill-opacity="1"><g transform="translate(91.67539, 9.75048)"><g><path d="M 2.75 0.09375 C 2.28125 0.09375 1.875 -0.00390625 1.53125 -0.203125 C 1.1875 -0.398438 0.914062 -0.691406 0.71875 -1.078125 C 0.53125 -1.460938 0.4375 -1.9375 0.4375 -2.5 C 0.4375 -3.03125 0.523438 -3.492188 0.703125 -3.890625 C 0.878906 -4.285156 1.140625 -4.59375 1.484375 -4.8125 C 1.835938 -5.03125 2.257812 -5.140625 2.75 -5.140625 C 3.21875 -5.140625 3.617188 -5.035156 3.953125 -4.828125 C 4.296875 -4.628906 4.5625 -4.332031 4.75 -3.9375 C 4.945312 -3.539062 5.046875 -3.0625 5.046875 -2.5 C 5.046875 -1.988281 4.957031 -1.535156 4.78125 -1.140625 C 4.601562 -0.753906 4.34375 -0.453125 4 -0.234375 C 3.664062 -0.015625 3.25 0.09375 2.75 0.09375 Z M 2.75 -0.609375 C 3.050781 -0.609375 3.304688 -0.6875 3.515625 -0.84375 C 3.722656 -1 3.878906 -1.21875 3.984375 -1.5 C 4.097656 -1.789062 4.15625 -2.128906 4.15625 -2.515625 C 4.15625 -2.878906 4.101562 -3.203125 4 -3.484375 C 3.90625 -3.773438 3.753906 -4.003906 3.546875 -4.171875 C 3.347656 -4.347656 3.082031 -4.4375 2.75 -4.4375 C 2.445312 -4.4375 2.1875 -4.359375 1.96875 -4.203125 C 1.757812 -4.054688 1.597656 -3.835938 1.484375 -3.546875 C 1.378906 -3.265625 1.328125 -2.921875 1.328125 -2.515625 C 1.328125 -2.160156 1.375 -1.835938 1.46875 -1.546875 C 1.570312 -1.265625 1.726562 -1.035156 1.9375 -0.859375 C 2.144531 -0.691406 2.414062 -0.609375 2.75 -0.609375 Z M 2.75 -0.609375 "/></g></g></g><g fill="#000000" fill-opacity="1"><g transform="translate(97.157666, 9.75048)"><g><path d="M 0.75 1.5625 L 0.75 -5.046875 L 1.640625 -5.046875 L 1.65625 -4.15625 C 1.707031 -4.257812 1.78125 -4.367188 1.875 -4.484375 C 1.96875 -4.597656 2.082031 -4.703125 2.21875 -4.796875 C 2.351562 -4.898438 2.507812 -4.984375 2.6875 -5.046875 C 2.875 -5.109375 3.082031 -5.140625 3.3125 -5.140625 C 3.71875 -5.140625 4.070312 -5.046875 4.375 -4.859375 C 4.6875 -4.679688 4.925781 -4.398438 5.09375 -4.015625 C 5.269531 -3.640625 5.359375 -3.164062 5.359375 -2.59375 C 5.359375 -2.007812 5.269531 -1.519531 5.09375 -1.125 C 4.925781 -0.726562 4.6875 -0.425781 4.375 -0.21875 C 4.0625 -0.0078125 3.679688 0.09375 3.234375 0.09375 C 3.015625 0.09375 2.816406 0.0625 2.640625 0 C 2.460938 -0.0625 2.3125 -0.144531 2.1875 -0.25 C 2.0625 -0.351562 1.953125 -0.460938 1.859375 -0.578125 C 1.773438 -0.691406 1.707031 -0.800781 1.65625 -0.90625 L 1.65625 1.5625 Z M 3.0625 -0.609375 C 3.476562 -0.609375 3.816406 -0.765625 4.078125 -1.078125 C 4.347656 -1.398438 4.484375 -1.894531 4.484375 -2.5625 C 4.484375 -3.132812 4.363281 -3.585938 4.125 -3.921875 C 3.882812 -4.265625 3.53125 -4.4375 3.0625 -4.4375 C 2.59375 -4.4375 2.238281 -4.257812 2 -3.90625 C 1.757812 -3.5625 1.640625 -3.113281 1.640625 -2.5625 C 1.640625 -2.195312 1.691406 -1.863281 1.796875 -1.5625 C 1.910156 -1.269531 2.070312 -1.035156 2.28125 -0.859375 C 2.488281 -0.691406 2.75 -0.609375 3.0625 -0.609375 Z M 3.0625 -0.609375 "/></g></g></g><g fill="#000000" fill-opacity="1"><g transform="translate(102.9521, 9.75048)"><g><path d="M 0.75 0 L 0.75 -5.046875 L 1.609375 -5.046875 L 1.609375 -4.3125 C 1.753906 -4.53125 1.945312 -4.722656 2.1875 -4.890625 C 2.425781 -5.054688 2.742188 -5.140625 3.140625 -5.140625 C 3.316406 -5.140625 3.5 -5.109375 3.6875 -5.046875 C 3.882812 -4.984375 4.0625 -4.890625 4.21875 -4.765625 C 4.375 -4.640625 4.5 -4.488281 4.59375 -4.3125 C 4.75 -4.5625 4.957031 -4.757812 5.21875 -4.90625 C 5.488281 -5.0625 5.789062 -5.140625 6.125 -5.140625 C 6.300781 -5.140625 6.484375 -5.113281 6.671875 -5.0625 C 6.867188 -5.007812 7.046875 -4.914062 7.203125 -4.78125 C 7.367188 -4.644531 7.503906 -4.457031 7.609375 -4.21875 C 7.710938 -3.976562 7.765625 -3.671875 7.765625 -3.296875 L 7.765625 0 L 6.859375 0 L 6.859375 -3.203125 C 6.859375 -3.515625 6.8125 -3.753906 6.71875 -3.921875 C 6.625 -4.085938 6.492188 -4.203125 6.328125 -4.265625 C 6.171875 -4.335938 6.003906 -4.375 5.828125 -4.375 C 5.671875 -4.375 5.503906 -4.34375 5.328125 -4.28125 C 5.148438 -4.21875 5 -4.113281 4.875 -3.96875 C 4.757812 -3.820312 4.703125 -3.625 4.703125 -3.375 L 4.703125 0 L 3.796875 0 L 3.796875 -3.46875 C 3.796875 -3.664062 3.742188 -3.832031 3.640625 -3.96875 C 3.535156 -4.101562 3.40625 -4.203125 3.25 -4.265625 C 3.09375 -4.335938 2.9375 -4.375 2.78125 -4.375 C 2.601562 -4.375 2.425781 -4.335938 2.25 -4.265625 C 2.082031 -4.203125 1.9375 -4.09375 1.8125 -3.9375 C 1.695312 -3.789062 1.640625 -3.601562 1.640625 -3.375 L 1.640625 0 Z M 0.75 0 "/></g></g></g><g fill="#000000" fill-opacity="1"><g transform="translate(111.390114, 9.75048)"><g><path d="M 1.390625 -2.3125 C 1.390625 -1.988281 1.441406 -1.695312 1.546875 -1.4375 C 1.648438 -1.1875 1.8125 -0.984375 2.03125 -0.828125 C 2.25 -0.671875 2.519531 -0.59375 2.84375 -0.59375 C 3.164062 -0.59375 3.441406 -0.664062 3.671875 -0.8125 C 3.898438 -0.96875 4.050781 -1.1875 4.125 -1.46875 L 4.96875 -1.46875 C 4.90625 -1.125 4.769531 -0.835938 4.5625 -0.609375 C 4.351562 -0.378906 4.097656 -0.203125 3.796875 -0.078125 C 3.492188 0.0351562 3.179688 0.09375 2.859375 0.09375 C 2.390625 0.09375 1.972656 -0.00390625 1.609375 -0.203125 C 1.253906 -0.410156 0.976562 -0.707031 0.78125 -1.09375 C 0.582031 -1.476562 0.484375 -1.9375 0.484375 -2.46875 C 0.484375 -3 0.570312 -3.460938 0.75 -3.859375 C 0.9375 -4.265625 1.203125 -4.578125 1.546875 -4.796875 C 1.890625 -5.023438 2.304688 -5.140625 2.796875 -5.140625 C 3.265625 -5.140625 3.660156 -5.035156 3.984375 -4.828125 C 4.316406 -4.628906 4.566406 -4.34375 4.734375 -3.96875 C 4.910156 -3.59375 5 -3.148438 5 -2.640625 L 5 -2.3125 Z M 1.390625 -2.921875 L 4.140625 -2.921875 C 4.140625 -3.210938 4.085938 -3.472656 3.984375 -3.703125 C 3.890625 -3.929688 3.738281 -4.113281 3.53125 -4.25 C 3.332031 -4.382812 3.082031 -4.453125 2.78125 -4.453125 C 2.46875 -4.453125 2.207031 -4.375 2 -4.21875 C 1.800781 -4.070312 1.648438 -3.878906 1.546875 -3.640625 C 1.441406 -3.410156 1.390625 -3.171875 1.390625 -2.921875 Z M 1.390625 -2.921875 "/></g></g></g><g fill="#000000" fill-opacity="1"><g transform="translate(116.882139, 9.75048)"><g><path d="M 0.75 0 L 0.75 -5.046875 L 1.625 -5.046875 L 1.625 -4.3125 C 1.695312 -4.445312 1.804688 -4.578125 1.953125 -4.703125 C 2.097656 -4.828125 2.273438 -4.925781 2.484375 -5 C 2.691406 -5.070312 2.929688 -5.109375 3.203125 -5.109375 C 3.515625 -5.109375 3.804688 -5.046875 4.078125 -4.921875 C 4.347656 -4.796875 4.5625 -4.597656 4.71875 -4.328125 C 4.882812 -4.054688 4.96875 -3.710938 4.96875 -3.296875 L 4.96875 0 L 4.0625 0 L 4.0625 -3.203125 C 4.0625 -3.597656 3.957031 -3.890625 3.75 -4.078125 C 3.539062 -4.273438 3.273438 -4.375 2.953125 -4.375 C 2.722656 -4.375 2.507812 -4.335938 2.3125 -4.265625 C 2.113281 -4.191406 1.953125 -4.078125 1.828125 -3.921875 C 1.703125 -3.773438 1.640625 -3.59375 1.640625 -3.375 L 1.640625 0 Z M 0.75 0 "/></g></g></g><g fill="#000000" fill-opacity="1"><g transform="translate(122.203449, 9.75048)"><g><path d="M 3.375 -4.375 L 2.234375 -4.375 L 2.234375 -1.25 C 2.234375 -1.070312 2.25 -0.941406 2.28125 -0.859375 C 2.320312 -0.773438 2.390625 -0.71875 2.484375 -0.6875 C 2.578125 -0.664062 2.703125 -0.65625 2.859375 -0.65625 L 3.40625 -0.65625 L 3.40625 -0.0625 C 3.34375 -0.0390625 3.25 -0.0195312 3.125 0 C 3 0.0195312 2.84375 0.03125 2.65625 0.03125 C 2.3125 0.03125 2.039062 -0.015625 1.84375 -0.109375 C 1.65625 -0.210938 1.519531 -0.351562 1.4375 -0.53125 C 1.363281 -0.71875 1.328125 -0.945312 1.328125 -1.21875 L 1.328125 -4.375 L 0.515625 -4.375 L 0.515625 -5.046875 L 1.359375 -5.046875 L 1.578125 -6.515625 L 2.234375 -6.515625 L 2.234375 -5.046875 L 3.375 -5.046875 Z M 3.375 -4.375 "/></g></g></g></g></g></g></svg>