<svg xmlns="http://www.w3.org/2000/svg" xmlns:xlink="http://www.w3.org/1999/xlink" width="200" zoomAndPan="magnify" viewBox="0 0 150 30.000001" height="40" preserveAspectRatio="xMidYMid meet" version="1.0"><defs><g/><clipPath id="1e92898de0"><path d="M 3 0 L 147.578125 0 L 147.578125 26 L 3 26 Z M 3 0 " clip-rule="nonzero"/></clipPath><clipPath id="f8027e818a"><rect x="0" width="145" y="0" height="26"/></clipPath><clipPath id="c9513febd6"><path d="M 51 0 L 81 0 L 81 28 L 51 28 Z M 51 0 " clip-rule="nonzero"/></clipPath><clipPath id="cf9a5144fa"><path d="M 80.90625 3.730469 L 57.296875 27.339844 L 51.652344 21.695312 L 75.261719 -1.914062 Z M 80.90625 3.730469 " clip-rule="nonzero"/></clipPath><clipPath id="bdb8e2978d"><path d="M 1 3 L 24 3 L 24 23 L 1 23 Z M 1 3 " clip-rule="nonzero"/></clipPath><clipPath id="8d4332b087"><path d="M 29.90625 3.730469 L 6.296875 27.339844 L 0.652344 21.695312 L 24.261719 -1.914062 Z M 29.90625 3.730469 " clip-rule="nonzero"/></clipPath><clipPath id="5b7b8eebba"><path d="M 6.335938 27.300781 L 29.945312 3.691406 L 24.300781 -1.953125 L 0.691406 21.65625 Z M 6.335938 27.300781 " clip-rule="nonzero"/></clipPath><clipPath id="58ad0cecbb"><path d="M 0.65625 10 L 17 10 L 17 22 L 0.65625 22 Z M 0.65625 10 " clip-rule="nonzero"/></clipPath><clipPath id="c8d0c79693"><path d="M 29.90625 3.730469 L 6.296875 27.339844 L 0.652344 21.695312 L 24.261719 -1.914062 Z M 29.90625 3.730469 " clip-rule="nonzero"/></clipPath><clipPath id="d67f76fb27"><path d="M 6.335938 27.300781 L 29.945312 3.691406 L 24.300781 -1.953125 L 0.691406 21.65625 Z M 6.335938 27.300781 " clip-rule="nonzero"/></clipPath><clipPath id="d6c3b8370f"><path d="M 16 1 L 29 1 L 29 17 L 16 17 Z M 16 1 " clip-rule="nonzero"/></clipPath><clipPath id="2d294d743b"><path d="M 29.90625 3.730469 L 6.296875 27.339844 L 0.652344 21.695312 L 24.261719 -1.914062 Z M 29.90625 3.730469 " clip-rule="nonzero"/></clipPath><clipPath id="77ed9356b4"><path d="M 6.335938 27.300781 L 29.945312 3.691406 L 24.300781 -1.953125 L 0.691406 21.65625 Z M 6.335938 27.300781 " clip-rule="nonzero"/></clipPath><clipPath id="1afb9781cd"><rect x="0" width="30" y="0" height="28"/></clipPath><clipPath id="49c1baa67c"><path d="M 6 22 L 146 22 L 146 29.03125 L 6 29.03125 Z M 6 22 " clip-rule="nonzero"/></clipPath><clipPath id="4ced16f198"><rect x="0" width="140" y="0" height="8"/></clipPath></defs><g clip-path="url(#1e92898de0)"><g transform="matrix(1, 0, 0, 1, 3, 0.000000000000005692)"><g clip-path="url(#f8027e818a)"><g fill="#000000" fill-opacity="0.0784"><g transform="translate(1.726143, 19.984442)"><g><path d="M 7.28125 0.3125 C 6.09375 0.3125 5.03125 0.0351562 4.09375 -0.515625 C 3.15625 -1.078125 2.410156 -1.90625 1.859375 -3 C 1.304688 -4.09375 1.03125 -5.457031 1.03125 -7.09375 C 1.03125 -8.300781 1.1875 -9.375 1.5 -10.3125 C 1.820312 -11.257812 2.285156 -12.066406 2.890625 -12.734375 C 3.492188 -13.398438 4.238281 -13.910156 5.125 -14.265625 C 6.019531 -14.628906 7.050781 -14.8125 8.21875 -14.8125 C 9.113281 -14.8125 9.921875 -14.707031 10.640625 -14.5 C 11.359375 -14.289062 11.976562 -13.988281 12.5 -13.59375 C 13.019531 -13.207031 13.425781 -12.742188 13.71875 -12.203125 C 14.007812 -11.660156 14.164062 -11.046875 14.1875 -10.359375 L 11.1875 -9.5 C 11.175781 -9.945312 11.082031 -10.34375 10.90625 -10.6875 C 10.738281 -11.039062 10.515625 -11.328125 10.234375 -11.546875 C 9.960938 -11.773438 9.644531 -11.941406 9.28125 -12.046875 C 8.914062 -12.160156 8.519531 -12.21875 8.09375 -12.21875 C 7.59375 -12.21875 7.117188 -12.132812 6.671875 -11.96875 C 6.222656 -11.800781 5.828125 -11.53125 5.484375 -11.15625 C 5.140625 -10.78125 4.863281 -10.269531 4.65625 -9.625 C 4.457031 -8.976562 4.359375 -8.179688 4.359375 -7.234375 C 4.359375 -6.273438 4.457031 -5.472656 4.65625 -4.828125 C 4.863281 -4.191406 5.144531 -3.6875 5.5 -3.3125 C 5.863281 -2.9375 6.273438 -2.664062 6.734375 -2.5 C 7.203125 -2.332031 7.691406 -2.25 8.203125 -2.25 C 8.847656 -2.25 9.40625 -2.359375 9.875 -2.578125 C 10.34375 -2.796875 10.710938 -3.125 10.984375 -3.5625 C 11.265625 -4 11.421875 -4.554688 11.453125 -5.234375 L 8.75 -5.234375 L 8.75 -7.515625 L 14.578125 -7.515625 L 14.578125 0 L 12.359375 0 L 12.421875 -3.734375 L 12.03125 -3.734375 C 11.8125 -2.859375 11.503906 -2.117188 11.109375 -1.515625 C 10.710938 -0.910156 10.203125 -0.453125 9.578125 -0.140625 C 8.953125 0.160156 8.1875 0.3125 7.28125 0.3125 Z M 7.28125 0.3125 "/></g></g></g><g fill="#000000" fill-opacity="0.0784"><g transform="translate(17.440167, 19.984442)"><g><path d="M 7.9375 0.3125 C 7.0625 0.3125 6.273438 0.21875 5.578125 0.03125 C 4.878906 -0.144531 4.269531 -0.40625 3.75 -0.75 C 3.238281 -1.101562 2.816406 -1.523438 2.484375 -2.015625 C 2.148438 -2.503906 1.894531 -3.054688 1.71875 -3.671875 C 1.550781 -4.285156 1.46875 -4.957031 1.46875 -5.6875 L 1.46875 -14.515625 L 4.640625 -14.515625 L 4.640625 -5.796875 C 4.640625 -5.035156 4.765625 -4.410156 5.015625 -3.921875 C 5.265625 -3.429688 5.628906 -3.070312 6.109375 -2.84375 C 6.597656 -2.613281 7.203125 -2.5 7.921875 -2.5 C 8.648438 -2.5 9.253906 -2.613281 9.734375 -2.84375 C 10.222656 -3.082031 10.585938 -3.441406 10.828125 -3.921875 C 11.066406 -4.410156 11.1875 -5.035156 11.1875 -5.796875 L 11.1875 -14.515625 L 14.359375 -14.515625 L 14.359375 -5.6875 C 14.359375 -4.726562 14.222656 -3.875 13.953125 -3.125 C 13.679688 -2.382812 13.273438 -1.757812 12.734375 -1.25 C 12.203125 -0.738281 11.53125 -0.347656 10.71875 -0.078125 C 9.914062 0.179688 8.988281 0.3125 7.9375 0.3125 Z M 7.9375 0.3125 "/></g></g></g><g fill="#000000" fill-opacity="0.0784"><g transform="translate(33.26408, 19.984442)"><g><path d="M 1.5625 0 L 1.5625 -14.515625 L 4.734375 -14.515625 L 4.734375 0 Z M 2.203125 0 L 2.203125 -2.6875 L 10.8125 -2.6875 L 10.8125 0 Z M 2.203125 0 "/></g></g></g><g fill="#000000" fill-opacity="0.0784"><g transform="translate(44.340817, 19.984442)"><g><path d="M 1.5625 0 L 1.5625 -14.515625 L 4.734375 -14.515625 L 4.734375 0 Z M 3.0625 -5.4375 L 3.0625 -8.03125 L 11.453125 -8.03125 L 11.453125 -5.4375 Z M 3.0625 -11.8125 L 3.0625 -14.515625 L 12.265625 -14.515625 L 12.265625 -11.8125 Z M 3.0625 -11.8125 "/></g></g></g><g fill="#000000" fill-opacity="0.0784"><g transform="translate(57.227725, 19.984442)"><g/></g></g><g fill="#000000" fill-opacity="0.0784"><g transform="translate(62.238634, 19.984442)"><g/></g></g><g fill="#000000" fill-opacity="0.0784"><g transform="translate(67.249543, 19.984442)"><g/></g></g><g fill="#000000" fill-opacity="0.0784"><g transform="translate(72.267663, 19.984442)"><g><path d="M 8.203125 0.3125 C 7.066406 0.3125 6.054688 0.148438 5.171875 -0.171875 C 4.285156 -0.492188 3.535156 -0.96875 2.921875 -1.59375 C 2.304688 -2.226562 1.835938 -3.003906 1.515625 -3.921875 C 1.191406 -4.847656 1.03125 -5.90625 1.03125 -7.09375 C 1.03125 -8.332031 1.191406 -9.421875 1.515625 -10.359375 C 1.847656 -11.304688 2.320312 -12.113281 2.9375 -12.78125 C 3.5625 -13.445312 4.296875 -13.953125 5.140625 -14.296875 C 5.992188 -14.640625 6.945312 -14.8125 8 -14.8125 C 8.820312 -14.8125 9.578125 -14.703125 10.265625 -14.484375 C 10.953125 -14.265625 11.546875 -13.953125 12.046875 -13.546875 C 12.546875 -13.148438 12.929688 -12.660156 13.203125 -12.078125 C 13.484375 -11.503906 13.625 -10.859375 13.625 -10.140625 L 10.703125 -9.390625 C 10.703125 -10.015625 10.570312 -10.535156 10.3125 -10.953125 C 10.050781 -11.367188 9.707031 -11.679688 9.28125 -11.890625 C 8.851562 -12.109375 8.390625 -12.21875 7.890625 -12.21875 C 7.453125 -12.21875 7.023438 -12.128906 6.609375 -11.953125 C 6.191406 -11.785156 5.8125 -11.503906 5.46875 -11.109375 C 5.125 -10.722656 4.851562 -10.21875 4.65625 -9.59375 C 4.457031 -8.96875 4.359375 -8.203125 4.359375 -7.296875 C 4.359375 -6.128906 4.523438 -5.171875 4.859375 -4.421875 C 5.191406 -3.679688 5.65625 -3.140625 6.25 -2.796875 C 6.84375 -2.453125 7.515625 -2.28125 8.265625 -2.28125 C 9.054688 -2.28125 9.675781 -2.445312 10.125 -2.78125 C 10.570312 -3.113281 10.894531 -3.539062 11.09375 -4.0625 C 11.289062 -4.59375 11.394531 -5.148438 11.40625 -5.734375 L 14.203125 -5.296875 C 14.191406 -4.523438 14.078125 -3.796875 13.859375 -3.109375 C 13.648438 -2.429688 13.304688 -1.832031 12.828125 -1.3125 C 12.347656 -0.800781 11.726562 -0.398438 10.96875 -0.109375 C 10.207031 0.171875 9.285156 0.3125 8.203125 0.3125 Z M 8.203125 0.3125 "/></g></g></g><g fill="#000000" fill-opacity="0.0784"><g transform="translate(87.146547, 19.984442)"><g><path d="M 7.84375 0.3125 C 6.789062 0.3125 5.847656 0.144531 5.015625 -0.1875 C 4.179688 -0.519531 3.46875 -1.003906 2.875 -1.640625 C 2.28125 -2.273438 1.820312 -3.054688 1.5 -3.984375 C 1.1875 -4.921875 1.03125 -5.988281 1.03125 -7.1875 C 1.03125 -8.90625 1.332031 -10.320312 1.9375 -11.4375 C 2.539062 -12.5625 3.359375 -13.40625 4.390625 -13.96875 C 5.429688 -14.53125 6.613281 -14.8125 7.9375 -14.8125 C 8.957031 -14.8125 9.882812 -14.644531 10.71875 -14.3125 C 11.5625 -13.988281 12.28125 -13.507812 12.875 -12.875 C 13.46875 -12.238281 13.925781 -11.445312 14.25 -10.5 C 14.570312 -9.5625 14.734375 -8.476562 14.734375 -7.25 C 14.734375 -6.007812 14.566406 -4.921875 14.234375 -3.984375 C 13.898438 -3.046875 13.429688 -2.253906 12.828125 -1.609375 C 12.234375 -0.972656 11.515625 -0.492188 10.671875 -0.171875 C 9.828125 0.148438 8.882812 0.3125 7.84375 0.3125 Z M 7.921875 -2.21875 C 8.328125 -2.21875 8.738281 -2.289062 9.15625 -2.4375 C 9.570312 -2.582031 9.957031 -2.832031 10.3125 -3.1875 C 10.675781 -3.539062 10.957031 -4.035156 11.15625 -4.671875 C 11.363281 -5.304688 11.46875 -6.109375 11.46875 -7.078125 C 11.46875 -8.253906 11.316406 -9.21875 11.015625 -9.96875 C 10.722656 -10.726562 10.300781 -11.289062 9.75 -11.65625 C 9.195312 -12.019531 8.570312 -12.203125 7.875 -12.203125 C 7.488281 -12.203125 7.085938 -12.128906 6.671875 -11.984375 C 6.253906 -11.847656 5.863281 -11.597656 5.5 -11.234375 C 5.132812 -10.878906 4.835938 -10.378906 4.609375 -9.734375 C 4.390625 -9.085938 4.28125 -8.253906 4.28125 -7.234375 C 4.28125 -6.265625 4.382812 -5.460938 4.59375 -4.828125 C 4.800781 -4.191406 5.078125 -3.679688 5.421875 -3.296875 C 5.765625 -2.910156 6.148438 -2.632812 6.578125 -2.46875 C 7.015625 -2.300781 7.460938 -2.21875 7.921875 -2.21875 Z M 7.921875 -2.21875 "/></g></g></g><g fill="#000000" fill-opacity="0.0784"><g transform="translate(102.310904, 19.984442)"><g><path d="M 0.375 0 L 5.3125 -14.515625 L 9.921875 -14.515625 L 14.890625 0 L 11.4375 0 L 7.78125 -12 L 7.46875 -12 L 3.796875 0 Z M 3.140625 -2.84375 L 3.140625 -5.015625 L 12.546875 -5.015625 L 12.546875 -2.84375 Z M 3.140625 -2.84375 "/></g></g></g><g fill="#000000" fill-opacity="0.0784"><g transform="translate(117.299556, 19.984442)"><g><path d="M 7.140625 0.3125 C 6.191406 0.3125 5.335938 0.210938 4.578125 0.015625 C 3.828125 -0.171875 3.179688 -0.453125 2.640625 -0.828125 C 2.109375 -1.203125 1.695312 -1.671875 1.40625 -2.234375 C 1.113281 -2.796875 0.945312 -3.453125 0.90625 -4.203125 L 3.6875 -5.078125 C 3.71875 -4.421875 3.882812 -3.867188 4.1875 -3.421875 C 4.488281 -2.984375 4.910156 -2.65625 5.453125 -2.4375 C 6.003906 -2.226562 6.628906 -2.125 7.328125 -2.125 C 7.960938 -2.125 8.503906 -2.203125 8.953125 -2.359375 C 9.398438 -2.523438 9.738281 -2.742188 9.96875 -3.015625 C 10.207031 -3.285156 10.328125 -3.582031 10.328125 -3.90625 C 10.328125 -4.289062 10.175781 -4.597656 9.875 -4.828125 C 9.582031 -5.066406 9.1875 -5.265625 8.6875 -5.421875 C 8.1875 -5.585938 7.613281 -5.742188 6.96875 -5.890625 C 6.25 -6.066406 5.546875 -6.253906 4.859375 -6.453125 C 4.171875 -6.648438 3.546875 -6.910156 2.984375 -7.234375 C 2.429688 -7.554688 1.988281 -7.972656 1.65625 -8.484375 C 1.332031 -8.992188 1.171875 -9.640625 1.171875 -10.421875 C 1.171875 -11.316406 1.390625 -12.085938 1.828125 -12.734375 C 2.273438 -13.390625 2.925781 -13.898438 3.78125 -14.265625 C 4.644531 -14.628906 5.691406 -14.8125 6.921875 -14.8125 C 8.128906 -14.8125 9.171875 -14.628906 10.046875 -14.265625 C 10.921875 -13.910156 11.597656 -13.398438 12.078125 -12.734375 C 12.566406 -12.066406 12.820312 -11.289062 12.84375 -10.40625 L 10 -9.625 C 10 -10.082031 9.925781 -10.484375 9.78125 -10.828125 C 9.632812 -11.171875 9.425781 -11.457031 9.15625 -11.6875 C 8.894531 -11.914062 8.570312 -12.085938 8.1875 -12.203125 C 7.800781 -12.316406 7.363281 -12.375 6.875 -12.375 C 6.3125 -12.375 5.820312 -12.296875 5.40625 -12.140625 C 5 -11.992188 4.6875 -11.796875 4.46875 -11.546875 C 4.257812 -11.304688 4.15625 -11.019531 4.15625 -10.6875 C 4.15625 -10.289062 4.316406 -9.96875 4.640625 -9.71875 C 4.960938 -9.46875 5.394531 -9.257812 5.9375 -9.09375 C 6.488281 -8.925781 7.085938 -8.769531 7.734375 -8.625 C 8.367188 -8.488281 9.007812 -8.320312 9.65625 -8.125 C 10.3125 -7.925781 10.921875 -7.664062 11.484375 -7.34375 C 12.046875 -7.03125 12.5 -6.609375 12.84375 -6.078125 C 13.1875 -5.546875 13.359375 -4.867188 13.359375 -4.046875 C 13.359375 -3.160156 13.125 -2.390625 12.65625 -1.734375 C 12.1875 -1.085938 11.488281 -0.582031 10.5625 -0.21875 C 9.644531 0.132812 8.503906 0.3125 7.140625 0.3125 Z M 7.140625 0.3125 "/></g></g></g><g fill="#000000" fill-opacity="0.0784"><g transform="translate(131.365198, 19.984442)"><g><path d="M 4.609375 0 L 4.609375 -14.515625 L 7.796875 -14.515625 L 7.796875 0 Z M 0.390625 -11.84375 L 0.390625 -14.515625 L 12.046875 -14.515625 L 12.046875 -11.84375 Z M 0.390625 -11.84375 "/></g></g></g><g fill="#000000" fill-opacity="1"><g transform="translate(0.870965, 19.129264)"><g><path d="M 7.28125 0.3125 C 6.09375 0.3125 5.03125 0.0351562 4.09375 -0.515625 C 3.15625 -1.078125 2.410156 -1.90625 1.859375 -3 C 1.304688 -4.09375 1.03125 -5.457031 1.03125 -7.09375 C 1.03125 -8.300781 1.1875 -9.375 1.5 -10.3125 C 1.820312 -11.257812 2.285156 -12.066406 2.890625 -12.734375 C 3.492188 -13.398438 4.238281 -13.910156 5.125 -14.265625 C 6.019531 -14.628906 7.050781 -14.8125 8.21875 -14.8125 C 9.113281 -14.8125 9.921875 -14.707031 10.640625 -14.5 C 11.359375 -14.289062 11.976562 -13.988281 12.5 -13.59375 C 13.019531 -13.207031 13.425781 -12.742188 13.71875 -12.203125 C 14.007812 -11.660156 14.164062 -11.046875 14.1875 -10.359375 L 11.1875 -9.5 C 11.175781 -9.945312 11.082031 -10.34375 10.90625 -10.6875 C 10.738281 -11.039062 10.515625 -11.328125 10.234375 -11.546875 C 9.960938 -11.773438 9.644531 -11.941406 9.28125 -12.046875 C 8.914062 -12.160156 8.519531 -12.21875 8.09375 -12.21875 C 7.59375 -12.21875 7.117188 -12.132812 6.671875 -11.96875 C 6.222656 -11.800781 5.828125 -11.53125 5.484375 -11.15625 C 5.140625 -10.78125 4.863281 -10.269531 4.65625 -9.625 C 4.457031 -8.976562 4.359375 -8.179688 4.359375 -7.234375 C 4.359375 -6.273438 4.457031 -5.472656 4.65625 -4.828125 C 4.863281 -4.191406 5.144531 -3.6875 5.5 -3.3125 C 5.863281 -2.9375 6.273438 -2.664062 6.734375 -2.5 C 7.203125 -2.332031 7.691406 -2.25 8.203125 -2.25 C 8.847656 -2.25 9.40625 -2.359375 9.875 -2.578125 C 10.34375 -2.796875 10.710938 -3.125 10.984375 -3.5625 C 11.265625 -4 11.421875 -4.554688 11.453125 -5.234375 L 8.75 -5.234375 L 8.75 -7.515625 L 14.578125 -7.515625 L 14.578125 0 L 12.359375 0 L 12.421875 -3.734375 L 12.03125 -3.734375 C 11.8125 -2.859375 11.503906 -2.117188 11.109375 -1.515625 C 10.710938 -0.910156 10.203125 -0.453125 9.578125 -0.140625 C 8.953125 0.160156 8.1875 0.3125 7.28125 0.3125 Z M 7.28125 0.3125 "/></g></g></g><g fill="#000000" fill-opacity="1"><g transform="translate(16.584989, 19.129264)"><g><path d="M 7.9375 0.3125 C 7.0625 0.3125 6.273438 0.21875 5.578125 0.03125 C 4.878906 -0.144531 4.269531 -0.40625 3.75 -0.75 C 3.238281 -1.101562 2.816406 -1.523438 2.484375 -2.015625 C 2.148438 -2.503906 1.894531 -3.054688 1.71875 -3.671875 C 1.550781 -4.285156 1.46875 -4.957031 1.46875 -5.6875 L 1.46875 -14.515625 L 4.640625 -14.515625 L 4.640625 -5.796875 C 4.640625 -5.035156 4.765625 -4.410156 5.015625 -3.921875 C 5.265625 -3.429688 5.628906 -3.070312 6.109375 -2.84375 C 6.597656 -2.613281 7.203125 -2.5 7.921875 -2.5 C 8.648438 -2.5 9.253906 -2.613281 9.734375 -2.84375 C 10.222656 -3.082031 10.585938 -3.441406 10.828125 -3.921875 C 11.066406 -4.410156 11.1875 -5.035156 11.1875 -5.796875 L 11.1875 -14.515625 L 14.359375 -14.515625 L 14.359375 -5.6875 C 14.359375 -4.726562 14.222656 -3.875 13.953125 -3.125 C 13.679688 -2.382812 13.273438 -1.757812 12.734375 -1.25 C 12.203125 -0.738281 11.53125 -0.347656 10.71875 -0.078125 C 9.914062 0.179688 8.988281 0.3125 7.9375 0.3125 Z M 7.9375 0.3125 "/></g></g></g><g fill="#000000" fill-opacity="1"><g transform="translate(32.408902, 19.129264)"><g><path d="M 1.5625 0 L 1.5625 -14.515625 L 4.734375 -14.515625 L 4.734375 0 Z M 2.203125 0 L 2.203125 -2.6875 L 10.8125 -2.6875 L 10.8125 0 Z M 2.203125 0 "/></g></g></g><g fill="#000000" fill-opacity="1"><g transform="translate(43.485638, 19.129264)"><g><path d="M 1.5625 0 L 1.5625 -14.515625 L 4.734375 -14.515625 L 4.734375 0 Z M 3.0625 -5.4375 L 3.0625 -8.03125 L 11.453125 -8.03125 L 11.453125 -5.4375 Z M 3.0625 -11.8125 L 3.0625 -14.515625 L 12.265625 -14.515625 L 12.265625 -11.8125 Z M 3.0625 -11.8125 "/></g></g></g><g fill="#000000" fill-opacity="1"><g transform="translate(56.372547, 19.129264)"><g/></g></g><g fill="#000000" fill-opacity="1"><g transform="translate(61.383456, 19.129264)"><g/></g></g><g fill="#000000" fill-opacity="1"><g transform="translate(66.394365, 19.129264)"><g/></g></g><g fill="#000000" fill-opacity="1"><g transform="translate(71.412485, 19.129264)"><g><path d="M 8.203125 0.3125 C 7.066406 0.3125 6.054688 0.148438 5.171875 -0.171875 C 4.285156 -0.492188 3.535156 -0.96875 2.921875 -1.59375 C 2.304688 -2.226562 1.835938 -3.003906 1.515625 -3.921875 C 1.191406 -4.847656 1.03125 -5.90625 1.03125 -7.09375 C 1.03125 -8.332031 1.191406 -9.421875 1.515625 -10.359375 C 1.847656 -11.304688 2.320312 -12.113281 2.9375 -12.78125 C 3.5625 -13.445312 4.296875 -13.953125 5.140625 -14.296875 C 5.992188 -14.640625 6.945312 -14.8125 8 -14.8125 C 8.820312 -14.8125 9.578125 -14.703125 10.265625 -14.484375 C 10.953125 -14.265625 11.546875 -13.953125 12.046875 -13.546875 C 12.546875 -13.148438 12.929688 -12.660156 13.203125 -12.078125 C 13.484375 -11.503906 13.625 -10.859375 13.625 -10.140625 L 10.703125 -9.390625 C 10.703125 -10.015625 10.570312 -10.535156 10.3125 -10.953125 C 10.050781 -11.367188 9.707031 -11.679688 9.28125 -11.890625 C 8.851562 -12.109375 8.390625 -12.21875 7.890625 -12.21875 C 7.453125 -12.21875 7.023438 -12.128906 6.609375 -11.953125 C 6.191406 -11.785156 5.8125 -11.503906 5.46875 -11.109375 C 5.125 -10.722656 4.851562 -10.21875 4.65625 -9.59375 C 4.457031 -8.96875 4.359375 -8.203125 4.359375 -7.296875 C 4.359375 -6.128906 4.523438 -5.171875 4.859375 -4.421875 C 5.191406 -3.679688 5.65625 -3.140625 6.25 -2.796875 C 6.84375 -2.453125 7.515625 -2.28125 8.265625 -2.28125 C 9.054688 -2.28125 9.675781 -2.445312 10.125 -2.78125 C 10.570312 -3.113281 10.894531 -3.539062 11.09375 -4.0625 C 11.289062 -4.59375 11.394531 -5.148438 11.40625 -5.734375 L 14.203125 -5.296875 C 14.191406 -4.523438 14.078125 -3.796875 13.859375 -3.109375 C 13.648438 -2.429688 13.304688 -1.832031 12.828125 -1.3125 C 12.347656 -0.800781 11.726562 -0.398438 10.96875 -0.109375 C 10.207031 0.171875 9.285156 0.3125 8.203125 0.3125 Z M 8.203125 0.3125 "/></g></g></g><g fill="#000000" fill-opacity="1"><g transform="translate(86.291368, 19.129264)"><g><path d="M 7.84375 0.3125 C 6.789062 0.3125 5.847656 0.144531 5.015625 -0.1875 C 4.179688 -0.519531 3.46875 -1.003906 2.875 -1.640625 C 2.28125 -2.273438 1.820312 -3.054688 1.5 -3.984375 C 1.1875 -4.921875 1.03125 -5.988281 1.03125 -7.1875 C 1.03125 -8.90625 1.332031 -10.320312 1.9375 -11.4375 C 2.539062 -12.5625 3.359375 -13.40625 4.390625 -13.96875 C 5.429688 -14.53125 6.613281 -14.8125 7.9375 -14.8125 C 8.957031 -14.8125 9.882812 -14.644531 10.71875 -14.3125 C 11.5625 -13.988281 12.28125 -13.507812 12.875 -12.875 C 13.46875 -12.238281 13.925781 -11.445312 14.25 -10.5 C 14.570312 -9.5625 14.734375 -8.476562 14.734375 -7.25 C 14.734375 -6.007812 14.566406 -4.921875 14.234375 -3.984375 C 13.898438 -3.046875 13.429688 -2.253906 12.828125 -1.609375 C 12.234375 -0.972656 11.515625 -0.492188 10.671875 -0.171875 C 9.828125 0.148438 8.882812 0.3125 7.84375 0.3125 Z M 7.921875 -2.21875 C 8.328125 -2.21875 8.738281 -2.289062 9.15625 -2.4375 C 9.570312 -2.582031 9.957031 -2.832031 10.3125 -3.1875 C 10.675781 -3.539062 10.957031 -4.035156 11.15625 -4.671875 C 11.363281 -5.304688 11.46875 -6.109375 11.46875 -7.078125 C 11.46875 -8.253906 11.316406 -9.21875 11.015625 -9.96875 C 10.722656 -10.726562 10.300781 -11.289062 9.75 -11.65625 C 9.195312 -12.019531 8.570312 -12.203125 7.875 -12.203125 C 7.488281 -12.203125 7.085938 -12.128906 6.671875 -11.984375 C 6.253906 -11.847656 5.863281 -11.597656 5.5 -11.234375 C 5.132812 -10.878906 4.835938 -10.378906 4.609375 -9.734375 C 4.390625 -9.085938 4.28125 -8.253906 4.28125 -7.234375 C 4.28125 -6.265625 4.382812 -5.460938 4.59375 -4.828125 C 4.800781 -4.191406 5.078125 -3.679688 5.421875 -3.296875 C 5.765625 -2.910156 6.148438 -2.632812 6.578125 -2.46875 C 7.015625 -2.300781 7.460938 -2.21875 7.921875 -2.21875 Z M 7.921875 -2.21875 "/></g></g></g><g fill="#000000" fill-opacity="1"><g transform="translate(101.455726, 19.129264)"><g><path d="M 0.375 0 L 5.3125 -14.515625 L 9.921875 -14.515625 L 14.890625 0 L 11.4375 0 L 7.78125 -12 L 7.46875 -12 L 3.796875 0 Z M 3.140625 -2.84375 L 3.140625 -5.015625 L 12.546875 -5.015625 L 12.546875 -2.84375 Z M 3.140625 -2.84375 "/></g></g></g><g fill="#000000" fill-opacity="1"><g transform="translate(116.444378, 19.129264)"><g><path d="M 7.140625 0.3125 C 6.191406 0.3125 5.335938 0.210938 4.578125 0.015625 C 3.828125 -0.171875 3.179688 -0.453125 2.640625 -0.828125 C 2.109375 -1.203125 1.695312 -1.671875 1.40625 -2.234375 C 1.113281 -2.796875 0.945312 -3.453125 0.90625 -4.203125 L 3.6875 -5.078125 C 3.71875 -4.421875 3.882812 -3.867188 4.1875 -3.421875 C 4.488281 -2.984375 4.910156 -2.65625 5.453125 -2.4375 C 6.003906 -2.226562 6.628906 -2.125 7.328125 -2.125 C 7.960938 -2.125 8.503906 -2.203125 8.953125 -2.359375 C 9.398438 -2.523438 9.738281 -2.742188 9.96875 -3.015625 C 10.207031 -3.285156 10.328125 -3.582031 10.328125 -3.90625 C 10.328125 -4.289062 10.175781 -4.597656 9.875 -4.828125 C 9.582031 -5.066406 9.1875 -5.265625 8.6875 -5.421875 C 8.1875 -5.585938 7.613281 -5.742188 6.96875 -5.890625 C 6.25 -6.066406 5.546875 -6.253906 4.859375 -6.453125 C 4.171875 -6.648438 3.546875 -6.910156 2.984375 -7.234375 C 2.429688 -7.554688 1.988281 -7.972656 1.65625 -8.484375 C 1.332031 -8.992188 1.171875 -9.640625 1.171875 -10.421875 C 1.171875 -11.316406 1.390625 -12.085938 1.828125 -12.734375 C 2.273438 -13.390625 2.925781 -13.898438 3.78125 -14.265625 C 4.644531 -14.628906 5.691406 -14.8125 6.921875 -14.8125 C 8.128906 -14.8125 9.171875 -14.628906 10.046875 -14.265625 C 10.921875 -13.910156 11.597656 -13.398438 12.078125 -12.734375 C 12.566406 -12.066406 12.820312 -11.289062 12.84375 -10.40625 L 10 -9.625 C 10 -10.082031 9.925781 -10.484375 9.78125 -10.828125 C 9.632812 -11.171875 9.425781 -11.457031 9.15625 -11.6875 C 8.894531 -11.914062 8.570312 -12.085938 8.1875 -12.203125 C 7.800781 -12.316406 7.363281 -12.375 6.875 -12.375 C 6.3125 -12.375 5.820312 -12.296875 5.40625 -12.140625 C 5 -11.992188 4.6875 -11.796875 4.46875 -11.546875 C 4.257812 -11.304688 4.15625 -11.019531 4.15625 -10.6875 C 4.15625 -10.289062 4.316406 -9.96875 4.640625 -9.71875 C 4.960938 -9.46875 5.394531 -9.257812 5.9375 -9.09375 C 6.488281 -8.925781 7.085938 -8.769531 7.734375 -8.625 C 8.367188 -8.488281 9.007812 -8.320312 9.65625 -8.125 C 10.3125 -7.925781 10.921875 -7.664062 11.484375 -7.34375 C 12.046875 -7.03125 12.5 -6.609375 12.84375 -6.078125 C 13.1875 -5.546875 13.359375 -4.867188 13.359375 -4.046875 C 13.359375 -3.160156 13.125 -2.390625 12.65625 -1.734375 C 12.1875 -1.085938 11.488281 -0.582031 10.5625 -0.21875 C 9.644531 0.132812 8.503906 0.3125 7.140625 0.3125 Z M 7.140625 0.3125 "/></g></g></g><g fill="#000000" fill-opacity="1"><g transform="translate(130.51002, 19.129264)"><g><path d="M 4.609375 0 L 4.609375 -14.515625 L 7.796875 -14.515625 L 7.796875 0 Z M 0.390625 -11.84375 L 0.390625 -14.515625 L 12.046875 -14.515625 L 12.046875 -11.84375 Z M 0.390625 -11.84375 "/></g></g></g></g></g></g><g clip-path="url(#c9513febd6)"><g clip-path="url(#cf9a5144fa)"><g transform="matrix(1, 0, 0, 1, 51, 0.000000000000005692)"><g clip-path="url(#1afb9781cd)"><g clip-path="url(#bdb8e2978d)"><g clip-path="url(#8d4332b087)"><g clip-path="url(#5b7b8eebba)"><path fill="#a7dc6a" d="M 1.136719 22.097656 C 1.722656 22.246094 2.609375 22.039062 3.203125 21.96875 C 3.832031 21.886719 4.457031 21.769531 5.074219 21.617188 C 6.359375 21.296875 7.59375 20.835938 8.773438 20.230469 C 11.140625 19.011719 13.230469 17.234375 14.722656 15.023438 C 16.101562 12.972656 16.960938 10.625 18.117188 8.441406 C 19.273438 6.257812 20.832031 4.148438 23.078125 3.121094 C 22.679688 3.300781 22.171875 3.980469 21.871094 4.308594 C 21.519531 4.691406 21.222656 5.128906 20.949219 5.566406 C 20.359375 6.519531 19.914062 7.554688 19.523438 8.601562 C 18.734375 10.722656 18.167969 12.945312 17.0625 14.933594 C 16.070312 16.714844 14.714844 18.296875 13.089844 19.53125 C 10.238281 21.695312 6.542969 22.816406 2.976562 22.429688 C 2.355469 22.363281 1.742188 22.25 1.136719 22.097656 Z M 1.136719 22.097656 " fill-opacity="1" fill-rule="nonzero"/></g></g></g><g clip-path="url(#58ad0cecbb)"><g clip-path="url(#c8d0c79693)"><g clip-path="url(#d67f76fb27)"><path fill="#8bd13a" d="M 0.878906 21.839844 C 1.261719 21.832031 1.769531 21.550781 2.128906 21.421875 C 2.527344 21.28125 2.917969 21.125 3.3125 20.976562 C 4.125 20.667969 4.921875 20.320312 5.703125 19.933594 C 7.273438 19.164062 8.753906 18.253906 10.15625 17.210938 C 12.601562 15.390625 14.707031 13.179688 16.480469 10.703125 C 16.214844 11.457031 15.890625 12.1875 15.515625 12.898438 C 14.0625 15.640625 11.804688 17.929688 9.128906 19.496094 C 6.625 20.964844 3.777344 21.761719 0.878906 21.839844 Z M 0.878906 21.839844 " fill-opacity="1" fill-rule="nonzero"/></g></g></g><g clip-path="url(#d6c3b8370f)"><g clip-path="url(#2d294d743b)"><g clip-path="url(#77ed9356b4)"><path fill="#8bd13a" d="M 16.261719 16.707031 C 16.6875 16.433594 17.097656 15.570312 17.339844 15.132812 C 17.648438 14.566406 17.914062 13.964844 18.160156 13.371094 C 18.6875 12.109375 19.101562 10.804688 19.570312 9.523438 C 20.234375 7.699219 21.023438 5.878906 22.289062 4.402344 C 23.097656 3.460938 24.121094 2.671875 25.277344 2.207031 C 25.714844 2.03125 26.167969 1.917969 26.636719 1.859375 C 27.085938 1.808594 27.609375 1.773438 28.054688 1.882812 C 25.871094 2.605469 24.277344 3.71875 23.019531 5.710938 C 21.84375 7.578125 21.144531 9.699219 20.214844 11.699219 C 19.304688 13.65625 18.109375 15.523438 16.261719 16.707031 Z M 16.261719 16.707031 " fill-opacity="1" fill-rule="nonzero"/></g></g></g></g></g></g></g><g clip-path="url(#49c1baa67c)"><g transform="matrix(1, 0, 0, 1, 6, 22)"><g clip-path="url(#4ced16f198)"><g fill="#000000" fill-opacity="0.0784"><g transform="translate(1.608878, 5.861548)"><g><path d="M 4.859375 -3.703125 L 3.765625 0 L 3.171875 0 L 2.484375 -2.421875 L 1.78125 0 L 1.1875 0 L 0.09375 -3.703125 L 0.828125 -3.703125 L 1.515625 -1.265625 L 2.203125 -3.703125 L 2.75 -3.703125 L 3.453125 -1.265625 L 4.140625 -3.703125 Z M 4.859375 -3.703125 "/></g></g></g><g fill="#000000" fill-opacity="0.0784"><g transform="translate(9.053718, 5.861548)"><g><path d="M 0.421875 0 L 0.421875 -3.703125 L 2.953125 -3.703125 L 2.953125 -3.078125 L 1.171875 -3.078125 L 1.171875 -2.171875 L 2.71875 -2.171875 L 2.71875 -1.5625 L 1.15625 -1.5625 L 1.15625 -0.640625 L 2.984375 -0.640625 L 2.984375 0 Z M 0.421875 0 "/></g></g></g><g fill="#000000" fill-opacity="0.0784"><g transform="translate(14.818786, 5.861548)"><g><path d="M 0.421875 0 L 0.421875 -3.703125 L 1.765625 -3.703125 C 2.242188 -3.703125 2.597656 -3.617188 2.828125 -3.453125 C 3.066406 -3.285156 3.1875 -3.046875 3.1875 -2.734375 C 3.1875 -2.546875 3.140625 -2.382812 3.046875 -2.25 C 2.953125 -2.113281 2.785156 -2 2.546875 -1.90625 C 2.703125 -1.863281 2.828125 -1.804688 2.921875 -1.734375 C 3.015625 -1.671875 3.085938 -1.597656 3.140625 -1.515625 C 3.191406 -1.429688 3.226562 -1.34375 3.25 -1.25 C 3.269531 -1.164062 3.28125 -1.082031 3.28125 -1 C 3.28125 -0.65625 3.160156 -0.398438 2.921875 -0.234375 C 2.691406 -0.078125 2.320312 0 1.8125 0 Z M 1.15625 -0.578125 L 1.828125 -0.578125 C 2.054688 -0.578125 2.226562 -0.617188 2.34375 -0.703125 C 2.457031 -0.796875 2.515625 -0.921875 2.515625 -1.078125 C 2.515625 -1.191406 2.484375 -1.285156 2.421875 -1.359375 C 2.367188 -1.429688 2.296875 -1.484375 2.203125 -1.515625 C 2.109375 -1.554688 2 -1.578125 1.875 -1.578125 L 1.15625 -1.578125 Z M 1.15625 -2.171875 L 1.875 -2.171875 C 1.945312 -2.171875 2.019531 -2.179688 2.09375 -2.203125 C 2.164062 -2.222656 2.226562 -2.25 2.28125 -2.28125 C 2.34375 -2.320312 2.390625 -2.367188 2.421875 -2.421875 C 2.453125 -2.484375 2.46875 -2.554688 2.46875 -2.640625 C 2.46875 -2.796875 2.40625 -2.914062 2.28125 -3 C 2.164062 -3.082031 2.015625 -3.125 1.828125 -3.125 L 1.15625 -3.125 Z M 1.15625 -2.171875 "/></g></g></g><g fill="#000000" fill-opacity="0.0784"><g transform="translate(20.806963, 5.861548)"><g/></g></g><g fill="#000000" fill-opacity="0.0784"><g transform="translate(24.371653, 5.861548)"><g><path d="M 0.421875 -3.703125 C 0.429688 -3.703125 0.476562 -3.703125 0.5625 -3.703125 C 0.65625 -3.703125 0.757812 -3.703125 0.875 -3.703125 C 0.988281 -3.703125 1.101562 -3.703125 1.21875 -3.703125 C 1.34375 -3.703125 1.441406 -3.703125 1.515625 -3.703125 C 1.972656 -3.691406 2.34375 -3.609375 2.625 -3.453125 C 2.90625 -3.304688 3.109375 -3.097656 3.234375 -2.828125 C 3.367188 -2.554688 3.4375 -2.238281 3.4375 -1.875 C 3.4375 -1.488281 3.367188 -1.15625 3.234375 -0.875 C 3.097656 -0.59375 2.882812 -0.375 2.59375 -0.21875 C 2.300781 -0.0703125 1.9375 0 1.5 0 L 0.421875 0 Z M 1.171875 -3.09375 L 1.171875 -0.609375 L 1.515625 -0.609375 C 1.722656 -0.609375 1.910156 -0.644531 2.078125 -0.71875 C 2.253906 -0.800781 2.394531 -0.9375 2.5 -1.125 C 2.601562 -1.3125 2.65625 -1.5625 2.65625 -1.875 C 2.65625 -2.164062 2.609375 -2.398438 2.515625 -2.578125 C 2.429688 -2.753906 2.300781 -2.882812 2.125 -2.96875 C 1.957031 -3.050781 1.753906 -3.09375 1.515625 -3.09375 Z M 1.171875 -3.09375 "/></g></g></g><g fill="#000000" fill-opacity="0.0784"><g transform="translate(30.541915, 5.861548)"><g><path d="M 0.421875 0 L 0.421875 -3.703125 L 2.953125 -3.703125 L 2.953125 -3.078125 L 1.171875 -3.078125 L 1.171875 -2.171875 L 2.71875 -2.171875 L 2.71875 -1.5625 L 1.15625 -1.5625 L 1.15625 -0.640625 L 2.984375 -0.640625 L 2.984375 0 Z M 0.421875 0 "/></g></g></g><g fill="#000000" fill-opacity="0.0784"><g transform="translate(36.309546, 5.861548)"><g><path d="M 1.8125 0.046875 C 1.625 0.046875 1.441406 0.0234375 1.265625 -0.015625 C 1.085938 -0.0664062 0.925781 -0.132812 0.78125 -0.21875 C 0.632812 -0.3125 0.515625 -0.425781 0.421875 -0.5625 C 0.328125 -0.707031 0.269531 -0.875 0.25 -1.0625 L 1.015625 -1.0625 C 1.046875 -0.945312 1.097656 -0.847656 1.171875 -0.765625 C 1.242188 -0.691406 1.332031 -0.632812 1.4375 -0.59375 C 1.550781 -0.550781 1.671875 -0.53125 1.796875 -0.53125 C 1.941406 -0.53125 2.066406 -0.546875 2.171875 -0.578125 C 2.285156 -0.617188 2.375 -0.671875 2.4375 -0.734375 C 2.507812 -0.804688 2.546875 -0.894531 2.546875 -1 C 2.546875 -1.09375 2.519531 -1.171875 2.46875 -1.234375 C 2.414062 -1.296875 2.34375 -1.34375 2.25 -1.375 C 2.15625 -1.414062 2.046875 -1.445312 1.921875 -1.46875 L 1.28125 -1.609375 C 1 -1.660156 0.773438 -1.769531 0.609375 -1.9375 C 0.453125 -2.101562 0.367188 -2.328125 0.359375 -2.609375 C 0.359375 -2.847656 0.421875 -3.050781 0.546875 -3.21875 C 0.671875 -3.382812 0.84375 -3.515625 1.0625 -3.609375 C 1.28125 -3.703125 1.519531 -3.75 1.78125 -3.75 C 2.101562 -3.75 2.375 -3.695312 2.59375 -3.59375 C 2.8125 -3.5 2.976562 -3.363281 3.09375 -3.1875 C 3.207031 -3.019531 3.265625 -2.832031 3.265625 -2.625 L 2.515625 -2.625 C 2.503906 -2.757812 2.460938 -2.863281 2.390625 -2.9375 C 2.328125 -3.007812 2.242188 -3.0625 2.140625 -3.09375 C 2.046875 -3.132812 1.929688 -3.15625 1.796875 -3.15625 C 1.703125 -3.15625 1.613281 -3.144531 1.53125 -3.125 C 1.445312 -3.101562 1.375 -3.070312 1.3125 -3.03125 C 1.257812 -2.988281 1.21875 -2.941406 1.1875 -2.890625 C 1.15625 -2.835938 1.140625 -2.773438 1.140625 -2.703125 C 1.140625 -2.597656 1.175781 -2.507812 1.25 -2.4375 C 1.320312 -2.375 1.457031 -2.320312 1.65625 -2.28125 L 2.296875 -2.140625 C 2.523438 -2.097656 2.703125 -2.03125 2.828125 -1.9375 C 2.960938 -1.851562 3.0625 -1.753906 3.125 -1.640625 C 3.195312 -1.535156 3.242188 -1.425781 3.265625 -1.3125 C 3.285156 -1.207031 3.296875 -1.101562 3.296875 -1 C 3.296875 -0.800781 3.234375 -0.625 3.109375 -0.46875 C 2.984375 -0.3125 2.804688 -0.1875 2.578125 -0.09375 C 2.359375 0 2.101562 0.046875 1.8125 0.046875 Z M 1.8125 0.046875 "/></g></g></g><g fill="#000000" fill-opacity="0.0784"><g transform="translate(42.336189, 5.861548)"><g><path d="M 0.421875 -3.703125 L 1.15625 -3.703125 L 1.15625 0 L 0.421875 0 Z M 0.421875 -3.703125 "/></g></g></g><g fill="#000000" fill-opacity="0.0784"><g transform="translate(46.390708, 5.861548)"><g><path d="M 1.921875 0.046875 C 1.578125 0.046875 1.28125 -0.0234375 1.03125 -0.171875 C 0.78125 -0.328125 0.585938 -0.546875 0.453125 -0.828125 C 0.316406 -1.117188 0.25 -1.457031 0.25 -1.84375 C 0.25 -2.238281 0.316406 -2.578125 0.453125 -2.859375 C 0.597656 -3.148438 0.796875 -3.367188 1.046875 -3.515625 C 1.304688 -3.671875 1.609375 -3.75 1.953125 -3.75 C 2.171875 -3.75 2.367188 -3.710938 2.546875 -3.640625 C 2.734375 -3.578125 2.894531 -3.484375 3.03125 -3.359375 C 3.164062 -3.242188 3.269531 -3.109375 3.34375 -2.953125 C 3.414062 -2.796875 3.457031 -2.640625 3.46875 -2.484375 L 2.6875 -2.484375 C 2.65625 -2.597656 2.609375 -2.703125 2.546875 -2.796875 C 2.484375 -2.898438 2.398438 -2.976562 2.296875 -3.03125 C 2.191406 -3.09375 2.070312 -3.125 1.9375 -3.125 C 1.769531 -3.125 1.617188 -3.082031 1.484375 -3 C 1.359375 -2.914062 1.253906 -2.78125 1.171875 -2.59375 C 1.097656 -2.40625 1.0625 -2.160156 1.0625 -1.859375 C 1.0625 -1.617188 1.085938 -1.414062 1.140625 -1.25 C 1.191406 -1.09375 1.257812 -0.960938 1.34375 -0.859375 C 1.425781 -0.765625 1.519531 -0.695312 1.625 -0.65625 C 1.738281 -0.625 1.851562 -0.609375 1.96875 -0.609375 C 2.070312 -0.609375 2.164062 -0.625 2.25 -0.65625 C 2.34375 -0.695312 2.421875 -0.742188 2.484375 -0.796875 C 2.546875 -0.859375 2.59375 -0.921875 2.625 -0.984375 C 2.664062 -1.054688 2.691406 -1.128906 2.703125 -1.203125 L 2.71875 -1.421875 L 1.953125 -1.421875 L 1.953125 -1.9375 L 3.515625 -1.9375 L 3.515625 0 L 3 0 L 3 -0.484375 C 2.9375 -0.398438 2.859375 -0.316406 2.765625 -0.234375 C 2.671875 -0.148438 2.554688 -0.0820312 2.421875 -0.03125 C 2.285156 0.0195312 2.117188 0.046875 1.921875 0.046875 Z M 1.921875 0.046875 "/></g></g></g><g fill="#000000" fill-opacity="0.0784"><g transform="translate(52.761004, 5.861548)"><g><path d="M 2.84375 -3.703125 L 3.59375 -3.703125 L 3.59375 0 L 2.921875 0 L 1.15625 -2.546875 L 1.15625 0 L 0.421875 0 L 0.421875 -3.703125 L 1.15625 -3.703125 L 2.84375 -1.25 Z M 2.84375 -3.703125 "/></g></g></g><g fill="#000000" fill-opacity="0.0784"><g transform="translate(59.249268, 5.861548)"><g/></g></g><g fill="#000000" fill-opacity="0.0784"><g transform="translate(62.813958, 5.861548)"><g><path d="M 1.828125 -3.765625 C 2.035156 -3.765625 2.222656 -3.726562 2.390625 -3.65625 C 2.566406 -3.59375 2.703125 -3.5 2.796875 -3.375 C 2.898438 -3.257812 2.953125 -3.117188 2.953125 -2.953125 C 2.953125 -2.867188 2.9375 -2.785156 2.90625 -2.703125 C 2.875 -2.617188 2.820312 -2.535156 2.75 -2.453125 C 2.6875 -2.378906 2.601562 -2.300781 2.5 -2.21875 C 2.394531 -2.132812 2.273438 -2.050781 2.140625 -1.96875 L 2.71875 -1.28125 C 2.738281 -1.332031 2.765625 -1.398438 2.796875 -1.484375 C 2.835938 -1.566406 2.875 -1.660156 2.90625 -1.765625 C 2.9375 -1.878906 2.957031 -1.992188 2.96875 -2.109375 L 3.734375 -2.109375 C 3.691406 -1.953125 3.628906 -1.800781 3.546875 -1.65625 C 3.472656 -1.507812 3.394531 -1.367188 3.3125 -1.234375 C 3.226562 -1.109375 3.144531 -0.984375 3.0625 -0.859375 L 3.796875 0 L 2.9375 0 L 2.625 -0.359375 C 2.425781 -0.210938 2.222656 -0.109375 2.015625 -0.046875 C 1.804688 0.00390625 1.613281 0.03125 1.4375 0.03125 C 1.164062 0.03125 0.941406 -0.0078125 0.765625 -0.09375 C 0.585938 -0.175781 0.453125 -0.285156 0.359375 -0.421875 C 0.273438 -0.566406 0.234375 -0.738281 0.234375 -0.9375 C 0.234375 -1.101562 0.269531 -1.25 0.34375 -1.375 C 0.414062 -1.507812 0.519531 -1.628906 0.65625 -1.734375 C 0.789062 -1.847656 0.960938 -1.960938 1.171875 -2.078125 C 1.085938 -2.171875 1.007812 -2.257812 0.9375 -2.34375 C 0.875 -2.425781 0.820312 -2.507812 0.78125 -2.59375 C 0.75 -2.6875 0.734375 -2.785156 0.734375 -2.890625 C 0.734375 -3.054688 0.773438 -3.203125 0.859375 -3.328125 C 0.953125 -3.460938 1.082031 -3.566406 1.25 -3.640625 C 1.414062 -3.722656 1.609375 -3.765625 1.828125 -3.765625 Z M 1.859375 -3.3125 C 1.734375 -3.300781 1.632812 -3.257812 1.5625 -3.1875 C 1.5 -3.125 1.46875 -3.046875 1.46875 -2.953125 C 1.46875 -2.890625 1.476562 -2.828125 1.5 -2.765625 C 1.53125 -2.710938 1.5625 -2.660156 1.59375 -2.609375 C 1.632812 -2.554688 1.675781 -2.503906 1.71875 -2.453125 L 1.828125 -2.34375 C 1.953125 -2.414062 2.046875 -2.484375 2.109375 -2.546875 C 2.179688 -2.617188 2.226562 -2.679688 2.25 -2.734375 C 2.28125 -2.796875 2.296875 -2.859375 2.296875 -2.921875 C 2.296875 -3.015625 2.273438 -3.085938 2.234375 -3.140625 C 2.191406 -3.203125 2.132812 -3.242188 2.0625 -3.265625 C 2 -3.296875 1.929688 -3.3125 1.859375 -3.3125 Z M 1.546875 -1.640625 C 1.398438 -1.566406 1.28125 -1.472656 1.1875 -1.359375 C 1.09375 -1.242188 1.054688 -1.113281 1.078125 -0.96875 C 1.085938 -0.875 1.117188 -0.796875 1.171875 -0.734375 C 1.234375 -0.671875 1.300781 -0.625 1.375 -0.59375 C 1.457031 -0.5625 1.539062 -0.546875 1.625 -0.546875 C 1.71875 -0.546875 1.820312 -0.566406 1.9375 -0.609375 C 2.0625 -0.648438 2.171875 -0.710938 2.265625 -0.796875 Z M 1.546875 -1.640625 "/></g></g></g><g fill="#000000" fill-opacity="0.0784"><g transform="translate(69.309918, 5.861548)"><g/></g></g><g fill="#000000" fill-opacity="0.0784"><g transform="translate(72.874609, 5.861548)"><g><path d="M 0.421875 -3.703125 C 0.429688 -3.703125 0.476562 -3.703125 0.5625 -3.703125 C 0.65625 -3.703125 0.757812 -3.703125 0.875 -3.703125 C 0.988281 -3.703125 1.101562 -3.703125 1.21875 -3.703125 C 1.34375 -3.703125 1.441406 -3.703125 1.515625 -3.703125 C 1.972656 -3.691406 2.34375 -3.609375 2.625 -3.453125 C 2.90625 -3.304688 3.109375 -3.097656 3.234375 -2.828125 C 3.367188 -2.554688 3.4375 -2.238281 3.4375 -1.875 C 3.4375 -1.488281 3.367188 -1.15625 3.234375 -0.875 C 3.097656 -0.59375 2.882812 -0.375 2.59375 -0.21875 C 2.300781 -0.0703125 1.9375 0 1.5 0 L 0.421875 0 Z M 1.171875 -3.09375 L 1.171875 -0.609375 L 1.515625 -0.609375 C 1.722656 -0.609375 1.910156 -0.644531 2.078125 -0.71875 C 2.253906 -0.800781 2.394531 -0.9375 2.5 -1.125 C 2.601562 -1.3125 2.65625 -1.5625 2.65625 -1.875 C 2.65625 -2.164062 2.609375 -2.398438 2.515625 -2.578125 C 2.429688 -2.753906 2.300781 -2.882812 2.125 -2.96875 C 1.957031 -3.050781 1.753906 -3.09375 1.515625 -3.09375 Z M 1.171875 -3.09375 "/></g></g></g><g fill="#000000" fill-opacity="0.0784"><g transform="translate(79.044871, 5.861548)"><g><path d="M 0.421875 0 L 0.421875 -3.703125 L 2.953125 -3.703125 L 2.953125 -3.078125 L 1.171875 -3.078125 L 1.171875 -2.171875 L 2.71875 -2.171875 L 2.71875 -1.5625 L 1.15625 -1.5625 L 1.15625 -0.640625 L 2.984375 -0.640625 L 2.984375 0 Z M 0.421875 0 "/></g></g></g><g fill="#000000" fill-opacity="0.0784"><g transform="translate(84.812502, 5.861548)"><g><path d="M 3.5 -3.703125 L 2.21875 0 L 1.359375 0 L 0.09375 -3.703125 L 0.8125 -3.703125 L 1.796875 -0.875 L 2.78125 -3.703125 Z M 3.5 -3.703125 "/></g></g></g><g fill="#000000" fill-opacity="0.0784"><g transform="translate(90.882744, 5.861548)"><g><path d="M 0.421875 0 L 0.421875 -3.703125 L 2.953125 -3.703125 L 2.953125 -3.078125 L 1.171875 -3.078125 L 1.171875 -2.171875 L 2.71875 -2.171875 L 2.71875 -1.5625 L 1.15625 -1.5625 L 1.15625 -0.640625 L 2.984375 -0.640625 L 2.984375 0 Z M 0.421875 0 "/></g></g></g><g fill="#000000" fill-opacity="0.0784"><g transform="translate(96.647812, 5.861548)"><g><path d="M 0.421875 -3.703125 L 1.171875 -3.703125 L 1.171875 -0.640625 L 2.78125 -0.640625 L 2.78125 0 L 0.421875 0 Z M 0.421875 -3.703125 "/></g></g></g><g fill="#000000" fill-opacity="0.0784"><g transform="translate(101.984599, 5.861548)"><g><path d="M 1.953125 0.046875 C 1.609375 0.046875 1.304688 -0.0234375 1.046875 -0.171875 C 0.785156 -0.328125 0.585938 -0.546875 0.453125 -0.828125 C 0.316406 -1.109375 0.25 -1.445312 0.25 -1.84375 C 0.25 -2.238281 0.316406 -2.578125 0.453125 -2.859375 C 0.597656 -3.148438 0.796875 -3.367188 1.046875 -3.515625 C 1.304688 -3.671875 1.609375 -3.75 1.953125 -3.75 C 2.296875 -3.75 2.59375 -3.671875 2.84375 -3.515625 C 3.101562 -3.367188 3.300781 -3.148438 3.4375 -2.859375 C 3.582031 -2.578125 3.65625 -2.238281 3.65625 -1.84375 C 3.65625 -1.457031 3.582031 -1.117188 3.4375 -0.828125 C 3.300781 -0.546875 3.101562 -0.328125 2.84375 -0.171875 C 2.59375 -0.0234375 2.296875 0.046875 1.953125 0.046875 Z M 1.953125 -0.5625 C 2.140625 -0.5625 2.296875 -0.601562 2.421875 -0.6875 C 2.554688 -0.78125 2.660156 -0.921875 2.734375 -1.109375 C 2.804688 -1.296875 2.84375 -1.535156 2.84375 -1.828125 C 2.84375 -2.140625 2.804688 -2.390625 2.734375 -2.578125 C 2.660156 -2.773438 2.554688 -2.914062 2.421875 -3 C 2.285156 -3.09375 2.128906 -3.140625 1.953125 -3.140625 C 1.773438 -3.140625 1.617188 -3.09375 1.484375 -3 C 1.347656 -2.914062 1.242188 -2.773438 1.171875 -2.578125 C 1.097656 -2.390625 1.0625 -2.140625 1.0625 -1.828125 C 1.0625 -1.523438 1.097656 -1.28125 1.171875 -1.09375 C 1.242188 -0.914062 1.347656 -0.78125 1.484375 -0.6875 C 1.617188 -0.601562 1.773438 -0.5625 1.953125 -0.5625 Z M 1.953125 -0.5625 "/></g></g></g><g fill="#000000" fill-opacity="0.0784"><g transform="translate(108.36259, 5.861548)"><g><path d="M 0.421875 0 L 0.421875 -3.703125 L 1.78125 -3.703125 C 2.050781 -3.703125 2.289062 -3.65625 2.5 -3.5625 C 2.71875 -3.46875 2.890625 -3.332031 3.015625 -3.15625 C 3.140625 -2.976562 3.203125 -2.753906 3.203125 -2.484375 C 3.203125 -2.242188 3.144531 -2.035156 3.03125 -1.859375 C 2.925781 -1.679688 2.773438 -1.546875 2.578125 -1.453125 C 2.378906 -1.367188 2.144531 -1.328125 1.875 -1.328125 L 1.171875 -1.328125 L 1.171875 0 Z M 1.15625 -1.90625 L 1.859375 -1.90625 C 2.046875 -1.90625 2.195312 -1.960938 2.3125 -2.078125 C 2.4375 -2.203125 2.5 -2.351562 2.5 -2.53125 C 2.5 -2.71875 2.429688 -2.863281 2.296875 -2.96875 C 2.171875 -3.070312 2.019531 -3.125 1.84375 -3.125 L 1.15625 -3.125 Z M 1.15625 -1.90625 "/></g></g></g><g fill="#000000" fill-opacity="0.0784"><g transform="translate(114.186636, 5.861548)"><g><path d="M 0.421875 0 L 0.421875 -3.703125 L 1.5 -3.703125 L 2.34375 -1.0625 L 3.203125 -3.703125 L 4.296875 -3.703125 L 4.296875 0 L 3.53125 0 L 3.53125 -2.828125 L 2.640625 0 L 2.0625 0 L 1.171875 -2.828125 L 1.171875 0 Z M 0.421875 0 "/></g></g></g><g fill="#000000" fill-opacity="0.0784"><g transform="translate(121.369889, 5.861548)"><g><path d="M 0.421875 0 L 0.421875 -3.703125 L 2.953125 -3.703125 L 2.953125 -3.078125 L 1.171875 -3.078125 L 1.171875 -2.171875 L 2.71875 -2.171875 L 2.71875 -1.5625 L 1.15625 -1.5625 L 1.15625 -0.640625 L 2.984375 -0.640625 L 2.984375 0 Z M 0.421875 0 "/></g></g></g><g fill="#000000" fill-opacity="0.0784"><g transform="translate(127.134963, 5.861548)"><g><path d="M 2.84375 -3.703125 L 3.59375 -3.703125 L 3.59375 0 L 2.921875 0 L 1.15625 -2.546875 L 1.15625 0 L 0.421875 0 L 0.421875 -3.703125 L 1.15625 -3.703125 L 2.84375 -1.25 Z M 2.84375 -3.703125 "/></g></g></g><g fill="#000000" fill-opacity="0.0784"><g transform="translate(133.623227, 5.861548)"><g><path d="M 0.09375 -3.046875 L 0.09375 -3.703125 L 3.0625 -3.703125 L 3.0625 -3.046875 L 1.96875 -3.046875 L 1.96875 0 L 1.21875 0 L 1.21875 -3.046875 Z M 0.09375 -3.046875 "/></g></g></g><g fill="#000000" fill-opacity="1"><g transform="translate(1.409405, 5.662075)"><g><path d="M 4.859375 -3.703125 L 3.765625 0 L 3.171875 0 L 2.484375 -2.421875 L 1.78125 0 L 1.1875 0 L 0.09375 -3.703125 L 0.828125 -3.703125 L 1.515625 -1.265625 L 2.203125 -3.703125 L 2.75 -3.703125 L 3.453125 -1.265625 L 4.140625 -3.703125 Z M 4.859375 -3.703125 "/></g></g></g><g fill="#000000" fill-opacity="1"><g transform="translate(8.854245, 5.662075)"><g><path d="M 0.421875 0 L 0.421875 -3.703125 L 2.953125 -3.703125 L 2.953125 -3.078125 L 1.171875 -3.078125 L 1.171875 -2.171875 L 2.71875 -2.171875 L 2.71875 -1.5625 L 1.15625 -1.5625 L 1.15625 -0.640625 L 2.984375 -0.640625 L 2.984375 0 Z M 0.421875 0 "/></g></g></g><g fill="#000000" fill-opacity="1"><g transform="translate(14.619313, 5.662075)"><g><path d="M 0.421875 0 L 0.421875 -3.703125 L 1.765625 -3.703125 C 2.242188 -3.703125 2.597656 -3.617188 2.828125 -3.453125 C 3.066406 -3.285156 3.1875 -3.046875 3.1875 -2.734375 C 3.1875 -2.546875 3.140625 -2.382812 3.046875 -2.25 C 2.953125 -2.113281 2.785156 -2 2.546875 -1.90625 C 2.703125 -1.863281 2.828125 -1.804688 2.921875 -1.734375 C 3.015625 -1.671875 3.085938 -1.597656 3.140625 -1.515625 C 3.191406 -1.429688 3.226562 -1.34375 3.25 -1.25 C 3.269531 -1.164062 3.28125 -1.082031 3.28125 -1 C 3.28125 -0.65625 3.160156 -0.398438 2.921875 -0.234375 C 2.691406 -0.078125 2.320312 0 1.8125 0 Z M 1.15625 -0.578125 L 1.828125 -0.578125 C 2.054688 -0.578125 2.226562 -0.617188 2.34375 -0.703125 C 2.457031 -0.796875 2.515625 -0.921875 2.515625 -1.078125 C 2.515625 -1.191406 2.484375 -1.285156 2.421875 -1.359375 C 2.367188 -1.429688 2.296875 -1.484375 2.203125 -1.515625 C 2.109375 -1.554688 2 -1.578125 1.875 -1.578125 L 1.15625 -1.578125 Z M 1.15625 -2.171875 L 1.875 -2.171875 C 1.945312 -2.171875 2.019531 -2.179688 2.09375 -2.203125 C 2.164062 -2.222656 2.226562 -2.25 2.28125 -2.28125 C 2.34375 -2.320312 2.390625 -2.367188 2.421875 -2.421875 C 2.453125 -2.484375 2.46875 -2.554688 2.46875 -2.640625 C 2.46875 -2.796875 2.40625 -2.914062 2.28125 -3 C 2.164062 -3.082031 2.015625 -3.125 1.828125 -3.125 L 1.15625 -3.125 Z M 1.15625 -2.171875 "/></g></g></g><g fill="#000000" fill-opacity="1"><g transform="translate(20.607489, 5.662075)"><g/></g></g><g fill="#000000" fill-opacity="1"><g transform="translate(24.17218, 5.662075)"><g><path d="M 0.421875 -3.703125 C 0.429688 -3.703125 0.476562 -3.703125 0.5625 -3.703125 C 0.65625 -3.703125 0.757812 -3.703125 0.875 -3.703125 C 0.988281 -3.703125 1.101562 -3.703125 1.21875 -3.703125 C 1.34375 -3.703125 1.441406 -3.703125 1.515625 -3.703125 C 1.972656 -3.691406 2.34375 -3.609375 2.625 -3.453125 C 2.90625 -3.304688 3.109375 -3.097656 3.234375 -2.828125 C 3.367188 -2.554688 3.4375 -2.238281 3.4375 -1.875 C 3.4375 -1.488281 3.367188 -1.15625 3.234375 -0.875 C 3.097656 -0.59375 2.882812 -0.375 2.59375 -0.21875 C 2.300781 -0.0703125 1.9375 0 1.5 0 L 0.421875 0 Z M 1.171875 -3.09375 L 1.171875 -0.609375 L 1.515625 -0.609375 C 1.722656 -0.609375 1.910156 -0.644531 2.078125 -0.71875 C 2.253906 -0.800781 2.394531 -0.9375 2.5 -1.125 C 2.601562 -1.3125 2.65625 -1.5625 2.65625 -1.875 C 2.65625 -2.164062 2.609375 -2.398438 2.515625 -2.578125 C 2.429688 -2.753906 2.300781 -2.882812 2.125 -2.96875 C 1.957031 -3.050781 1.753906 -3.09375 1.515625 -3.09375 Z M 1.171875 -3.09375 "/></g></g></g><g fill="#000000" fill-opacity="1"><g transform="translate(30.342442, 5.662075)"><g><path d="M 0.421875 0 L 0.421875 -3.703125 L 2.953125 -3.703125 L 2.953125 -3.078125 L 1.171875 -3.078125 L 1.171875 -2.171875 L 2.71875 -2.171875 L 2.71875 -1.5625 L 1.15625 -1.5625 L 1.15625 -0.640625 L 2.984375 -0.640625 L 2.984375 0 Z M 0.421875 0 "/></g></g></g><g fill="#000000" fill-opacity="1"><g transform="translate(36.110073, 5.662075)"><g><path d="M 1.8125 0.046875 C 1.625 0.046875 1.441406 0.0234375 1.265625 -0.015625 C 1.085938 -0.0664062 0.925781 -0.132812 0.78125 -0.21875 C 0.632812 -0.3125 0.515625 -0.425781 0.421875 -0.5625 C 0.328125 -0.707031 0.269531 -0.875 0.25 -1.0625 L 1.015625 -1.0625 C 1.046875 -0.945312 1.097656 -0.847656 1.171875 -0.765625 C 1.242188 -0.691406 1.332031 -0.632812 1.4375 -0.59375 C 1.550781 -0.550781 1.671875 -0.53125 1.796875 -0.53125 C 1.941406 -0.53125 2.066406 -0.546875 2.171875 -0.578125 C 2.285156 -0.617188 2.375 -0.671875 2.4375 -0.734375 C 2.507812 -0.804688 2.546875 -0.894531 2.546875 -1 C 2.546875 -1.09375 2.519531 -1.171875 2.46875 -1.234375 C 2.414062 -1.296875 2.34375 -1.34375 2.25 -1.375 C 2.15625 -1.414062 2.046875 -1.445312 1.921875 -1.46875 L 1.28125 -1.609375 C 1 -1.660156 0.773438 -1.769531 0.609375 -1.9375 C 0.453125 -2.101562 0.367188 -2.328125 0.359375 -2.609375 C 0.359375 -2.847656 0.421875 -3.050781 0.546875 -3.21875 C 0.671875 -3.382812 0.84375 -3.515625 1.0625 -3.609375 C 1.28125 -3.703125 1.519531 -3.75 1.78125 -3.75 C 2.101562 -3.75 2.375 -3.695312 2.59375 -3.59375 C 2.8125 -3.5 2.976562 -3.363281 3.09375 -3.1875 C 3.207031 -3.019531 3.265625 -2.832031 3.265625 -2.625 L 2.515625 -2.625 C 2.503906 -2.757812 2.460938 -2.863281 2.390625 -2.9375 C 2.328125 -3.007812 2.242188 -3.0625 2.140625 -3.09375 C 2.046875 -3.132812 1.929688 -3.15625 1.796875 -3.15625 C 1.703125 -3.15625 1.613281 -3.144531 1.53125 -3.125 C 1.445312 -3.101562 1.375 -3.070312 1.3125 -3.03125 C 1.257812 -2.988281 1.21875 -2.941406 1.1875 -2.890625 C 1.15625 -2.835938 1.140625 -2.773438 1.140625 -2.703125 C 1.140625 -2.597656 1.175781 -2.507812 1.25 -2.4375 C 1.320312 -2.375 1.457031 -2.320312 1.65625 -2.28125 L 2.296875 -2.140625 C 2.523438 -2.097656 2.703125 -2.03125 2.828125 -1.9375 C 2.960938 -1.851562 3.0625 -1.753906 3.125 -1.640625 C 3.195312 -1.535156 3.242188 -1.425781 3.265625 -1.3125 C 3.285156 -1.207031 3.296875 -1.101562 3.296875 -1 C 3.296875 -0.800781 3.234375 -0.625 3.109375 -0.46875 C 2.984375 -0.3125 2.804688 -0.1875 2.578125 -0.09375 C 2.359375 0 2.101562 0.046875 1.8125 0.046875 Z M 1.8125 0.046875 "/></g></g></g><g fill="#000000" fill-opacity="1"><g transform="translate(42.136716, 5.662075)"><g><path d="M 0.421875 -3.703125 L 1.15625 -3.703125 L 1.15625 0 L 0.421875 0 Z M 0.421875 -3.703125 "/></g></g></g><g fill="#000000" fill-opacity="1"><g transform="translate(46.191235, 5.662075)"><g><path d="M 1.921875 0.046875 C 1.578125 0.046875 1.28125 -0.0234375 1.03125 -0.171875 C 0.78125 -0.328125 0.585938 -0.546875 0.453125 -0.828125 C 0.316406 -1.117188 0.25 -1.457031 0.25 -1.84375 C 0.25 -2.238281 0.316406 -2.578125 0.453125 -2.859375 C 0.597656 -3.148438 0.796875 -3.367188 1.046875 -3.515625 C 1.304688 -3.671875 1.609375 -3.75 1.953125 -3.75 C 2.171875 -3.75 2.367188 -3.710938 2.546875 -3.640625 C 2.734375 -3.578125 2.894531 -3.484375 3.03125 -3.359375 C 3.164062 -3.242188 3.269531 -3.109375 3.34375 -2.953125 C 3.414062 -2.796875 3.457031 -2.640625 3.46875 -2.484375 L 2.6875 -2.484375 C 2.65625 -2.597656 2.609375 -2.703125 2.546875 -2.796875 C 2.484375 -2.898438 2.398438 -2.976562 2.296875 -3.03125 C 2.191406 -3.09375 2.070312 -3.125 1.9375 -3.125 C 1.769531 -3.125 1.617188 -3.082031 1.484375 -3 C 1.359375 -2.914062 1.253906 -2.78125 1.171875 -2.59375 C 1.097656 -2.40625 1.0625 -2.160156 1.0625 -1.859375 C 1.0625 -1.617188 1.085938 -1.414062 1.140625 -1.25 C 1.191406 -1.09375 1.257812 -0.960938 1.34375 -0.859375 C 1.425781 -0.765625 1.519531 -0.695312 1.625 -0.65625 C 1.738281 -0.625 1.851562 -0.609375 1.96875 -0.609375 C 2.070312 -0.609375 2.164062 -0.625 2.25 -0.65625 C 2.34375 -0.695312 2.421875 -0.742188 2.484375 -0.796875 C 2.546875 -0.859375 2.59375 -0.921875 2.625 -0.984375 C 2.664062 -1.054688 2.691406 -1.128906 2.703125 -1.203125 L 2.71875 -1.421875 L 1.953125 -1.421875 L 1.953125 -1.9375 L 3.515625 -1.9375 L 3.515625 0 L 3 0 L 3 -0.484375 C 2.9375 -0.398438 2.859375 -0.316406 2.765625 -0.234375 C 2.671875 -0.148438 2.554688 -0.0820312 2.421875 -0.03125 C 2.285156 0.0195312 2.117188 0.046875 1.921875 0.046875 Z M 1.921875 0.046875 "/></g></g></g><g fill="#000000" fill-opacity="1"><g transform="translate(52.561531, 5.662075)"><g><path d="M 2.84375 -3.703125 L 3.59375 -3.703125 L 3.59375 0 L 2.921875 0 L 1.15625 -2.546875 L 1.15625 0 L 0.421875 0 L 0.421875 -3.703125 L 1.15625 -3.703125 L 2.84375 -1.25 Z M 2.84375 -3.703125 "/></g></g></g><g fill="#000000" fill-opacity="1"><g transform="translate(59.049795, 5.662075)"><g/></g></g><g fill="#000000" fill-opacity="1"><g transform="translate(62.614485, 5.662075)"><g><path d="M 1.828125 -3.765625 C 2.035156 -3.765625 2.222656 -3.726562 2.390625 -3.65625 C 2.566406 -3.59375 2.703125 -3.5 2.796875 -3.375 C 2.898438 -3.257812 2.953125 -3.117188 2.953125 -2.953125 C 2.953125 -2.867188 2.9375 -2.785156 2.90625 -2.703125 C 2.875 -2.617188 2.820312 -2.535156 2.75 -2.453125 C 2.6875 -2.378906 2.601562 -2.300781 2.5 -2.21875 C 2.394531 -2.132812 2.273438 -2.050781 2.140625 -1.96875 L 2.71875 -1.28125 C 2.738281 -1.332031 2.765625 -1.398438 2.796875 -1.484375 C 2.835938 -1.566406 2.875 -1.660156 2.90625 -1.765625 C 2.9375 -1.878906 2.957031 -1.992188 2.96875 -2.109375 L 3.734375 -2.109375 C 3.691406 -1.953125 3.628906 -1.800781 3.546875 -1.65625 C 3.472656 -1.507812 3.394531 -1.367188 3.3125 -1.234375 C 3.226562 -1.109375 3.144531 -0.984375 3.0625 -0.859375 L 3.796875 0 L 2.9375 0 L 2.625 -0.359375 C 2.425781 -0.210938 2.222656 -0.109375 2.015625 -0.046875 C 1.804688 0.00390625 1.613281 0.03125 1.4375 0.03125 C 1.164062 0.03125 0.941406 -0.0078125 0.765625 -0.09375 C 0.585938 -0.175781 0.453125 -0.285156 0.359375 -0.421875 C 0.273438 -0.566406 0.234375 -0.738281 0.234375 -0.9375 C 0.234375 -1.101562 0.269531 -1.25 0.34375 -1.375 C 0.414062 -1.507812 0.519531 -1.628906 0.65625 -1.734375 C 0.789062 -1.847656 0.960938 -1.960938 1.171875 -2.078125 C 1.085938 -2.171875 1.007812 -2.257812 0.9375 -2.34375 C 0.875 -2.425781 0.820312 -2.507812 0.78125 -2.59375 C 0.75 -2.6875 0.734375 -2.785156 0.734375 -2.890625 C 0.734375 -3.054688 0.773438 -3.203125 0.859375 -3.328125 C 0.953125 -3.460938 1.082031 -3.566406 1.25 -3.640625 C 1.414062 -3.722656 1.609375 -3.765625 1.828125 -3.765625 Z M 1.859375 -3.3125 C 1.734375 -3.300781 1.632812 -3.257812 1.5625 -3.1875 C 1.5 -3.125 1.46875 -3.046875 1.46875 -2.953125 C 1.46875 -2.890625 1.476562 -2.828125 1.5 -2.765625 C 1.53125 -2.710938 1.5625 -2.660156 1.59375 -2.609375 C 1.632812 -2.554688 1.675781 -2.503906 1.71875 -2.453125 L 1.828125 -2.34375 C 1.953125 -2.414062 2.046875 -2.484375 2.109375 -2.546875 C 2.179688 -2.617188 2.226562 -2.679688 2.25 -2.734375 C 2.28125 -2.796875 2.296875 -2.859375 2.296875 -2.921875 C 2.296875 -3.015625 2.273438 -3.085938 2.234375 -3.140625 C 2.191406 -3.203125 2.132812 -3.242188 2.0625 -3.265625 C 2 -3.296875 1.929688 -3.3125 1.859375 -3.3125 Z M 1.546875 -1.640625 C 1.398438 -1.566406 1.28125 -1.472656 1.1875 -1.359375 C 1.09375 -1.242188 1.054688 -1.113281 1.078125 -0.96875 C 1.085938 -0.875 1.117188 -0.796875 1.171875 -0.734375 C 1.234375 -0.671875 1.300781 -0.625 1.375 -0.59375 C 1.457031 -0.5625 1.539062 -0.546875 1.625 -0.546875 C 1.71875 -0.546875 1.820312 -0.566406 1.9375 -0.609375 C 2.0625 -0.648438 2.171875 -0.710938 2.265625 -0.796875 Z M 1.546875 -1.640625 "/></g></g></g><g fill="#000000" fill-opacity="1"><g transform="translate(69.110445, 5.662075)"><g/></g></g><g fill="#000000" fill-opacity="1"><g transform="translate(72.675136, 5.662075)"><g><path d="M 0.421875 -3.703125 C 0.429688 -3.703125 0.476562 -3.703125 0.5625 -3.703125 C 0.65625 -3.703125 0.757812 -3.703125 0.875 -3.703125 C 0.988281 -3.703125 1.101562 -3.703125 1.21875 -3.703125 C 1.34375 -3.703125 1.441406 -3.703125 1.515625 -3.703125 C 1.972656 -3.691406 2.34375 -3.609375 2.625 -3.453125 C 2.90625 -3.304688 3.109375 -3.097656 3.234375 -2.828125 C 3.367188 -2.554688 3.4375 -2.238281 3.4375 -1.875 C 3.4375 -1.488281 3.367188 -1.15625 3.234375 -0.875 C 3.097656 -0.59375 2.882812 -0.375 2.59375 -0.21875 C 2.300781 -0.0703125 1.9375 0 1.5 0 L 0.421875 0 Z M 1.171875 -3.09375 L 1.171875 -0.609375 L 1.515625 -0.609375 C 1.722656 -0.609375 1.910156 -0.644531 2.078125 -0.71875 C 2.253906 -0.800781 2.394531 -0.9375 2.5 -1.125 C 2.601562 -1.3125 2.65625 -1.5625 2.65625 -1.875 C 2.65625 -2.164062 2.609375 -2.398438 2.515625 -2.578125 C 2.429688 -2.753906 2.300781 -2.882812 2.125 -2.96875 C 1.957031 -3.050781 1.753906 -3.09375 1.515625 -3.09375 Z M 1.171875 -3.09375 "/></g></g></g><g fill="#000000" fill-opacity="1"><g transform="translate(78.845398, 5.662075)"><g><path d="M 0.421875 0 L 0.421875 -3.703125 L 2.953125 -3.703125 L 2.953125 -3.078125 L 1.171875 -3.078125 L 1.171875 -2.171875 L 2.71875 -2.171875 L 2.71875 -1.5625 L 1.15625 -1.5625 L 1.15625 -0.640625 L 2.984375 -0.640625 L 2.984375 0 Z M 0.421875 0 "/></g></g></g><g fill="#000000" fill-opacity="1"><g transform="translate(84.613029, 5.662075)"><g><path d="M 3.5 -3.703125 L 2.21875 0 L 1.359375 0 L 0.09375 -3.703125 L 0.8125 -3.703125 L 1.796875 -0.875 L 2.78125 -3.703125 Z M 3.5 -3.703125 "/></g></g></g><g fill="#000000" fill-opacity="1"><g transform="translate(90.683271, 5.662075)"><g><path d="M 0.421875 0 L 0.421875 -3.703125 L 2.953125 -3.703125 L 2.953125 -3.078125 L 1.171875 -3.078125 L 1.171875 -2.171875 L 2.71875 -2.171875 L 2.71875 -1.5625 L 1.15625 -1.5625 L 1.15625 -0.640625 L 2.984375 -0.640625 L 2.984375 0 Z M 0.421875 0 "/></g></g></g><g fill="#000000" fill-opacity="1"><g transform="translate(96.448339, 5.662075)"><g><path d="M 0.421875 -3.703125 L 1.171875 -3.703125 L 1.171875 -0.640625 L 2.78125 -0.640625 L 2.78125 0 L 0.421875 0 Z M 0.421875 -3.703125 "/></g></g></g><g fill="#000000" fill-opacity="1"><g transform="translate(101.785126, 5.662075)"><g><path d="M 1.953125 0.046875 C 1.609375 0.046875 1.304688 -0.0234375 1.046875 -0.171875 C 0.785156 -0.328125 0.585938 -0.546875 0.453125 -0.828125 C 0.316406 -1.109375 0.25 -1.445312 0.25 -1.84375 C 0.25 -2.238281 0.316406 -2.578125 0.453125 -2.859375 C 0.597656 -3.148438 0.796875 -3.367188 1.046875 -3.515625 C 1.304688 -3.671875 1.609375 -3.75 1.953125 -3.75 C 2.296875 -3.75 2.59375 -3.671875 2.84375 -3.515625 C 3.101562 -3.367188 3.300781 -3.148438 3.4375 -2.859375 C 3.582031 -2.578125 3.65625 -2.238281 3.65625 -1.84375 C 3.65625 -1.457031 3.582031 -1.117188 3.4375 -0.828125 C 3.300781 -0.546875 3.101562 -0.328125 2.84375 -0.171875 C 2.59375 -0.0234375 2.296875 0.046875 1.953125 0.046875 Z M 1.953125 -0.5625 C 2.140625 -0.5625 2.296875 -0.601562 2.421875 -0.6875 C 2.554688 -0.78125 2.660156 -0.921875 2.734375 -1.109375 C 2.804688 -1.296875 2.84375 -1.535156 2.84375 -1.828125 C 2.84375 -2.140625 2.804688 -2.390625 2.734375 -2.578125 C 2.660156 -2.773438 2.554688 -2.914062 2.421875 -3 C 2.285156 -3.09375 2.128906 -3.140625 1.953125 -3.140625 C 1.773438 -3.140625 1.617188 -3.09375 1.484375 -3 C 1.347656 -2.914062 1.242188 -2.773438 1.171875 -2.578125 C 1.097656 -2.390625 1.0625 -2.140625 1.0625 -1.828125 C 1.0625 -1.523438 1.097656 -1.28125 1.171875 -1.09375 C 1.242188 -0.914062 1.347656 -0.78125 1.484375 -0.6875 C 1.617188 -0.601562 1.773438 -0.5625 1.953125 -0.5625 Z M 1.953125 -0.5625 "/></g></g></g><g fill="#000000" fill-opacity="1"><g transform="translate(108.163117, 5.662075)"><g><path d="M 0.421875 0 L 0.421875 -3.703125 L 1.78125 -3.703125 C 2.050781 -3.703125 2.289062 -3.65625 2.5 -3.5625 C 2.71875 -3.46875 2.890625 -3.332031 3.015625 -3.15625 C 3.140625 -2.976562 3.203125 -2.753906 3.203125 -2.484375 C 3.203125 -2.242188 3.144531 -2.035156 3.03125 -1.859375 C 2.925781 -1.679688 2.773438 -1.546875 2.578125 -1.453125 C 2.378906 -1.367188 2.144531 -1.328125 1.875 -1.328125 L 1.171875 -1.328125 L 1.171875 0 Z M 1.15625 -1.90625 L 1.859375 -1.90625 C 2.046875 -1.90625 2.195312 -1.960938 2.3125 -2.078125 C 2.4375 -2.203125 2.5 -2.351562 2.5 -2.53125 C 2.5 -2.71875 2.429688 -2.863281 2.296875 -2.96875 C 2.171875 -3.070312 2.019531 -3.125 1.84375 -3.125 L 1.15625 -3.125 Z M 1.15625 -1.90625 "/></g></g></g><g fill="#000000" fill-opacity="1"><g transform="translate(113.987163, 5.662075)"><g><path d="M 0.421875 0 L 0.421875 -3.703125 L 1.5 -3.703125 L 2.34375 -1.0625 L 3.203125 -3.703125 L 4.296875 -3.703125 L 4.296875 0 L 3.53125 0 L 3.53125 -2.828125 L 2.640625 0 L 2.0625 0 L 1.171875 -2.828125 L 1.171875 0 Z M 0.421875 0 "/></g></g></g><g fill="#000000" fill-opacity="1"><g transform="translate(121.170415, 5.662075)"><g><path d="M 0.421875 0 L 0.421875 -3.703125 L 2.953125 -3.703125 L 2.953125 -3.078125 L 1.171875 -3.078125 L 1.171875 -2.171875 L 2.71875 -2.171875 L 2.71875 -1.5625 L 1.15625 -1.5625 L 1.15625 -0.640625 L 2.984375 -0.640625 L 2.984375 0 Z M 0.421875 0 "/></g></g></g><g fill="#000000" fill-opacity="1"><g transform="translate(126.93549, 5.662075)"><g><path d="M 2.84375 -3.703125 L 3.59375 -3.703125 L 3.59375 0 L 2.921875 0 L 1.15625 -2.546875 L 1.15625 0 L 0.421875 0 L 0.421875 -3.703125 L 1.15625 -3.703125 L 2.84375 -1.25 Z M 2.84375 -3.703125 "/></g></g></g><g fill="#000000" fill-opacity="1"><g transform="translate(133.423754, 5.662075)"><g><path d="M 0.09375 -3.046875 L 0.09375 -3.703125 L 3.0625 -3.703125 L 3.0625 -3.046875 L 1.96875 -3.046875 L 1.96875 0 L 1.21875 0 L 1.21875 -3.046875 Z M 0.09375 -3.046875 "/></g></g></g></g></g></g></svg>