<svg xmlns="http://www.w3.org/2000/svg" xmlns:xlink="http://www.w3.org/1999/xlink" width="200" zoomAndPan="magnify" viewBox="0 0 150 30.000001" height="40" preserveAspectRatio="xMidYMid meet" version="1.0"><defs><g/><clipPath id="efb910eedf"><path d="M 3 0 L 147.578125 0 L 147.578125 26 L 3 26 Z M 3 0 " clip-rule="nonzero"/></clipPath><clipPath id="dbefbaba1a"><rect x="0" width="145" y="0" height="26"/></clipPath><clipPath id="d019b53f6c"><path d="M 51 0 L 81 0 L 81 28 L 51 28 Z M 51 0 " clip-rule="nonzero"/></clipPath><clipPath id="08424d74c6"><path d="M 80.90625 3.730469 L 57.296875 27.339844 L 51.652344 21.695312 L 75.261719 -1.914062 Z M 80.90625 3.730469 " clip-rule="nonzero"/></clipPath><clipPath id="71526e22bf"><path d="M 1 3 L 24 3 L 24 23 L 1 23 Z M 1 3 " clip-rule="nonzero"/></clipPath><clipPath id="7b184d8658"><path d="M 29.90625 3.730469 L 6.296875 27.339844 L 0.652344 21.695312 L 24.261719 -1.914062 Z M 29.90625 3.730469 " clip-rule="nonzero"/></clipPath><clipPath id="6a11dd0699"><path d="M 6.335938 27.300781 L 29.945312 3.691406 L 24.300781 -1.953125 L 0.691406 21.65625 Z M 6.335938 27.300781 " clip-rule="nonzero"/></clipPath><clipPath id="407e11a2a2"><path d="M 0.65625 10 L 17 10 L 17 22 L 0.65625 22 Z M 0.65625 10 " clip-rule="nonzero"/></clipPath><clipPath id="dff877d4fa"><path d="M 29.90625 3.730469 L 6.296875 27.339844 L 0.652344 21.695312 L 24.261719 -1.914062 Z M 29.90625 3.730469 " clip-rule="nonzero"/></clipPath><clipPath id="392fa3afa7"><path d="M 6.335938 27.300781 L 29.945312 3.691406 L 24.300781 -1.953125 L 0.691406 21.65625 Z M 6.335938 27.300781 " clip-rule="nonzero"/></clipPath><clipPath id="539484513a"><path d="M 16 1 L 29 1 L 29 17 L 16 17 Z M 16 1 " clip-rule="nonzero"/></clipPath><clipPath id="67f80d03df"><path d="M 29.90625 3.730469 L 6.296875 27.339844 L 0.652344 21.695312 L 24.261719 -1.914062 Z M 29.90625 3.730469 " clip-rule="nonzero"/></clipPath><clipPath id="7d40a29353"><path d="M 6.335938 27.300781 L 29.945312 3.691406 L 24.300781 -1.953125 L 0.691406 21.65625 Z M 6.335938 27.300781 " clip-rule="nonzero"/></clipPath><clipPath id="2dab099984"><rect x="0" width="30" y="0" height="28"/></clipPath><clipPath id="4c4bdc1d7e"><path d="M 14 21 L 138 21 L 138 29.03125 L 14 29.03125 Z M 14 21 " clip-rule="nonzero"/></clipPath><clipPath id="b535c2027c"><path d="M 42 3 L 47 3 L 47 8.03125 L 42 8.03125 Z M 42 3 " clip-rule="nonzero"/></clipPath><clipPath id="b873a09d9a"><path d="M 95 3 L 99 3 L 99 8.03125 L 95 8.03125 Z M 95 3 " clip-rule="nonzero"/></clipPath><clipPath id="d7dc12e272"><rect x="0" width="124" y="0" height="9"/></clipPath></defs><g clip-path="url(#efb910eedf)"><g transform="matrix(1, 0, 0, 1, 3, 0.000000000000005692)"><g clip-path="url(#dbefbaba1a)"><g fill="#000000" fill-opacity="0.0314"><g transform="translate(1.726143, 19.984442)"><g><path d="M 7.28125 0.3125 C 6.09375 0.3125 5.03125 0.0351562 4.09375 -0.515625 C 3.15625 -1.078125 2.410156 -1.90625 1.859375 -3 C 1.304688 -4.09375 1.03125 -5.457031 1.03125 -7.09375 C 1.03125 -8.300781 1.1875 -9.375 1.5 -10.3125 C 1.820312 -11.257812 2.285156 -12.066406 2.890625 -12.734375 C 3.492188 -13.398438 4.238281 -13.910156 5.125 -14.265625 C 6.019531 -14.628906 7.050781 -14.8125 8.21875 -14.8125 C 9.113281 -14.8125 9.921875 -14.707031 10.640625 -14.5 C 11.359375 -14.289062 11.976562 -13.988281 12.5 -13.59375 C 13.019531 -13.207031 13.425781 -12.742188 13.71875 -12.203125 C 14.007812 -11.660156 14.164062 -11.046875 14.1875 -10.359375 L 11.1875 -9.5 C 11.175781 -9.945312 11.082031 -10.34375 10.90625 -10.6875 C 10.738281 -11.039062 10.515625 -11.328125 10.234375 -11.546875 C 9.960938 -11.773438 9.644531 -11.941406 9.28125 -12.046875 C 8.914062 -12.160156 8.519531 -12.21875 8.09375 -12.21875 C 7.59375 -12.21875 7.117188 -12.132812 6.671875 -11.96875 C 6.222656 -11.800781 5.828125 -11.53125 5.484375 -11.15625 C 5.140625 -10.78125 4.863281 -10.269531 4.65625 -9.625 C 4.457031 -8.976562 4.359375 -8.179688 4.359375 -7.234375 C 4.359375 -6.273438 4.457031 -5.472656 4.65625 -4.828125 C 4.863281 -4.191406 5.144531 -3.6875 5.5 -3.3125 C 5.863281 -2.9375 6.273438 -2.664062 6.734375 -2.5 C 7.203125 -2.332031 7.691406 -2.25 8.203125 -2.25 C 8.847656 -2.25 9.40625 -2.359375 9.875 -2.578125 C 10.34375 -2.796875 10.710938 -3.125 10.984375 -3.5625 C 11.265625 -4 11.421875 -4.554688 11.453125 -5.234375 L 8.75 -5.234375 L 8.75 -7.515625 L 14.578125 -7.515625 L 14.578125 0 L 12.359375 0 L 12.421875 -3.734375 L 12.03125 -3.734375 C 11.8125 -2.859375 11.503906 -2.117188 11.109375 -1.515625 C 10.710938 -0.910156 10.203125 -0.453125 9.578125 -0.140625 C 8.953125 0.160156 8.1875 0.3125 7.28125 0.3125 Z M 7.28125 0.3125 "/></g></g></g><g fill="#000000" fill-opacity="0.0314"><g transform="translate(17.440167, 19.984442)"><g><path d="M 7.9375 0.3125 C 7.0625 0.3125 6.273438 0.21875 5.578125 0.03125 C 4.878906 -0.144531 4.269531 -0.40625 3.75 -0.75 C 3.238281 -1.101562 2.816406 -1.523438 2.484375 -2.015625 C 2.148438 -2.503906 1.894531 -3.054688 1.71875 -3.671875 C 1.550781 -4.285156 1.46875 -4.957031 1.46875 -5.6875 L 1.46875 -14.515625 L 4.640625 -14.515625 L 4.640625 -5.796875 C 4.640625 -5.035156 4.765625 -4.410156 5.015625 -3.921875 C 5.265625 -3.429688 5.628906 -3.070312 6.109375 -2.84375 C 6.597656 -2.613281 7.203125 -2.5 7.921875 -2.5 C 8.648438 -2.5 9.253906 -2.613281 9.734375 -2.84375 C 10.222656 -3.082031 10.585938 -3.441406 10.828125 -3.921875 C 11.066406 -4.410156 11.1875 -5.035156 11.1875 -5.796875 L 11.1875 -14.515625 L 14.359375 -14.515625 L 14.359375 -5.6875 C 14.359375 -4.726562 14.222656 -3.875 13.953125 -3.125 C 13.679688 -2.382812 13.273438 -1.757812 12.734375 -1.25 C 12.203125 -0.738281 11.53125 -0.347656 10.71875 -0.078125 C 9.914062 0.179688 8.988281 0.3125 7.9375 0.3125 Z M 7.9375 0.3125 "/></g></g></g><g fill="#000000" fill-opacity="0.0314"><g transform="translate(33.26408, 19.984442)"><g><path d="M 1.5625 0 L 1.5625 -14.515625 L 4.734375 -14.515625 L 4.734375 0 Z M 2.203125 0 L 2.203125 -2.6875 L 10.8125 -2.6875 L 10.8125 0 Z M 2.203125 0 "/></g></g></g><g fill="#000000" fill-opacity="0.0314"><g transform="translate(44.340817, 19.984442)"><g><path d="M 1.5625 0 L 1.5625 -14.515625 L 4.734375 -14.515625 L 4.734375 0 Z M 3.0625 -5.4375 L 3.0625 -8.03125 L 11.453125 -8.03125 L 11.453125 -5.4375 Z M 3.0625 -11.8125 L 3.0625 -14.515625 L 12.265625 -14.515625 L 12.265625 -11.8125 Z M 3.0625 -11.8125 "/></g></g></g><g fill="#000000" fill-opacity="0.0314"><g transform="translate(57.227725, 19.984442)"><g/></g></g><g fill="#000000" fill-opacity="0.0314"><g transform="translate(62.238634, 19.984442)"><g/></g></g><g fill="#000000" fill-opacity="0.0314"><g transform="translate(67.249543, 19.984442)"><g/></g></g><g fill="#000000" fill-opacity="0.0314"><g transform="translate(72.267663, 19.984442)"><g><path d="M 8.203125 0.3125 C 7.066406 0.3125 6.054688 0.148438 5.171875 -0.171875 C 4.285156 -0.492188 3.535156 -0.96875 2.921875 -1.59375 C 2.304688 -2.226562 1.835938 -3.003906 1.515625 -3.921875 C 1.191406 -4.847656 1.03125 -5.90625 1.03125 -7.09375 C 1.03125 -8.332031 1.191406 -9.421875 1.515625 -10.359375 C 1.847656 -11.304688 2.320312 -12.113281 2.9375 -12.78125 C 3.5625 -13.445312 4.296875 -13.953125 5.140625 -14.296875 C 5.992188 -14.640625 6.945312 -14.8125 8 -14.8125 C 8.820312 -14.8125 9.578125 -14.703125 10.265625 -14.484375 C 10.953125 -14.265625 11.546875 -13.953125 12.046875 -13.546875 C 12.546875 -13.148438 12.929688 -12.660156 13.203125 -12.078125 C 13.484375 -11.503906 13.625 -10.859375 13.625 -10.140625 L 10.703125 -9.390625 C 10.703125 -10.015625 10.570312 -10.535156 10.3125 -10.953125 C 10.050781 -11.367188 9.707031 -11.679688 9.28125 -11.890625 C 8.851562 -12.109375 8.390625 -12.21875 7.890625 -12.21875 C 7.453125 -12.21875 7.023438 -12.128906 6.609375 -11.953125 C 6.191406 -11.785156 5.8125 -11.503906 5.46875 -11.109375 C 5.125 -10.722656 4.851562 -10.21875 4.65625 -9.59375 C 4.457031 -8.96875 4.359375 -8.203125 4.359375 -7.296875 C 4.359375 -6.128906 4.523438 -5.171875 4.859375 -4.421875 C 5.191406 -3.679688 5.65625 -3.140625 6.25 -2.796875 C 6.84375 -2.453125 7.515625 -2.28125 8.265625 -2.28125 C 9.054688 -2.28125 9.675781 -2.445312 10.125 -2.78125 C 10.570312 -3.113281 10.894531 -3.539062 11.09375 -4.0625 C 11.289062 -4.59375 11.394531 -5.148438 11.40625 -5.734375 L 14.203125 -5.296875 C 14.191406 -4.523438 14.078125 -3.796875 13.859375 -3.109375 C 13.648438 -2.429688 13.304688 -1.832031 12.828125 -1.3125 C 12.347656 -0.800781 11.726562 -0.398438 10.96875 -0.109375 C 10.207031 0.171875 9.285156 0.3125 8.203125 0.3125 Z M 8.203125 0.3125 "/></g></g></g><g fill="#000000" fill-opacity="0.0314"><g transform="translate(87.146547, 19.984442)"><g><path d="M 7.84375 0.3125 C 6.789062 0.3125 5.847656 0.144531 5.015625 -0.1875 C 4.179688 -0.519531 3.46875 -1.003906 2.875 -1.640625 C 2.28125 -2.273438 1.820312 -3.054688 1.5 -3.984375 C 1.1875 -4.921875 1.03125 -5.988281 1.03125 -7.1875 C 1.03125 -8.90625 1.332031 -10.320312 1.9375 -11.4375 C 2.539062 -12.5625 3.359375 -13.40625 4.390625 -13.96875 C 5.429688 -14.53125 6.613281 -14.8125 7.9375 -14.8125 C 8.957031 -14.8125 9.882812 -14.644531 10.71875 -14.3125 C 11.5625 -13.988281 12.28125 -13.507812 12.875 -12.875 C 13.46875 -12.238281 13.925781 -11.445312 14.25 -10.5 C 14.570312 -9.5625 14.734375 -8.476562 14.734375 -7.25 C 14.734375 -6.007812 14.566406 -4.921875 14.234375 -3.984375 C 13.898438 -3.046875 13.429688 -2.253906 12.828125 -1.609375 C 12.234375 -0.972656 11.515625 -0.492188 10.671875 -0.171875 C 9.828125 0.148438 8.882812 0.3125 7.84375 0.3125 Z M 7.921875 -2.21875 C 8.328125 -2.21875 8.738281 -2.289062 9.15625 -2.4375 C 9.570312 -2.582031 9.957031 -2.832031 10.3125 -3.1875 C 10.675781 -3.539062 10.957031 -4.035156 11.15625 -4.671875 C 11.363281 -5.304688 11.46875 -6.109375 11.46875 -7.078125 C 11.46875 -8.253906 11.316406 -9.21875 11.015625 -9.96875 C 10.722656 -10.726562 10.300781 -11.289062 9.75 -11.65625 C 9.195312 -12.019531 8.570312 -12.203125 7.875 -12.203125 C 7.488281 -12.203125 7.085938 -12.128906 6.671875 -11.984375 C 6.253906 -11.847656 5.863281 -11.597656 5.5 -11.234375 C 5.132812 -10.878906 4.835938 -10.378906 4.609375 -9.734375 C 4.390625 -9.085938 4.28125 -8.253906 4.28125 -7.234375 C 4.28125 -6.265625 4.382812 -5.460938 4.59375 -4.828125 C 4.800781 -4.191406 5.078125 -3.679688 5.421875 -3.296875 C 5.765625 -2.910156 6.148438 -2.632812 6.578125 -2.46875 C 7.015625 -2.300781 7.460938 -2.21875 7.921875 -2.21875 Z M 7.921875 -2.21875 "/></g></g></g><g fill="#000000" fill-opacity="0.0314"><g transform="translate(102.310904, 19.984442)"><g><path d="M 0.375 0 L 5.3125 -14.515625 L 9.921875 -14.515625 L 14.890625 0 L 11.4375 0 L 7.78125 -12 L 7.46875 -12 L 3.796875 0 Z M 3.140625 -2.84375 L 3.140625 -5.015625 L 12.546875 -5.015625 L 12.546875 -2.84375 Z M 3.140625 -2.84375 "/></g></g></g><g fill="#000000" fill-opacity="0.0314"><g transform="translate(117.299556, 19.984442)"><g><path d="M 7.140625 0.3125 C 6.191406 0.3125 5.335938 0.210938 4.578125 0.015625 C 3.828125 -0.171875 3.179688 -0.453125 2.640625 -0.828125 C 2.109375 -1.203125 1.695312 -1.671875 1.40625 -2.234375 C 1.113281 -2.796875 0.945312 -3.453125 0.90625 -4.203125 L 3.6875 -5.078125 C 3.71875 -4.421875 3.882812 -3.867188 4.1875 -3.421875 C 4.488281 -2.984375 4.910156 -2.65625 5.453125 -2.4375 C 6.003906 -2.226562 6.628906 -2.125 7.328125 -2.125 C 7.960938 -2.125 8.503906 -2.203125 8.953125 -2.359375 C 9.398438 -2.523438 9.738281 -2.742188 9.96875 -3.015625 C 10.207031 -3.285156 10.328125 -3.582031 10.328125 -3.90625 C 10.328125 -4.289062 10.175781 -4.597656 9.875 -4.828125 C 9.582031 -5.066406 9.1875 -5.265625 8.6875 -5.421875 C 8.1875 -5.585938 7.613281 -5.742188 6.96875 -5.890625 C 6.25 -6.066406 5.546875 -6.253906 4.859375 -6.453125 C 4.171875 -6.648438 3.546875 -6.910156 2.984375 -7.234375 C 2.429688 -7.554688 1.988281 -7.972656 1.65625 -8.484375 C 1.332031 -8.992188 1.171875 -9.640625 1.171875 -10.421875 C 1.171875 -11.316406 1.390625 -12.085938 1.828125 -12.734375 C 2.273438 -13.390625 2.925781 -13.898438 3.78125 -14.265625 C 4.644531 -14.628906 5.691406 -14.8125 6.921875 -14.8125 C 8.128906 -14.8125 9.171875 -14.628906 10.046875 -14.265625 C 10.921875 -13.910156 11.597656 -13.398438 12.078125 -12.734375 C 12.566406 -12.066406 12.820312 -11.289062 12.84375 -10.40625 L 10 -9.625 C 10 -10.082031 9.925781 -10.484375 9.78125 -10.828125 C 9.632812 -11.171875 9.425781 -11.457031 9.15625 -11.6875 C 8.894531 -11.914062 8.570312 -12.085938 8.1875 -12.203125 C 7.800781 -12.316406 7.363281 -12.375 6.875 -12.375 C 6.3125 -12.375 5.820312 -12.296875 5.40625 -12.140625 C 5 -11.992188 4.6875 -11.796875 4.46875 -11.546875 C 4.257812 -11.304688 4.15625 -11.019531 4.15625 -10.6875 C 4.15625 -10.289062 4.316406 -9.96875 4.640625 -9.71875 C 4.960938 -9.46875 5.394531 -9.257812 5.9375 -9.09375 C 6.488281 -8.925781 7.085938 -8.769531 7.734375 -8.625 C 8.367188 -8.488281 9.007812 -8.320312 9.65625 -8.125 C 10.3125 -7.925781 10.921875 -7.664062 11.484375 -7.34375 C 12.046875 -7.03125 12.5 -6.609375 12.84375 -6.078125 C 13.1875 -5.546875 13.359375 -4.867188 13.359375 -4.046875 C 13.359375 -3.160156 13.125 -2.390625 12.65625 -1.734375 C 12.1875 -1.085938 11.488281 -0.582031 10.5625 -0.21875 C 9.644531 0.132812 8.503906 0.3125 7.140625 0.3125 Z M 7.140625 0.3125 "/></g></g></g><g fill="#000000" fill-opacity="0.0314"><g transform="translate(131.365198, 19.984442)"><g><path d="M 4.609375 0 L 4.609375 -14.515625 L 7.796875 -14.515625 L 7.796875 0 Z M 0.390625 -11.84375 L 0.390625 -14.515625 L 12.046875 -14.515625 L 12.046875 -11.84375 Z M 0.390625 -11.84375 "/></g></g></g><g fill="#ffffff" fill-opacity="1"><g transform="translate(0.870965, 19.129264)"><g><path d="M 7.28125 0.3125 C 6.09375 0.3125 5.03125 0.0351562 4.09375 -0.515625 C 3.15625 -1.078125 2.410156 -1.90625 1.859375 -3 C 1.304688 -4.09375 1.03125 -5.457031 1.03125 -7.09375 C 1.03125 -8.300781 1.1875 -9.375 1.5 -10.3125 C 1.820312 -11.257812 2.285156 -12.066406 2.890625 -12.734375 C 3.492188 -13.398438 4.238281 -13.910156 5.125 -14.265625 C 6.019531 -14.628906 7.050781 -14.8125 8.21875 -14.8125 C 9.113281 -14.8125 9.921875 -14.707031 10.640625 -14.5 C 11.359375 -14.289062 11.976562 -13.988281 12.5 -13.59375 C 13.019531 -13.207031 13.425781 -12.742188 13.71875 -12.203125 C 14.007812 -11.660156 14.164062 -11.046875 14.1875 -10.359375 L 11.1875 -9.5 C 11.175781 -9.945312 11.082031 -10.34375 10.90625 -10.6875 C 10.738281 -11.039062 10.515625 -11.328125 10.234375 -11.546875 C 9.960938 -11.773438 9.644531 -11.941406 9.28125 -12.046875 C 8.914062 -12.160156 8.519531 -12.21875 8.09375 -12.21875 C 7.59375 -12.21875 7.117188 -12.132812 6.671875 -11.96875 C 6.222656 -11.800781 5.828125 -11.53125 5.484375 -11.15625 C 5.140625 -10.78125 4.863281 -10.269531 4.65625 -9.625 C 4.457031 -8.976562 4.359375 -8.179688 4.359375 -7.234375 C 4.359375 -6.273438 4.457031 -5.472656 4.65625 -4.828125 C 4.863281 -4.191406 5.144531 -3.6875 5.5 -3.3125 C 5.863281 -2.9375 6.273438 -2.664062 6.734375 -2.5 C 7.203125 -2.332031 7.691406 -2.25 8.203125 -2.25 C 8.847656 -2.25 9.40625 -2.359375 9.875 -2.578125 C 10.34375 -2.796875 10.710938 -3.125 10.984375 -3.5625 C 11.265625 -4 11.421875 -4.554688 11.453125 -5.234375 L 8.75 -5.234375 L 8.75 -7.515625 L 14.578125 -7.515625 L 14.578125 0 L 12.359375 0 L 12.421875 -3.734375 L 12.03125 -3.734375 C 11.8125 -2.859375 11.503906 -2.117188 11.109375 -1.515625 C 10.710938 -0.910156 10.203125 -0.453125 9.578125 -0.140625 C 8.953125 0.160156 8.1875 0.3125 7.28125 0.3125 Z M 7.28125 0.3125 "/></g></g></g><g fill="#ffffff" fill-opacity="1"><g transform="translate(16.584989, 19.129264)"><g><path d="M 7.9375 0.3125 C 7.0625 0.3125 6.273438 0.21875 5.578125 0.03125 C 4.878906 -0.144531 4.269531 -0.40625 3.75 -0.75 C 3.238281 -1.101562 2.816406 -1.523438 2.484375 -2.015625 C 2.148438 -2.503906 1.894531 -3.054688 1.71875 -3.671875 C 1.550781 -4.285156 1.46875 -4.957031 1.46875 -5.6875 L 1.46875 -14.515625 L 4.640625 -14.515625 L 4.640625 -5.796875 C 4.640625 -5.035156 4.765625 -4.410156 5.015625 -3.921875 C 5.265625 -3.429688 5.628906 -3.070312 6.109375 -2.84375 C 6.597656 -2.613281 7.203125 -2.5 7.921875 -2.5 C 8.648438 -2.5 9.253906 -2.613281 9.734375 -2.84375 C 10.222656 -3.082031 10.585938 -3.441406 10.828125 -3.921875 C 11.066406 -4.410156 11.1875 -5.035156 11.1875 -5.796875 L 11.1875 -14.515625 L 14.359375 -14.515625 L 14.359375 -5.6875 C 14.359375 -4.726562 14.222656 -3.875 13.953125 -3.125 C 13.679688 -2.382812 13.273438 -1.757812 12.734375 -1.25 C 12.203125 -0.738281 11.53125 -0.347656 10.71875 -0.078125 C 9.914062 0.179688 8.988281 0.3125 7.9375 0.3125 Z M 7.9375 0.3125 "/></g></g></g><g fill="#ffffff" fill-opacity="1"><g transform="translate(32.408902, 19.129264)"><g><path d="M 1.5625 0 L 1.5625 -14.515625 L 4.734375 -14.515625 L 4.734375 0 Z M 2.203125 0 L 2.203125 -2.6875 L 10.8125 -2.6875 L 10.8125 0 Z M 2.203125 0 "/></g></g></g><g fill="#ffffff" fill-opacity="1"><g transform="translate(43.485638, 19.129264)"><g><path d="M 1.5625 0 L 1.5625 -14.515625 L 4.734375 -14.515625 L 4.734375 0 Z M 3.0625 -5.4375 L 3.0625 -8.03125 L 11.453125 -8.03125 L 11.453125 -5.4375 Z M 3.0625 -11.8125 L 3.0625 -14.515625 L 12.265625 -14.515625 L 12.265625 -11.8125 Z M 3.0625 -11.8125 "/></g></g></g><g fill="#ffffff" fill-opacity="1"><g transform="translate(56.372547, 19.129264)"><g/></g></g><g fill="#ffffff" fill-opacity="1"><g transform="translate(61.383456, 19.129264)"><g/></g></g><g fill="#ffffff" fill-opacity="1"><g transform="translate(66.394365, 19.129264)"><g/></g></g><g fill="#ffffff" fill-opacity="1"><g transform="translate(71.412485, 19.129264)"><g><path d="M 8.203125 0.3125 C 7.066406 0.3125 6.054688 0.148438 5.171875 -0.171875 C 4.285156 -0.492188 3.535156 -0.96875 2.921875 -1.59375 C 2.304688 -2.226562 1.835938 -3.003906 1.515625 -3.921875 C 1.191406 -4.847656 1.03125 -5.90625 1.03125 -7.09375 C 1.03125 -8.332031 1.191406 -9.421875 1.515625 -10.359375 C 1.847656 -11.304688 2.320312 -12.113281 2.9375 -12.78125 C 3.5625 -13.445312 4.296875 -13.953125 5.140625 -14.296875 C 5.992188 -14.640625 6.945312 -14.8125 8 -14.8125 C 8.820312 -14.8125 9.578125 -14.703125 10.265625 -14.484375 C 10.953125 -14.265625 11.546875 -13.953125 12.046875 -13.546875 C 12.546875 -13.148438 12.929688 -12.660156 13.203125 -12.078125 C 13.484375 -11.503906 13.625 -10.859375 13.625 -10.140625 L 10.703125 -9.390625 C 10.703125 -10.015625 10.570312 -10.535156 10.3125 -10.953125 C 10.050781 -11.367188 9.707031 -11.679688 9.28125 -11.890625 C 8.851562 -12.109375 8.390625 -12.21875 7.890625 -12.21875 C 7.453125 -12.21875 7.023438 -12.128906 6.609375 -11.953125 C 6.191406 -11.785156 5.8125 -11.503906 5.46875 -11.109375 C 5.125 -10.722656 4.851562 -10.21875 4.65625 -9.59375 C 4.457031 -8.96875 4.359375 -8.203125 4.359375 -7.296875 C 4.359375 -6.128906 4.523438 -5.171875 4.859375 -4.421875 C 5.191406 -3.679688 5.65625 -3.140625 6.25 -2.796875 C 6.84375 -2.453125 7.515625 -2.28125 8.265625 -2.28125 C 9.054688 -2.28125 9.675781 -2.445312 10.125 -2.78125 C 10.570312 -3.113281 10.894531 -3.539062 11.09375 -4.0625 C 11.289062 -4.59375 11.394531 -5.148438 11.40625 -5.734375 L 14.203125 -5.296875 C 14.191406 -4.523438 14.078125 -3.796875 13.859375 -3.109375 C 13.648438 -2.429688 13.304688 -1.832031 12.828125 -1.3125 C 12.347656 -0.800781 11.726562 -0.398438 10.96875 -0.109375 C 10.207031 0.171875 9.285156 0.3125 8.203125 0.3125 Z M 8.203125 0.3125 "/></g></g></g><g fill="#ffffff" fill-opacity="1"><g transform="translate(86.291368, 19.129264)"><g><path d="M 7.84375 0.3125 C 6.789062 0.3125 5.847656 0.144531 5.015625 -0.1875 C 4.179688 -0.519531 3.46875 -1.003906 2.875 -1.640625 C 2.28125 -2.273438 1.820312 -3.054688 1.5 -3.984375 C 1.1875 -4.921875 1.03125 -5.988281 1.03125 -7.1875 C 1.03125 -8.90625 1.332031 -10.320312 1.9375 -11.4375 C 2.539062 -12.5625 3.359375 -13.40625 4.390625 -13.96875 C 5.429688 -14.53125 6.613281 -14.8125 7.9375 -14.8125 C 8.957031 -14.8125 9.882812 -14.644531 10.71875 -14.3125 C 11.5625 -13.988281 12.28125 -13.507812 12.875 -12.875 C 13.46875 -12.238281 13.925781 -11.445312 14.25 -10.5 C 14.570312 -9.5625 14.734375 -8.476562 14.734375 -7.25 C 14.734375 -6.007812 14.566406 -4.921875 14.234375 -3.984375 C 13.898438 -3.046875 13.429688 -2.253906 12.828125 -1.609375 C 12.234375 -0.972656 11.515625 -0.492188 10.671875 -0.171875 C 9.828125 0.148438 8.882812 0.3125 7.84375 0.3125 Z M 7.921875 -2.21875 C 8.328125 -2.21875 8.738281 -2.289062 9.15625 -2.4375 C 9.570312 -2.582031 9.957031 -2.832031 10.3125 -3.1875 C 10.675781 -3.539062 10.957031 -4.035156 11.15625 -4.671875 C 11.363281 -5.304688 11.46875 -6.109375 11.46875 -7.078125 C 11.46875 -8.253906 11.316406 -9.21875 11.015625 -9.96875 C 10.722656 -10.726562 10.300781 -11.289062 9.75 -11.65625 C 9.195312 -12.019531 8.570312 -12.203125 7.875 -12.203125 C 7.488281 -12.203125 7.085938 -12.128906 6.671875 -11.984375 C 6.253906 -11.847656 5.863281 -11.597656 5.5 -11.234375 C 5.132812 -10.878906 4.835938 -10.378906 4.609375 -9.734375 C 4.390625 -9.085938 4.28125 -8.253906 4.28125 -7.234375 C 4.28125 -6.265625 4.382812 -5.460938 4.59375 -4.828125 C 4.800781 -4.191406 5.078125 -3.679688 5.421875 -3.296875 C 5.765625 -2.910156 6.148438 -2.632812 6.578125 -2.46875 C 7.015625 -2.300781 7.460938 -2.21875 7.921875 -2.21875 Z M 7.921875 -2.21875 "/></g></g></g><g fill="#ffffff" fill-opacity="1"><g transform="translate(101.455726, 19.129264)"><g><path d="M 0.375 0 L 5.3125 -14.515625 L 9.921875 -14.515625 L 14.890625 0 L 11.4375 0 L 7.78125 -12 L 7.46875 -12 L 3.796875 0 Z M 3.140625 -2.84375 L 3.140625 -5.015625 L 12.546875 -5.015625 L 12.546875 -2.84375 Z M 3.140625 -2.84375 "/></g></g></g><g fill="#ffffff" fill-opacity="1"><g transform="translate(116.444378, 19.129264)"><g><path d="M 7.140625 0.3125 C 6.191406 0.3125 5.335938 0.210938 4.578125 0.015625 C 3.828125 -0.171875 3.179688 -0.453125 2.640625 -0.828125 C 2.109375 -1.203125 1.695312 -1.671875 1.40625 -2.234375 C 1.113281 -2.796875 0.945312 -3.453125 0.90625 -4.203125 L 3.6875 -5.078125 C 3.71875 -4.421875 3.882812 -3.867188 4.1875 -3.421875 C 4.488281 -2.984375 4.910156 -2.65625 5.453125 -2.4375 C 6.003906 -2.226562 6.628906 -2.125 7.328125 -2.125 C 7.960938 -2.125 8.503906 -2.203125 8.953125 -2.359375 C 9.398438 -2.523438 9.738281 -2.742188 9.96875 -3.015625 C 10.207031 -3.285156 10.328125 -3.582031 10.328125 -3.90625 C 10.328125 -4.289062 10.175781 -4.597656 9.875 -4.828125 C 9.582031 -5.066406 9.1875 -5.265625 8.6875 -5.421875 C 8.1875 -5.585938 7.613281 -5.742188 6.96875 -5.890625 C 6.25 -6.066406 5.546875 -6.253906 4.859375 -6.453125 C 4.171875 -6.648438 3.546875 -6.910156 2.984375 -7.234375 C 2.429688 -7.554688 1.988281 -7.972656 1.65625 -8.484375 C 1.332031 -8.992188 1.171875 -9.640625 1.171875 -10.421875 C 1.171875 -11.316406 1.390625 -12.085938 1.828125 -12.734375 C 2.273438 -13.390625 2.925781 -13.898438 3.78125 -14.265625 C 4.644531 -14.628906 5.691406 -14.8125 6.921875 -14.8125 C 8.128906 -14.8125 9.171875 -14.628906 10.046875 -14.265625 C 10.921875 -13.910156 11.597656 -13.398438 12.078125 -12.734375 C 12.566406 -12.066406 12.820312 -11.289062 12.84375 -10.40625 L 10 -9.625 C 10 -10.082031 9.925781 -10.484375 9.78125 -10.828125 C 9.632812 -11.171875 9.425781 -11.457031 9.15625 -11.6875 C 8.894531 -11.914062 8.570312 -12.085938 8.1875 -12.203125 C 7.800781 -12.316406 7.363281 -12.375 6.875 -12.375 C 6.3125 -12.375 5.820312 -12.296875 5.40625 -12.140625 C 5 -11.992188 4.6875 -11.796875 4.46875 -11.546875 C 4.257812 -11.304688 4.15625 -11.019531 4.15625 -10.6875 C 4.15625 -10.289062 4.316406 -9.96875 4.640625 -9.71875 C 4.960938 -9.46875 5.394531 -9.257812 5.9375 -9.09375 C 6.488281 -8.925781 7.085938 -8.769531 7.734375 -8.625 C 8.367188 -8.488281 9.007812 -8.320312 9.65625 -8.125 C 10.3125 -7.925781 10.921875 -7.664062 11.484375 -7.34375 C 12.046875 -7.03125 12.5 -6.609375 12.84375 -6.078125 C 13.1875 -5.546875 13.359375 -4.867188 13.359375 -4.046875 C 13.359375 -3.160156 13.125 -2.390625 12.65625 -1.734375 C 12.1875 -1.085938 11.488281 -0.582031 10.5625 -0.21875 C 9.644531 0.132812 8.503906 0.3125 7.140625 0.3125 Z M 7.140625 0.3125 "/></g></g></g><g fill="#ffffff" fill-opacity="1"><g transform="translate(130.51002, 19.129264)"><g><path d="M 4.609375 0 L 4.609375 -14.515625 L 7.796875 -14.515625 L 7.796875 0 Z M 0.390625 -11.84375 L 0.390625 -14.515625 L 12.046875 -14.515625 L 12.046875 -11.84375 Z M 0.390625 -11.84375 "/></g></g></g></g></g></g><g clip-path="url(#d019b53f6c)"><g clip-path="url(#08424d74c6)"><g transform="matrix(1, 0, 0, 1, 51, 0.000000000000005692)"><g clip-path="url(#2dab099984)"><g clip-path="url(#71526e22bf)"><g clip-path="url(#7b184d8658)"><g clip-path="url(#6a11dd0699)"><path fill="#a7dc6a" d="M 1.136719 22.097656 C 1.722656 22.246094 2.609375 22.039062 3.203125 21.96875 C 3.832031 21.886719 4.457031 21.769531 5.074219 21.617188 C 6.359375 21.296875 7.59375 20.835938 8.773438 20.230469 C 11.140625 19.011719 13.230469 17.234375 14.722656 15.023438 C 16.101562 12.972656 16.960938 10.625 18.117188 8.441406 C 19.273438 6.257812 20.832031 4.148438 23.078125 3.121094 C 22.679688 3.300781 22.171875 3.980469 21.871094 4.308594 C 21.519531 4.691406 21.222656 5.128906 20.949219 5.566406 C 20.359375 6.519531 19.914062 7.554688 19.523438 8.601562 C 18.734375 10.722656 18.167969 12.945312 17.0625 14.933594 C 16.070312 16.714844 14.714844 18.296875 13.089844 19.53125 C 10.238281 21.695312 6.542969 22.816406 2.976562 22.429688 C 2.355469 22.363281 1.742188 22.25 1.136719 22.097656 Z M 1.136719 22.097656 " fill-opacity="1" fill-rule="nonzero"/></g></g></g><g clip-path="url(#407e11a2a2)"><g clip-path="url(#dff877d4fa)"><g clip-path="url(#392fa3afa7)"><path fill="#8bd13a" d="M 0.878906 21.839844 C 1.261719 21.832031 1.769531 21.550781 2.128906 21.421875 C 2.527344 21.28125 2.917969 21.125 3.3125 20.976562 C 4.125 20.667969 4.921875 20.320312 5.703125 19.933594 C 7.273438 19.164062 8.753906 18.253906 10.15625 17.210938 C 12.601562 15.390625 14.707031 13.179688 16.480469 10.703125 C 16.214844 11.457031 15.890625 12.1875 15.515625 12.898438 C 14.0625 15.640625 11.804688 17.929688 9.128906 19.496094 C 6.625 20.964844 3.777344 21.761719 0.878906 21.839844 Z M 0.878906 21.839844 " fill-opacity="1" fill-rule="nonzero"/></g></g></g><g clip-path="url(#539484513a)"><g clip-path="url(#67f80d03df)"><g clip-path="url(#7d40a29353)"><path fill="#8bd13a" d="M 16.261719 16.707031 C 16.6875 16.433594 17.097656 15.570312 17.339844 15.132812 C 17.648438 14.566406 17.914062 13.964844 18.160156 13.371094 C 18.6875 12.109375 19.101562 10.804688 19.570312 9.523438 C 20.234375 7.699219 21.023438 5.878906 22.289062 4.402344 C 23.097656 3.460938 24.121094 2.671875 25.277344 2.207031 C 25.714844 2.03125 26.167969 1.917969 26.636719 1.859375 C 27.085938 1.808594 27.609375 1.773438 28.054688 1.882812 C 25.871094 2.605469 24.277344 3.71875 23.019531 5.710938 C 21.84375 7.578125 21.144531 9.699219 20.214844 11.699219 C 19.304688 13.65625 18.109375 15.523438 16.261719 16.707031 Z M 16.261719 16.707031 " fill-opacity="1" fill-rule="nonzero"/></g></g></g></g></g></g></g><g clip-path="url(#4c4bdc1d7e)"><g transform="matrix(1, 0, 0, 1, 14, 21)"><g clip-path="url(#d7dc12e272)"><g fill="#000000" fill-opacity="0.0314"><g transform="translate(1.398066, 7.017158)"><g><path d="M 6.3125 -4.90625 L 4.875 0 L 4.296875 0 L 3.21875 -3.796875 L 2.125 0 L 1.5625 0 L 0.15625 -4.90625 L 0.796875 -4.90625 L 1.875 -1 L 2.984375 -4.90625 L 3.46875 -4.90625 L 4.578125 -1 L 5.671875 -4.90625 Z M 6.3125 -4.90625 "/></g></g></g><g fill="#000000" fill-opacity="0.0314"><g transform="translate(8.998723, 7.017158)"><g><path d="M 0.96875 -1.609375 C 0.96875 -1.390625 1.003906 -1.1875 1.078125 -1 C 1.148438 -0.820312 1.257812 -0.679688 1.40625 -0.578125 C 1.5625 -0.472656 1.753906 -0.421875 1.984375 -0.421875 C 2.203125 -0.421875 2.390625 -0.472656 2.546875 -0.578125 C 2.710938 -0.679688 2.816406 -0.832031 2.859375 -1.03125 L 3.453125 -1.03125 C 3.410156 -0.789062 3.316406 -0.585938 3.171875 -0.421875 C 3.023438 -0.265625 2.847656 -0.144531 2.640625 -0.0625 C 2.429688 0.0195312 2.210938 0.0625 1.984375 0.0625 C 1.660156 0.0625 1.375 -0.00390625 1.125 -0.140625 C 0.875 -0.285156 0.675781 -0.488281 0.53125 -0.75 C 0.394531 -1.019531 0.328125 -1.34375 0.328125 -1.71875 C 0.328125 -2.082031 0.390625 -2.40625 0.515625 -2.6875 C 0.648438 -2.96875 0.835938 -3.1875 1.078125 -3.34375 C 1.316406 -3.5 1.601562 -3.578125 1.9375 -3.578125 C 2.269531 -3.578125 2.550781 -3.503906 2.78125 -3.359375 C 3.007812 -3.210938 3.179688 -3.007812 3.296875 -2.75 C 3.421875 -2.5 3.484375 -2.195312 3.484375 -1.84375 L 3.484375 -1.609375 Z M 0.96875 -2.03125 L 2.875 -2.03125 C 2.875 -2.226562 2.835938 -2.40625 2.765625 -2.5625 C 2.703125 -2.726562 2.597656 -2.859375 2.453125 -2.953125 C 2.316406 -3.046875 2.144531 -3.09375 1.9375 -3.09375 C 1.71875 -3.09375 1.535156 -3.039062 1.390625 -2.9375 C 1.253906 -2.832031 1.148438 -2.695312 1.078125 -2.53125 C 1.003906 -2.375 0.96875 -2.207031 0.96875 -2.03125 Z M 0.96875 -2.03125 "/></g></g></g><g fill="#000000" fill-opacity="0.0314"><g transform="translate(14.248725, 7.017158)"><g><path d="M 2.25 0.0625 C 2.039062 0.0625 1.863281 0.0351562 1.71875 -0.015625 C 1.582031 -0.0664062 1.46875 -0.132812 1.375 -0.21875 C 1.289062 -0.300781 1.222656 -0.382812 1.171875 -0.46875 C 1.117188 -0.5625 1.082031 -0.644531 1.0625 -0.71875 L 1 0 L 0.515625 0 L 0.515625 -5.03125 L 1.15625 -5.03125 L 1.15625 -2.953125 C 1.175781 -3.003906 1.21875 -3.066406 1.28125 -3.140625 C 1.34375 -3.210938 1.421875 -3.28125 1.515625 -3.34375 C 1.609375 -3.40625 1.71875 -3.457031 1.84375 -3.5 C 1.976562 -3.550781 2.128906 -3.578125 2.296875 -3.578125 C 2.734375 -3.578125 3.082031 -3.421875 3.34375 -3.109375 C 3.601562 -2.804688 3.734375 -2.359375 3.734375 -1.765625 C 3.734375 -1.398438 3.675781 -1.078125 3.5625 -0.796875 C 3.457031 -0.523438 3.296875 -0.3125 3.078125 -0.15625 C 2.859375 -0.0078125 2.582031 0.0625 2.25 0.0625 Z M 2.140625 -0.40625 C 2.421875 -0.40625 2.648438 -0.515625 2.828125 -0.734375 C 3.015625 -0.960938 3.109375 -1.316406 3.109375 -1.796875 C 3.109375 -2.203125 3.023438 -2.515625 2.859375 -2.734375 C 2.691406 -2.960938 2.445312 -3.078125 2.125 -3.078125 C 1.894531 -3.078125 1.707031 -3.023438 1.5625 -2.921875 C 1.425781 -2.828125 1.320312 -2.679688 1.25 -2.484375 C 1.1875 -2.296875 1.15625 -2.066406 1.15625 -1.796875 C 1.15625 -1.304688 1.226562 -0.953125 1.375 -0.734375 C 1.53125 -0.515625 1.785156 -0.40625 2.140625 -0.40625 Z M 2.140625 -0.40625 "/></g></g></g><g fill="#000000" fill-opacity="0.0314"><g transform="translate(19.671468, 7.017158)"><g/></g></g><g fill="#000000" fill-opacity="0.0314"><g transform="translate(22.669046, 7.017158)"><g><path d="M 0.640625 -4.90625 C 0.660156 -4.90625 0.707031 -4.90625 0.78125 -4.90625 C 0.863281 -4.90625 0.960938 -4.90625 1.078125 -4.90625 C 1.203125 -4.90625 1.320312 -4.90625 1.4375 -4.90625 C 1.5625 -4.90625 1.675781 -4.898438 1.78125 -4.890625 C 2.382812 -4.878906 2.875 -4.78125 3.25 -4.59375 C 3.625 -4.414062 3.898438 -4.148438 4.078125 -3.796875 C 4.253906 -3.441406 4.34375 -3.003906 4.34375 -2.484375 C 4.34375 -1.941406 4.242188 -1.484375 4.046875 -1.109375 C 3.859375 -0.742188 3.570312 -0.46875 3.1875 -0.28125 C 2.800781 -0.09375 2.3125 0 1.71875 0 L 0.640625 0 Z M 1.296875 -4.359375 L 1.296875 -0.546875 L 1.71875 -0.546875 C 2.125 -0.546875 2.472656 -0.609375 2.765625 -0.734375 C 3.054688 -0.859375 3.28125 -1.0625 3.4375 -1.34375 C 3.59375 -1.625 3.671875 -2 3.671875 -2.46875 C 3.671875 -2.945312 3.59375 -3.320312 3.4375 -3.59375 C 3.289062 -3.863281 3.070312 -4.054688 2.78125 -4.171875 C 2.5 -4.296875 2.15625 -4.359375 1.75 -4.359375 Z M 1.296875 -4.359375 "/></g></g></g><g fill="#000000" fill-opacity="0.0314"><g transform="translate(28.803083, 7.017158)"><g><path d="M 0.96875 -1.609375 C 0.96875 -1.390625 1.003906 -1.1875 1.078125 -1 C 1.148438 -0.820312 1.257812 -0.679688 1.40625 -0.578125 C 1.5625 -0.472656 1.753906 -0.421875 1.984375 -0.421875 C 2.203125 -0.421875 2.390625 -0.472656 2.546875 -0.578125 C 2.710938 -0.679688 2.816406 -0.832031 2.859375 -1.03125 L 3.453125 -1.03125 C 3.410156 -0.789062 3.316406 -0.585938 3.171875 -0.421875 C 3.023438 -0.265625 2.847656 -0.144531 2.640625 -0.0625 C 2.429688 0.0195312 2.210938 0.0625 1.984375 0.0625 C 1.660156 0.0625 1.375 -0.00390625 1.125 -0.140625 C 0.875 -0.285156 0.675781 -0.488281 0.53125 -0.75 C 0.394531 -1.019531 0.328125 -1.34375 0.328125 -1.71875 C 0.328125 -2.082031 0.390625 -2.40625 0.515625 -2.6875 C 0.648438 -2.96875 0.835938 -3.1875 1.078125 -3.34375 C 1.316406 -3.5 1.601562 -3.578125 1.9375 -3.578125 C 2.269531 -3.578125 2.550781 -3.503906 2.78125 -3.359375 C 3.007812 -3.210938 3.179688 -3.007812 3.296875 -2.75 C 3.421875 -2.5 3.484375 -2.195312 3.484375 -1.84375 L 3.484375 -1.609375 Z M 0.96875 -2.03125 L 2.875 -2.03125 C 2.875 -2.226562 2.835938 -2.40625 2.765625 -2.5625 C 2.703125 -2.726562 2.597656 -2.859375 2.453125 -2.953125 C 2.316406 -3.046875 2.144531 -3.09375 1.9375 -3.09375 C 1.71875 -3.09375 1.535156 -3.039062 1.390625 -2.9375 C 1.253906 -2.832031 1.148438 -2.695312 1.078125 -2.53125 C 1.003906 -2.375 0.96875 -2.207031 0.96875 -2.03125 Z M 0.96875 -2.03125 "/></g></g></g><g fill="#000000" fill-opacity="0.0314"><g transform="translate(34.029371, 7.017158)"><g><path d="M 1.765625 0.0625 C 1.515625 0.0625 1.285156 0.0234375 1.078125 -0.046875 C 0.867188 -0.117188 0.695312 -0.234375 0.5625 -0.390625 C 0.425781 -0.554688 0.335938 -0.765625 0.296875 -1.015625 L 0.875 -1.015625 C 0.90625 -0.878906 0.960938 -0.765625 1.046875 -0.671875 C 1.128906 -0.585938 1.234375 -0.519531 1.359375 -0.46875 C 1.484375 -0.425781 1.617188 -0.40625 1.765625 -0.40625 C 1.992188 -0.40625 2.179688 -0.445312 2.328125 -0.53125 C 2.472656 -0.625 2.546875 -0.757812 2.546875 -0.9375 C 2.546875 -1.0625 2.503906 -1.160156 2.421875 -1.234375 C 2.347656 -1.316406 2.234375 -1.378906 2.078125 -1.421875 L 1.359375 -1.59375 C 1.078125 -1.664062 0.847656 -1.773438 0.671875 -1.921875 C 0.503906 -2.066406 0.421875 -2.269531 0.421875 -2.53125 C 0.421875 -2.726562 0.46875 -2.90625 0.5625 -3.0625 C 0.664062 -3.21875 0.816406 -3.34375 1.015625 -3.4375 C 1.210938 -3.53125 1.460938 -3.578125 1.765625 -3.578125 C 2.140625 -3.578125 2.441406 -3.488281 2.671875 -3.3125 C 2.910156 -3.144531 3.035156 -2.894531 3.046875 -2.5625 L 2.484375 -2.5625 C 2.460938 -2.726562 2.390625 -2.859375 2.265625 -2.953125 C 2.140625 -3.054688 1.96875 -3.109375 1.75 -3.109375 C 1.53125 -3.109375 1.347656 -3.0625 1.203125 -2.96875 C 1.066406 -2.882812 1 -2.75 1 -2.5625 C 1 -2.4375 1.046875 -2.335938 1.140625 -2.265625 C 1.242188 -2.191406 1.394531 -2.132812 1.59375 -2.09375 L 2.28125 -1.921875 C 2.445312 -1.867188 2.582031 -1.804688 2.6875 -1.734375 C 2.789062 -1.671875 2.875 -1.597656 2.9375 -1.515625 C 3 -1.429688 3.039062 -1.34375 3.0625 -1.25 C 3.09375 -1.15625 3.109375 -1.0625 3.109375 -0.96875 C 3.109375 -0.757812 3.054688 -0.578125 2.953125 -0.421875 C 2.847656 -0.265625 2.691406 -0.144531 2.484375 -0.0625 C 2.285156 0.0195312 2.046875 0.0625 1.765625 0.0625 Z M 1.765625 0.0625 "/></g></g></g><g fill="#000000" fill-opacity="0.0314"><g transform="translate(38.930506, 7.017158)"><g><path d="M 1.203125 -3.5 L 1.203125 0 L 0.59375 0 L 0.59375 -3.5 Z M 1.203125 -4.90625 L 1.203125 -4.25 L 0.5625 -4.25 L 0.5625 -4.90625 Z M 1.203125 -4.90625 "/></g></g></g><g clip-path="url(#b535c2027c)"><g fill="#000000" fill-opacity="0.0314"><g transform="translate(42.134694, 7.017158)"><g><path d="M 2 1.15625 C 1.445312 1.15625 1.015625 1.078125 0.703125 0.921875 C 0.398438 0.765625 0.25 0.535156 0.25 0.234375 C 0.25 0.109375 0.273438 0.00390625 0.328125 -0.078125 C 0.390625 -0.171875 0.460938 -0.242188 0.546875 -0.296875 C 0.628906 -0.359375 0.703125 -0.40625 0.765625 -0.4375 C 0.835938 -0.476562 0.882812 -0.507812 0.90625 -0.53125 C 0.875 -0.550781 0.828125 -0.578125 0.765625 -0.609375 C 0.710938 -0.640625 0.660156 -0.679688 0.609375 -0.734375 C 0.566406 -0.796875 0.546875 -0.875 0.546875 -0.96875 C 0.546875 -1.070312 0.597656 -1.171875 0.703125 -1.265625 C 0.804688 -1.359375 0.960938 -1.429688 1.171875 -1.484375 C 0.960938 -1.585938 0.800781 -1.722656 0.6875 -1.890625 C 0.570312 -2.066406 0.515625 -2.253906 0.515625 -2.453125 C 0.515625 -2.679688 0.578125 -2.878906 0.703125 -3.046875 C 0.828125 -3.210938 1 -3.335938 1.21875 -3.421875 C 1.445312 -3.515625 1.722656 -3.5625 2.046875 -3.5625 C 2.273438 -3.5625 2.460938 -3.535156 2.609375 -3.484375 C 2.765625 -3.429688 2.910156 -3.351562 3.046875 -3.25 C 3.085938 -3.269531 3.144531 -3.296875 3.21875 -3.328125 C 3.300781 -3.359375 3.390625 -3.394531 3.484375 -3.4375 C 3.578125 -3.476562 3.664062 -3.515625 3.75 -3.546875 C 3.832031 -3.578125 3.898438 -3.601562 3.953125 -3.625 L 3.9375 -3.046875 L 3.328125 -2.921875 C 3.359375 -2.859375 3.382812 -2.78125 3.40625 -2.6875 C 3.425781 -2.601562 3.4375 -2.523438 3.4375 -2.453125 C 3.4375 -2.242188 3.382812 -2.054688 3.28125 -1.890625 C 3.175781 -1.722656 3.015625 -1.585938 2.796875 -1.484375 C 2.578125 -1.390625 2.304688 -1.34375 1.984375 -1.34375 C 1.953125 -1.34375 1.914062 -1.34375 1.875 -1.34375 C 1.832031 -1.34375 1.796875 -1.34375 1.765625 -1.34375 C 1.523438 -1.34375 1.359375 -1.316406 1.265625 -1.265625 C 1.179688 -1.222656 1.140625 -1.171875 1.140625 -1.109375 C 1.140625 -1.046875 1.191406 -1 1.296875 -0.96875 C 1.398438 -0.945312 1.570312 -0.929688 1.8125 -0.921875 C 1.90625 -0.910156 2.015625 -0.898438 2.140625 -0.890625 C 2.273438 -0.890625 2.421875 -0.882812 2.578125 -0.875 C 2.941406 -0.851562 3.222656 -0.757812 3.421875 -0.59375 C 3.617188 -0.425781 3.71875 -0.203125 3.71875 0.078125 C 3.71875 0.398438 3.578125 0.660156 3.296875 0.859375 C 3.015625 1.054688 2.582031 1.15625 2 1.15625 Z M 2.109375 0.75 C 2.429688 0.75 2.675781 0.703125 2.84375 0.609375 C 3.019531 0.515625 3.109375 0.367188 3.109375 0.171875 C 3.109375 0.0234375 3.054688 -0.0859375 2.953125 -0.171875 C 2.847656 -0.265625 2.6875 -0.316406 2.46875 -0.328125 L 1.484375 -0.390625 C 1.398438 -0.398438 1.3125 -0.378906 1.21875 -0.328125 C 1.125 -0.273438 1.039062 -0.207031 0.96875 -0.125 C 0.90625 -0.0390625 0.875 0.0546875 0.875 0.171875 C 0.875 0.347656 0.972656 0.488281 1.171875 0.59375 C 1.378906 0.695312 1.691406 0.75 2.109375 0.75 Z M 2 -1.75 C 2.25 -1.75 2.453125 -1.804688 2.609375 -1.921875 C 2.765625 -2.035156 2.84375 -2.207031 2.84375 -2.4375 C 2.84375 -2.675781 2.765625 -2.859375 2.609375 -2.984375 C 2.453125 -3.109375 2.25 -3.171875 2 -3.171875 C 1.75 -3.171875 1.539062 -3.109375 1.375 -2.984375 C 1.21875 -2.859375 1.140625 -2.675781 1.140625 -2.4375 C 1.140625 -2.21875 1.210938 -2.046875 1.359375 -1.921875 C 1.515625 -1.804688 1.726562 -1.75 2 -1.75 Z M 2 -1.75 "/></g></g></g></g><g fill="#000000" fill-opacity="0.0314"><g transform="translate(47.777607, 7.017158)"><g><path d="M 0.515625 0 L 0.515625 -3.5 L 1.125 -3.5 L 1.125 -3 C 1.175781 -3.09375 1.253906 -3.179688 1.359375 -3.265625 C 1.460938 -3.359375 1.582031 -3.429688 1.71875 -3.484375 C 1.863281 -3.535156 2.03125 -3.5625 2.21875 -3.5625 C 2.445312 -3.5625 2.648438 -3.515625 2.828125 -3.421875 C 3.015625 -3.335938 3.164062 -3.203125 3.28125 -3.015625 C 3.394531 -2.828125 3.453125 -2.585938 3.453125 -2.296875 L 3.453125 0 L 2.828125 0 L 2.828125 -2.234375 C 2.828125 -2.503906 2.753906 -2.703125 2.609375 -2.828125 C 2.460938 -2.960938 2.273438 -3.03125 2.046875 -3.03125 C 1.890625 -3.03125 1.742188 -3.003906 1.609375 -2.953125 C 1.472656 -2.910156 1.359375 -2.835938 1.265625 -2.734375 C 1.179688 -2.628906 1.140625 -2.5 1.140625 -2.34375 L 1.140625 0 Z M 0.515625 0 "/></g></g></g><g fill="#000000" fill-opacity="0.0314"><g transform="translate(53.122446, 7.017158)"><g/></g></g><g fill="#000000" fill-opacity="0.0314"><g transform="translate(56.120025, 7.017158)"><g><path d="M 2.109375 -4.984375 C 2.347656 -4.984375 2.566406 -4.9375 2.765625 -4.84375 C 2.972656 -4.757812 3.140625 -4.640625 3.265625 -4.484375 C 3.390625 -4.328125 3.453125 -4.144531 3.453125 -3.9375 C 3.453125 -3.84375 3.429688 -3.742188 3.390625 -3.640625 C 3.359375 -3.546875 3.300781 -3.441406 3.21875 -3.328125 C 3.132812 -3.210938 3.015625 -3.09375 2.859375 -2.96875 C 2.710938 -2.851562 2.523438 -2.734375 2.296875 -2.609375 L 3.375 -1.34375 C 3.414062 -1.40625 3.46875 -1.5 3.53125 -1.625 C 3.59375 -1.75 3.648438 -1.894531 3.703125 -2.0625 C 3.753906 -2.238281 3.785156 -2.429688 3.796875 -2.640625 L 4.421875 -2.640625 C 4.390625 -2.410156 4.332031 -2.195312 4.25 -2 C 4.175781 -1.800781 4.085938 -1.617188 3.984375 -1.453125 C 3.890625 -1.285156 3.789062 -1.125 3.6875 -0.96875 L 4.515625 0 L 3.78125 0 L 3.296875 -0.546875 C 3.046875 -0.335938 2.789062 -0.1875 2.53125 -0.09375 C 2.28125 -0.0078125 2.023438 0.03125 1.765625 0.03125 C 1.453125 0.03125 1.1875 -0.0195312 0.96875 -0.125 C 0.75 -0.226562 0.582031 -0.375 0.46875 -0.5625 C 0.351562 -0.757812 0.296875 -0.984375 0.296875 -1.234375 C 0.296875 -1.441406 0.335938 -1.632812 0.421875 -1.8125 C 0.503906 -1.988281 0.628906 -2.148438 0.796875 -2.296875 C 0.972656 -2.441406 1.191406 -2.582031 1.453125 -2.71875 C 1.328125 -2.851562 1.21875 -2.984375 1.125 -3.109375 C 1.039062 -3.234375 0.972656 -3.359375 0.921875 -3.484375 C 0.867188 -3.617188 0.84375 -3.757812 0.84375 -3.90625 C 0.84375 -4.101562 0.894531 -4.28125 1 -4.4375 C 1.113281 -4.601562 1.265625 -4.734375 1.453125 -4.828125 C 1.640625 -4.929688 1.859375 -4.984375 2.109375 -4.984375 Z M 2.140625 -4.546875 C 1.921875 -4.546875 1.753906 -4.484375 1.640625 -4.359375 C 1.535156 -4.242188 1.484375 -4.101562 1.484375 -3.9375 C 1.484375 -3.820312 1.503906 -3.707031 1.546875 -3.59375 C 1.597656 -3.488281 1.65625 -3.390625 1.71875 -3.296875 C 1.78125 -3.210938 1.835938 -3.140625 1.890625 -3.078125 L 2.015625 -2.953125 C 2.253906 -3.085938 2.4375 -3.207031 2.5625 -3.3125 C 2.6875 -3.425781 2.769531 -3.53125 2.8125 -3.625 C 2.851562 -3.726562 2.875 -3.828125 2.875 -3.921875 C 2.875 -4.066406 2.835938 -4.1875 2.765625 -4.28125 C 2.691406 -4.375 2.597656 -4.441406 2.484375 -4.484375 C 2.367188 -4.523438 2.253906 -4.546875 2.140625 -4.546875 Z M 1.78125 -2.34375 C 1.539062 -2.207031 1.34375 -2.046875 1.1875 -1.859375 C 1.039062 -1.679688 0.972656 -1.476562 0.984375 -1.25 C 0.992188 -1.082031 1.039062 -0.941406 1.125 -0.828125 C 1.21875 -0.710938 1.332031 -0.625 1.46875 -0.5625 C 1.601562 -0.5 1.75 -0.46875 1.90625 -0.46875 C 2.09375 -0.46875 2.28125 -0.507812 2.46875 -0.59375 C 2.664062 -0.675781 2.835938 -0.789062 2.984375 -0.9375 Z M 1.78125 -2.34375 "/></g></g></g><g fill="#000000" fill-opacity="0.0314"><g transform="translate(62.355678, 7.017158)"><g/></g></g><g fill="#000000" fill-opacity="0.0314"><g transform="translate(65.353256, 7.017158)"><g><path d="M 0.640625 -4.90625 C 0.660156 -4.90625 0.707031 -4.90625 0.78125 -4.90625 C 0.863281 -4.90625 0.960938 -4.90625 1.078125 -4.90625 C 1.203125 -4.90625 1.320312 -4.90625 1.4375 -4.90625 C 1.5625 -4.90625 1.675781 -4.898438 1.78125 -4.890625 C 2.382812 -4.878906 2.875 -4.78125 3.25 -4.59375 C 3.625 -4.414062 3.898438 -4.148438 4.078125 -3.796875 C 4.253906 -3.441406 4.34375 -3.003906 4.34375 -2.484375 C 4.34375 -1.941406 4.242188 -1.484375 4.046875 -1.109375 C 3.859375 -0.742188 3.570312 -0.46875 3.1875 -0.28125 C 2.800781 -0.09375 2.3125 0 1.71875 0 L 0.640625 0 Z M 1.296875 -4.359375 L 1.296875 -0.546875 L 1.71875 -0.546875 C 2.125 -0.546875 2.472656 -0.609375 2.765625 -0.734375 C 3.054688 -0.859375 3.28125 -1.0625 3.4375 -1.34375 C 3.59375 -1.625 3.671875 -2 3.671875 -2.46875 C 3.671875 -2.945312 3.59375 -3.320312 3.4375 -3.59375 C 3.289062 -3.863281 3.070312 -4.054688 2.78125 -4.171875 C 2.5 -4.296875 2.15625 -4.359375 1.75 -4.359375 Z M 1.296875 -4.359375 "/></g></g></g><g fill="#000000" fill-opacity="0.0314"><g transform="translate(71.487293, 7.017158)"><g><path d="M 0.96875 -1.609375 C 0.96875 -1.390625 1.003906 -1.1875 1.078125 -1 C 1.148438 -0.820312 1.257812 -0.679688 1.40625 -0.578125 C 1.5625 -0.472656 1.753906 -0.421875 1.984375 -0.421875 C 2.203125 -0.421875 2.390625 -0.472656 2.546875 -0.578125 C 2.710938 -0.679688 2.816406 -0.832031 2.859375 -1.03125 L 3.453125 -1.03125 C 3.410156 -0.789062 3.316406 -0.585938 3.171875 -0.421875 C 3.023438 -0.265625 2.847656 -0.144531 2.640625 -0.0625 C 2.429688 0.0195312 2.210938 0.0625 1.984375 0.0625 C 1.660156 0.0625 1.375 -0.00390625 1.125 -0.140625 C 0.875 -0.285156 0.675781 -0.488281 0.53125 -0.75 C 0.394531 -1.019531 0.328125 -1.34375 0.328125 -1.71875 C 0.328125 -2.082031 0.390625 -2.40625 0.515625 -2.6875 C 0.648438 -2.96875 0.835938 -3.1875 1.078125 -3.34375 C 1.316406 -3.5 1.601562 -3.578125 1.9375 -3.578125 C 2.269531 -3.578125 2.550781 -3.503906 2.78125 -3.359375 C 3.007812 -3.210938 3.179688 -3.007812 3.296875 -2.75 C 3.421875 -2.5 3.484375 -2.195312 3.484375 -1.84375 L 3.484375 -1.609375 Z M 0.96875 -2.03125 L 2.875 -2.03125 C 2.875 -2.226562 2.835938 -2.40625 2.765625 -2.5625 C 2.703125 -2.726562 2.597656 -2.859375 2.453125 -2.953125 C 2.316406 -3.046875 2.144531 -3.09375 1.9375 -3.09375 C 1.71875 -3.09375 1.535156 -3.039062 1.390625 -2.9375 C 1.253906 -2.832031 1.148438 -2.695312 1.078125 -2.53125 C 1.003906 -2.375 0.96875 -2.207031 0.96875 -2.03125 Z M 0.96875 -2.03125 "/></g></g></g><g fill="#000000" fill-opacity="0.0314"><g transform="translate(76.635687, 7.017158)"><g><path d="M 3.265625 -3.5 L 2 0 L 1.421875 0 L 0.15625 -3.5 L 0.75 -3.5 L 1.671875 -0.78125 L 1.734375 -0.78125 L 2.671875 -3.5 Z M 3.265625 -3.5 "/></g></g></g><g fill="#000000" fill-opacity="0.0314"><g transform="translate(81.353915, 7.017158)"><g><path d="M 0.96875 -1.609375 C 0.96875 -1.390625 1.003906 -1.1875 1.078125 -1 C 1.148438 -0.820312 1.257812 -0.679688 1.40625 -0.578125 C 1.5625 -0.472656 1.753906 -0.421875 1.984375 -0.421875 C 2.203125 -0.421875 2.390625 -0.472656 2.546875 -0.578125 C 2.710938 -0.679688 2.816406 -0.832031 2.859375 -1.03125 L 3.453125 -1.03125 C 3.410156 -0.789062 3.316406 -0.585938 3.171875 -0.421875 C 3.023438 -0.265625 2.847656 -0.144531 2.640625 -0.0625 C 2.429688 0.0195312 2.210938 0.0625 1.984375 0.0625 C 1.660156 0.0625 1.375 -0.00390625 1.125 -0.140625 C 0.875 -0.285156 0.675781 -0.488281 0.53125 -0.75 C 0.394531 -1.019531 0.328125 -1.34375 0.328125 -1.71875 C 0.328125 -2.082031 0.390625 -2.40625 0.515625 -2.6875 C 0.648438 -2.96875 0.835938 -3.1875 1.078125 -3.34375 C 1.316406 -3.5 1.601562 -3.578125 1.9375 -3.578125 C 2.269531 -3.578125 2.550781 -3.503906 2.78125 -3.359375 C 3.007812 -3.210938 3.179688 -3.007812 3.296875 -2.75 C 3.421875 -2.5 3.484375 -2.195312 3.484375 -1.84375 L 3.484375 -1.609375 Z M 0.96875 -2.03125 L 2.875 -2.03125 C 2.875 -2.226562 2.835938 -2.40625 2.765625 -2.5625 C 2.703125 -2.726562 2.597656 -2.859375 2.453125 -2.953125 C 2.316406 -3.046875 2.144531 -3.09375 1.9375 -3.09375 C 1.71875 -3.09375 1.535156 -3.039062 1.390625 -2.9375 C 1.253906 -2.832031 1.148438 -2.695312 1.078125 -2.53125 C 1.003906 -2.375 0.96875 -2.207031 0.96875 -2.03125 Z M 0.96875 -2.03125 "/></g></g></g><g fill="#000000" fill-opacity="0.0314"><g transform="translate(86.603917, 7.017158)"><g><path d="M 1.40625 0.046875 C 1.21875 0.046875 1.0625 0.0195312 0.9375 -0.03125 C 0.820312 -0.0820312 0.734375 -0.148438 0.671875 -0.234375 C 0.609375 -0.328125 0.566406 -0.429688 0.546875 -0.546875 C 0.523438 -0.660156 0.515625 -0.78125 0.515625 -0.90625 L 0.515625 -5.03125 L 1.140625 -5.03125 L 1.140625 -0.96875 C 1.140625 -0.789062 1.171875 -0.65625 1.234375 -0.5625 C 1.304688 -0.476562 1.40625 -0.429688 1.53125 -0.421875 L 1.71875 -0.421875 L 1.71875 -0.015625 C 1.664062 0.00390625 1.609375 0.0195312 1.546875 0.03125 C 1.492188 0.0390625 1.445312 0.046875 1.40625 0.046875 Z M 1.40625 0.046875 "/></g></g></g><g fill="#000000" fill-opacity="0.0314"><g transform="translate(89.997782, 7.017158)"><g><path d="M 1.90625 0.0625 C 1.582031 0.0625 1.300781 -0.00390625 1.0625 -0.140625 C 0.820312 -0.273438 0.632812 -0.476562 0.5 -0.75 C 0.363281 -1.019531 0.296875 -1.347656 0.296875 -1.734375 C 0.296875 -2.097656 0.359375 -2.414062 0.484375 -2.6875 C 0.609375 -2.96875 0.789062 -3.1875 1.03125 -3.34375 C 1.269531 -3.5 1.5625 -3.578125 1.90625 -3.578125 C 2.226562 -3.578125 2.507812 -3.503906 2.75 -3.359375 C 2.988281 -3.222656 3.171875 -3.015625 3.296875 -2.734375 C 3.429688 -2.460938 3.5 -2.128906 3.5 -1.734375 C 3.5 -1.378906 3.4375 -1.066406 3.3125 -0.796875 C 3.195312 -0.523438 3.019531 -0.3125 2.78125 -0.15625 C 2.550781 -0.0078125 2.257812 0.0625 1.90625 0.0625 Z M 1.90625 -0.421875 C 2.125 -0.421875 2.300781 -0.472656 2.4375 -0.578125 C 2.582031 -0.691406 2.691406 -0.847656 2.765625 -1.046875 C 2.847656 -1.242188 2.890625 -1.476562 2.890625 -1.75 C 2.890625 -2 2.851562 -2.222656 2.78125 -2.421875 C 2.71875 -2.628906 2.613281 -2.789062 2.46875 -2.90625 C 2.332031 -3.019531 2.144531 -3.078125 1.90625 -3.078125 C 1.695312 -3.078125 1.519531 -3.023438 1.375 -2.921875 C 1.226562 -2.816406 1.113281 -2.664062 1.03125 -2.46875 C 0.957031 -2.269531 0.921875 -2.03125 0.921875 -1.75 C 0.921875 -1.507812 0.953125 -1.285156 1.015625 -1.078125 C 1.085938 -0.878906 1.195312 -0.71875 1.34375 -0.59375 C 1.488281 -0.476562 1.675781 -0.421875 1.90625 -0.421875 Z M 1.90625 -0.421875 "/></g></g></g><g clip-path="url(#b873a09d9a)"><g fill="#000000" fill-opacity="0.0314"><g transform="translate(95.241014, 7.017158)"><g><path d="M 0.515625 1.09375 L 0.515625 -3.5 L 1.140625 -3.5 L 1.15625 -2.890625 C 1.1875 -2.960938 1.234375 -3.035156 1.296875 -3.109375 C 1.367188 -3.191406 1.453125 -3.265625 1.546875 -3.328125 C 1.640625 -3.398438 1.75 -3.457031 1.875 -3.5 C 2 -3.550781 2.140625 -3.578125 2.296875 -3.578125 C 2.578125 -3.578125 2.820312 -3.507812 3.03125 -3.375 C 3.25 -3.25 3.414062 -3.054688 3.53125 -2.796875 C 3.65625 -2.535156 3.71875 -2.203125 3.71875 -1.796875 C 3.71875 -1.398438 3.660156 -1.0625 3.546875 -0.78125 C 3.429688 -0.5 3.265625 -0.285156 3.046875 -0.140625 C 2.828125 -0.00390625 2.5625 0.0625 2.25 0.0625 C 2.09375 0.0625 1.953125 0.0390625 1.828125 0 C 1.710938 -0.0390625 1.609375 -0.0976562 1.515625 -0.171875 C 1.429688 -0.242188 1.359375 -0.316406 1.296875 -0.390625 C 1.234375 -0.472656 1.1875 -0.554688 1.15625 -0.640625 L 1.15625 1.09375 Z M 2.125 -0.421875 C 2.414062 -0.421875 2.648438 -0.53125 2.828125 -0.75 C 3.015625 -0.96875 3.109375 -1.3125 3.109375 -1.78125 C 3.109375 -2.175781 3.023438 -2.488281 2.859375 -2.71875 C 2.691406 -2.957031 2.445312 -3.078125 2.125 -3.078125 C 1.800781 -3.078125 1.554688 -2.957031 1.390625 -2.71875 C 1.222656 -2.476562 1.140625 -2.164062 1.140625 -1.78125 C 1.140625 -1.53125 1.175781 -1.300781 1.25 -1.09375 C 1.320312 -0.882812 1.429688 -0.71875 1.578125 -0.59375 C 1.734375 -0.476562 1.914062 -0.421875 2.125 -0.421875 Z M 2.125 -0.421875 "/></g></g></g></g><g fill="#000000" fill-opacity="0.0314"><g transform="translate(100.70102, 7.017158)"><g><path d="M 0.515625 0 L 0.515625 -3.5 L 1.125 -3.5 L 1.125 -3 C 1.21875 -3.15625 1.347656 -3.289062 1.515625 -3.40625 C 1.691406 -3.519531 1.914062 -3.578125 2.1875 -3.578125 C 2.3125 -3.578125 2.4375 -3.550781 2.5625 -3.5 C 2.695312 -3.457031 2.820312 -3.394531 2.9375 -3.3125 C 3.050781 -3.226562 3.132812 -3.125 3.1875 -3 C 3.300781 -3.175781 3.445312 -3.316406 3.625 -3.421875 C 3.8125 -3.523438 4.023438 -3.578125 4.265625 -3.578125 C 4.378906 -3.578125 4.503906 -3.554688 4.640625 -3.515625 C 4.773438 -3.484375 4.898438 -3.421875 5.015625 -3.328125 C 5.128906 -3.234375 5.222656 -3.101562 5.296875 -2.9375 C 5.367188 -2.769531 5.40625 -2.554688 5.40625 -2.296875 L 5.40625 0 L 4.78125 0 L 4.78125 -2.234375 C 4.78125 -2.441406 4.742188 -2.601562 4.671875 -2.71875 C 4.609375 -2.84375 4.519531 -2.925781 4.40625 -2.96875 C 4.289062 -3.019531 4.175781 -3.046875 4.0625 -3.046875 C 3.945312 -3.046875 3.828125 -3.019531 3.703125 -2.96875 C 3.585938 -2.925781 3.484375 -2.851562 3.390625 -2.75 C 3.304688 -2.65625 3.265625 -2.519531 3.265625 -2.34375 L 3.265625 0 L 2.640625 0 L 2.640625 -2.421875 C 2.640625 -2.554688 2.601562 -2.671875 2.53125 -2.765625 C 2.457031 -2.859375 2.363281 -2.925781 2.25 -2.96875 C 2.144531 -3.019531 2.039062 -3.046875 1.9375 -3.046875 C 1.8125 -3.046875 1.6875 -3.019531 1.5625 -2.96875 C 1.445312 -2.925781 1.347656 -2.851562 1.265625 -2.75 C 1.179688 -2.644531 1.140625 -2.507812 1.140625 -2.34375 L 1.140625 0 Z M 0.515625 0 "/></g></g></g><g fill="#000000" fill-opacity="0.0314"><g transform="translate(107.996835, 7.017158)"><g><path d="M 0.96875 -1.609375 C 0.96875 -1.390625 1.003906 -1.1875 1.078125 -1 C 1.148438 -0.820312 1.257812 -0.679688 1.40625 -0.578125 C 1.5625 -0.472656 1.753906 -0.421875 1.984375 -0.421875 C 2.203125 -0.421875 2.390625 -0.472656 2.546875 -0.578125 C 2.710938 -0.679688 2.816406 -0.832031 2.859375 -1.03125 L 3.453125 -1.03125 C 3.410156 -0.789062 3.316406 -0.585938 3.171875 -0.421875 C 3.023438 -0.265625 2.847656 -0.144531 2.640625 -0.0625 C 2.429688 0.0195312 2.210938 0.0625 1.984375 0.0625 C 1.660156 0.0625 1.375 -0.00390625 1.125 -0.140625 C 0.875 -0.285156 0.675781 -0.488281 0.53125 -0.75 C 0.394531 -1.019531 0.328125 -1.34375 0.328125 -1.71875 C 0.328125 -2.082031 0.390625 -2.40625 0.515625 -2.6875 C 0.648438 -2.96875 0.835938 -3.1875 1.078125 -3.34375 C 1.316406 -3.5 1.601562 -3.578125 1.9375 -3.578125 C 2.269531 -3.578125 2.550781 -3.503906 2.78125 -3.359375 C 3.007812 -3.210938 3.179688 -3.007812 3.296875 -2.75 C 3.421875 -2.5 3.484375 -2.195312 3.484375 -1.84375 L 3.484375 -1.609375 Z M 0.96875 -2.03125 L 2.875 -2.03125 C 2.875 -2.226562 2.835938 -2.40625 2.765625 -2.5625 C 2.703125 -2.726562 2.597656 -2.859375 2.453125 -2.953125 C 2.316406 -3.046875 2.144531 -3.09375 1.9375 -3.09375 C 1.71875 -3.09375 1.535156 -3.039062 1.390625 -2.9375 C 1.253906 -2.832031 1.148438 -2.695312 1.078125 -2.53125 C 1.003906 -2.375 0.96875 -2.207031 0.96875 -2.03125 Z M 0.96875 -2.03125 "/></g></g></g><g fill="#000000" fill-opacity="0.0314"><g transform="translate(113.246837, 7.017158)"><g><path d="M 0.515625 0 L 0.515625 -3.5 L 1.125 -3.5 L 1.125 -3 C 1.175781 -3.09375 1.253906 -3.179688 1.359375 -3.265625 C 1.460938 -3.359375 1.582031 -3.429688 1.71875 -3.484375 C 1.863281 -3.535156 2.03125 -3.5625 2.21875 -3.5625 C 2.445312 -3.5625 2.648438 -3.515625 2.828125 -3.421875 C 3.015625 -3.335938 3.164062 -3.203125 3.28125 -3.015625 C 3.394531 -2.828125 3.453125 -2.585938 3.453125 -2.296875 L 3.453125 0 L 2.828125 0 L 2.828125 -2.234375 C 2.828125 -2.503906 2.753906 -2.703125 2.609375 -2.828125 C 2.460938 -2.960938 2.273438 -3.03125 2.046875 -3.03125 C 1.890625 -3.03125 1.742188 -3.003906 1.609375 -2.953125 C 1.472656 -2.910156 1.359375 -2.835938 1.265625 -2.734375 C 1.179688 -2.628906 1.140625 -2.5 1.140625 -2.34375 L 1.140625 0 Z M 0.515625 0 "/></g></g></g><g fill="#000000" fill-opacity="0.0314"><g transform="translate(118.378287, 7.017158)"><g><path d="M 2.34375 -3.046875 L 1.5625 -3.046875 L 1.5625 -0.875 C 1.5625 -0.75 1.570312 -0.65625 1.59375 -0.59375 C 1.625 -0.539062 1.671875 -0.503906 1.734375 -0.484375 C 1.796875 -0.472656 1.878906 -0.46875 1.984375 -0.46875 L 2.359375 -0.46875 L 2.359375 -0.046875 C 2.316406 -0.0234375 2.253906 -0.0078125 2.171875 0 C 2.085938 0.0078125 1.976562 0.015625 1.84375 0.015625 C 1.601562 0.015625 1.414062 -0.015625 1.28125 -0.078125 C 1.144531 -0.148438 1.050781 -0.25 1 -0.375 C 0.945312 -0.5 0.921875 -0.65625 0.921875 -0.84375 L 0.921875 -3.046875 L 0.359375 -3.046875 L 0.359375 -3.5 L 0.9375 -3.5 L 1.09375 -4.53125 L 1.5625 -4.53125 L 1.5625 -3.515625 L 2.34375 -3.515625 Z M 2.34375 -3.046875 "/></g></g></g><g fill="#ffffff" fill-opacity="1"><g transform="translate(1.134613, 6.753704)"><g><path d="M 6.3125 -4.90625 L 4.875 0 L 4.296875 0 L 3.21875 -3.796875 L 2.125 0 L 1.5625 0 L 0.15625 -4.90625 L 0.796875 -4.90625 L 1.875 -1 L 2.984375 -4.90625 L 3.46875 -4.90625 L 4.578125 -1 L 5.671875 -4.90625 Z M 6.3125 -4.90625 "/></g></g></g><g fill="#ffffff" fill-opacity="1"><g transform="translate(8.73527, 6.753704)"><g><path d="M 0.96875 -1.609375 C 0.96875 -1.390625 1.003906 -1.1875 1.078125 -1 C 1.148438 -0.820312 1.257812 -0.679688 1.40625 -0.578125 C 1.5625 -0.472656 1.753906 -0.421875 1.984375 -0.421875 C 2.203125 -0.421875 2.390625 -0.472656 2.546875 -0.578125 C 2.710938 -0.679688 2.816406 -0.832031 2.859375 -1.03125 L 3.453125 -1.03125 C 3.410156 -0.789062 3.316406 -0.585938 3.171875 -0.421875 C 3.023438 -0.265625 2.847656 -0.144531 2.640625 -0.0625 C 2.429688 0.0195312 2.210938 0.0625 1.984375 0.0625 C 1.660156 0.0625 1.375 -0.00390625 1.125 -0.140625 C 0.875 -0.285156 0.675781 -0.488281 0.53125 -0.75 C 0.394531 -1.019531 0.328125 -1.34375 0.328125 -1.71875 C 0.328125 -2.082031 0.390625 -2.40625 0.515625 -2.6875 C 0.648438 -2.96875 0.835938 -3.1875 1.078125 -3.34375 C 1.316406 -3.5 1.601562 -3.578125 1.9375 -3.578125 C 2.269531 -3.578125 2.550781 -3.503906 2.78125 -3.359375 C 3.007812 -3.210938 3.179688 -3.007812 3.296875 -2.75 C 3.421875 -2.5 3.484375 -2.195312 3.484375 -1.84375 L 3.484375 -1.609375 Z M 0.96875 -2.03125 L 2.875 -2.03125 C 2.875 -2.226562 2.835938 -2.40625 2.765625 -2.5625 C 2.703125 -2.726562 2.597656 -2.859375 2.453125 -2.953125 C 2.316406 -3.046875 2.144531 -3.09375 1.9375 -3.09375 C 1.71875 -3.09375 1.535156 -3.039062 1.390625 -2.9375 C 1.253906 -2.832031 1.148438 -2.695312 1.078125 -2.53125 C 1.003906 -2.375 0.96875 -2.207031 0.96875 -2.03125 Z M 0.96875 -2.03125 "/></g></g></g><g fill="#ffffff" fill-opacity="1"><g transform="translate(13.985272, 6.753704)"><g><path d="M 2.25 0.0625 C 2.039062 0.0625 1.863281 0.0351562 1.71875 -0.015625 C 1.582031 -0.0664062 1.46875 -0.132812 1.375 -0.21875 C 1.289062 -0.300781 1.222656 -0.382812 1.171875 -0.46875 C 1.117188 -0.5625 1.082031 -0.644531 1.0625 -0.71875 L 1 0 L 0.515625 0 L 0.515625 -5.03125 L 1.15625 -5.03125 L 1.15625 -2.953125 C 1.175781 -3.003906 1.21875 -3.066406 1.28125 -3.140625 C 1.34375 -3.210938 1.421875 -3.28125 1.515625 -3.34375 C 1.609375 -3.40625 1.71875 -3.457031 1.84375 -3.5 C 1.976562 -3.550781 2.128906 -3.578125 2.296875 -3.578125 C 2.734375 -3.578125 3.082031 -3.421875 3.34375 -3.109375 C 3.601562 -2.804688 3.734375 -2.359375 3.734375 -1.765625 C 3.734375 -1.398438 3.675781 -1.078125 3.5625 -0.796875 C 3.457031 -0.523438 3.296875 -0.3125 3.078125 -0.15625 C 2.859375 -0.0078125 2.582031 0.0625 2.25 0.0625 Z M 2.140625 -0.40625 C 2.421875 -0.40625 2.648438 -0.515625 2.828125 -0.734375 C 3.015625 -0.960938 3.109375 -1.316406 3.109375 -1.796875 C 3.109375 -2.203125 3.023438 -2.515625 2.859375 -2.734375 C 2.691406 -2.960938 2.445312 -3.078125 2.125 -3.078125 C 1.894531 -3.078125 1.707031 -3.023438 1.5625 -2.921875 C 1.425781 -2.828125 1.320312 -2.679688 1.25 -2.484375 C 1.1875 -2.296875 1.15625 -2.066406 1.15625 -1.796875 C 1.15625 -1.304688 1.226562 -0.953125 1.375 -0.734375 C 1.53125 -0.515625 1.785156 -0.40625 2.140625 -0.40625 Z M 2.140625 -0.40625 "/></g></g></g><g fill="#ffffff" fill-opacity="1"><g transform="translate(19.408015, 6.753704)"><g/></g></g><g fill="#ffffff" fill-opacity="1"><g transform="translate(22.405594, 6.753704)"><g><path d="M 0.640625 -4.90625 C 0.660156 -4.90625 0.707031 -4.90625 0.78125 -4.90625 C 0.863281 -4.90625 0.960938 -4.90625 1.078125 -4.90625 C 1.203125 -4.90625 1.320312 -4.90625 1.4375 -4.90625 C 1.5625 -4.90625 1.675781 -4.898438 1.78125 -4.890625 C 2.382812 -4.878906 2.875 -4.78125 3.25 -4.59375 C 3.625 -4.414062 3.898438 -4.148438 4.078125 -3.796875 C 4.253906 -3.441406 4.34375 -3.003906 4.34375 -2.484375 C 4.34375 -1.941406 4.242188 -1.484375 4.046875 -1.109375 C 3.859375 -0.742188 3.570312 -0.46875 3.1875 -0.28125 C 2.800781 -0.09375 2.3125 0 1.71875 0 L 0.640625 0 Z M 1.296875 -4.359375 L 1.296875 -0.546875 L 1.71875 -0.546875 C 2.125 -0.546875 2.472656 -0.609375 2.765625 -0.734375 C 3.054688 -0.859375 3.28125 -1.0625 3.4375 -1.34375 C 3.59375 -1.625 3.671875 -2 3.671875 -2.46875 C 3.671875 -2.945312 3.59375 -3.320312 3.4375 -3.59375 C 3.289062 -3.863281 3.070312 -4.054688 2.78125 -4.171875 C 2.5 -4.296875 2.15625 -4.359375 1.75 -4.359375 Z M 1.296875 -4.359375 "/></g></g></g><g fill="#ffffff" fill-opacity="1"><g transform="translate(28.53963, 6.753704)"><g><path d="M 0.96875 -1.609375 C 0.96875 -1.390625 1.003906 -1.1875 1.078125 -1 C 1.148438 -0.820312 1.257812 -0.679688 1.40625 -0.578125 C 1.5625 -0.472656 1.753906 -0.421875 1.984375 -0.421875 C 2.203125 -0.421875 2.390625 -0.472656 2.546875 -0.578125 C 2.710938 -0.679688 2.816406 -0.832031 2.859375 -1.03125 L 3.453125 -1.03125 C 3.410156 -0.789062 3.316406 -0.585938 3.171875 -0.421875 C 3.023438 -0.265625 2.847656 -0.144531 2.640625 -0.0625 C 2.429688 0.0195312 2.210938 0.0625 1.984375 0.0625 C 1.660156 0.0625 1.375 -0.00390625 1.125 -0.140625 C 0.875 -0.285156 0.675781 -0.488281 0.53125 -0.75 C 0.394531 -1.019531 0.328125 -1.34375 0.328125 -1.71875 C 0.328125 -2.082031 0.390625 -2.40625 0.515625 -2.6875 C 0.648438 -2.96875 0.835938 -3.1875 1.078125 -3.34375 C 1.316406 -3.5 1.601562 -3.578125 1.9375 -3.578125 C 2.269531 -3.578125 2.550781 -3.503906 2.78125 -3.359375 C 3.007812 -3.210938 3.179688 -3.007812 3.296875 -2.75 C 3.421875 -2.5 3.484375 -2.195312 3.484375 -1.84375 L 3.484375 -1.609375 Z M 0.96875 -2.03125 L 2.875 -2.03125 C 2.875 -2.226562 2.835938 -2.40625 2.765625 -2.5625 C 2.703125 -2.726562 2.597656 -2.859375 2.453125 -2.953125 C 2.316406 -3.046875 2.144531 -3.09375 1.9375 -3.09375 C 1.71875 -3.09375 1.535156 -3.039062 1.390625 -2.9375 C 1.253906 -2.832031 1.148438 -2.695312 1.078125 -2.53125 C 1.003906 -2.375 0.96875 -2.207031 0.96875 -2.03125 Z M 0.96875 -2.03125 "/></g></g></g><g fill="#ffffff" fill-opacity="1"><g transform="translate(33.765918, 6.753704)"><g><path d="M 1.765625 0.0625 C 1.515625 0.0625 1.285156 0.0234375 1.078125 -0.046875 C 0.867188 -0.117188 0.695312 -0.234375 0.5625 -0.390625 C 0.425781 -0.554688 0.335938 -0.765625 0.296875 -1.015625 L 0.875 -1.015625 C 0.90625 -0.878906 0.960938 -0.765625 1.046875 -0.671875 C 1.128906 -0.585938 1.234375 -0.519531 1.359375 -0.46875 C 1.484375 -0.425781 1.617188 -0.40625 1.765625 -0.40625 C 1.992188 -0.40625 2.179688 -0.445312 2.328125 -0.53125 C 2.472656 -0.625 2.546875 -0.757812 2.546875 -0.9375 C 2.546875 -1.0625 2.503906 -1.160156 2.421875 -1.234375 C 2.347656 -1.316406 2.234375 -1.378906 2.078125 -1.421875 L 1.359375 -1.59375 C 1.078125 -1.664062 0.847656 -1.773438 0.671875 -1.921875 C 0.503906 -2.066406 0.421875 -2.269531 0.421875 -2.53125 C 0.421875 -2.726562 0.46875 -2.90625 0.5625 -3.0625 C 0.664062 -3.21875 0.816406 -3.34375 1.015625 -3.4375 C 1.210938 -3.53125 1.460938 -3.578125 1.765625 -3.578125 C 2.140625 -3.578125 2.441406 -3.488281 2.671875 -3.3125 C 2.910156 -3.144531 3.035156 -2.894531 3.046875 -2.5625 L 2.484375 -2.5625 C 2.460938 -2.726562 2.390625 -2.859375 2.265625 -2.953125 C 2.140625 -3.054688 1.96875 -3.109375 1.75 -3.109375 C 1.53125 -3.109375 1.347656 -3.0625 1.203125 -2.96875 C 1.066406 -2.882812 1 -2.75 1 -2.5625 C 1 -2.4375 1.046875 -2.335938 1.140625 -2.265625 C 1.242188 -2.191406 1.394531 -2.132812 1.59375 -2.09375 L 2.28125 -1.921875 C 2.445312 -1.867188 2.582031 -1.804688 2.6875 -1.734375 C 2.789062 -1.671875 2.875 -1.597656 2.9375 -1.515625 C 3 -1.429688 3.039062 -1.34375 3.0625 -1.25 C 3.09375 -1.15625 3.109375 -1.0625 3.109375 -0.96875 C 3.109375 -0.757812 3.054688 -0.578125 2.953125 -0.421875 C 2.847656 -0.265625 2.691406 -0.144531 2.484375 -0.0625 C 2.285156 0.0195312 2.046875 0.0625 1.765625 0.0625 Z M 1.765625 0.0625 "/></g></g></g><g fill="#ffffff" fill-opacity="1"><g transform="translate(38.667053, 6.753704)"><g><path d="M 1.203125 -3.5 L 1.203125 0 L 0.59375 0 L 0.59375 -3.5 Z M 1.203125 -4.90625 L 1.203125 -4.25 L 0.5625 -4.25 L 0.5625 -4.90625 Z M 1.203125 -4.90625 "/></g></g></g><g fill="#ffffff" fill-opacity="1"><g transform="translate(41.871242, 6.753704)"><g><path d="M 2 1.15625 C 1.445312 1.15625 1.015625 1.078125 0.703125 0.921875 C 0.398438 0.765625 0.25 0.535156 0.25 0.234375 C 0.25 0.109375 0.273438 0.00390625 0.328125 -0.078125 C 0.390625 -0.171875 0.460938 -0.242188 0.546875 -0.296875 C 0.628906 -0.359375 0.703125 -0.40625 0.765625 -0.4375 C 0.835938 -0.476562 0.882812 -0.507812 0.90625 -0.53125 C 0.875 -0.550781 0.828125 -0.578125 0.765625 -0.609375 C 0.710938 -0.640625 0.660156 -0.679688 0.609375 -0.734375 C 0.566406 -0.796875 0.546875 -0.875 0.546875 -0.96875 C 0.546875 -1.070312 0.597656 -1.171875 0.703125 -1.265625 C 0.804688 -1.359375 0.960938 -1.429688 1.171875 -1.484375 C 0.960938 -1.585938 0.800781 -1.722656 0.6875 -1.890625 C 0.570312 -2.066406 0.515625 -2.253906 0.515625 -2.453125 C 0.515625 -2.679688 0.578125 -2.878906 0.703125 -3.046875 C 0.828125 -3.210938 1 -3.335938 1.21875 -3.421875 C 1.445312 -3.515625 1.722656 -3.5625 2.046875 -3.5625 C 2.273438 -3.5625 2.460938 -3.535156 2.609375 -3.484375 C 2.765625 -3.429688 2.910156 -3.351562 3.046875 -3.25 C 3.085938 -3.269531 3.144531 -3.296875 3.21875 -3.328125 C 3.300781 -3.359375 3.390625 -3.394531 3.484375 -3.4375 C 3.578125 -3.476562 3.664062 -3.515625 3.75 -3.546875 C 3.832031 -3.578125 3.898438 -3.601562 3.953125 -3.625 L 3.9375 -3.046875 L 3.328125 -2.921875 C 3.359375 -2.859375 3.382812 -2.78125 3.40625 -2.6875 C 3.425781 -2.601562 3.4375 -2.523438 3.4375 -2.453125 C 3.4375 -2.242188 3.382812 -2.054688 3.28125 -1.890625 C 3.175781 -1.722656 3.015625 -1.585938 2.796875 -1.484375 C 2.578125 -1.390625 2.304688 -1.34375 1.984375 -1.34375 C 1.953125 -1.34375 1.914062 -1.34375 1.875 -1.34375 C 1.832031 -1.34375 1.796875 -1.34375 1.765625 -1.34375 C 1.523438 -1.34375 1.359375 -1.316406 1.265625 -1.265625 C 1.179688 -1.222656 1.140625 -1.171875 1.140625 -1.109375 C 1.140625 -1.046875 1.191406 -1 1.296875 -0.96875 C 1.398438 -0.945312 1.570312 -0.929688 1.8125 -0.921875 C 1.90625 -0.910156 2.015625 -0.898438 2.140625 -0.890625 C 2.273438 -0.890625 2.421875 -0.882812 2.578125 -0.875 C 2.941406 -0.851562 3.222656 -0.757812 3.421875 -0.59375 C 3.617188 -0.425781 3.71875 -0.203125 3.71875 0.078125 C 3.71875 0.398438 3.578125 0.660156 3.296875 0.859375 C 3.015625 1.054688 2.582031 1.15625 2 1.15625 Z M 2.109375 0.75 C 2.429688 0.75 2.675781 0.703125 2.84375 0.609375 C 3.019531 0.515625 3.109375 0.367188 3.109375 0.171875 C 3.109375 0.0234375 3.054688 -0.0859375 2.953125 -0.171875 C 2.847656 -0.265625 2.6875 -0.316406 2.46875 -0.328125 L 1.484375 -0.390625 C 1.398438 -0.398438 1.3125 -0.378906 1.21875 -0.328125 C 1.125 -0.273438 1.039062 -0.207031 0.96875 -0.125 C 0.90625 -0.0390625 0.875 0.0546875 0.875 0.171875 C 0.875 0.347656 0.972656 0.488281 1.171875 0.59375 C 1.378906 0.695312 1.691406 0.75 2.109375 0.75 Z M 2 -1.75 C 2.25 -1.75 2.453125 -1.804688 2.609375 -1.921875 C 2.765625 -2.035156 2.84375 -2.207031 2.84375 -2.4375 C 2.84375 -2.675781 2.765625 -2.859375 2.609375 -2.984375 C 2.453125 -3.109375 2.25 -3.171875 2 -3.171875 C 1.75 -3.171875 1.539062 -3.109375 1.375 -2.984375 C 1.21875 -2.859375 1.140625 -2.675781 1.140625 -2.4375 C 1.140625 -2.21875 1.210938 -2.046875 1.359375 -1.921875 C 1.515625 -1.804688 1.726562 -1.75 2 -1.75 Z M 2 -1.75 "/></g></g></g><g fill="#ffffff" fill-opacity="1"><g transform="translate(47.514154, 6.753704)"><g><path d="M 0.515625 0 L 0.515625 -3.5 L 1.125 -3.5 L 1.125 -3 C 1.175781 -3.09375 1.253906 -3.179688 1.359375 -3.265625 C 1.460938 -3.359375 1.582031 -3.429688 1.71875 -3.484375 C 1.863281 -3.535156 2.03125 -3.5625 2.21875 -3.5625 C 2.445312 -3.5625 2.648438 -3.515625 2.828125 -3.421875 C 3.015625 -3.335938 3.164062 -3.203125 3.28125 -3.015625 C 3.394531 -2.828125 3.453125 -2.585938 3.453125 -2.296875 L 3.453125 0 L 2.828125 0 L 2.828125 -2.234375 C 2.828125 -2.503906 2.753906 -2.703125 2.609375 -2.828125 C 2.460938 -2.960938 2.273438 -3.03125 2.046875 -3.03125 C 1.890625 -3.03125 1.742188 -3.003906 1.609375 -2.953125 C 1.472656 -2.910156 1.359375 -2.835938 1.265625 -2.734375 C 1.179688 -2.628906 1.140625 -2.5 1.140625 -2.34375 L 1.140625 0 Z M 0.515625 0 "/></g></g></g><g fill="#ffffff" fill-opacity="1"><g transform="translate(52.858994, 6.753704)"><g/></g></g><g fill="#ffffff" fill-opacity="1"><g transform="translate(55.856572, 6.753704)"><g><path d="M 2.109375 -4.984375 C 2.347656 -4.984375 2.566406 -4.9375 2.765625 -4.84375 C 2.972656 -4.757812 3.140625 -4.640625 3.265625 -4.484375 C 3.390625 -4.328125 3.453125 -4.144531 3.453125 -3.9375 C 3.453125 -3.84375 3.429688 -3.742188 3.390625 -3.640625 C 3.359375 -3.546875 3.300781 -3.441406 3.21875 -3.328125 C 3.132812 -3.210938 3.015625 -3.09375 2.859375 -2.96875 C 2.710938 -2.851562 2.523438 -2.734375 2.296875 -2.609375 L 3.375 -1.34375 C 3.414062 -1.40625 3.46875 -1.5 3.53125 -1.625 C 3.59375 -1.75 3.648438 -1.894531 3.703125 -2.0625 C 3.753906 -2.238281 3.785156 -2.429688 3.796875 -2.640625 L 4.421875 -2.640625 C 4.390625 -2.410156 4.332031 -2.195312 4.25 -2 C 4.175781 -1.800781 4.085938 -1.617188 3.984375 -1.453125 C 3.890625 -1.285156 3.789062 -1.125 3.6875 -0.96875 L 4.515625 0 L 3.78125 0 L 3.296875 -0.546875 C 3.046875 -0.335938 2.789062 -0.1875 2.53125 -0.09375 C 2.28125 -0.0078125 2.023438 0.03125 1.765625 0.03125 C 1.453125 0.03125 1.1875 -0.0195312 0.96875 -0.125 C 0.75 -0.226562 0.582031 -0.375 0.46875 -0.5625 C 0.351562 -0.757812 0.296875 -0.984375 0.296875 -1.234375 C 0.296875 -1.441406 0.335938 -1.632812 0.421875 -1.8125 C 0.503906 -1.988281 0.628906 -2.148438 0.796875 -2.296875 C 0.972656 -2.441406 1.191406 -2.582031 1.453125 -2.71875 C 1.328125 -2.851562 1.21875 -2.984375 1.125 -3.109375 C 1.039062 -3.234375 0.972656 -3.359375 0.921875 -3.484375 C 0.867188 -3.617188 0.84375 -3.757812 0.84375 -3.90625 C 0.84375 -4.101562 0.894531 -4.28125 1 -4.4375 C 1.113281 -4.601562 1.265625 -4.734375 1.453125 -4.828125 C 1.640625 -4.929688 1.859375 -4.984375 2.109375 -4.984375 Z M 2.140625 -4.546875 C 1.921875 -4.546875 1.753906 -4.484375 1.640625 -4.359375 C 1.535156 -4.242188 1.484375 -4.101562 1.484375 -3.9375 C 1.484375 -3.820312 1.503906 -3.707031 1.546875 -3.59375 C 1.597656 -3.488281 1.65625 -3.390625 1.71875 -3.296875 C 1.78125 -3.210938 1.835938 -3.140625 1.890625 -3.078125 L 2.015625 -2.953125 C 2.253906 -3.085938 2.4375 -3.207031 2.5625 -3.3125 C 2.6875 -3.425781 2.769531 -3.53125 2.8125 -3.625 C 2.851562 -3.726562 2.875 -3.828125 2.875 -3.921875 C 2.875 -4.066406 2.835938 -4.1875 2.765625 -4.28125 C 2.691406 -4.375 2.597656 -4.441406 2.484375 -4.484375 C 2.367188 -4.523438 2.253906 -4.546875 2.140625 -4.546875 Z M 1.78125 -2.34375 C 1.539062 -2.207031 1.34375 -2.046875 1.1875 -1.859375 C 1.039062 -1.679688 0.972656 -1.476562 0.984375 -1.25 C 0.992188 -1.082031 1.039062 -0.941406 1.125 -0.828125 C 1.21875 -0.710938 1.332031 -0.625 1.46875 -0.5625 C 1.601562 -0.5 1.75 -0.46875 1.90625 -0.46875 C 2.09375 -0.46875 2.28125 -0.507812 2.46875 -0.59375 C 2.664062 -0.675781 2.835938 -0.789062 2.984375 -0.9375 Z M 1.78125 -2.34375 "/></g></g></g><g fill="#ffffff" fill-opacity="1"><g transform="translate(62.092225, 6.753704)"><g/></g></g><g fill="#ffffff" fill-opacity="1"><g transform="translate(65.089804, 6.753704)"><g><path d="M 0.640625 -4.90625 C 0.660156 -4.90625 0.707031 -4.90625 0.78125 -4.90625 C 0.863281 -4.90625 0.960938 -4.90625 1.078125 -4.90625 C 1.203125 -4.90625 1.320312 -4.90625 1.4375 -4.90625 C 1.5625 -4.90625 1.675781 -4.898438 1.78125 -4.890625 C 2.382812 -4.878906 2.875 -4.78125 3.25 -4.59375 C 3.625 -4.414062 3.898438 -4.148438 4.078125 -3.796875 C 4.253906 -3.441406 4.34375 -3.003906 4.34375 -2.484375 C 4.34375 -1.941406 4.242188 -1.484375 4.046875 -1.109375 C 3.859375 -0.742188 3.570312 -0.46875 3.1875 -0.28125 C 2.800781 -0.09375 2.3125 0 1.71875 0 L 0.640625 0 Z M 1.296875 -4.359375 L 1.296875 -0.546875 L 1.71875 -0.546875 C 2.125 -0.546875 2.472656 -0.609375 2.765625 -0.734375 C 3.054688 -0.859375 3.28125 -1.0625 3.4375 -1.34375 C 3.59375 -1.625 3.671875 -2 3.671875 -2.46875 C 3.671875 -2.945312 3.59375 -3.320312 3.4375 -3.59375 C 3.289062 -3.863281 3.070312 -4.054688 2.78125 -4.171875 C 2.5 -4.296875 2.15625 -4.359375 1.75 -4.359375 Z M 1.296875 -4.359375 "/></g></g></g><g fill="#ffffff" fill-opacity="1"><g transform="translate(71.22384, 6.753704)"><g><path d="M 0.96875 -1.609375 C 0.96875 -1.390625 1.003906 -1.1875 1.078125 -1 C 1.148438 -0.820312 1.257812 -0.679688 1.40625 -0.578125 C 1.5625 -0.472656 1.753906 -0.421875 1.984375 -0.421875 C 2.203125 -0.421875 2.390625 -0.472656 2.546875 -0.578125 C 2.710938 -0.679688 2.816406 -0.832031 2.859375 -1.03125 L 3.453125 -1.03125 C 3.410156 -0.789062 3.316406 -0.585938 3.171875 -0.421875 C 3.023438 -0.265625 2.847656 -0.144531 2.640625 -0.0625 C 2.429688 0.0195312 2.210938 0.0625 1.984375 0.0625 C 1.660156 0.0625 1.375 -0.00390625 1.125 -0.140625 C 0.875 -0.285156 0.675781 -0.488281 0.53125 -0.75 C 0.394531 -1.019531 0.328125 -1.34375 0.328125 -1.71875 C 0.328125 -2.082031 0.390625 -2.40625 0.515625 -2.6875 C 0.648438 -2.96875 0.835938 -3.1875 1.078125 -3.34375 C 1.316406 -3.5 1.601562 -3.578125 1.9375 -3.578125 C 2.269531 -3.578125 2.550781 -3.503906 2.78125 -3.359375 C 3.007812 -3.210938 3.179688 -3.007812 3.296875 -2.75 C 3.421875 -2.5 3.484375 -2.195312 3.484375 -1.84375 L 3.484375 -1.609375 Z M 0.96875 -2.03125 L 2.875 -2.03125 C 2.875 -2.226562 2.835938 -2.40625 2.765625 -2.5625 C 2.703125 -2.726562 2.597656 -2.859375 2.453125 -2.953125 C 2.316406 -3.046875 2.144531 -3.09375 1.9375 -3.09375 C 1.71875 -3.09375 1.535156 -3.039062 1.390625 -2.9375 C 1.253906 -2.832031 1.148438 -2.695312 1.078125 -2.53125 C 1.003906 -2.375 0.96875 -2.207031 0.96875 -2.03125 Z M 0.96875 -2.03125 "/></g></g></g><g fill="#ffffff" fill-opacity="1"><g transform="translate(76.372234, 6.753704)"><g><path d="M 3.265625 -3.5 L 2 0 L 1.421875 0 L 0.15625 -3.5 L 0.75 -3.5 L 1.671875 -0.78125 L 1.734375 -0.78125 L 2.671875 -3.5 Z M 3.265625 -3.5 "/></g></g></g><g fill="#ffffff" fill-opacity="1"><g transform="translate(81.090463, 6.753704)"><g><path d="M 0.96875 -1.609375 C 0.96875 -1.390625 1.003906 -1.1875 1.078125 -1 C 1.148438 -0.820312 1.257812 -0.679688 1.40625 -0.578125 C 1.5625 -0.472656 1.753906 -0.421875 1.984375 -0.421875 C 2.203125 -0.421875 2.390625 -0.472656 2.546875 -0.578125 C 2.710938 -0.679688 2.816406 -0.832031 2.859375 -1.03125 L 3.453125 -1.03125 C 3.410156 -0.789062 3.316406 -0.585938 3.171875 -0.421875 C 3.023438 -0.265625 2.847656 -0.144531 2.640625 -0.0625 C 2.429688 0.0195312 2.210938 0.0625 1.984375 0.0625 C 1.660156 0.0625 1.375 -0.00390625 1.125 -0.140625 C 0.875 -0.285156 0.675781 -0.488281 0.53125 -0.75 C 0.394531 -1.019531 0.328125 -1.34375 0.328125 -1.71875 C 0.328125 -2.082031 0.390625 -2.40625 0.515625 -2.6875 C 0.648438 -2.96875 0.835938 -3.1875 1.078125 -3.34375 C 1.316406 -3.5 1.601562 -3.578125 1.9375 -3.578125 C 2.269531 -3.578125 2.550781 -3.503906 2.78125 -3.359375 C 3.007812 -3.210938 3.179688 -3.007812 3.296875 -2.75 C 3.421875 -2.5 3.484375 -2.195312 3.484375 -1.84375 L 3.484375 -1.609375 Z M 0.96875 -2.03125 L 2.875 -2.03125 C 2.875 -2.226562 2.835938 -2.40625 2.765625 -2.5625 C 2.703125 -2.726562 2.597656 -2.859375 2.453125 -2.953125 C 2.316406 -3.046875 2.144531 -3.09375 1.9375 -3.09375 C 1.71875 -3.09375 1.535156 -3.039062 1.390625 -2.9375 C 1.253906 -2.832031 1.148438 -2.695312 1.078125 -2.53125 C 1.003906 -2.375 0.96875 -2.207031 0.96875 -2.03125 Z M 0.96875 -2.03125 "/></g></g></g><g fill="#ffffff" fill-opacity="1"><g transform="translate(86.340464, 6.753704)"><g><path d="M 1.40625 0.046875 C 1.21875 0.046875 1.0625 0.0195312 0.9375 -0.03125 C 0.820312 -0.0820312 0.734375 -0.148438 0.671875 -0.234375 C 0.609375 -0.328125 0.566406 -0.429688 0.546875 -0.546875 C 0.523438 -0.660156 0.515625 -0.78125 0.515625 -0.90625 L 0.515625 -5.03125 L 1.140625 -5.03125 L 1.140625 -0.96875 C 1.140625 -0.789062 1.171875 -0.65625 1.234375 -0.5625 C 1.304688 -0.476562 1.40625 -0.429688 1.53125 -0.421875 L 1.71875 -0.421875 L 1.71875 -0.015625 C 1.664062 0.00390625 1.609375 0.0195312 1.546875 0.03125 C 1.492188 0.0390625 1.445312 0.046875 1.40625 0.046875 Z M 1.40625 0.046875 "/></g></g></g><g fill="#ffffff" fill-opacity="1"><g transform="translate(89.734329, 6.753704)"><g><path d="M 1.90625 0.0625 C 1.582031 0.0625 1.300781 -0.00390625 1.0625 -0.140625 C 0.820312 -0.273438 0.632812 -0.476562 0.5 -0.75 C 0.363281 -1.019531 0.296875 -1.347656 0.296875 -1.734375 C 0.296875 -2.097656 0.359375 -2.414062 0.484375 -2.6875 C 0.609375 -2.96875 0.789062 -3.1875 1.03125 -3.34375 C 1.269531 -3.5 1.5625 -3.578125 1.90625 -3.578125 C 2.226562 -3.578125 2.507812 -3.503906 2.75 -3.359375 C 2.988281 -3.222656 3.171875 -3.015625 3.296875 -2.734375 C 3.429688 -2.460938 3.5 -2.128906 3.5 -1.734375 C 3.5 -1.378906 3.4375 -1.066406 3.3125 -0.796875 C 3.195312 -0.523438 3.019531 -0.3125 2.78125 -0.15625 C 2.550781 -0.0078125 2.257812 0.0625 1.90625 0.0625 Z M 1.90625 -0.421875 C 2.125 -0.421875 2.300781 -0.472656 2.4375 -0.578125 C 2.582031 -0.691406 2.691406 -0.847656 2.765625 -1.046875 C 2.847656 -1.242188 2.890625 -1.476562 2.890625 -1.75 C 2.890625 -2 2.851562 -2.222656 2.78125 -2.421875 C 2.71875 -2.628906 2.613281 -2.789062 2.46875 -2.90625 C 2.332031 -3.019531 2.144531 -3.078125 1.90625 -3.078125 C 1.695312 -3.078125 1.519531 -3.023438 1.375 -2.921875 C 1.226562 -2.816406 1.113281 -2.664062 1.03125 -2.46875 C 0.957031 -2.269531 0.921875 -2.03125 0.921875 -1.75 C 0.921875 -1.507812 0.953125 -1.285156 1.015625 -1.078125 C 1.085938 -0.878906 1.195312 -0.71875 1.34375 -0.59375 C 1.488281 -0.476562 1.675781 -0.421875 1.90625 -0.421875 Z M 1.90625 -0.421875 "/></g></g></g><g fill="#ffffff" fill-opacity="1"><g transform="translate(94.977561, 6.753704)"><g><path d="M 0.515625 1.09375 L 0.515625 -3.5 L 1.140625 -3.5 L 1.15625 -2.890625 C 1.1875 -2.960938 1.234375 -3.035156 1.296875 -3.109375 C 1.367188 -3.191406 1.453125 -3.265625 1.546875 -3.328125 C 1.640625 -3.398438 1.75 -3.457031 1.875 -3.5 C 2 -3.550781 2.140625 -3.578125 2.296875 -3.578125 C 2.578125 -3.578125 2.820312 -3.507812 3.03125 -3.375 C 3.25 -3.25 3.414062 -3.054688 3.53125 -2.796875 C 3.65625 -2.535156 3.71875 -2.203125 3.71875 -1.796875 C 3.71875 -1.398438 3.660156 -1.0625 3.546875 -0.78125 C 3.429688 -0.5 3.265625 -0.285156 3.046875 -0.140625 C 2.828125 -0.00390625 2.5625 0.0625 2.25 0.0625 C 2.09375 0.0625 1.953125 0.0390625 1.828125 0 C 1.710938 -0.0390625 1.609375 -0.0976562 1.515625 -0.171875 C 1.429688 -0.242188 1.359375 -0.316406 1.296875 -0.390625 C 1.234375 -0.472656 1.1875 -0.554688 1.15625 -0.640625 L 1.15625 1.09375 Z M 2.125 -0.421875 C 2.414062 -0.421875 2.648438 -0.53125 2.828125 -0.75 C 3.015625 -0.96875 3.109375 -1.3125 3.109375 -1.78125 C 3.109375 -2.175781 3.023438 -2.488281 2.859375 -2.71875 C 2.691406 -2.957031 2.445312 -3.078125 2.125 -3.078125 C 1.800781 -3.078125 1.554688 -2.957031 1.390625 -2.71875 C 1.222656 -2.476562 1.140625 -2.164062 1.140625 -1.78125 C 1.140625 -1.53125 1.175781 -1.300781 1.25 -1.09375 C 1.320312 -0.882812 1.429688 -0.71875 1.578125 -0.59375 C 1.734375 -0.476562 1.914062 -0.421875 2.125 -0.421875 Z M 2.125 -0.421875 "/></g></g></g><g fill="#ffffff" fill-opacity="1"><g transform="translate(100.437567, 6.753704)"><g><path d="M 0.515625 0 L 0.515625 -3.5 L 1.125 -3.5 L 1.125 -3 C 1.21875 -3.15625 1.347656 -3.289062 1.515625 -3.40625 C 1.691406 -3.519531 1.914062 -3.578125 2.1875 -3.578125 C 2.3125 -3.578125 2.4375 -3.550781 2.5625 -3.5 C 2.695312 -3.457031 2.820312 -3.394531 2.9375 -3.3125 C 3.050781 -3.226562 3.132812 -3.125 3.1875 -3 C 3.300781 -3.175781 3.445312 -3.316406 3.625 -3.421875 C 3.8125 -3.523438 4.023438 -3.578125 4.265625 -3.578125 C 4.378906 -3.578125 4.503906 -3.554688 4.640625 -3.515625 C 4.773438 -3.484375 4.898438 -3.421875 5.015625 -3.328125 C 5.128906 -3.234375 5.222656 -3.101562 5.296875 -2.9375 C 5.367188 -2.769531 5.40625 -2.554688 5.40625 -2.296875 L 5.40625 0 L 4.78125 0 L 4.78125 -2.234375 C 4.78125 -2.441406 4.742188 -2.601562 4.671875 -2.71875 C 4.609375 -2.84375 4.519531 -2.925781 4.40625 -2.96875 C 4.289062 -3.019531 4.175781 -3.046875 4.0625 -3.046875 C 3.945312 -3.046875 3.828125 -3.019531 3.703125 -2.96875 C 3.585938 -2.925781 3.484375 -2.851562 3.390625 -2.75 C 3.304688 -2.65625 3.265625 -2.519531 3.265625 -2.34375 L 3.265625 0 L 2.640625 0 L 2.640625 -2.421875 C 2.640625 -2.554688 2.601562 -2.671875 2.53125 -2.765625 C 2.457031 -2.859375 2.363281 -2.925781 2.25 -2.96875 C 2.144531 -3.019531 2.039062 -3.046875 1.9375 -3.046875 C 1.8125 -3.046875 1.6875 -3.019531 1.5625 -2.96875 C 1.445312 -2.925781 1.347656 -2.851562 1.265625 -2.75 C 1.179688 -2.644531 1.140625 -2.507812 1.140625 -2.34375 L 1.140625 0 Z M 0.515625 0 "/></g></g></g><g fill="#ffffff" fill-opacity="1"><g transform="translate(107.733382, 6.753704)"><g><path d="M 0.96875 -1.609375 C 0.96875 -1.390625 1.003906 -1.1875 1.078125 -1 C 1.148438 -0.820312 1.257812 -0.679688 1.40625 -0.578125 C 1.5625 -0.472656 1.753906 -0.421875 1.984375 -0.421875 C 2.203125 -0.421875 2.390625 -0.472656 2.546875 -0.578125 C 2.710938 -0.679688 2.816406 -0.832031 2.859375 -1.03125 L 3.453125 -1.03125 C 3.410156 -0.789062 3.316406 -0.585938 3.171875 -0.421875 C 3.023438 -0.265625 2.847656 -0.144531 2.640625 -0.0625 C 2.429688 0.0195312 2.210938 0.0625 1.984375 0.0625 C 1.660156 0.0625 1.375 -0.00390625 1.125 -0.140625 C 0.875 -0.285156 0.675781 -0.488281 0.53125 -0.75 C 0.394531 -1.019531 0.328125 -1.34375 0.328125 -1.71875 C 0.328125 -2.082031 0.390625 -2.40625 0.515625 -2.6875 C 0.648438 -2.96875 0.835938 -3.1875 1.078125 -3.34375 C 1.316406 -3.5 1.601562 -3.578125 1.9375 -3.578125 C 2.269531 -3.578125 2.550781 -3.503906 2.78125 -3.359375 C 3.007812 -3.210938 3.179688 -3.007812 3.296875 -2.75 C 3.421875 -2.5 3.484375 -2.195312 3.484375 -1.84375 L 3.484375 -1.609375 Z M 0.96875 -2.03125 L 2.875 -2.03125 C 2.875 -2.226562 2.835938 -2.40625 2.765625 -2.5625 C 2.703125 -2.726562 2.597656 -2.859375 2.453125 -2.953125 C 2.316406 -3.046875 2.144531 -3.09375 1.9375 -3.09375 C 1.71875 -3.09375 1.535156 -3.039062 1.390625 -2.9375 C 1.253906 -2.832031 1.148438 -2.695312 1.078125 -2.53125 C 1.003906 -2.375 0.96875 -2.207031 0.96875 -2.03125 Z M 0.96875 -2.03125 "/></g></g></g><g fill="#ffffff" fill-opacity="1"><g transform="translate(112.983384, 6.753704)"><g><path d="M 0.515625 0 L 0.515625 -3.5 L 1.125 -3.5 L 1.125 -3 C 1.175781 -3.09375 1.253906 -3.179688 1.359375 -3.265625 C 1.460938 -3.359375 1.582031 -3.429688 1.71875 -3.484375 C 1.863281 -3.535156 2.03125 -3.5625 2.21875 -3.5625 C 2.445312 -3.5625 2.648438 -3.515625 2.828125 -3.421875 C 3.015625 -3.335938 3.164062 -3.203125 3.28125 -3.015625 C 3.394531 -2.828125 3.453125 -2.585938 3.453125 -2.296875 L 3.453125 0 L 2.828125 0 L 2.828125 -2.234375 C 2.828125 -2.503906 2.753906 -2.703125 2.609375 -2.828125 C 2.460938 -2.960938 2.273438 -3.03125 2.046875 -3.03125 C 1.890625 -3.03125 1.742188 -3.003906 1.609375 -2.953125 C 1.472656 -2.910156 1.359375 -2.835938 1.265625 -2.734375 C 1.179688 -2.628906 1.140625 -2.5 1.140625 -2.34375 L 1.140625 0 Z M 0.515625 0 "/></g></g></g><g fill="#ffffff" fill-opacity="1"><g transform="translate(118.114834, 6.753704)"><g><path d="M 2.34375 -3.046875 L 1.5625 -3.046875 L 1.5625 -0.875 C 1.5625 -0.75 1.570312 -0.65625 1.59375 -0.59375 C 1.625 -0.539062 1.671875 -0.503906 1.734375 -0.484375 C 1.796875 -0.472656 1.878906 -0.46875 1.984375 -0.46875 L 2.359375 -0.46875 L 2.359375 -0.046875 C 2.316406 -0.0234375 2.253906 -0.0078125 2.171875 0 C 2.085938 0.0078125 1.976562 0.015625 1.84375 0.015625 C 1.601562 0.015625 1.414062 -0.015625 1.28125 -0.078125 C 1.144531 -0.148438 1.050781 -0.25 1 -0.375 C 0.945312 -0.5 0.921875 -0.65625 0.921875 -0.84375 L 0.921875 -3.046875 L 0.359375 -3.046875 L 0.359375 -3.5 L 0.9375 -3.5 L 1.09375 -4.53125 L 1.5625 -4.53125 L 1.5625 -3.515625 L 2.34375 -3.515625 Z M 2.34375 -3.046875 "/></g></g></g></g></g></g></svg>